G04 #@! TF.GenerationSoftware,KiCad,Pcbnew,(5.1.4-0-10_14)*
G04 #@! TF.CreationDate,2019-11-13T23:07:46+01:00*
G04 #@! TF.ProjectId,audio-mixer,61756469-6f2d-46d6-9978-65722e6b6963,rev?*
G04 #@! TF.SameCoordinates,Original*
G04 #@! TF.FileFunction,Legend,Bot*
G04 #@! TF.FilePolarity,Positive*
%FSLAX46Y46*%
G04 Gerber Fmt 4.6, Leading zero omitted, Abs format (unit mm)*
G04 Created by KiCad (PCBNEW (5.1.4-0-10_14)) date 2019-11-13 23:07:46*
%MOMM*%
%LPD*%
G04 APERTURE LIST*
%ADD10C,0.150000*%
%ADD11C,0.120000*%
G04 APERTURE END LIST*
D10*
X131714285Y-93761904D02*
X130904761Y-93761904D01*
X130809523Y-93809523D01*
X130761904Y-93857142D01*
X130714285Y-93952380D01*
X130714285Y-94095238D01*
X130761904Y-94190476D01*
X131095238Y-93761904D02*
X131047619Y-93857142D01*
X131047619Y-94047619D01*
X131095238Y-94142857D01*
X131142857Y-94190476D01*
X131238095Y-94238095D01*
X131523809Y-94238095D01*
X131619047Y-94190476D01*
X131666666Y-94142857D01*
X131714285Y-94047619D01*
X131714285Y-93857142D01*
X131666666Y-93761904D01*
X131047619Y-93285714D02*
X131714285Y-93285714D01*
X132047619Y-93285714D02*
X132000000Y-93333333D01*
X131952380Y-93285714D01*
X132000000Y-93238095D01*
X132047619Y-93285714D01*
X131952380Y-93285714D01*
X131714285Y-92952380D02*
X131714285Y-92571428D01*
X132047619Y-92809523D02*
X131190476Y-92809523D01*
X131095238Y-92761904D01*
X131047619Y-92666666D01*
X131047619Y-92571428D01*
X131047619Y-92238095D02*
X132047619Y-92238095D01*
X131047619Y-91809523D02*
X131571428Y-91809523D01*
X131666666Y-91857142D01*
X131714285Y-91952380D01*
X131714285Y-92095238D01*
X131666666Y-92190476D01*
X131619047Y-92238095D01*
X131714285Y-90904761D02*
X131047619Y-90904761D01*
X131714285Y-91333333D02*
X131190476Y-91333333D01*
X131095238Y-91285714D01*
X131047619Y-91190476D01*
X131047619Y-91047619D01*
X131095238Y-90952380D01*
X131142857Y-90904761D01*
X131047619Y-90428571D02*
X132047619Y-90428571D01*
X131666666Y-90428571D02*
X131714285Y-90333333D01*
X131714285Y-90142857D01*
X131666666Y-90047619D01*
X131619047Y-90000000D01*
X131523809Y-89952380D01*
X131238095Y-89952380D01*
X131142857Y-90000000D01*
X131095238Y-90047619D01*
X131047619Y-90142857D01*
X131047619Y-90333333D01*
X131095238Y-90428571D01*
X131142857Y-89523809D02*
X131095238Y-89476190D01*
X131047619Y-89523809D01*
X131095238Y-89571428D01*
X131142857Y-89523809D01*
X131047619Y-89523809D01*
X131095238Y-88619047D02*
X131047619Y-88714285D01*
X131047619Y-88904761D01*
X131095238Y-89000000D01*
X131142857Y-89047619D01*
X131238095Y-89095238D01*
X131523809Y-89095238D01*
X131619047Y-89047619D01*
X131666666Y-89000000D01*
X131714285Y-88904761D01*
X131714285Y-88714285D01*
X131666666Y-88619047D01*
X131047619Y-88047619D02*
X131095238Y-88142857D01*
X131142857Y-88190476D01*
X131238095Y-88238095D01*
X131523809Y-88238095D01*
X131619047Y-88190476D01*
X131666666Y-88142857D01*
X131714285Y-88047619D01*
X131714285Y-87904761D01*
X131666666Y-87809523D01*
X131619047Y-87761904D01*
X131523809Y-87714285D01*
X131238095Y-87714285D01*
X131142857Y-87761904D01*
X131095238Y-87809523D01*
X131047619Y-87904761D01*
X131047619Y-88047619D01*
X131047619Y-87285714D02*
X131714285Y-87285714D01*
X131619047Y-87285714D02*
X131666666Y-87238095D01*
X131714285Y-87142857D01*
X131714285Y-87000000D01*
X131666666Y-86904761D01*
X131571428Y-86857142D01*
X131047619Y-86857142D01*
X131571428Y-86857142D02*
X131666666Y-86809523D01*
X131714285Y-86714285D01*
X131714285Y-86571428D01*
X131666666Y-86476190D01*
X131571428Y-86428571D01*
X131047619Y-86428571D01*
X132095238Y-85238095D02*
X130809523Y-86095238D01*
X131047619Y-85000000D02*
X131714285Y-84476190D01*
X131714285Y-85000000D02*
X131047619Y-84476190D01*
X131714285Y-84238095D02*
X131714285Y-83857142D01*
X131047619Y-84095238D02*
X131904761Y-84095238D01*
X132000000Y-84047619D01*
X132047619Y-83952380D01*
X132047619Y-83857142D01*
X131047619Y-83523809D02*
X132047619Y-83523809D01*
X131666666Y-83523809D02*
X131714285Y-83428571D01*
X131714285Y-83238095D01*
X131666666Y-83142857D01*
X131619047Y-83095238D01*
X131523809Y-83047619D01*
X131238095Y-83047619D01*
X131142857Y-83095238D01*
X131095238Y-83142857D01*
X131047619Y-83238095D01*
X131047619Y-83428571D01*
X131095238Y-83523809D01*
X131095238Y-82666666D02*
X131047619Y-82571428D01*
X131047619Y-82380952D01*
X131095238Y-82285714D01*
X131190476Y-82238095D01*
X131238095Y-82238095D01*
X131333333Y-82285714D01*
X131380952Y-82380952D01*
X131380952Y-82523809D01*
X131428571Y-82619047D01*
X131523809Y-82666666D01*
X131571428Y-82666666D01*
X131666666Y-82619047D01*
X131714285Y-82523809D01*
X131714285Y-82380952D01*
X131666666Y-82285714D01*
X132095238Y-81095238D02*
X130809523Y-81952380D01*
X131047619Y-80333333D02*
X131571428Y-80333333D01*
X131666666Y-80380952D01*
X131714285Y-80476190D01*
X131714285Y-80666666D01*
X131666666Y-80761904D01*
X131095238Y-80333333D02*
X131047619Y-80428571D01*
X131047619Y-80666666D01*
X131095238Y-80761904D01*
X131190476Y-80809523D01*
X131285714Y-80809523D01*
X131380952Y-80761904D01*
X131428571Y-80666666D01*
X131428571Y-80428571D01*
X131476190Y-80333333D01*
X131714285Y-79428571D02*
X131047619Y-79428571D01*
X131714285Y-79857142D02*
X131190476Y-79857142D01*
X131095238Y-79809523D01*
X131047619Y-79714285D01*
X131047619Y-79571428D01*
X131095238Y-79476190D01*
X131142857Y-79428571D01*
X131047619Y-78523809D02*
X132047619Y-78523809D01*
X131095238Y-78523809D02*
X131047619Y-78619047D01*
X131047619Y-78809523D01*
X131095238Y-78904761D01*
X131142857Y-78952380D01*
X131238095Y-79000000D01*
X131523809Y-79000000D01*
X131619047Y-78952380D01*
X131666666Y-78904761D01*
X131714285Y-78809523D01*
X131714285Y-78619047D01*
X131666666Y-78523809D01*
X131047619Y-78047619D02*
X131714285Y-78047619D01*
X132047619Y-78047619D02*
X132000000Y-78095238D01*
X131952380Y-78047619D01*
X132000000Y-78000000D01*
X132047619Y-78047619D01*
X131952380Y-78047619D01*
X131047619Y-77428571D02*
X131095238Y-77523809D01*
X131142857Y-77571428D01*
X131238095Y-77619047D01*
X131523809Y-77619047D01*
X131619047Y-77571428D01*
X131666666Y-77523809D01*
X131714285Y-77428571D01*
X131714285Y-77285714D01*
X131666666Y-77190476D01*
X131619047Y-77142857D01*
X131523809Y-77095238D01*
X131238095Y-77095238D01*
X131142857Y-77142857D01*
X131095238Y-77190476D01*
X131047619Y-77285714D01*
X131047619Y-77428571D01*
X131428571Y-76666666D02*
X131428571Y-75904761D01*
X131047619Y-75428571D02*
X131714285Y-75428571D01*
X131619047Y-75428571D02*
X131666666Y-75380952D01*
X131714285Y-75285714D01*
X131714285Y-75142857D01*
X131666666Y-75047619D01*
X131571428Y-75000000D01*
X131047619Y-75000000D01*
X131571428Y-75000000D02*
X131666666Y-74952380D01*
X131714285Y-74857142D01*
X131714285Y-74714285D01*
X131666666Y-74619047D01*
X131571428Y-74571428D01*
X131047619Y-74571428D01*
X131047619Y-74095238D02*
X131714285Y-74095238D01*
X132047619Y-74095238D02*
X132000000Y-74142857D01*
X131952380Y-74095238D01*
X132000000Y-74047619D01*
X132047619Y-74095238D01*
X131952380Y-74095238D01*
X131047619Y-73714285D02*
X131714285Y-73190476D01*
X131714285Y-73714285D02*
X131047619Y-73190476D01*
X131095238Y-72428571D02*
X131047619Y-72523809D01*
X131047619Y-72714285D01*
X131095238Y-72809523D01*
X131190476Y-72857142D01*
X131571428Y-72857142D01*
X131666666Y-72809523D01*
X131714285Y-72714285D01*
X131714285Y-72523809D01*
X131666666Y-72428571D01*
X131571428Y-72380952D01*
X131476190Y-72380952D01*
X131380952Y-72857142D01*
X131047619Y-71952380D02*
X131714285Y-71952380D01*
X131523809Y-71952380D02*
X131619047Y-71904761D01*
X131666666Y-71857142D01*
X131714285Y-71761904D01*
X131714285Y-71666666D01*
D11*
X118500000Y-48500000D02*
X118500000Y-47500000D01*
X121500000Y-48500000D02*
X118500000Y-48500000D01*
X121500000Y-47500000D02*
X121500000Y-48500000D01*
X127000000Y-47500000D02*
X121500000Y-47500000D01*
X121500000Y-35500000D02*
X127000000Y-35500000D01*
X121500000Y-34500000D02*
X121500000Y-35500000D01*
X118500000Y-34500000D02*
X121500000Y-34500000D01*
X118500000Y-35500000D02*
X118500000Y-34500000D01*
X124000000Y-41500000D02*
G75*
G03X124000000Y-41500000I-4000000J0D01*
G01*
X108000000Y-47500000D02*
X118500000Y-47500000D01*
X108000000Y-35500000D02*
X108000000Y-47500000D01*
X118500000Y-35500000D02*
X108000000Y-35500000D01*
X127000000Y-47500000D02*
X127000000Y-35500000D01*
X118500000Y-112000000D02*
X118500000Y-111000000D01*
X121500000Y-112000000D02*
X118500000Y-112000000D01*
X121500000Y-111000000D02*
X121500000Y-112000000D01*
X127000000Y-111000000D02*
X121500000Y-111000000D01*
X121500000Y-99000000D02*
X127000000Y-99000000D01*
X121500000Y-98000000D02*
X121500000Y-99000000D01*
X118500000Y-98000000D02*
X121500000Y-98000000D01*
X118500000Y-99000000D02*
X118500000Y-98000000D01*
X124000000Y-105000000D02*
G75*
G03X124000000Y-105000000I-4000000J0D01*
G01*
X108000000Y-111000000D02*
X118500000Y-111000000D01*
X108000000Y-99000000D02*
X108000000Y-111000000D01*
X118500000Y-99000000D02*
X108000000Y-99000000D01*
X127000000Y-111000000D02*
X127000000Y-99000000D01*
X118500000Y-96500000D02*
X118500000Y-95500000D01*
X121500000Y-96500000D02*
X118500000Y-96500000D01*
X121500000Y-95500000D02*
X121500000Y-96500000D01*
X127000000Y-95500000D02*
X121500000Y-95500000D01*
X121500000Y-83500000D02*
X127000000Y-83500000D01*
X121500000Y-82500000D02*
X121500000Y-83500000D01*
X118500000Y-82500000D02*
X121500000Y-82500000D01*
X118500000Y-83500000D02*
X118500000Y-82500000D01*
X124000000Y-89500000D02*
G75*
G03X124000000Y-89500000I-4000000J0D01*
G01*
X108000000Y-95500000D02*
X118500000Y-95500000D01*
X108000000Y-83500000D02*
X108000000Y-95500000D01*
X118500000Y-83500000D02*
X108000000Y-83500000D01*
X127000000Y-95500000D02*
X127000000Y-83500000D01*
X118500000Y-79500000D02*
X118500000Y-78500000D01*
X121500000Y-79500000D02*
X118500000Y-79500000D01*
X121500000Y-78500000D02*
X121500000Y-79500000D01*
X127000000Y-78500000D02*
X121500000Y-78500000D01*
X121500000Y-66500000D02*
X127000000Y-66500000D01*
X121500000Y-65500000D02*
X121500000Y-66500000D01*
X118500000Y-65500000D02*
X121500000Y-65500000D01*
X118500000Y-66500000D02*
X118500000Y-65500000D01*
X124000000Y-72500000D02*
G75*
G03X124000000Y-72500000I-4000000J0D01*
G01*
X108000000Y-78500000D02*
X118500000Y-78500000D01*
X108000000Y-66500000D02*
X108000000Y-78500000D01*
X118500000Y-66500000D02*
X108000000Y-66500000D01*
X127000000Y-78500000D02*
X127000000Y-66500000D01*
X118500000Y-64000000D02*
X118500000Y-63000000D01*
X121500000Y-64000000D02*
X118500000Y-64000000D01*
X121500000Y-63000000D02*
X121500000Y-64000000D01*
X127000000Y-63000000D02*
X121500000Y-63000000D01*
X121500000Y-51000000D02*
X127000000Y-51000000D01*
X121500000Y-50000000D02*
X121500000Y-51000000D01*
X118500000Y-50000000D02*
X121500000Y-50000000D01*
X118500000Y-51000000D02*
X118500000Y-50000000D01*
X124000000Y-57000000D02*
G75*
G03X124000000Y-57000000I-4000000J0D01*
G01*
X108000000Y-63000000D02*
X118500000Y-63000000D01*
X108000000Y-51000000D02*
X108000000Y-63000000D01*
X118500000Y-51000000D02*
X108000000Y-51000000D01*
X127000000Y-63000000D02*
X127000000Y-51000000D01*
X118500000Y-33000000D02*
X118500000Y-32000000D01*
X121500000Y-33000000D02*
X118500000Y-33000000D01*
X121500000Y-32000000D02*
X121500000Y-33000000D01*
X127000000Y-32000000D02*
X121500000Y-32000000D01*
X121500000Y-20000000D02*
X127000000Y-20000000D01*
X121500000Y-19000000D02*
X121500000Y-20000000D01*
X118500000Y-19000000D02*
X121500000Y-19000000D01*
X118500000Y-20000000D02*
X118500000Y-19000000D01*
X124000000Y-26000000D02*
G75*
G03X124000000Y-26000000I-4000000J0D01*
G01*
X108000000Y-32000000D02*
X118500000Y-32000000D01*
X108000000Y-20000000D02*
X108000000Y-32000000D01*
X118500000Y-20000000D02*
X108000000Y-20000000D01*
X127000000Y-32000000D02*
X127000000Y-20000000D01*
D10*
X107452380Y-40904761D02*
X106976190Y-40571428D01*
X107452380Y-40333333D02*
X106452380Y-40333333D01*
X106452380Y-40714285D01*
X106500000Y-40809523D01*
X106547619Y-40857142D01*
X106642857Y-40904761D01*
X106785714Y-40904761D01*
X106880952Y-40857142D01*
X106928571Y-40809523D01*
X106976190Y-40714285D01*
X106976190Y-40333333D01*
X106452380Y-41190476D02*
X107452380Y-41523809D01*
X106452380Y-41857142D01*
X106547619Y-42142857D02*
X106500000Y-42190476D01*
X106452380Y-42285714D01*
X106452380Y-42523809D01*
X106500000Y-42619047D01*
X106547619Y-42666666D01*
X106642857Y-42714285D01*
X106738095Y-42714285D01*
X106880952Y-42666666D01*
X107452380Y-42095238D01*
X107452380Y-42714285D01*
X107452380Y-104404761D02*
X106976190Y-104071428D01*
X107452380Y-103833333D02*
X106452380Y-103833333D01*
X106452380Y-104214285D01*
X106500000Y-104309523D01*
X106547619Y-104357142D01*
X106642857Y-104404761D01*
X106785714Y-104404761D01*
X106880952Y-104357142D01*
X106928571Y-104309523D01*
X106976190Y-104214285D01*
X106976190Y-103833333D01*
X106452380Y-104690476D02*
X107452380Y-105023809D01*
X106452380Y-105357142D01*
X106452380Y-106119047D02*
X106452380Y-105928571D01*
X106500000Y-105833333D01*
X106547619Y-105785714D01*
X106690476Y-105690476D01*
X106880952Y-105642857D01*
X107261904Y-105642857D01*
X107357142Y-105690476D01*
X107404761Y-105738095D01*
X107452380Y-105833333D01*
X107452380Y-106023809D01*
X107404761Y-106119047D01*
X107357142Y-106166666D01*
X107261904Y-106214285D01*
X107023809Y-106214285D01*
X106928571Y-106166666D01*
X106880952Y-106119047D01*
X106833333Y-106023809D01*
X106833333Y-105833333D01*
X106880952Y-105738095D01*
X106928571Y-105690476D01*
X107023809Y-105642857D01*
X107452380Y-88904761D02*
X106976190Y-88571428D01*
X107452380Y-88333333D02*
X106452380Y-88333333D01*
X106452380Y-88714285D01*
X106500000Y-88809523D01*
X106547619Y-88857142D01*
X106642857Y-88904761D01*
X106785714Y-88904761D01*
X106880952Y-88857142D01*
X106928571Y-88809523D01*
X106976190Y-88714285D01*
X106976190Y-88333333D01*
X106452380Y-89190476D02*
X107452380Y-89523809D01*
X106452380Y-89857142D01*
X106452380Y-90666666D02*
X106452380Y-90190476D01*
X106928571Y-90142857D01*
X106880952Y-90190476D01*
X106833333Y-90285714D01*
X106833333Y-90523809D01*
X106880952Y-90619047D01*
X106928571Y-90666666D01*
X107023809Y-90714285D01*
X107261904Y-90714285D01*
X107357142Y-90666666D01*
X107404761Y-90619047D01*
X107452380Y-90523809D01*
X107452380Y-90285714D01*
X107404761Y-90190476D01*
X107357142Y-90142857D01*
X107452380Y-71904761D02*
X106976190Y-71571428D01*
X107452380Y-71333333D02*
X106452380Y-71333333D01*
X106452380Y-71714285D01*
X106500000Y-71809523D01*
X106547619Y-71857142D01*
X106642857Y-71904761D01*
X106785714Y-71904761D01*
X106880952Y-71857142D01*
X106928571Y-71809523D01*
X106976190Y-71714285D01*
X106976190Y-71333333D01*
X106452380Y-72190476D02*
X107452380Y-72523809D01*
X106452380Y-72857142D01*
X106785714Y-73619047D02*
X107452380Y-73619047D01*
X106404761Y-73380952D02*
X107119047Y-73142857D01*
X107119047Y-73761904D01*
X107452380Y-56404761D02*
X106976190Y-56071428D01*
X107452380Y-55833333D02*
X106452380Y-55833333D01*
X106452380Y-56214285D01*
X106500000Y-56309523D01*
X106547619Y-56357142D01*
X106642857Y-56404761D01*
X106785714Y-56404761D01*
X106880952Y-56357142D01*
X106928571Y-56309523D01*
X106976190Y-56214285D01*
X106976190Y-55833333D01*
X106452380Y-56690476D02*
X107452380Y-57023809D01*
X106452380Y-57357142D01*
X106452380Y-57595238D02*
X106452380Y-58214285D01*
X106833333Y-57880952D01*
X106833333Y-58023809D01*
X106880952Y-58119047D01*
X106928571Y-58166666D01*
X107023809Y-58214285D01*
X107261904Y-58214285D01*
X107357142Y-58166666D01*
X107404761Y-58119047D01*
X107452380Y-58023809D01*
X107452380Y-57738095D01*
X107404761Y-57642857D01*
X107357142Y-57595238D01*
X127547619Y-26595238D02*
X128023809Y-26928571D01*
X127547619Y-27166666D02*
X128547619Y-27166666D01*
X128547619Y-26785714D01*
X128500000Y-26690476D01*
X128452380Y-26642857D01*
X128357142Y-26595238D01*
X128214285Y-26595238D01*
X128119047Y-26642857D01*
X128071428Y-26690476D01*
X128023809Y-26785714D01*
X128023809Y-27166666D01*
X128547619Y-26309523D02*
X127547619Y-25976190D01*
X128547619Y-25642857D01*
X127547619Y-24785714D02*
X127547619Y-25357142D01*
X127547619Y-25071428D02*
X128547619Y-25071428D01*
X128404761Y-25166666D01*
X128309523Y-25261904D01*
X128261904Y-25357142D01*
M02*
