G04 #@! TF.GenerationSoftware,KiCad,Pcbnew,(5.1.4-0-10_14)*
G04 #@! TF.CreationDate,2019-11-13T23:07:47+01:00*
G04 #@! TF.ProjectId,audio-mixer,61756469-6f2d-46d6-9978-65722e6b6963,rev?*
G04 #@! TF.SameCoordinates,Original*
G04 #@! TF.FileFunction,Soldermask,Bot*
G04 #@! TF.FilePolarity,Negative*
%FSLAX46Y46*%
G04 Gerber Fmt 4.6, Leading zero omitted, Abs format (unit mm)*
G04 Created by KiCad (PCBNEW (5.1.4-0-10_14)) date 2019-11-13 23:07:47*
%MOMM*%
%LPD*%
G04 APERTURE LIST*
%ADD10C,0.002000*%
%ADD11C,0.100000*%
G04 APERTURE END LIST*
D10*
G36*
X90973000Y-48650000D02*
G01*
X90997000Y-48955000D01*
X91069000Y-49253000D01*
X91186000Y-49536000D01*
X91346000Y-49797000D01*
X91545000Y-50030000D01*
X91778000Y-50229000D01*
X92039000Y-50389000D01*
X92322000Y-50506000D01*
X92620000Y-50578000D01*
X92925000Y-50602000D01*
X93230000Y-50578000D01*
X93528000Y-50506000D01*
X93811000Y-50389000D01*
X94072000Y-50229000D01*
X94305000Y-50030000D01*
X94504000Y-49797000D01*
X94664000Y-49536000D01*
X94781000Y-49253000D01*
X94853000Y-48955000D01*
X94877000Y-48650000D01*
X94877000Y-45350000D01*
X94853000Y-45045000D01*
X94781000Y-44747000D01*
X94664000Y-44464000D01*
X94504000Y-44203000D01*
X94305000Y-43970000D01*
X94072000Y-43771000D01*
X93811000Y-43611000D01*
X93528000Y-43494000D01*
X93230000Y-43422000D01*
X92925000Y-43398000D01*
X92620000Y-43422000D01*
X92322000Y-43494000D01*
X92039000Y-43611000D01*
X91778000Y-43771000D01*
X91545000Y-43970000D01*
X91346000Y-44203000D01*
X91186000Y-44464000D01*
X91069000Y-44747000D01*
X90997000Y-45045000D01*
X90973000Y-45350000D01*
X90973000Y-48650000D01*
G37*
X90973000Y-48650000D02*
X90997000Y-48955000D01*
X91069000Y-49253000D01*
X91186000Y-49536000D01*
X91346000Y-49797000D01*
X91545000Y-50030000D01*
X91778000Y-50229000D01*
X92039000Y-50389000D01*
X92322000Y-50506000D01*
X92620000Y-50578000D01*
X92925000Y-50602000D01*
X93230000Y-50578000D01*
X93528000Y-50506000D01*
X93811000Y-50389000D01*
X94072000Y-50229000D01*
X94305000Y-50030000D01*
X94504000Y-49797000D01*
X94664000Y-49536000D01*
X94781000Y-49253000D01*
X94853000Y-48955000D01*
X94877000Y-48650000D01*
X94877000Y-45350000D01*
X94853000Y-45045000D01*
X94781000Y-44747000D01*
X94664000Y-44464000D01*
X94504000Y-44203000D01*
X94305000Y-43970000D01*
X94072000Y-43771000D01*
X93811000Y-43611000D01*
X93528000Y-43494000D01*
X93230000Y-43422000D01*
X92925000Y-43398000D01*
X92620000Y-43422000D01*
X92322000Y-43494000D01*
X92039000Y-43611000D01*
X91778000Y-43771000D01*
X91545000Y-43970000D01*
X91346000Y-44203000D01*
X91186000Y-44464000D01*
X91069000Y-44747000D01*
X90997000Y-45045000D01*
X90973000Y-45350000D01*
X90973000Y-48650000D01*
G36*
X92275000Y-18548000D02*
G01*
X92071000Y-18564000D01*
X91873000Y-18612000D01*
X91684000Y-18690000D01*
X91510000Y-18797000D01*
X91355000Y-18930000D01*
X91222000Y-19085000D01*
X91115000Y-19259000D01*
X91037000Y-19448000D01*
X90989000Y-19646000D01*
X90973000Y-19850000D01*
X90989000Y-20054000D01*
X91037000Y-20252000D01*
X91115000Y-20441000D01*
X91222000Y-20615000D01*
X91355000Y-20770000D01*
X91510000Y-20903000D01*
X91684000Y-21010000D01*
X91873000Y-21088000D01*
X92071000Y-21136000D01*
X92275000Y-21152000D01*
X93575000Y-21152000D01*
X93779000Y-21136000D01*
X93977000Y-21088000D01*
X94166000Y-21010000D01*
X94340000Y-20903000D01*
X94495000Y-20770000D01*
X94628000Y-20615000D01*
X94735000Y-20441000D01*
X94813000Y-20252000D01*
X94861000Y-20054000D01*
X94877000Y-19850000D01*
X94861000Y-19646000D01*
X94813000Y-19448000D01*
X94735000Y-19259000D01*
X94628000Y-19085000D01*
X94495000Y-18930000D01*
X94340000Y-18797000D01*
X94166000Y-18690000D01*
X93977000Y-18612000D01*
X93779000Y-18564000D01*
X93575000Y-18548000D01*
X92275000Y-18548000D01*
G37*
X92275000Y-18548000D02*
X92071000Y-18564000D01*
X91873000Y-18612000D01*
X91684000Y-18690000D01*
X91510000Y-18797000D01*
X91355000Y-18930000D01*
X91222000Y-19085000D01*
X91115000Y-19259000D01*
X91037000Y-19448000D01*
X90989000Y-19646000D01*
X90973000Y-19850000D01*
X90989000Y-20054000D01*
X91037000Y-20252000D01*
X91115000Y-20441000D01*
X91222000Y-20615000D01*
X91355000Y-20770000D01*
X91510000Y-20903000D01*
X91684000Y-21010000D01*
X91873000Y-21088000D01*
X92071000Y-21136000D01*
X92275000Y-21152000D01*
X93575000Y-21152000D01*
X93779000Y-21136000D01*
X93977000Y-21088000D01*
X94166000Y-21010000D01*
X94340000Y-20903000D01*
X94495000Y-20770000D01*
X94628000Y-20615000D01*
X94735000Y-20441000D01*
X94813000Y-20252000D01*
X94861000Y-20054000D01*
X94877000Y-19850000D01*
X94861000Y-19646000D01*
X94813000Y-19448000D01*
X94735000Y-19259000D01*
X94628000Y-19085000D01*
X94495000Y-18930000D01*
X94340000Y-18797000D01*
X94166000Y-18690000D01*
X93977000Y-18612000D01*
X93779000Y-18564000D01*
X93575000Y-18548000D01*
X92275000Y-18548000D01*
G36*
X92275000Y-72848000D02*
G01*
X92071000Y-72864000D01*
X91873000Y-72912000D01*
X91684000Y-72990000D01*
X91510000Y-73097000D01*
X91355000Y-73230000D01*
X91222000Y-73385000D01*
X91115000Y-73559000D01*
X91037000Y-73748000D01*
X90989000Y-73946000D01*
X90973000Y-74150000D01*
X90989000Y-74354000D01*
X91037000Y-74552000D01*
X91115000Y-74741000D01*
X91222000Y-74915000D01*
X91355000Y-75070000D01*
X91510000Y-75203000D01*
X91684000Y-75310000D01*
X91873000Y-75388000D01*
X92071000Y-75436000D01*
X92275000Y-75452000D01*
X93575000Y-75452000D01*
X93779000Y-75436000D01*
X93977000Y-75388000D01*
X94166000Y-75310000D01*
X94340000Y-75203000D01*
X94495000Y-75070000D01*
X94628000Y-74915000D01*
X94735000Y-74741000D01*
X94813000Y-74552000D01*
X94861000Y-74354000D01*
X94877000Y-74150000D01*
X94861000Y-73946000D01*
X94813000Y-73748000D01*
X94735000Y-73559000D01*
X94628000Y-73385000D01*
X94495000Y-73230000D01*
X94340000Y-73097000D01*
X94166000Y-72990000D01*
X93977000Y-72912000D01*
X93779000Y-72864000D01*
X93575000Y-72848000D01*
X92275000Y-72848000D01*
G37*
X92275000Y-72848000D02*
X92071000Y-72864000D01*
X91873000Y-72912000D01*
X91684000Y-72990000D01*
X91510000Y-73097000D01*
X91355000Y-73230000D01*
X91222000Y-73385000D01*
X91115000Y-73559000D01*
X91037000Y-73748000D01*
X90989000Y-73946000D01*
X90973000Y-74150000D01*
X90989000Y-74354000D01*
X91037000Y-74552000D01*
X91115000Y-74741000D01*
X91222000Y-74915000D01*
X91355000Y-75070000D01*
X91510000Y-75203000D01*
X91684000Y-75310000D01*
X91873000Y-75388000D01*
X92071000Y-75436000D01*
X92275000Y-75452000D01*
X93575000Y-75452000D01*
X93779000Y-75436000D01*
X93977000Y-75388000D01*
X94166000Y-75310000D01*
X94340000Y-75203000D01*
X94495000Y-75070000D01*
X94628000Y-74915000D01*
X94735000Y-74741000D01*
X94813000Y-74552000D01*
X94861000Y-74354000D01*
X94877000Y-74150000D01*
X94861000Y-73946000D01*
X94813000Y-73748000D01*
X94735000Y-73559000D01*
X94628000Y-73385000D01*
X94495000Y-73230000D01*
X94340000Y-73097000D01*
X94166000Y-72990000D01*
X93977000Y-72912000D01*
X93779000Y-72864000D01*
X93575000Y-72848000D01*
X92275000Y-72848000D01*
D11*
G36*
X105898212Y-114056249D02*
G01*
X105992651Y-114084897D01*
X106079687Y-114131418D01*
X106155975Y-114194025D01*
X106218582Y-114270313D01*
X106265103Y-114357348D01*
X106293751Y-114451787D01*
X106301000Y-114525388D01*
X106301000Y-115474612D01*
X106293751Y-115548213D01*
X106265103Y-115642652D01*
X106218582Y-115729687D01*
X106155975Y-115805975D01*
X106079687Y-115868582D01*
X105992652Y-115915103D01*
X105898213Y-115943751D01*
X105800000Y-115953424D01*
X105701788Y-115943751D01*
X105607349Y-115915103D01*
X105520314Y-115868582D01*
X105444026Y-115805975D01*
X105381419Y-115729687D01*
X105334898Y-115642652D01*
X105306250Y-115548213D01*
X105299001Y-115474612D01*
X105299001Y-115474610D01*
X105299000Y-115474600D01*
X105299000Y-114525389D01*
X105306249Y-114451788D01*
X105334897Y-114357349D01*
X105381418Y-114270313D01*
X105444025Y-114194025D01*
X105520313Y-114131418D01*
X105607348Y-114084897D01*
X105701787Y-114056249D01*
X105800000Y-114046576D01*
X105898212Y-114056249D01*
X105898212Y-114056249D01*
G37*
G36*
X99298212Y-114056249D02*
G01*
X99392651Y-114084897D01*
X99479687Y-114131418D01*
X99555975Y-114194025D01*
X99618582Y-114270313D01*
X99665103Y-114357348D01*
X99693751Y-114451787D01*
X99701000Y-114525388D01*
X99701000Y-115474612D01*
X99693751Y-115548213D01*
X99665103Y-115642652D01*
X99618582Y-115729687D01*
X99555975Y-115805975D01*
X99479687Y-115868582D01*
X99392652Y-115915103D01*
X99298213Y-115943751D01*
X99200000Y-115953424D01*
X99101788Y-115943751D01*
X99007349Y-115915103D01*
X98920314Y-115868582D01*
X98844026Y-115805975D01*
X98781419Y-115729687D01*
X98734898Y-115642652D01*
X98706250Y-115548213D01*
X98699001Y-115474612D01*
X98699001Y-115474610D01*
X98699000Y-115474600D01*
X98699000Y-114525389D01*
X98706249Y-114451788D01*
X98734897Y-114357349D01*
X98781418Y-114270313D01*
X98844025Y-114194025D01*
X98920313Y-114131418D01*
X99007348Y-114084897D01*
X99101787Y-114056249D01*
X99200000Y-114046576D01*
X99298212Y-114056249D01*
X99298212Y-114056249D01*
G37*
G36*
X93301000Y-113451000D02*
G01*
X90699000Y-113451000D01*
X90699000Y-111549000D01*
X93301000Y-111549000D01*
X93301000Y-113451000D01*
X93301000Y-113451000D01*
G37*
G36*
X84689890Y-111874017D02*
G01*
X84808364Y-111923091D01*
X84914988Y-111994335D01*
X85005665Y-112085012D01*
X85076909Y-112191636D01*
X85125983Y-112310110D01*
X85151000Y-112435882D01*
X85151000Y-112564118D01*
X85125983Y-112689890D01*
X85076909Y-112808364D01*
X85005665Y-112914988D01*
X84914988Y-113005665D01*
X84808364Y-113076909D01*
X84808363Y-113076910D01*
X84808362Y-113076910D01*
X84689890Y-113125983D01*
X84564119Y-113151000D01*
X84435881Y-113151000D01*
X84310110Y-113125983D01*
X84191638Y-113076910D01*
X84191637Y-113076910D01*
X84191636Y-113076909D01*
X84085012Y-113005665D01*
X83994335Y-112914988D01*
X83923091Y-112808364D01*
X83874017Y-112689890D01*
X83849000Y-112564118D01*
X83849000Y-112435882D01*
X83874017Y-112310110D01*
X83923091Y-112191636D01*
X83994335Y-112085012D01*
X84085012Y-111994335D01*
X84191636Y-111923091D01*
X84310110Y-111874017D01*
X84435881Y-111849000D01*
X84564119Y-111849000D01*
X84689890Y-111874017D01*
X84689890Y-111874017D01*
G37*
G36*
X87189890Y-111874017D02*
G01*
X87308364Y-111923091D01*
X87414988Y-111994335D01*
X87505665Y-112085012D01*
X87576909Y-112191636D01*
X87625983Y-112310110D01*
X87651000Y-112435882D01*
X87651000Y-112564118D01*
X87625983Y-112689890D01*
X87576909Y-112808364D01*
X87505665Y-112914988D01*
X87414988Y-113005665D01*
X87308364Y-113076909D01*
X87308363Y-113076910D01*
X87308362Y-113076910D01*
X87189890Y-113125983D01*
X87064119Y-113151000D01*
X86935881Y-113151000D01*
X86810110Y-113125983D01*
X86691638Y-113076910D01*
X86691637Y-113076910D01*
X86691636Y-113076909D01*
X86585012Y-113005665D01*
X86494335Y-112914988D01*
X86423091Y-112808364D01*
X86374017Y-112689890D01*
X86349000Y-112564118D01*
X86349000Y-112435882D01*
X86374017Y-112310110D01*
X86423091Y-112191636D01*
X86494335Y-112085012D01*
X86585012Y-111994335D01*
X86691636Y-111923091D01*
X86810110Y-111874017D01*
X86935881Y-111849000D01*
X87064119Y-111849000D01*
X87189890Y-111874017D01*
X87189890Y-111874017D01*
G37*
G36*
X121032021Y-110256011D02*
G01*
X121094571Y-110274985D01*
X121152212Y-110305795D01*
X121202738Y-110347262D01*
X121244205Y-110397788D01*
X121275015Y-110455429D01*
X121293989Y-110517979D01*
X121301000Y-110589164D01*
X121301000Y-111410836D01*
X121293989Y-111482021D01*
X121275015Y-111544571D01*
X121244205Y-111602212D01*
X121202738Y-111652738D01*
X121152212Y-111694205D01*
X121094571Y-111725015D01*
X121032021Y-111743989D01*
X120960836Y-111751000D01*
X119039164Y-111751000D01*
X118967979Y-111743989D01*
X118905429Y-111725015D01*
X118847788Y-111694205D01*
X118797262Y-111652738D01*
X118755795Y-111602212D01*
X118724985Y-111544571D01*
X118706011Y-111482021D01*
X118699000Y-111410836D01*
X118699000Y-110589164D01*
X118706011Y-110517979D01*
X118724985Y-110455429D01*
X118755795Y-110397788D01*
X118797262Y-110347262D01*
X118847788Y-110305795D01*
X118905429Y-110274985D01*
X118967979Y-110256011D01*
X119039164Y-110249000D01*
X120960836Y-110249000D01*
X121032021Y-110256011D01*
X121032021Y-110256011D01*
G37*
G36*
X129733642Y-109929781D02*
G01*
X129879414Y-109990162D01*
X129879416Y-109990163D01*
X130010608Y-110077822D01*
X130122178Y-110189392D01*
X130199955Y-110305795D01*
X130209838Y-110320586D01*
X130270219Y-110466358D01*
X130301000Y-110621107D01*
X130301000Y-110778893D01*
X130270219Y-110933642D01*
X130209838Y-111079414D01*
X130209837Y-111079416D01*
X130122178Y-111210608D01*
X130010608Y-111322178D01*
X129879416Y-111409837D01*
X129879415Y-111409838D01*
X129879414Y-111409838D01*
X129733642Y-111470219D01*
X129578893Y-111501000D01*
X129421107Y-111501000D01*
X129266358Y-111470219D01*
X129120586Y-111409838D01*
X129120585Y-111409838D01*
X129120584Y-111409837D01*
X128989392Y-111322178D01*
X128877822Y-111210608D01*
X128790163Y-111079416D01*
X128790162Y-111079414D01*
X128729781Y-110933642D01*
X128699000Y-110778893D01*
X128699000Y-110621107D01*
X128729781Y-110466358D01*
X128790162Y-110320586D01*
X128800045Y-110305795D01*
X128877822Y-110189392D01*
X128989392Y-110077822D01*
X129120584Y-109990163D01*
X129120586Y-109990162D01*
X129266358Y-109929781D01*
X129421107Y-109899000D01*
X129578893Y-109899000D01*
X129733642Y-109929781D01*
X129733642Y-109929781D01*
G37*
G36*
X109608015Y-109456973D02*
G01*
X109711879Y-109488479D01*
X109739055Y-109503005D01*
X109807600Y-109539643D01*
X109891501Y-109608499D01*
X109960357Y-109692400D01*
X109996995Y-109760945D01*
X110011521Y-109788121D01*
X110043027Y-109891985D01*
X110053666Y-110000000D01*
X110043027Y-110108015D01*
X110011521Y-110211879D01*
X110011519Y-110211882D01*
X109960357Y-110307600D01*
X109891501Y-110391501D01*
X109807600Y-110460357D01*
X109739055Y-110496995D01*
X109711879Y-110511521D01*
X109608015Y-110543027D01*
X109527067Y-110551000D01*
X108472933Y-110551000D01*
X108391985Y-110543027D01*
X108288121Y-110511521D01*
X108260945Y-110496995D01*
X108192400Y-110460357D01*
X108108499Y-110391501D01*
X108039643Y-110307600D01*
X107988481Y-110211882D01*
X107988479Y-110211879D01*
X107956973Y-110108015D01*
X107946334Y-110000000D01*
X107956973Y-109891985D01*
X107988479Y-109788121D01*
X108003005Y-109760945D01*
X108039643Y-109692400D01*
X108108499Y-109608499D01*
X108192400Y-109539643D01*
X108260945Y-109503005D01*
X108288121Y-109488479D01*
X108391985Y-109456973D01*
X108472933Y-109449000D01*
X109527067Y-109449000D01*
X109608015Y-109456973D01*
X109608015Y-109456973D01*
G37*
G36*
X129733642Y-107389781D02*
G01*
X129879414Y-107450162D01*
X129879416Y-107450163D01*
X130010608Y-107537822D01*
X130122178Y-107649392D01*
X130209837Y-107780584D01*
X130209838Y-107780586D01*
X130270219Y-107926358D01*
X130301000Y-108081107D01*
X130301000Y-108238893D01*
X130270219Y-108393642D01*
X130209838Y-108539414D01*
X130209837Y-108539416D01*
X130122178Y-108670608D01*
X130010608Y-108782178D01*
X129879416Y-108869837D01*
X129879415Y-108869838D01*
X129879414Y-108869838D01*
X129733642Y-108930219D01*
X129578893Y-108961000D01*
X129421107Y-108961000D01*
X129266358Y-108930219D01*
X129120586Y-108869838D01*
X129120585Y-108869838D01*
X129120584Y-108869837D01*
X128989392Y-108782178D01*
X128877822Y-108670608D01*
X128790163Y-108539416D01*
X128790162Y-108539414D01*
X128729781Y-108393642D01*
X128699000Y-108238893D01*
X128699000Y-108081107D01*
X128729781Y-107926358D01*
X128790162Y-107780586D01*
X128790163Y-107780584D01*
X128877822Y-107649392D01*
X128989392Y-107537822D01*
X129120584Y-107450163D01*
X129120586Y-107450162D01*
X129266358Y-107389781D01*
X129421107Y-107359000D01*
X129578893Y-107359000D01*
X129733642Y-107389781D01*
X129733642Y-107389781D01*
G37*
G36*
X87951000Y-108801000D02*
G01*
X86049000Y-108801000D01*
X86049000Y-106199000D01*
X87951000Y-106199000D01*
X87951000Y-108801000D01*
X87951000Y-108801000D01*
G37*
G36*
X109608015Y-107456973D02*
G01*
X109711879Y-107488479D01*
X109739055Y-107503005D01*
X109807600Y-107539643D01*
X109891501Y-107608499D01*
X109960357Y-107692400D01*
X109996995Y-107760945D01*
X110011521Y-107788121D01*
X110043027Y-107891985D01*
X110053666Y-108000000D01*
X110043027Y-108108015D01*
X110011521Y-108211879D01*
X110011519Y-108211882D01*
X109960357Y-108307600D01*
X109891501Y-108391501D01*
X109807600Y-108460357D01*
X109739055Y-108496995D01*
X109711879Y-108511521D01*
X109608015Y-108543027D01*
X109527067Y-108551000D01*
X108472933Y-108551000D01*
X108391985Y-108543027D01*
X108288121Y-108511521D01*
X108260945Y-108496995D01*
X108192400Y-108460357D01*
X108108499Y-108391501D01*
X108039643Y-108307600D01*
X107988481Y-108211882D01*
X107988479Y-108211879D01*
X107956973Y-108108015D01*
X107946334Y-108000000D01*
X107956973Y-107891985D01*
X107988479Y-107788121D01*
X108003005Y-107760945D01*
X108039643Y-107692400D01*
X108108499Y-107608499D01*
X108192400Y-107539643D01*
X108260945Y-107503005D01*
X108288121Y-107488479D01*
X108391985Y-107456973D01*
X108472933Y-107449000D01*
X109527067Y-107449000D01*
X109608015Y-107456973D01*
X109608015Y-107456973D01*
G37*
G36*
X92189890Y-106874017D02*
G01*
X92308364Y-106923091D01*
X92414988Y-106994335D01*
X92505665Y-107085012D01*
X92576909Y-107191636D01*
X92625983Y-107310110D01*
X92651000Y-107435882D01*
X92651000Y-107564118D01*
X92625983Y-107689890D01*
X92576909Y-107808364D01*
X92505665Y-107914988D01*
X92414988Y-108005665D01*
X92308364Y-108076909D01*
X92308363Y-108076910D01*
X92308362Y-108076910D01*
X92189890Y-108125983D01*
X92064119Y-108151000D01*
X91935881Y-108151000D01*
X91810110Y-108125983D01*
X91691638Y-108076910D01*
X91691637Y-108076910D01*
X91691636Y-108076909D01*
X91585012Y-108005665D01*
X91494335Y-107914988D01*
X91423091Y-107808364D01*
X91374017Y-107689890D01*
X91349000Y-107564118D01*
X91349000Y-107435882D01*
X91374017Y-107310110D01*
X91423091Y-107191636D01*
X91494335Y-107085012D01*
X91585012Y-106994335D01*
X91691636Y-106923091D01*
X91810110Y-106874017D01*
X91935881Y-106849000D01*
X92064119Y-106849000D01*
X92189890Y-106874017D01*
X92189890Y-106874017D01*
G37*
G36*
X109608015Y-105456973D02*
G01*
X109711879Y-105488479D01*
X109739055Y-105503005D01*
X109807600Y-105539643D01*
X109891501Y-105608499D01*
X109960357Y-105692400D01*
X109996995Y-105760945D01*
X110011521Y-105788121D01*
X110043027Y-105891985D01*
X110053666Y-106000000D01*
X110043027Y-106108015D01*
X110011521Y-106211879D01*
X110011519Y-106211882D01*
X109960357Y-106307600D01*
X109891501Y-106391501D01*
X109807600Y-106460357D01*
X109739055Y-106496995D01*
X109711879Y-106511521D01*
X109608015Y-106543027D01*
X109527067Y-106551000D01*
X108472933Y-106551000D01*
X108391985Y-106543027D01*
X108288121Y-106511521D01*
X108260945Y-106496995D01*
X108192400Y-106460357D01*
X108108499Y-106391501D01*
X108039643Y-106307600D01*
X107988481Y-106211882D01*
X107988479Y-106211879D01*
X107956973Y-106108015D01*
X107946334Y-106000000D01*
X107956973Y-105891985D01*
X107988479Y-105788121D01*
X108003005Y-105760945D01*
X108039643Y-105692400D01*
X108108499Y-105608499D01*
X108192400Y-105539643D01*
X108260945Y-105503005D01*
X108288121Y-105488479D01*
X108391985Y-105456973D01*
X108472933Y-105449000D01*
X109527067Y-105449000D01*
X109608015Y-105456973D01*
X109608015Y-105456973D01*
G37*
G36*
X129733642Y-104849781D02*
G01*
X129879414Y-104910162D01*
X129879416Y-104910163D01*
X130010608Y-104997822D01*
X130122178Y-105109392D01*
X130209837Y-105240584D01*
X130209838Y-105240586D01*
X130270219Y-105386358D01*
X130301000Y-105541107D01*
X130301000Y-105698893D01*
X130270219Y-105853642D01*
X130209838Y-105999414D01*
X130209837Y-105999416D01*
X130122178Y-106130608D01*
X130010608Y-106242178D01*
X129879416Y-106329837D01*
X129879415Y-106329838D01*
X129879414Y-106329838D01*
X129733642Y-106390219D01*
X129578893Y-106421000D01*
X129421107Y-106421000D01*
X129266358Y-106390219D01*
X129120586Y-106329838D01*
X129120585Y-106329838D01*
X129120584Y-106329837D01*
X128989392Y-106242178D01*
X128877822Y-106130608D01*
X128790163Y-105999416D01*
X128790162Y-105999414D01*
X128729781Y-105853642D01*
X128699000Y-105698893D01*
X128699000Y-105541107D01*
X128729781Y-105386358D01*
X128790162Y-105240586D01*
X128790163Y-105240584D01*
X128877822Y-105109392D01*
X128989392Y-104997822D01*
X129120584Y-104910163D01*
X129120586Y-104910162D01*
X129266358Y-104849781D01*
X129421107Y-104819000D01*
X129578893Y-104819000D01*
X129733642Y-104849781D01*
X129733642Y-104849781D01*
G37*
G36*
X109608015Y-103456973D02*
G01*
X109711879Y-103488479D01*
X109739055Y-103503005D01*
X109807600Y-103539643D01*
X109891501Y-103608499D01*
X109960357Y-103692400D01*
X109996995Y-103760945D01*
X110011521Y-103788121D01*
X110043027Y-103891985D01*
X110053666Y-104000000D01*
X110043027Y-104108015D01*
X110011521Y-104211879D01*
X110011519Y-104211882D01*
X109960357Y-104307600D01*
X109891501Y-104391501D01*
X109807600Y-104460357D01*
X109739055Y-104496995D01*
X109711879Y-104511521D01*
X109608015Y-104543027D01*
X109527067Y-104551000D01*
X108472933Y-104551000D01*
X108391985Y-104543027D01*
X108288121Y-104511521D01*
X108260945Y-104496995D01*
X108192400Y-104460357D01*
X108108499Y-104391501D01*
X108039643Y-104307600D01*
X107988481Y-104211882D01*
X107988479Y-104211879D01*
X107956973Y-104108015D01*
X107946334Y-104000000D01*
X107956973Y-103891985D01*
X107988479Y-103788121D01*
X108003005Y-103760945D01*
X108039643Y-103692400D01*
X108108499Y-103608499D01*
X108192400Y-103539643D01*
X108260945Y-103503005D01*
X108288121Y-103488479D01*
X108391985Y-103456973D01*
X108472933Y-103449000D01*
X109527067Y-103449000D01*
X109608015Y-103456973D01*
X109608015Y-103456973D01*
G37*
G36*
X93301000Y-103451000D02*
G01*
X90699000Y-103451000D01*
X90699000Y-101549000D01*
X93301000Y-101549000D01*
X93301000Y-103451000D01*
X93301000Y-103451000D01*
G37*
G36*
X87189890Y-101874017D02*
G01*
X87308364Y-101923091D01*
X87414988Y-101994335D01*
X87505665Y-102085012D01*
X87576909Y-102191636D01*
X87625983Y-102310110D01*
X87651000Y-102435882D01*
X87651000Y-102564118D01*
X87625983Y-102689890D01*
X87576909Y-102808364D01*
X87505665Y-102914988D01*
X87414988Y-103005665D01*
X87308364Y-103076909D01*
X87308363Y-103076910D01*
X87308362Y-103076910D01*
X87189890Y-103125983D01*
X87064119Y-103151000D01*
X86935881Y-103151000D01*
X86810110Y-103125983D01*
X86691638Y-103076910D01*
X86691637Y-103076910D01*
X86691636Y-103076909D01*
X86585012Y-103005665D01*
X86494335Y-102914988D01*
X86423091Y-102808364D01*
X86374017Y-102689890D01*
X86349000Y-102564118D01*
X86349000Y-102435882D01*
X86374017Y-102310110D01*
X86423091Y-102191636D01*
X86494335Y-102085012D01*
X86585012Y-101994335D01*
X86691636Y-101923091D01*
X86810110Y-101874017D01*
X86935881Y-101849000D01*
X87064119Y-101849000D01*
X87189890Y-101874017D01*
X87189890Y-101874017D01*
G37*
G36*
X84689890Y-101874017D02*
G01*
X84808364Y-101923091D01*
X84914988Y-101994335D01*
X85005665Y-102085012D01*
X85076909Y-102191636D01*
X85125983Y-102310110D01*
X85151000Y-102435882D01*
X85151000Y-102564118D01*
X85125983Y-102689890D01*
X85076909Y-102808364D01*
X85005665Y-102914988D01*
X84914988Y-103005665D01*
X84808364Y-103076909D01*
X84808363Y-103076910D01*
X84808362Y-103076910D01*
X84689890Y-103125983D01*
X84564119Y-103151000D01*
X84435881Y-103151000D01*
X84310110Y-103125983D01*
X84191638Y-103076910D01*
X84191637Y-103076910D01*
X84191636Y-103076909D01*
X84085012Y-103005665D01*
X83994335Y-102914988D01*
X83923091Y-102808364D01*
X83874017Y-102689890D01*
X83849000Y-102564118D01*
X83849000Y-102435882D01*
X83874017Y-102310110D01*
X83923091Y-102191636D01*
X83994335Y-102085012D01*
X84085012Y-101994335D01*
X84191636Y-101923091D01*
X84310110Y-101874017D01*
X84435881Y-101849000D01*
X84564119Y-101849000D01*
X84689890Y-101874017D01*
X84689890Y-101874017D01*
G37*
G36*
X109608015Y-101456973D02*
G01*
X109711879Y-101488479D01*
X109739055Y-101503005D01*
X109807600Y-101539643D01*
X109891501Y-101608499D01*
X109960357Y-101692400D01*
X109996995Y-101760945D01*
X110011521Y-101788121D01*
X110043027Y-101891985D01*
X110053666Y-102000000D01*
X110043027Y-102108015D01*
X110011521Y-102211879D01*
X110011519Y-102211882D01*
X109960357Y-102307600D01*
X109891501Y-102391501D01*
X109807600Y-102460357D01*
X109739055Y-102496995D01*
X109711879Y-102511521D01*
X109608015Y-102543027D01*
X109527067Y-102551000D01*
X108472933Y-102551000D01*
X108391985Y-102543027D01*
X108288121Y-102511521D01*
X108260945Y-102496995D01*
X108192400Y-102460357D01*
X108108499Y-102391501D01*
X108039643Y-102307600D01*
X107988481Y-102211882D01*
X107988479Y-102211879D01*
X107956973Y-102108015D01*
X107946334Y-102000000D01*
X107956973Y-101891985D01*
X107988479Y-101788121D01*
X108003005Y-101760945D01*
X108039643Y-101692400D01*
X108108499Y-101608499D01*
X108192400Y-101539643D01*
X108260945Y-101503005D01*
X108288121Y-101488479D01*
X108391985Y-101456973D01*
X108472933Y-101449000D01*
X109527067Y-101449000D01*
X109608015Y-101456973D01*
X109608015Y-101456973D01*
G37*
G36*
X129733642Y-99769781D02*
G01*
X129879414Y-99830162D01*
X129879416Y-99830163D01*
X130010608Y-99917822D01*
X130122178Y-100029392D01*
X130209837Y-100160584D01*
X130209838Y-100160586D01*
X130270219Y-100306358D01*
X130301000Y-100461107D01*
X130301000Y-100618893D01*
X130270219Y-100773642D01*
X130209838Y-100919414D01*
X130209837Y-100919416D01*
X130122178Y-101050608D01*
X130010608Y-101162178D01*
X129879416Y-101249837D01*
X129879415Y-101249838D01*
X129879414Y-101249838D01*
X129733642Y-101310219D01*
X129578893Y-101341000D01*
X129421107Y-101341000D01*
X129266358Y-101310219D01*
X129120586Y-101249838D01*
X129120585Y-101249838D01*
X129120584Y-101249837D01*
X128989392Y-101162178D01*
X128877822Y-101050608D01*
X128790163Y-100919416D01*
X128790162Y-100919414D01*
X128729781Y-100773642D01*
X128699000Y-100618893D01*
X128699000Y-100461107D01*
X128729781Y-100306358D01*
X128790162Y-100160586D01*
X128790163Y-100160584D01*
X128877822Y-100029392D01*
X128989392Y-99917822D01*
X129120584Y-99830163D01*
X129120586Y-99830162D01*
X129266358Y-99769781D01*
X129421107Y-99739000D01*
X129578893Y-99739000D01*
X129733642Y-99769781D01*
X129733642Y-99769781D01*
G37*
G36*
X109608015Y-99456973D02*
G01*
X109711879Y-99488479D01*
X109739055Y-99503005D01*
X109807600Y-99539643D01*
X109891501Y-99608499D01*
X109960357Y-99692400D01*
X109991679Y-99751000D01*
X110011521Y-99788121D01*
X110043027Y-99891985D01*
X110053666Y-100000000D01*
X110043027Y-100108015D01*
X110011521Y-100211879D01*
X110011519Y-100211882D01*
X109960357Y-100307600D01*
X109891501Y-100391501D01*
X109807600Y-100460357D01*
X109739055Y-100496995D01*
X109711879Y-100511521D01*
X109608015Y-100543027D01*
X109527067Y-100551000D01*
X108472933Y-100551000D01*
X108391985Y-100543027D01*
X108288121Y-100511521D01*
X108260945Y-100496995D01*
X108192400Y-100460357D01*
X108108499Y-100391501D01*
X108039643Y-100307600D01*
X107988481Y-100211882D01*
X107988479Y-100211879D01*
X107956973Y-100108015D01*
X107946334Y-100000000D01*
X107956973Y-99891985D01*
X107988479Y-99788121D01*
X108008321Y-99751000D01*
X108039643Y-99692400D01*
X108108499Y-99608499D01*
X108192400Y-99539643D01*
X108260945Y-99503005D01*
X108288121Y-99488479D01*
X108391985Y-99456973D01*
X108472933Y-99449000D01*
X109527067Y-99449000D01*
X109608015Y-99456973D01*
X109608015Y-99456973D01*
G37*
G36*
X121032021Y-98256011D02*
G01*
X121094571Y-98274985D01*
X121152212Y-98305795D01*
X121202738Y-98347262D01*
X121244205Y-98397788D01*
X121275015Y-98455429D01*
X121293989Y-98517979D01*
X121301000Y-98589164D01*
X121301000Y-99410836D01*
X121293989Y-99482021D01*
X121275015Y-99544571D01*
X121244205Y-99602212D01*
X121202738Y-99652738D01*
X121152212Y-99694205D01*
X121094571Y-99725015D01*
X121032021Y-99743989D01*
X120960836Y-99751000D01*
X119039164Y-99751000D01*
X118967979Y-99743989D01*
X118905429Y-99725015D01*
X118847788Y-99694205D01*
X118797262Y-99652738D01*
X118755795Y-99602212D01*
X118724985Y-99544571D01*
X118706011Y-99482021D01*
X118699000Y-99410836D01*
X118699000Y-98589164D01*
X118706011Y-98517979D01*
X118724985Y-98455429D01*
X118755795Y-98397788D01*
X118797262Y-98347262D01*
X118847788Y-98305795D01*
X118905429Y-98274985D01*
X118967979Y-98256011D01*
X119039164Y-98249000D01*
X120960836Y-98249000D01*
X121032021Y-98256011D01*
X121032021Y-98256011D01*
G37*
G36*
X130301000Y-98801000D02*
G01*
X128699000Y-98801000D01*
X128699000Y-97199000D01*
X130301000Y-97199000D01*
X130301000Y-98801000D01*
X130301000Y-98801000D01*
G37*
G36*
X121032021Y-94756011D02*
G01*
X121094571Y-94774985D01*
X121152212Y-94805795D01*
X121202738Y-94847262D01*
X121244205Y-94897788D01*
X121275015Y-94955429D01*
X121293989Y-95017979D01*
X121301000Y-95089164D01*
X121301000Y-95910836D01*
X121293989Y-95982021D01*
X121275015Y-96044571D01*
X121244205Y-96102212D01*
X121202738Y-96152738D01*
X121152212Y-96194205D01*
X121094571Y-96225015D01*
X121032021Y-96243989D01*
X120960836Y-96251000D01*
X119039164Y-96251000D01*
X118967979Y-96243989D01*
X118905429Y-96225015D01*
X118847788Y-96194205D01*
X118797262Y-96152738D01*
X118755795Y-96102212D01*
X118724985Y-96044571D01*
X118706011Y-95982021D01*
X118699000Y-95910836D01*
X118699000Y-95089164D01*
X118706011Y-95017979D01*
X118724985Y-94955429D01*
X118755795Y-94897788D01*
X118797262Y-94847262D01*
X118847788Y-94805795D01*
X118905429Y-94774985D01*
X118967979Y-94756011D01*
X119039164Y-94749000D01*
X120960836Y-94749000D01*
X121032021Y-94756011D01*
X121032021Y-94756011D01*
G37*
G36*
X109608015Y-93956973D02*
G01*
X109711879Y-93988479D01*
X109739055Y-94003005D01*
X109807600Y-94039643D01*
X109891501Y-94108499D01*
X109960357Y-94192400D01*
X109996995Y-94260945D01*
X110011521Y-94288121D01*
X110043027Y-94391985D01*
X110053666Y-94500000D01*
X110043027Y-94608015D01*
X110011521Y-94711879D01*
X110011519Y-94711882D01*
X109960357Y-94807600D01*
X109891501Y-94891501D01*
X109807600Y-94960357D01*
X109739055Y-94996995D01*
X109711879Y-95011521D01*
X109608015Y-95043027D01*
X109527067Y-95051000D01*
X108472933Y-95051000D01*
X108391985Y-95043027D01*
X108288121Y-95011521D01*
X108260945Y-94996995D01*
X108192400Y-94960357D01*
X108108499Y-94891501D01*
X108039643Y-94807600D01*
X107988481Y-94711882D01*
X107988479Y-94711879D01*
X107956973Y-94608015D01*
X107946334Y-94500000D01*
X107956973Y-94391985D01*
X107988479Y-94288121D01*
X108003005Y-94260945D01*
X108039643Y-94192400D01*
X108108499Y-94108499D01*
X108192400Y-94039643D01*
X108260945Y-94003005D01*
X108288121Y-93988479D01*
X108391985Y-93956973D01*
X108472933Y-93949000D01*
X109527067Y-93949000D01*
X109608015Y-93956973D01*
X109608015Y-93956973D01*
G37*
G36*
X92951000Y-93351000D02*
G01*
X89549000Y-93351000D01*
X89549000Y-91149000D01*
X92951000Y-91149000D01*
X92951000Y-93351000D01*
X92951000Y-93351000D01*
G37*
G36*
X109608015Y-91956973D02*
G01*
X109711879Y-91988479D01*
X109739055Y-92003005D01*
X109807600Y-92039643D01*
X109891501Y-92108499D01*
X109960357Y-92192400D01*
X109996995Y-92260945D01*
X110011521Y-92288121D01*
X110043027Y-92391985D01*
X110053666Y-92500000D01*
X110043027Y-92608015D01*
X110011521Y-92711879D01*
X110011519Y-92711882D01*
X109960357Y-92807600D01*
X109891501Y-92891501D01*
X109807600Y-92960357D01*
X109739055Y-92996995D01*
X109711879Y-93011521D01*
X109608015Y-93043027D01*
X109527067Y-93051000D01*
X108472933Y-93051000D01*
X108391985Y-93043027D01*
X108288121Y-93011521D01*
X108260945Y-92996995D01*
X108192400Y-92960357D01*
X108108499Y-92891501D01*
X108039643Y-92807600D01*
X107988481Y-92711882D01*
X107988479Y-92711879D01*
X107956973Y-92608015D01*
X107946334Y-92500000D01*
X107956973Y-92391985D01*
X107988479Y-92288121D01*
X108003005Y-92260945D01*
X108039643Y-92192400D01*
X108108499Y-92108499D01*
X108192400Y-92039643D01*
X108260945Y-92003005D01*
X108288121Y-91988479D01*
X108391985Y-91956973D01*
X108472933Y-91949000D01*
X109527067Y-91949000D01*
X109608015Y-91956973D01*
X109608015Y-91956973D01*
G37*
G36*
X109608015Y-89956973D02*
G01*
X109711879Y-89988479D01*
X109735304Y-90001000D01*
X109807600Y-90039643D01*
X109891501Y-90108499D01*
X109960357Y-90192400D01*
X109996995Y-90260945D01*
X110011521Y-90288121D01*
X110043027Y-90391985D01*
X110053666Y-90500000D01*
X110043027Y-90608015D01*
X110011521Y-90711879D01*
X110011519Y-90711882D01*
X109960357Y-90807600D01*
X109891501Y-90891501D01*
X109807600Y-90960357D01*
X109739055Y-90996995D01*
X109711879Y-91011521D01*
X109608015Y-91043027D01*
X109527067Y-91051000D01*
X108472933Y-91051000D01*
X108391985Y-91043027D01*
X108288121Y-91011521D01*
X108260945Y-90996995D01*
X108192400Y-90960357D01*
X108108499Y-90891501D01*
X108039643Y-90807600D01*
X107988481Y-90711882D01*
X107988479Y-90711879D01*
X107956973Y-90608015D01*
X107946334Y-90500000D01*
X107956973Y-90391985D01*
X107988479Y-90288121D01*
X108003005Y-90260945D01*
X108039643Y-90192400D01*
X108108499Y-90108499D01*
X108192400Y-90039643D01*
X108264696Y-90001000D01*
X108288121Y-89988479D01*
X108391985Y-89956973D01*
X108472933Y-89949000D01*
X109527067Y-89949000D01*
X109608015Y-89956973D01*
X109608015Y-89956973D01*
G37*
G36*
X94195285Y-88018234D02*
G01*
X94291981Y-88037468D01*
X94420795Y-88090825D01*
X94463464Y-88108499D01*
X94474151Y-88112926D01*
X94638100Y-88222473D01*
X94777527Y-88361900D01*
X94887074Y-88525849D01*
X94962532Y-88708019D01*
X95001000Y-88901410D01*
X95001000Y-89098590D01*
X94962532Y-89291981D01*
X94887074Y-89474151D01*
X94777527Y-89638100D01*
X94638100Y-89777527D01*
X94474151Y-89887074D01*
X94291981Y-89962532D01*
X94098591Y-90001000D01*
X93901409Y-90001000D01*
X93708019Y-89962532D01*
X93525849Y-89887074D01*
X93361900Y-89777527D01*
X93222473Y-89638100D01*
X93112926Y-89474151D01*
X93037468Y-89291981D01*
X92999000Y-89098590D01*
X92999000Y-88901410D01*
X93037468Y-88708019D01*
X93112926Y-88525849D01*
X93222473Y-88361900D01*
X93361900Y-88222473D01*
X93525849Y-88112926D01*
X93536537Y-88108499D01*
X93579205Y-88090825D01*
X93708019Y-88037468D01*
X93804715Y-88018234D01*
X93901409Y-87999000D01*
X94098591Y-87999000D01*
X94195285Y-88018234D01*
X94195285Y-88018234D01*
G37*
G36*
X109608015Y-87956973D02*
G01*
X109711879Y-87988479D01*
X109731562Y-87999000D01*
X109807600Y-88039643D01*
X109891501Y-88108499D01*
X109960357Y-88192400D01*
X109976431Y-88222473D01*
X110011521Y-88288121D01*
X110043027Y-88391985D01*
X110053666Y-88500000D01*
X110043027Y-88608015D01*
X110011521Y-88711879D01*
X110011519Y-88711882D01*
X109960357Y-88807600D01*
X109891501Y-88891501D01*
X109807600Y-88960357D01*
X109739055Y-88996995D01*
X109711879Y-89011521D01*
X109608015Y-89043027D01*
X109527067Y-89051000D01*
X108472933Y-89051000D01*
X108391985Y-89043027D01*
X108288121Y-89011521D01*
X108260945Y-88996995D01*
X108192400Y-88960357D01*
X108108499Y-88891501D01*
X108039643Y-88807600D01*
X107988481Y-88711882D01*
X107988479Y-88711879D01*
X107956973Y-88608015D01*
X107946334Y-88500000D01*
X107956973Y-88391985D01*
X107988479Y-88288121D01*
X108023569Y-88222473D01*
X108039643Y-88192400D01*
X108108499Y-88108499D01*
X108192400Y-88039643D01*
X108268438Y-87999000D01*
X108288121Y-87988479D01*
X108391985Y-87956973D01*
X108472933Y-87949000D01*
X109527067Y-87949000D01*
X109608015Y-87956973D01*
X109608015Y-87956973D01*
G37*
G36*
X109608015Y-85956973D02*
G01*
X109711879Y-85988479D01*
X109735304Y-86001000D01*
X109807600Y-86039643D01*
X109891501Y-86108499D01*
X109960357Y-86192400D01*
X109996995Y-86260945D01*
X110011521Y-86288121D01*
X110043027Y-86391985D01*
X110053666Y-86500000D01*
X110043027Y-86608015D01*
X110011521Y-86711879D01*
X110011519Y-86711882D01*
X109960357Y-86807600D01*
X109891501Y-86891501D01*
X109807600Y-86960357D01*
X109739055Y-86996995D01*
X109711879Y-87011521D01*
X109608015Y-87043027D01*
X109527067Y-87051000D01*
X108472933Y-87051000D01*
X108391985Y-87043027D01*
X108288121Y-87011521D01*
X108260945Y-86996995D01*
X108192400Y-86960357D01*
X108108499Y-86891501D01*
X108039643Y-86807600D01*
X107988481Y-86711882D01*
X107988479Y-86711879D01*
X107956973Y-86608015D01*
X107946334Y-86500000D01*
X107956973Y-86391985D01*
X107988479Y-86288121D01*
X108003005Y-86260945D01*
X108039643Y-86192400D01*
X108108499Y-86108499D01*
X108192400Y-86039643D01*
X108264696Y-86001000D01*
X108288121Y-85988479D01*
X108391985Y-85956973D01*
X108472933Y-85949000D01*
X109527067Y-85949000D01*
X109608015Y-85956973D01*
X109608015Y-85956973D01*
G37*
G36*
X90894193Y-84008071D02*
G01*
X91041981Y-84037468D01*
X91135260Y-84076106D01*
X91213464Y-84108499D01*
X91224151Y-84112926D01*
X91388100Y-84222473D01*
X91527527Y-84361900D01*
X91637074Y-84525849D01*
X91712532Y-84708019D01*
X91751000Y-84901410D01*
X91751000Y-85098590D01*
X91712532Y-85291981D01*
X91637074Y-85474151D01*
X91527527Y-85638100D01*
X91388100Y-85777527D01*
X91224151Y-85887074D01*
X91041981Y-85962532D01*
X90945285Y-85981766D01*
X90848591Y-86001000D01*
X90651409Y-86001000D01*
X90554715Y-85981766D01*
X90458019Y-85962532D01*
X90275849Y-85887074D01*
X90111900Y-85777527D01*
X89972473Y-85638100D01*
X89862926Y-85474151D01*
X89787468Y-85291981D01*
X89749000Y-85098590D01*
X89749000Y-84901410D01*
X89787468Y-84708019D01*
X89862926Y-84525849D01*
X89972473Y-84361900D01*
X90111900Y-84222473D01*
X90275849Y-84112926D01*
X90286537Y-84108499D01*
X90364740Y-84076106D01*
X90458019Y-84037468D01*
X90605807Y-84008071D01*
X90651409Y-83999000D01*
X90848591Y-83999000D01*
X90894193Y-84008071D01*
X90894193Y-84008071D01*
G37*
G36*
X109608015Y-83956973D02*
G01*
X109711879Y-83988479D01*
X109731562Y-83999000D01*
X109807600Y-84039643D01*
X109891501Y-84108499D01*
X109960357Y-84192400D01*
X109991679Y-84251000D01*
X110011521Y-84288121D01*
X110043027Y-84391985D01*
X110053666Y-84500000D01*
X110043027Y-84608015D01*
X110011521Y-84711879D01*
X110011519Y-84711882D01*
X109960357Y-84807600D01*
X109891501Y-84891501D01*
X109807600Y-84960357D01*
X109739055Y-84996995D01*
X109711879Y-85011521D01*
X109608015Y-85043027D01*
X109527067Y-85051000D01*
X108472933Y-85051000D01*
X108391985Y-85043027D01*
X108288121Y-85011521D01*
X108260945Y-84996995D01*
X108192400Y-84960357D01*
X108108499Y-84891501D01*
X108039643Y-84807600D01*
X107988481Y-84711882D01*
X107988479Y-84711879D01*
X107956973Y-84608015D01*
X107946334Y-84500000D01*
X107956973Y-84391985D01*
X107988479Y-84288121D01*
X108008321Y-84251000D01*
X108039643Y-84192400D01*
X108108499Y-84108499D01*
X108192400Y-84039643D01*
X108268438Y-83999000D01*
X108288121Y-83988479D01*
X108391985Y-83956973D01*
X108472933Y-83949000D01*
X109527067Y-83949000D01*
X109608015Y-83956973D01*
X109608015Y-83956973D01*
G37*
G36*
X121032021Y-82756011D02*
G01*
X121094571Y-82774985D01*
X121152212Y-82805795D01*
X121202738Y-82847262D01*
X121244205Y-82897788D01*
X121275015Y-82955429D01*
X121293989Y-83017979D01*
X121301000Y-83089164D01*
X121301000Y-83910836D01*
X121293989Y-83982021D01*
X121275015Y-84044571D01*
X121244205Y-84102212D01*
X121202738Y-84152738D01*
X121152212Y-84194205D01*
X121094571Y-84225015D01*
X121032021Y-84243989D01*
X120960836Y-84251000D01*
X119039164Y-84251000D01*
X118967979Y-84243989D01*
X118905429Y-84225015D01*
X118847788Y-84194205D01*
X118797262Y-84152738D01*
X118755795Y-84102212D01*
X118724985Y-84044571D01*
X118706011Y-83982021D01*
X118699000Y-83910836D01*
X118699000Y-83089164D01*
X118706011Y-83017979D01*
X118724985Y-82955429D01*
X118755795Y-82897788D01*
X118797262Y-82847262D01*
X118847788Y-82805795D01*
X118905429Y-82774985D01*
X118967979Y-82756011D01*
X119039164Y-82749000D01*
X120960836Y-82749000D01*
X121032021Y-82756011D01*
X121032021Y-82756011D01*
G37*
G36*
X95445285Y-80018234D02*
G01*
X95541981Y-80037468D01*
X95724151Y-80112926D01*
X95888100Y-80222473D01*
X96027527Y-80361900D01*
X96137074Y-80525849D01*
X96212532Y-80708019D01*
X96251000Y-80901410D01*
X96251000Y-81098590D01*
X96212532Y-81291981D01*
X96137074Y-81474151D01*
X96027527Y-81638100D01*
X95888100Y-81777527D01*
X95724151Y-81887074D01*
X95541981Y-81962532D01*
X95445285Y-81981766D01*
X95348591Y-82001000D01*
X95151409Y-82001000D01*
X95054715Y-81981766D01*
X94958019Y-81962532D01*
X94775849Y-81887074D01*
X94611900Y-81777527D01*
X94472473Y-81638100D01*
X94362926Y-81474151D01*
X94287468Y-81291981D01*
X94249000Y-81098590D01*
X94249000Y-80901410D01*
X94287468Y-80708019D01*
X94362926Y-80525849D01*
X94472473Y-80361900D01*
X94611900Y-80222473D01*
X94775849Y-80112926D01*
X94958019Y-80037468D01*
X95054715Y-80018234D01*
X95151409Y-79999000D01*
X95348591Y-79999000D01*
X95445285Y-80018234D01*
X95445285Y-80018234D01*
G37*
G36*
X121032021Y-77756011D02*
G01*
X121094571Y-77774985D01*
X121152212Y-77805795D01*
X121202738Y-77847262D01*
X121244205Y-77897788D01*
X121275015Y-77955429D01*
X121293989Y-78017979D01*
X121301000Y-78089164D01*
X121301000Y-78910836D01*
X121293989Y-78982021D01*
X121275015Y-79044571D01*
X121244205Y-79102212D01*
X121202738Y-79152738D01*
X121152212Y-79194205D01*
X121094571Y-79225015D01*
X121032021Y-79243989D01*
X120960836Y-79251000D01*
X119039164Y-79251000D01*
X118967979Y-79243989D01*
X118905429Y-79225015D01*
X118847788Y-79194205D01*
X118797262Y-79152738D01*
X118755795Y-79102212D01*
X118724985Y-79044571D01*
X118706011Y-78982021D01*
X118699000Y-78910836D01*
X118699000Y-78089164D01*
X118706011Y-78017979D01*
X118724985Y-77955429D01*
X118755795Y-77897788D01*
X118797262Y-77847262D01*
X118847788Y-77805795D01*
X118905429Y-77774985D01*
X118967979Y-77756011D01*
X119039164Y-77749000D01*
X120960836Y-77749000D01*
X121032021Y-77756011D01*
X121032021Y-77756011D01*
G37*
G36*
X92951000Y-78851000D02*
G01*
X89549000Y-78851000D01*
X89549000Y-76649000D01*
X92951000Y-76649000D01*
X92951000Y-78851000D01*
X92951000Y-78851000D01*
G37*
G36*
X109608015Y-76956973D02*
G01*
X109711879Y-76988479D01*
X109739055Y-77003005D01*
X109807600Y-77039643D01*
X109891501Y-77108499D01*
X109960357Y-77192400D01*
X109996995Y-77260945D01*
X110011521Y-77288121D01*
X110043027Y-77391985D01*
X110053666Y-77500000D01*
X110043027Y-77608015D01*
X110011521Y-77711879D01*
X110011519Y-77711882D01*
X109960357Y-77807600D01*
X109891501Y-77891501D01*
X109807600Y-77960357D01*
X109739055Y-77996995D01*
X109711879Y-78011521D01*
X109608015Y-78043027D01*
X109527067Y-78051000D01*
X108472933Y-78051000D01*
X108391985Y-78043027D01*
X108288121Y-78011521D01*
X108260945Y-77996995D01*
X108192400Y-77960357D01*
X108108499Y-77891501D01*
X108039643Y-77807600D01*
X107988481Y-77711882D01*
X107988479Y-77711879D01*
X107956973Y-77608015D01*
X107946334Y-77500000D01*
X107956973Y-77391985D01*
X107988479Y-77288121D01*
X108003005Y-77260945D01*
X108039643Y-77192400D01*
X108108499Y-77108499D01*
X108192400Y-77039643D01*
X108260945Y-77003005D01*
X108288121Y-76988479D01*
X108391985Y-76956973D01*
X108472933Y-76949000D01*
X109527067Y-76949000D01*
X109608015Y-76956973D01*
X109608015Y-76956973D01*
G37*
G36*
X109608015Y-74956973D02*
G01*
X109711879Y-74988479D01*
X109739055Y-75003005D01*
X109807600Y-75039643D01*
X109891501Y-75108499D01*
X109960357Y-75192400D01*
X109995753Y-75258622D01*
X110011521Y-75288121D01*
X110043027Y-75391985D01*
X110053666Y-75500000D01*
X110043027Y-75608015D01*
X110011521Y-75711879D01*
X110011519Y-75711882D01*
X109960357Y-75807600D01*
X109891501Y-75891501D01*
X109807600Y-75960357D01*
X109739055Y-75996995D01*
X109711879Y-76011521D01*
X109608015Y-76043027D01*
X109527067Y-76051000D01*
X108472933Y-76051000D01*
X108391985Y-76043027D01*
X108288121Y-76011521D01*
X108260945Y-75996995D01*
X108192400Y-75960357D01*
X108108499Y-75891501D01*
X108039643Y-75807600D01*
X107988481Y-75711882D01*
X107988479Y-75711879D01*
X107956973Y-75608015D01*
X107946334Y-75500000D01*
X107956973Y-75391985D01*
X107988479Y-75288121D01*
X108004247Y-75258622D01*
X108039643Y-75192400D01*
X108108499Y-75108499D01*
X108192400Y-75039643D01*
X108260945Y-75003005D01*
X108288121Y-74988479D01*
X108391985Y-74956973D01*
X108472933Y-74949000D01*
X109527067Y-74949000D01*
X109608015Y-74956973D01*
X109608015Y-74956973D01*
G37*
G36*
X93289903Y-72947075D02*
G01*
X93513383Y-73039643D01*
X93517571Y-73041378D01*
X93722466Y-73178285D01*
X93896715Y-73352534D01*
X93995249Y-73500000D01*
X94033623Y-73557431D01*
X94127925Y-73785097D01*
X94172964Y-74011521D01*
X94176000Y-74026787D01*
X94176000Y-74273213D01*
X94127925Y-74514903D01*
X94033622Y-74742571D01*
X93896715Y-74947466D01*
X93722466Y-75121715D01*
X93517571Y-75258622D01*
X93517570Y-75258623D01*
X93517569Y-75258623D01*
X93289903Y-75352925D01*
X93048214Y-75401000D01*
X92801786Y-75401000D01*
X92560097Y-75352925D01*
X92332431Y-75258623D01*
X92332430Y-75258623D01*
X92332429Y-75258622D01*
X92127534Y-75121715D01*
X91953285Y-74947466D01*
X91816378Y-74742571D01*
X91722075Y-74514903D01*
X91674000Y-74273213D01*
X91674000Y-74026787D01*
X91677037Y-74011521D01*
X91722075Y-73785097D01*
X91816377Y-73557431D01*
X91854751Y-73500000D01*
X91953285Y-73352534D01*
X92127534Y-73178285D01*
X92332429Y-73041378D01*
X92336618Y-73039643D01*
X92560097Y-72947075D01*
X92801786Y-72899000D01*
X93048214Y-72899000D01*
X93289903Y-72947075D01*
X93289903Y-72947075D01*
G37*
G36*
X109608015Y-72956973D02*
G01*
X109711879Y-72988479D01*
X109739055Y-73003005D01*
X109807600Y-73039643D01*
X109891501Y-73108499D01*
X109960357Y-73192400D01*
X109996995Y-73260945D01*
X110011521Y-73288121D01*
X110043027Y-73391985D01*
X110053666Y-73500000D01*
X110043027Y-73608015D01*
X110011521Y-73711879D01*
X110011519Y-73711882D01*
X109960357Y-73807600D01*
X109891501Y-73891501D01*
X109807600Y-73960357D01*
X109739055Y-73996995D01*
X109711879Y-74011521D01*
X109608015Y-74043027D01*
X109527067Y-74051000D01*
X108472933Y-74051000D01*
X108391985Y-74043027D01*
X108288121Y-74011521D01*
X108260945Y-73996995D01*
X108192400Y-73960357D01*
X108108499Y-73891501D01*
X108039643Y-73807600D01*
X107988481Y-73711882D01*
X107988479Y-73711879D01*
X107956973Y-73608015D01*
X107946334Y-73500000D01*
X107956973Y-73391985D01*
X107988479Y-73288121D01*
X108003005Y-73260945D01*
X108039643Y-73192400D01*
X108108499Y-73108499D01*
X108192400Y-73039643D01*
X108260945Y-73003005D01*
X108288121Y-72988479D01*
X108391985Y-72956973D01*
X108472933Y-72949000D01*
X109527067Y-72949000D01*
X109608015Y-72956973D01*
X109608015Y-72956973D01*
G37*
G36*
X89649549Y-70621116D02*
G01*
X89760734Y-70643232D01*
X89970203Y-70729997D01*
X90158720Y-70855960D01*
X90319040Y-71016280D01*
X90445003Y-71204797D01*
X90445004Y-71204799D01*
X90464624Y-71252167D01*
X90522540Y-71391987D01*
X90531768Y-71414267D01*
X90576000Y-71636635D01*
X90576000Y-71863365D01*
X90531768Y-72085733D01*
X90464624Y-72247835D01*
X90445003Y-72295203D01*
X90319040Y-72483720D01*
X90158720Y-72644040D01*
X89970203Y-72770003D01*
X89760734Y-72856768D01*
X89649549Y-72878884D01*
X89538365Y-72901000D01*
X89311635Y-72901000D01*
X89200451Y-72878884D01*
X89089266Y-72856768D01*
X88879797Y-72770003D01*
X88691280Y-72644040D01*
X88530960Y-72483720D01*
X88404997Y-72295203D01*
X88385377Y-72247835D01*
X88318232Y-72085733D01*
X88274000Y-71863365D01*
X88274000Y-71636635D01*
X88318232Y-71414267D01*
X88327461Y-71391987D01*
X88385376Y-71252167D01*
X88404996Y-71204799D01*
X88404997Y-71204797D01*
X88530960Y-71016280D01*
X88691280Y-70855960D01*
X88879797Y-70729997D01*
X89089266Y-70643232D01*
X89200451Y-70621116D01*
X89311635Y-70599000D01*
X89538365Y-70599000D01*
X89649549Y-70621116D01*
X89649549Y-70621116D01*
G37*
G36*
X96981564Y-70739389D02*
G01*
X97172833Y-70818615D01*
X97172835Y-70818616D01*
X97344973Y-70933635D01*
X97491365Y-71080027D01*
X97574734Y-71204797D01*
X97606385Y-71252167D01*
X97685611Y-71443436D01*
X97726000Y-71646484D01*
X97726000Y-71853516D01*
X97685611Y-72056564D01*
X97673528Y-72085734D01*
X97606384Y-72247835D01*
X97491365Y-72419973D01*
X97344973Y-72566365D01*
X97172835Y-72681384D01*
X97172834Y-72681385D01*
X97172833Y-72681385D01*
X96981564Y-72760611D01*
X96778516Y-72801000D01*
X96571484Y-72801000D01*
X96368436Y-72760611D01*
X96177167Y-72681385D01*
X96177166Y-72681385D01*
X96177165Y-72681384D01*
X96005027Y-72566365D01*
X95858635Y-72419973D01*
X95743616Y-72247835D01*
X95676472Y-72085734D01*
X95664389Y-72056564D01*
X95624000Y-71853516D01*
X95624000Y-71646484D01*
X95664389Y-71443436D01*
X95743615Y-71252167D01*
X95775267Y-71204797D01*
X95858635Y-71080027D01*
X96005027Y-70933635D01*
X96177165Y-70818616D01*
X96177167Y-70818615D01*
X96368436Y-70739389D01*
X96571484Y-70699000D01*
X96778516Y-70699000D01*
X96981564Y-70739389D01*
X96981564Y-70739389D01*
G37*
G36*
X109608015Y-70956973D02*
G01*
X109711879Y-70988479D01*
X109739055Y-71003005D01*
X109807600Y-71039643D01*
X109891501Y-71108499D01*
X109960357Y-71192400D01*
X109966984Y-71204799D01*
X110011521Y-71288121D01*
X110043027Y-71391985D01*
X110053666Y-71500000D01*
X110043027Y-71608015D01*
X110011521Y-71711879D01*
X110011519Y-71711882D01*
X109960357Y-71807600D01*
X109891501Y-71891501D01*
X109807600Y-71960357D01*
X109739055Y-71996995D01*
X109711879Y-72011521D01*
X109608015Y-72043027D01*
X109527067Y-72051000D01*
X108472933Y-72051000D01*
X108391985Y-72043027D01*
X108288121Y-72011521D01*
X108260945Y-71996995D01*
X108192400Y-71960357D01*
X108108499Y-71891501D01*
X108039643Y-71807600D01*
X107988481Y-71711882D01*
X107988479Y-71711879D01*
X107956973Y-71608015D01*
X107946334Y-71500000D01*
X107956973Y-71391985D01*
X107988479Y-71288121D01*
X108033016Y-71204799D01*
X108039643Y-71192400D01*
X108108499Y-71108499D01*
X108192400Y-71039643D01*
X108260945Y-71003005D01*
X108288121Y-70988479D01*
X108391985Y-70956973D01*
X108472933Y-70949000D01*
X109527067Y-70949000D01*
X109608015Y-70956973D01*
X109608015Y-70956973D01*
G37*
G36*
X109608015Y-68956973D02*
G01*
X109711879Y-68988479D01*
X109739055Y-69003005D01*
X109807600Y-69039643D01*
X109891501Y-69108499D01*
X109960357Y-69192400D01*
X109996995Y-69260945D01*
X110011521Y-69288121D01*
X110043027Y-69391985D01*
X110053666Y-69500000D01*
X110043027Y-69608015D01*
X110011521Y-69711879D01*
X110011519Y-69711882D01*
X109960357Y-69807600D01*
X109891501Y-69891501D01*
X109807600Y-69960357D01*
X109739055Y-69996995D01*
X109711879Y-70011521D01*
X109608015Y-70043027D01*
X109527067Y-70051000D01*
X108472933Y-70051000D01*
X108391985Y-70043027D01*
X108288121Y-70011521D01*
X108260945Y-69996995D01*
X108192400Y-69960357D01*
X108108499Y-69891501D01*
X108039643Y-69807600D01*
X107988481Y-69711882D01*
X107988479Y-69711879D01*
X107956973Y-69608015D01*
X107946334Y-69500000D01*
X107956973Y-69391985D01*
X107988479Y-69288121D01*
X108003005Y-69260945D01*
X108039643Y-69192400D01*
X108108499Y-69108499D01*
X108192400Y-69039643D01*
X108260945Y-69003005D01*
X108288121Y-68988479D01*
X108391985Y-68956973D01*
X108472933Y-68949000D01*
X109527067Y-68949000D01*
X109608015Y-68956973D01*
X109608015Y-68956973D01*
G37*
G36*
X109608015Y-66956973D02*
G01*
X109711879Y-66988479D01*
X109739055Y-67003005D01*
X109807600Y-67039643D01*
X109891501Y-67108499D01*
X109960357Y-67192400D01*
X109991679Y-67251000D01*
X110011521Y-67288121D01*
X110043027Y-67391985D01*
X110053666Y-67500000D01*
X110043027Y-67608015D01*
X110011521Y-67711879D01*
X110011519Y-67711882D01*
X109960357Y-67807600D01*
X109891501Y-67891501D01*
X109807600Y-67960357D01*
X109739055Y-67996995D01*
X109711879Y-68011521D01*
X109608015Y-68043027D01*
X109527067Y-68051000D01*
X108472933Y-68051000D01*
X108391985Y-68043027D01*
X108288121Y-68011521D01*
X108260945Y-67996995D01*
X108192400Y-67960357D01*
X108108499Y-67891501D01*
X108039643Y-67807600D01*
X107988481Y-67711882D01*
X107988479Y-67711879D01*
X107956973Y-67608015D01*
X107946334Y-67500000D01*
X107956973Y-67391985D01*
X107988479Y-67288121D01*
X108008321Y-67251000D01*
X108039643Y-67192400D01*
X108108499Y-67108499D01*
X108192400Y-67039643D01*
X108260945Y-67003005D01*
X108288121Y-66988479D01*
X108391985Y-66956973D01*
X108472933Y-66949000D01*
X109527067Y-66949000D01*
X109608015Y-66956973D01*
X109608015Y-66956973D01*
G37*
G36*
X121032021Y-65756011D02*
G01*
X121094571Y-65774985D01*
X121152212Y-65805795D01*
X121202738Y-65847262D01*
X121244205Y-65897788D01*
X121275015Y-65955429D01*
X121293989Y-66017979D01*
X121301000Y-66089164D01*
X121301000Y-66910836D01*
X121293989Y-66982021D01*
X121275015Y-67044571D01*
X121244205Y-67102212D01*
X121202738Y-67152738D01*
X121152212Y-67194205D01*
X121094571Y-67225015D01*
X121032021Y-67243989D01*
X120960836Y-67251000D01*
X119039164Y-67251000D01*
X118967979Y-67243989D01*
X118905429Y-67225015D01*
X118847788Y-67194205D01*
X118797262Y-67152738D01*
X118755795Y-67102212D01*
X118724985Y-67044571D01*
X118706011Y-66982021D01*
X118699000Y-66910836D01*
X118699000Y-66089164D01*
X118706011Y-66017979D01*
X118724985Y-65955429D01*
X118755795Y-65897788D01*
X118797262Y-65847262D01*
X118847788Y-65805795D01*
X118905429Y-65774985D01*
X118967979Y-65756011D01*
X119039164Y-65749000D01*
X120960836Y-65749000D01*
X121032021Y-65756011D01*
X121032021Y-65756011D01*
G37*
G36*
X96981564Y-63239389D02*
G01*
X97172833Y-63318615D01*
X97172835Y-63318616D01*
X97344973Y-63433635D01*
X97491365Y-63580027D01*
X97605606Y-63751000D01*
X97606385Y-63752167D01*
X97685611Y-63943436D01*
X97726000Y-64146484D01*
X97726000Y-64353516D01*
X97685611Y-64556564D01*
X97606385Y-64747833D01*
X97606384Y-64747835D01*
X97491365Y-64919973D01*
X97344973Y-65066365D01*
X97172835Y-65181384D01*
X97172834Y-65181385D01*
X97172833Y-65181385D01*
X96981564Y-65260611D01*
X96778516Y-65301000D01*
X96571484Y-65301000D01*
X96368436Y-65260611D01*
X96177167Y-65181385D01*
X96177166Y-65181385D01*
X96177165Y-65181384D01*
X96005027Y-65066365D01*
X95858635Y-64919973D01*
X95743616Y-64747835D01*
X95743615Y-64747833D01*
X95664389Y-64556564D01*
X95624000Y-64353516D01*
X95624000Y-64146484D01*
X95664389Y-63943436D01*
X95743615Y-63752167D01*
X95744395Y-63751000D01*
X95858635Y-63580027D01*
X96005027Y-63433635D01*
X96177165Y-63318616D01*
X96177167Y-63318615D01*
X96368436Y-63239389D01*
X96571484Y-63199000D01*
X96778516Y-63199000D01*
X96981564Y-63239389D01*
X96981564Y-63239389D01*
G37*
G36*
X121032021Y-62256011D02*
G01*
X121094571Y-62274985D01*
X121152212Y-62305795D01*
X121202738Y-62347262D01*
X121244205Y-62397788D01*
X121275015Y-62455429D01*
X121293989Y-62517979D01*
X121301000Y-62589164D01*
X121301000Y-63410836D01*
X121293989Y-63482021D01*
X121275015Y-63544571D01*
X121244205Y-63602212D01*
X121202738Y-63652738D01*
X121152212Y-63694205D01*
X121094571Y-63725015D01*
X121032021Y-63743989D01*
X120960836Y-63751000D01*
X119039164Y-63751000D01*
X118967979Y-63743989D01*
X118905429Y-63725015D01*
X118847788Y-63694205D01*
X118797262Y-63652738D01*
X118755795Y-63602212D01*
X118724985Y-63544571D01*
X118706011Y-63482021D01*
X118699000Y-63410836D01*
X118699000Y-62589164D01*
X118706011Y-62517979D01*
X118724985Y-62455429D01*
X118755795Y-62397788D01*
X118797262Y-62347262D01*
X118847788Y-62305795D01*
X118905429Y-62274985D01*
X118967979Y-62256011D01*
X119039164Y-62249000D01*
X120960836Y-62249000D01*
X121032021Y-62256011D01*
X121032021Y-62256011D01*
G37*
G36*
X109608015Y-61456973D02*
G01*
X109711879Y-61488479D01*
X109739055Y-61503005D01*
X109807600Y-61539643D01*
X109891501Y-61608499D01*
X109960357Y-61692400D01*
X109996995Y-61760945D01*
X110011521Y-61788121D01*
X110043027Y-61891985D01*
X110053666Y-62000000D01*
X110043027Y-62108015D01*
X110011521Y-62211879D01*
X110011519Y-62211882D01*
X109960357Y-62307600D01*
X109891501Y-62391501D01*
X109807600Y-62460357D01*
X109739055Y-62496995D01*
X109711879Y-62511521D01*
X109608015Y-62543027D01*
X109527067Y-62551000D01*
X108472933Y-62551000D01*
X108391985Y-62543027D01*
X108288121Y-62511521D01*
X108260945Y-62496995D01*
X108192400Y-62460357D01*
X108108499Y-62391501D01*
X108039643Y-62307600D01*
X107988481Y-62211882D01*
X107988479Y-62211879D01*
X107956973Y-62108015D01*
X107946334Y-62000000D01*
X107956973Y-61891985D01*
X107988479Y-61788121D01*
X108003005Y-61760945D01*
X108039643Y-61692400D01*
X108108499Y-61608499D01*
X108192400Y-61539643D01*
X108260945Y-61503005D01*
X108288121Y-61488479D01*
X108391985Y-61456973D01*
X108472933Y-61449000D01*
X109527067Y-61449000D01*
X109608015Y-61456973D01*
X109608015Y-61456973D01*
G37*
G36*
X109608015Y-59456973D02*
G01*
X109711879Y-59488479D01*
X109739055Y-59503005D01*
X109807600Y-59539643D01*
X109891501Y-59608499D01*
X109960357Y-59692400D01*
X109996995Y-59760945D01*
X110011521Y-59788121D01*
X110043027Y-59891985D01*
X110053666Y-60000000D01*
X110043027Y-60108015D01*
X110011521Y-60211879D01*
X110011519Y-60211882D01*
X109960357Y-60307600D01*
X109891501Y-60391501D01*
X109807600Y-60460357D01*
X109739055Y-60496995D01*
X109711879Y-60511521D01*
X109608015Y-60543027D01*
X109527067Y-60551000D01*
X108472933Y-60551000D01*
X108391985Y-60543027D01*
X108288121Y-60511521D01*
X108260945Y-60496995D01*
X108192400Y-60460357D01*
X108108499Y-60391501D01*
X108039643Y-60307600D01*
X107988481Y-60211882D01*
X107988479Y-60211879D01*
X107956973Y-60108015D01*
X107946334Y-60000000D01*
X107956973Y-59891985D01*
X107988479Y-59788121D01*
X108003005Y-59760945D01*
X108039643Y-59692400D01*
X108108499Y-59608499D01*
X108192400Y-59539643D01*
X108260945Y-59503005D01*
X108288121Y-59488479D01*
X108391985Y-59456973D01*
X108472933Y-59449000D01*
X109527067Y-59449000D01*
X109608015Y-59456973D01*
X109608015Y-59456973D01*
G37*
G36*
X89649549Y-56621116D02*
G01*
X89760734Y-56643232D01*
X89970203Y-56729997D01*
X90158720Y-56855960D01*
X90319040Y-57016280D01*
X90361634Y-57080027D01*
X90445004Y-57204799D01*
X90464624Y-57252167D01*
X90531768Y-57414266D01*
X90576000Y-57636636D01*
X90576000Y-57863364D01*
X90531768Y-58085734D01*
X90522539Y-58108015D01*
X90464624Y-58247835D01*
X90445003Y-58295203D01*
X90319040Y-58483720D01*
X90158720Y-58644040D01*
X89970203Y-58770003D01*
X89760734Y-58856768D01*
X89649549Y-58878884D01*
X89538365Y-58901000D01*
X89311635Y-58901000D01*
X89200451Y-58878884D01*
X89089266Y-58856768D01*
X88879797Y-58770003D01*
X88691280Y-58644040D01*
X88530960Y-58483720D01*
X88404997Y-58295203D01*
X88385377Y-58247835D01*
X88327461Y-58108015D01*
X88318232Y-58085734D01*
X88274000Y-57863364D01*
X88274000Y-57636636D01*
X88318232Y-57414266D01*
X88385376Y-57252167D01*
X88404996Y-57204799D01*
X88488366Y-57080027D01*
X88530960Y-57016280D01*
X88691280Y-56855960D01*
X88879797Y-56729997D01*
X89089266Y-56643232D01*
X89200451Y-56621116D01*
X89311635Y-56599000D01*
X89538365Y-56599000D01*
X89649549Y-56621116D01*
X89649549Y-56621116D01*
G37*
G36*
X96981564Y-56739389D02*
G01*
X97172833Y-56818615D01*
X97172835Y-56818616D01*
X97344973Y-56933635D01*
X97491365Y-57080027D01*
X97574734Y-57204797D01*
X97606385Y-57252167D01*
X97685611Y-57443436D01*
X97726000Y-57646484D01*
X97726000Y-57853516D01*
X97685611Y-58056564D01*
X97621276Y-58211882D01*
X97606384Y-58247835D01*
X97491365Y-58419973D01*
X97344973Y-58566365D01*
X97172835Y-58681384D01*
X97172834Y-58681385D01*
X97172833Y-58681385D01*
X96981564Y-58760611D01*
X96778516Y-58801000D01*
X96571484Y-58801000D01*
X96368436Y-58760611D01*
X96177167Y-58681385D01*
X96177166Y-58681385D01*
X96177165Y-58681384D01*
X96005027Y-58566365D01*
X95858635Y-58419973D01*
X95743616Y-58247835D01*
X95728724Y-58211882D01*
X95664389Y-58056564D01*
X95624000Y-57853516D01*
X95624000Y-57646484D01*
X95664389Y-57443436D01*
X95743615Y-57252167D01*
X95775267Y-57204797D01*
X95858635Y-57080027D01*
X96005027Y-56933635D01*
X96177165Y-56818616D01*
X96177167Y-56818615D01*
X96368436Y-56739389D01*
X96571484Y-56699000D01*
X96778516Y-56699000D01*
X96981564Y-56739389D01*
X96981564Y-56739389D01*
G37*
G36*
X109608015Y-57456973D02*
G01*
X109711879Y-57488479D01*
X109739055Y-57503005D01*
X109807600Y-57539643D01*
X109891501Y-57608499D01*
X109960357Y-57692400D01*
X109996995Y-57760945D01*
X110011521Y-57788121D01*
X110043027Y-57891985D01*
X110053666Y-58000000D01*
X110043027Y-58108015D01*
X110011521Y-58211879D01*
X110011519Y-58211882D01*
X109960357Y-58307600D01*
X109891501Y-58391501D01*
X109807600Y-58460357D01*
X109739055Y-58496995D01*
X109711879Y-58511521D01*
X109608015Y-58543027D01*
X109527067Y-58551000D01*
X108472933Y-58551000D01*
X108391985Y-58543027D01*
X108288121Y-58511521D01*
X108260945Y-58496995D01*
X108192400Y-58460357D01*
X108108499Y-58391501D01*
X108039643Y-58307600D01*
X107988481Y-58211882D01*
X107988479Y-58211879D01*
X107956973Y-58108015D01*
X107946334Y-58000000D01*
X107956973Y-57891985D01*
X107988479Y-57788121D01*
X108003005Y-57760945D01*
X108039643Y-57692400D01*
X108108499Y-57608499D01*
X108192400Y-57539643D01*
X108260945Y-57503005D01*
X108288121Y-57488479D01*
X108391985Y-57456973D01*
X108472933Y-57449000D01*
X109527067Y-57449000D01*
X109608015Y-57456973D01*
X109608015Y-57456973D01*
G37*
G36*
X109608015Y-55456973D02*
G01*
X109711879Y-55488479D01*
X109739055Y-55503005D01*
X109807600Y-55539643D01*
X109891501Y-55608499D01*
X109960357Y-55692400D01*
X109996995Y-55760945D01*
X110011521Y-55788121D01*
X110043027Y-55891985D01*
X110053666Y-56000000D01*
X110043027Y-56108015D01*
X110011521Y-56211879D01*
X110011519Y-56211882D01*
X109960357Y-56307600D01*
X109891501Y-56391501D01*
X109807600Y-56460357D01*
X109739055Y-56496995D01*
X109711879Y-56511521D01*
X109608015Y-56543027D01*
X109527067Y-56551000D01*
X108472933Y-56551000D01*
X108391985Y-56543027D01*
X108288121Y-56511521D01*
X108260945Y-56496995D01*
X108192400Y-56460357D01*
X108108499Y-56391501D01*
X108039643Y-56307600D01*
X107988481Y-56211882D01*
X107988479Y-56211879D01*
X107956973Y-56108015D01*
X107946334Y-56000000D01*
X107956973Y-55891985D01*
X107988479Y-55788121D01*
X108003005Y-55760945D01*
X108039643Y-55692400D01*
X108108499Y-55608499D01*
X108192400Y-55539643D01*
X108260945Y-55503005D01*
X108288121Y-55488479D01*
X108391985Y-55456973D01*
X108472933Y-55449000D01*
X109527067Y-55449000D01*
X109608015Y-55456973D01*
X109608015Y-55456973D01*
G37*
G36*
X109608015Y-53456973D02*
G01*
X109711879Y-53488479D01*
X109739055Y-53503005D01*
X109807600Y-53539643D01*
X109891501Y-53608499D01*
X109960357Y-53692400D01*
X109996995Y-53760945D01*
X110011521Y-53788121D01*
X110043027Y-53891985D01*
X110053666Y-54000000D01*
X110043027Y-54108015D01*
X110011521Y-54211879D01*
X110011519Y-54211882D01*
X109960357Y-54307600D01*
X109891501Y-54391501D01*
X109807600Y-54460357D01*
X109739055Y-54496995D01*
X109711879Y-54511521D01*
X109608015Y-54543027D01*
X109527067Y-54551000D01*
X108472933Y-54551000D01*
X108391985Y-54543027D01*
X108288121Y-54511521D01*
X108260945Y-54496995D01*
X108192400Y-54460357D01*
X108108499Y-54391501D01*
X108039643Y-54307600D01*
X107988481Y-54211882D01*
X107988479Y-54211879D01*
X107956973Y-54108015D01*
X107946334Y-54000000D01*
X107956973Y-53891985D01*
X107988479Y-53788121D01*
X108003005Y-53760945D01*
X108039643Y-53692400D01*
X108108499Y-53608499D01*
X108192400Y-53539643D01*
X108260945Y-53503005D01*
X108288121Y-53488479D01*
X108391985Y-53456973D01*
X108472933Y-53449000D01*
X109527067Y-53449000D01*
X109608015Y-53456973D01*
X109608015Y-53456973D01*
G37*
G36*
X109608015Y-51456973D02*
G01*
X109711879Y-51488479D01*
X109739055Y-51503005D01*
X109807600Y-51539643D01*
X109891501Y-51608499D01*
X109960357Y-51692400D01*
X109991679Y-51751000D01*
X110011521Y-51788121D01*
X110043027Y-51891985D01*
X110053666Y-52000000D01*
X110043027Y-52108015D01*
X110011521Y-52211879D01*
X110011519Y-52211882D01*
X109960357Y-52307600D01*
X109891501Y-52391501D01*
X109807600Y-52460357D01*
X109739055Y-52496995D01*
X109711879Y-52511521D01*
X109608015Y-52543027D01*
X109527067Y-52551000D01*
X108472933Y-52551000D01*
X108391985Y-52543027D01*
X108288121Y-52511521D01*
X108260945Y-52496995D01*
X108192400Y-52460357D01*
X108108499Y-52391501D01*
X108039643Y-52307600D01*
X107988481Y-52211882D01*
X107988479Y-52211879D01*
X107956973Y-52108015D01*
X107946334Y-52000000D01*
X107956973Y-51891985D01*
X107988479Y-51788121D01*
X108008321Y-51751000D01*
X108039643Y-51692400D01*
X108108499Y-51608499D01*
X108192400Y-51539643D01*
X108260945Y-51503005D01*
X108288121Y-51488479D01*
X108391985Y-51456973D01*
X108472933Y-51449000D01*
X109527067Y-51449000D01*
X109608015Y-51456973D01*
X109608015Y-51456973D01*
G37*
G36*
X121032021Y-50256011D02*
G01*
X121094571Y-50274985D01*
X121152212Y-50305795D01*
X121202738Y-50347262D01*
X121244205Y-50397788D01*
X121275015Y-50455429D01*
X121293989Y-50517979D01*
X121301000Y-50589164D01*
X121301000Y-51410836D01*
X121293989Y-51482021D01*
X121275015Y-51544571D01*
X121244205Y-51602212D01*
X121202738Y-51652738D01*
X121152212Y-51694205D01*
X121094571Y-51725015D01*
X121032021Y-51743989D01*
X120960836Y-51751000D01*
X119039164Y-51751000D01*
X118967979Y-51743989D01*
X118905429Y-51725015D01*
X118847788Y-51694205D01*
X118797262Y-51652738D01*
X118755795Y-51602212D01*
X118724985Y-51544571D01*
X118706011Y-51482021D01*
X118699000Y-51410836D01*
X118699000Y-50589164D01*
X118706011Y-50517979D01*
X118724985Y-50455429D01*
X118755795Y-50397788D01*
X118797262Y-50347262D01*
X118847788Y-50305795D01*
X118905429Y-50274985D01*
X118967979Y-50256011D01*
X119039164Y-50249000D01*
X120960836Y-50249000D01*
X121032021Y-50256011D01*
X121032021Y-50256011D01*
G37*
G36*
X96981564Y-49239389D02*
G01*
X97172833Y-49318615D01*
X97172835Y-49318616D01*
X97344973Y-49433635D01*
X97491365Y-49580027D01*
X97606385Y-49752167D01*
X97685611Y-49943436D01*
X97726000Y-50146484D01*
X97726000Y-50353516D01*
X97685611Y-50556564D01*
X97650005Y-50642524D01*
X97606384Y-50747835D01*
X97491365Y-50919973D01*
X97344973Y-51066365D01*
X97172835Y-51181384D01*
X97172834Y-51181385D01*
X97172833Y-51181385D01*
X96981564Y-51260611D01*
X96778516Y-51301000D01*
X96571484Y-51301000D01*
X96368436Y-51260611D01*
X96177167Y-51181385D01*
X96177166Y-51181385D01*
X96177165Y-51181384D01*
X96005027Y-51066365D01*
X95858635Y-50919973D01*
X95743616Y-50747835D01*
X95699995Y-50642524D01*
X95664389Y-50556564D01*
X95624000Y-50353516D01*
X95624000Y-50146484D01*
X95664389Y-49943436D01*
X95743615Y-49752167D01*
X95858635Y-49580027D01*
X96005027Y-49433635D01*
X96177165Y-49318616D01*
X96177167Y-49318615D01*
X96368436Y-49239389D01*
X96571484Y-49199000D01*
X96778516Y-49199000D01*
X96981564Y-49239389D01*
X96981564Y-49239389D01*
G37*
G36*
X93479501Y-45172054D02*
G01*
X93825461Y-45315356D01*
X94136817Y-45523397D01*
X94401603Y-45788183D01*
X94609644Y-46099539D01*
X94609645Y-46099541D01*
X94648108Y-46192400D01*
X94730780Y-46391985D01*
X94752946Y-46445500D01*
X94814711Y-46756011D01*
X94826000Y-46812768D01*
X94826000Y-47187232D01*
X94752946Y-47554501D01*
X94609644Y-47900461D01*
X94401603Y-48211817D01*
X94136817Y-48476603D01*
X93825461Y-48684644D01*
X93479501Y-48827946D01*
X93112233Y-48901000D01*
X92737767Y-48901000D01*
X92370499Y-48827946D01*
X92024539Y-48684644D01*
X91713183Y-48476603D01*
X91448397Y-48211817D01*
X91240356Y-47900461D01*
X91097054Y-47554501D01*
X91024000Y-47187232D01*
X91024000Y-46812768D01*
X91035290Y-46756011D01*
X91097054Y-46445500D01*
X91119221Y-46391985D01*
X91201892Y-46192400D01*
X91240355Y-46099541D01*
X91240356Y-46099539D01*
X91448397Y-45788183D01*
X91713183Y-45523397D01*
X92024539Y-45315356D01*
X92370499Y-45172054D01*
X92737767Y-45099000D01*
X93112233Y-45099000D01*
X93479501Y-45172054D01*
X93479501Y-45172054D01*
G37*
G36*
X121032021Y-46756011D02*
G01*
X121094571Y-46774985D01*
X121152212Y-46805795D01*
X121202738Y-46847262D01*
X121244205Y-46897788D01*
X121275015Y-46955429D01*
X121293989Y-47017979D01*
X121301000Y-47089164D01*
X121301000Y-47910836D01*
X121293989Y-47982021D01*
X121275015Y-48044571D01*
X121244205Y-48102212D01*
X121202738Y-48152738D01*
X121152212Y-48194205D01*
X121094571Y-48225015D01*
X121032021Y-48243989D01*
X120960836Y-48251000D01*
X119039164Y-48251000D01*
X118967979Y-48243989D01*
X118905429Y-48225015D01*
X118847788Y-48194205D01*
X118797262Y-48152738D01*
X118755795Y-48102212D01*
X118724985Y-48044571D01*
X118706011Y-47982021D01*
X118699000Y-47910836D01*
X118699000Y-47089164D01*
X118706011Y-47017979D01*
X118724985Y-46955429D01*
X118755795Y-46897788D01*
X118797262Y-46847262D01*
X118847788Y-46805795D01*
X118905429Y-46774985D01*
X118967979Y-46756011D01*
X119039164Y-46749000D01*
X120960836Y-46749000D01*
X121032021Y-46756011D01*
X121032021Y-46756011D01*
G37*
G36*
X109608015Y-45956973D02*
G01*
X109711879Y-45988479D01*
X109739055Y-46003005D01*
X109807600Y-46039643D01*
X109891501Y-46108499D01*
X109960357Y-46192400D01*
X109996995Y-46260945D01*
X110011521Y-46288121D01*
X110043027Y-46391985D01*
X110053666Y-46500000D01*
X110043027Y-46608015D01*
X110011521Y-46711879D01*
X110011519Y-46711882D01*
X109960357Y-46807600D01*
X109891501Y-46891501D01*
X109807600Y-46960357D01*
X109739055Y-46996995D01*
X109711879Y-47011521D01*
X109608015Y-47043027D01*
X109527067Y-47051000D01*
X108472933Y-47051000D01*
X108391985Y-47043027D01*
X108288121Y-47011521D01*
X108260945Y-46996995D01*
X108192400Y-46960357D01*
X108108499Y-46891501D01*
X108039643Y-46807600D01*
X107988481Y-46711882D01*
X107988479Y-46711879D01*
X107956973Y-46608015D01*
X107946334Y-46500000D01*
X107956973Y-46391985D01*
X107988479Y-46288121D01*
X108003005Y-46260945D01*
X108039643Y-46192400D01*
X108108499Y-46108499D01*
X108192400Y-46039643D01*
X108260945Y-46003005D01*
X108288121Y-45988479D01*
X108391985Y-45956973D01*
X108472933Y-45949000D01*
X109527067Y-45949000D01*
X109608015Y-45956973D01*
X109608015Y-45956973D01*
G37*
G36*
X109608015Y-43956973D02*
G01*
X109711879Y-43988479D01*
X109739055Y-44003005D01*
X109807600Y-44039643D01*
X109891501Y-44108499D01*
X109960357Y-44192400D01*
X109989986Y-44247833D01*
X110011521Y-44288121D01*
X110043027Y-44391985D01*
X110053666Y-44500000D01*
X110043027Y-44608015D01*
X110011521Y-44711879D01*
X110011519Y-44711882D01*
X109960357Y-44807600D01*
X109891501Y-44891501D01*
X109807600Y-44960357D01*
X109739055Y-44996995D01*
X109711879Y-45011521D01*
X109608015Y-45043027D01*
X109527067Y-45051000D01*
X108472933Y-45051000D01*
X108391985Y-45043027D01*
X108288121Y-45011521D01*
X108260945Y-44996995D01*
X108192400Y-44960357D01*
X108108499Y-44891501D01*
X108039643Y-44807600D01*
X107988481Y-44711882D01*
X107988479Y-44711879D01*
X107956973Y-44608015D01*
X107946334Y-44500000D01*
X107956973Y-44391985D01*
X107988479Y-44288121D01*
X108010014Y-44247833D01*
X108039643Y-44192400D01*
X108108499Y-44108499D01*
X108192400Y-44039643D01*
X108260945Y-44003005D01*
X108288121Y-43988479D01*
X108391985Y-43956973D01*
X108472933Y-43949000D01*
X109527067Y-43949000D01*
X109608015Y-43956973D01*
X109608015Y-43956973D01*
G37*
G36*
X89583676Y-42608013D02*
G01*
X89760734Y-42643232D01*
X89970203Y-42729997D01*
X90158720Y-42855960D01*
X90319040Y-43016280D01*
X90342239Y-43051000D01*
X90445004Y-43204799D01*
X90531768Y-43414267D01*
X90576000Y-43636635D01*
X90576000Y-43863365D01*
X90531768Y-44085733D01*
X90447937Y-44288121D01*
X90445003Y-44295203D01*
X90319040Y-44483720D01*
X90158720Y-44644040D01*
X89970203Y-44770003D01*
X89760734Y-44856768D01*
X89649549Y-44878884D01*
X89538365Y-44901000D01*
X89311635Y-44901000D01*
X89200451Y-44878884D01*
X89089266Y-44856768D01*
X88879797Y-44770003D01*
X88691280Y-44644040D01*
X88530960Y-44483720D01*
X88404997Y-44295203D01*
X88402064Y-44288121D01*
X88318232Y-44085733D01*
X88274000Y-43863365D01*
X88274000Y-43636635D01*
X88318232Y-43414267D01*
X88404996Y-43204799D01*
X88507761Y-43051000D01*
X88530960Y-43016280D01*
X88691280Y-42855960D01*
X88879797Y-42729997D01*
X89089266Y-42643232D01*
X89266324Y-42608013D01*
X89311635Y-42599000D01*
X89538365Y-42599000D01*
X89583676Y-42608013D01*
X89583676Y-42608013D01*
G37*
G36*
X96981564Y-42739389D02*
G01*
X97146240Y-42807600D01*
X97172835Y-42818616D01*
X97344973Y-42933635D01*
X97491365Y-43080027D01*
X97574734Y-43204797D01*
X97606385Y-43252167D01*
X97685611Y-43443436D01*
X97726000Y-43646484D01*
X97726000Y-43853516D01*
X97685611Y-44056564D01*
X97629346Y-44192400D01*
X97606384Y-44247835D01*
X97491365Y-44419973D01*
X97344973Y-44566365D01*
X97172835Y-44681384D01*
X97172834Y-44681385D01*
X97172833Y-44681385D01*
X96981564Y-44760611D01*
X96778516Y-44801000D01*
X96571484Y-44801000D01*
X96368436Y-44760611D01*
X96177167Y-44681385D01*
X96177166Y-44681385D01*
X96177165Y-44681384D01*
X96005027Y-44566365D01*
X95858635Y-44419973D01*
X95743616Y-44247835D01*
X95720654Y-44192400D01*
X95664389Y-44056564D01*
X95624000Y-43853516D01*
X95624000Y-43646484D01*
X95664389Y-43443436D01*
X95743615Y-43252167D01*
X95775267Y-43204797D01*
X95858635Y-43080027D01*
X96005027Y-42933635D01*
X96177165Y-42818616D01*
X96203760Y-42807600D01*
X96368436Y-42739389D01*
X96571484Y-42699000D01*
X96778516Y-42699000D01*
X96981564Y-42739389D01*
X96981564Y-42739389D01*
G37*
G36*
X109608015Y-41956973D02*
G01*
X109711879Y-41988479D01*
X109739055Y-42003005D01*
X109807600Y-42039643D01*
X109891501Y-42108499D01*
X109960357Y-42192400D01*
X109996995Y-42260945D01*
X110011521Y-42288121D01*
X110043027Y-42391985D01*
X110053666Y-42500000D01*
X110043027Y-42608015D01*
X110011521Y-42711879D01*
X109996995Y-42739055D01*
X109960357Y-42807600D01*
X109891501Y-42891501D01*
X109807600Y-42960357D01*
X109739055Y-42996995D01*
X109711879Y-43011521D01*
X109608015Y-43043027D01*
X109527067Y-43051000D01*
X108472933Y-43051000D01*
X108391985Y-43043027D01*
X108288121Y-43011521D01*
X108260945Y-42996995D01*
X108192400Y-42960357D01*
X108108499Y-42891501D01*
X108039643Y-42807600D01*
X108003005Y-42739055D01*
X107988479Y-42711879D01*
X107956973Y-42608015D01*
X107946334Y-42500000D01*
X107956973Y-42391985D01*
X107988479Y-42288121D01*
X108003005Y-42260945D01*
X108039643Y-42192400D01*
X108108499Y-42108499D01*
X108192400Y-42039643D01*
X108260945Y-42003005D01*
X108288121Y-41988479D01*
X108391985Y-41956973D01*
X108472933Y-41949000D01*
X109527067Y-41949000D01*
X109608015Y-41956973D01*
X109608015Y-41956973D01*
G37*
G36*
X109608015Y-39956973D02*
G01*
X109711879Y-39988479D01*
X109739055Y-40003005D01*
X109807600Y-40039643D01*
X109891501Y-40108499D01*
X109960357Y-40192400D01*
X109996995Y-40260945D01*
X110011521Y-40288121D01*
X110043027Y-40391985D01*
X110053666Y-40500000D01*
X110043027Y-40608015D01*
X110011521Y-40711879D01*
X110011519Y-40711882D01*
X109960357Y-40807600D01*
X109891501Y-40891501D01*
X109807600Y-40960357D01*
X109739055Y-40996995D01*
X109711879Y-41011521D01*
X109608015Y-41043027D01*
X109527067Y-41051000D01*
X108472933Y-41051000D01*
X108391985Y-41043027D01*
X108288121Y-41011521D01*
X108260945Y-40996995D01*
X108192400Y-40960357D01*
X108108499Y-40891501D01*
X108039643Y-40807600D01*
X107988481Y-40711882D01*
X107988479Y-40711879D01*
X107956973Y-40608015D01*
X107946334Y-40500000D01*
X107956973Y-40391985D01*
X107988479Y-40288121D01*
X108003005Y-40260945D01*
X108039643Y-40192400D01*
X108108499Y-40108499D01*
X108192400Y-40039643D01*
X108260945Y-40003005D01*
X108288121Y-39988479D01*
X108391985Y-39956973D01*
X108472933Y-39949000D01*
X109527067Y-39949000D01*
X109608015Y-39956973D01*
X109608015Y-39956973D01*
G37*
G36*
X109608015Y-37956973D02*
G01*
X109711879Y-37988479D01*
X109739055Y-38003005D01*
X109807600Y-38039643D01*
X109891501Y-38108499D01*
X109960357Y-38192400D01*
X109996995Y-38260945D01*
X110011521Y-38288121D01*
X110043027Y-38391985D01*
X110053666Y-38500000D01*
X110043027Y-38608015D01*
X110011521Y-38711879D01*
X110011519Y-38711882D01*
X109960357Y-38807600D01*
X109891501Y-38891501D01*
X109807600Y-38960357D01*
X109739055Y-38996995D01*
X109711879Y-39011521D01*
X109608015Y-39043027D01*
X109527067Y-39051000D01*
X108472933Y-39051000D01*
X108391985Y-39043027D01*
X108288121Y-39011521D01*
X108260945Y-38996995D01*
X108192400Y-38960357D01*
X108108499Y-38891501D01*
X108039643Y-38807600D01*
X107988481Y-38711882D01*
X107988479Y-38711879D01*
X107956973Y-38608015D01*
X107946334Y-38500000D01*
X107956973Y-38391985D01*
X107988479Y-38288121D01*
X108003005Y-38260945D01*
X108039643Y-38192400D01*
X108108499Y-38108499D01*
X108192400Y-38039643D01*
X108260945Y-38003005D01*
X108288121Y-37988479D01*
X108391985Y-37956973D01*
X108472933Y-37949000D01*
X109527067Y-37949000D01*
X109608015Y-37956973D01*
X109608015Y-37956973D01*
G37*
G36*
X96981564Y-35239389D02*
G01*
X97172833Y-35318615D01*
X97172835Y-35318616D01*
X97344973Y-35433635D01*
X97491365Y-35580027D01*
X97606385Y-35752167D01*
X97685611Y-35943436D01*
X97726000Y-36146484D01*
X97726000Y-36353516D01*
X97685611Y-36556564D01*
X97621276Y-36711882D01*
X97606384Y-36747835D01*
X97491365Y-36919973D01*
X97344973Y-37066365D01*
X97172835Y-37181384D01*
X97172834Y-37181385D01*
X97172833Y-37181385D01*
X96981564Y-37260611D01*
X96778516Y-37301000D01*
X96571484Y-37301000D01*
X96368436Y-37260611D01*
X96177167Y-37181385D01*
X96177166Y-37181385D01*
X96177165Y-37181384D01*
X96005027Y-37066365D01*
X95858635Y-36919973D01*
X95743616Y-36747835D01*
X95728724Y-36711882D01*
X95664389Y-36556564D01*
X95624000Y-36353516D01*
X95624000Y-36146484D01*
X95664389Y-35943436D01*
X95743615Y-35752167D01*
X95858635Y-35580027D01*
X96005027Y-35433635D01*
X96177165Y-35318616D01*
X96177167Y-35318615D01*
X96368436Y-35239389D01*
X96571484Y-35199000D01*
X96778516Y-35199000D01*
X96981564Y-35239389D01*
X96981564Y-35239389D01*
G37*
G36*
X109608015Y-35956973D02*
G01*
X109711879Y-35988479D01*
X109739055Y-36003005D01*
X109807600Y-36039643D01*
X109891501Y-36108499D01*
X109960357Y-36192400D01*
X109991679Y-36251000D01*
X110011521Y-36288121D01*
X110043027Y-36391985D01*
X110053666Y-36500000D01*
X110043027Y-36608015D01*
X110011521Y-36711879D01*
X110011519Y-36711882D01*
X109960357Y-36807600D01*
X109891501Y-36891501D01*
X109807600Y-36960357D01*
X109739055Y-36996995D01*
X109711879Y-37011521D01*
X109608015Y-37043027D01*
X109527067Y-37051000D01*
X108472933Y-37051000D01*
X108391985Y-37043027D01*
X108288121Y-37011521D01*
X108260945Y-36996995D01*
X108192400Y-36960357D01*
X108108499Y-36891501D01*
X108039643Y-36807600D01*
X107988481Y-36711882D01*
X107988479Y-36711879D01*
X107956973Y-36608015D01*
X107946334Y-36500000D01*
X107956973Y-36391985D01*
X107988479Y-36288121D01*
X108008321Y-36251000D01*
X108039643Y-36192400D01*
X108108499Y-36108499D01*
X108192400Y-36039643D01*
X108260945Y-36003005D01*
X108288121Y-35988479D01*
X108391985Y-35956973D01*
X108472933Y-35949000D01*
X109527067Y-35949000D01*
X109608015Y-35956973D01*
X109608015Y-35956973D01*
G37*
G36*
X121032021Y-34756011D02*
G01*
X121094571Y-34774985D01*
X121152212Y-34805795D01*
X121202738Y-34847262D01*
X121244205Y-34897788D01*
X121275015Y-34955429D01*
X121293989Y-35017979D01*
X121301000Y-35089164D01*
X121301000Y-35910836D01*
X121293989Y-35982021D01*
X121275015Y-36044571D01*
X121244205Y-36102212D01*
X121202738Y-36152738D01*
X121152212Y-36194205D01*
X121094571Y-36225015D01*
X121032021Y-36243989D01*
X120960836Y-36251000D01*
X119039164Y-36251000D01*
X118967979Y-36243989D01*
X118905429Y-36225015D01*
X118847788Y-36194205D01*
X118797262Y-36152738D01*
X118755795Y-36102212D01*
X118724985Y-36044571D01*
X118706011Y-35982021D01*
X118699000Y-35910836D01*
X118699000Y-35089164D01*
X118706011Y-35017979D01*
X118724985Y-34955429D01*
X118755795Y-34897788D01*
X118797262Y-34847262D01*
X118847788Y-34805795D01*
X118905429Y-34774985D01*
X118967979Y-34756011D01*
X119039164Y-34749000D01*
X120960836Y-34749000D01*
X121032021Y-34756011D01*
X121032021Y-34756011D01*
G37*
G36*
X121032021Y-31256011D02*
G01*
X121094571Y-31274985D01*
X121152212Y-31305795D01*
X121202738Y-31347262D01*
X121244205Y-31397788D01*
X121275015Y-31455429D01*
X121293989Y-31517979D01*
X121301000Y-31589164D01*
X121301000Y-32410836D01*
X121293989Y-32482021D01*
X121275015Y-32544571D01*
X121244205Y-32602212D01*
X121202738Y-32652738D01*
X121152212Y-32694205D01*
X121094571Y-32725015D01*
X121032021Y-32743989D01*
X120960836Y-32751000D01*
X119039164Y-32751000D01*
X118967979Y-32743989D01*
X118905429Y-32725015D01*
X118847788Y-32694205D01*
X118797262Y-32652738D01*
X118755795Y-32602212D01*
X118724985Y-32544571D01*
X118706011Y-32482021D01*
X118699000Y-32410836D01*
X118699000Y-31589164D01*
X118706011Y-31517979D01*
X118724985Y-31455429D01*
X118755795Y-31397788D01*
X118797262Y-31347262D01*
X118847788Y-31305795D01*
X118905429Y-31274985D01*
X118967979Y-31256011D01*
X119039164Y-31249000D01*
X120960836Y-31249000D01*
X121032021Y-31256011D01*
X121032021Y-31256011D01*
G37*
G36*
X109608015Y-30456973D02*
G01*
X109711879Y-30488479D01*
X109739055Y-30503005D01*
X109807600Y-30539643D01*
X109891501Y-30608499D01*
X109960357Y-30692400D01*
X109996816Y-30760610D01*
X110011521Y-30788121D01*
X110043027Y-30891985D01*
X110053666Y-31000000D01*
X110043027Y-31108015D01*
X110011521Y-31211879D01*
X110011519Y-31211882D01*
X109960357Y-31307600D01*
X109891501Y-31391501D01*
X109807600Y-31460357D01*
X109739055Y-31496995D01*
X109711879Y-31511521D01*
X109608015Y-31543027D01*
X109527067Y-31551000D01*
X108472933Y-31551000D01*
X108391985Y-31543027D01*
X108288121Y-31511521D01*
X108260945Y-31496995D01*
X108192400Y-31460357D01*
X108108499Y-31391501D01*
X108039643Y-31307600D01*
X107988481Y-31211882D01*
X107988479Y-31211879D01*
X107956973Y-31108015D01*
X107946334Y-31000000D01*
X107956973Y-30891985D01*
X107988479Y-30788121D01*
X108003184Y-30760610D01*
X108039643Y-30692400D01*
X108108499Y-30608499D01*
X108192400Y-30539643D01*
X108260945Y-30503005D01*
X108288121Y-30488479D01*
X108391985Y-30456973D01*
X108472933Y-30449000D01*
X109527067Y-30449000D01*
X109608015Y-30456973D01*
X109608015Y-30456973D01*
G37*
G36*
X89586119Y-28608499D02*
G01*
X89760734Y-28643232D01*
X89970203Y-28729997D01*
X90158720Y-28855960D01*
X90319040Y-29016280D01*
X90361634Y-29080027D01*
X90445004Y-29204799D01*
X90531768Y-29414267D01*
X90576000Y-29636635D01*
X90576000Y-29863365D01*
X90531768Y-30085733D01*
X90464624Y-30247835D01*
X90445003Y-30295203D01*
X90319040Y-30483720D01*
X90158720Y-30644040D01*
X89970203Y-30770003D01*
X89760734Y-30856768D01*
X89649549Y-30878884D01*
X89538365Y-30901000D01*
X89311635Y-30901000D01*
X89200451Y-30878884D01*
X89089266Y-30856768D01*
X88879797Y-30770003D01*
X88691280Y-30644040D01*
X88530960Y-30483720D01*
X88404997Y-30295203D01*
X88385377Y-30247835D01*
X88318232Y-30085733D01*
X88274000Y-29863365D01*
X88274000Y-29636635D01*
X88318232Y-29414267D01*
X88404996Y-29204799D01*
X88488366Y-29080027D01*
X88530960Y-29016280D01*
X88691280Y-28855960D01*
X88879797Y-28729997D01*
X89089266Y-28643232D01*
X89263881Y-28608499D01*
X89311635Y-28599000D01*
X89538365Y-28599000D01*
X89586119Y-28608499D01*
X89586119Y-28608499D01*
G37*
G36*
X96981564Y-28739389D02*
G01*
X97172833Y-28818615D01*
X97172835Y-28818616D01*
X97344973Y-28933635D01*
X97491365Y-29080027D01*
X97579468Y-29211882D01*
X97606385Y-29252167D01*
X97685611Y-29443436D01*
X97726000Y-29646484D01*
X97726000Y-29853516D01*
X97685611Y-30056564D01*
X97673528Y-30085734D01*
X97606384Y-30247835D01*
X97491365Y-30419973D01*
X97344973Y-30566365D01*
X97172835Y-30681384D01*
X97172834Y-30681385D01*
X97172833Y-30681385D01*
X96981564Y-30760611D01*
X96778516Y-30801000D01*
X96571484Y-30801000D01*
X96368436Y-30760611D01*
X96177167Y-30681385D01*
X96177166Y-30681385D01*
X96177165Y-30681384D01*
X96005027Y-30566365D01*
X95858635Y-30419973D01*
X95743616Y-30247835D01*
X95676472Y-30085734D01*
X95664389Y-30056564D01*
X95624000Y-29853516D01*
X95624000Y-29646484D01*
X95664389Y-29443436D01*
X95743615Y-29252167D01*
X95770533Y-29211882D01*
X95858635Y-29080027D01*
X96005027Y-28933635D01*
X96177165Y-28818616D01*
X96177167Y-28818615D01*
X96368436Y-28739389D01*
X96571484Y-28699000D01*
X96778516Y-28699000D01*
X96981564Y-28739389D01*
X96981564Y-28739389D01*
G37*
G36*
X109608015Y-28456973D02*
G01*
X109711879Y-28488479D01*
X109739055Y-28503005D01*
X109807600Y-28539643D01*
X109891501Y-28608499D01*
X109960357Y-28692400D01*
X109996995Y-28760945D01*
X110011521Y-28788121D01*
X110043027Y-28891985D01*
X110053666Y-29000000D01*
X110043027Y-29108015D01*
X110011521Y-29211879D01*
X110011519Y-29211882D01*
X109960357Y-29307600D01*
X109891501Y-29391501D01*
X109807600Y-29460357D01*
X109739055Y-29496995D01*
X109711879Y-29511521D01*
X109608015Y-29543027D01*
X109527067Y-29551000D01*
X108472933Y-29551000D01*
X108391985Y-29543027D01*
X108288121Y-29511521D01*
X108260945Y-29496995D01*
X108192400Y-29460357D01*
X108108499Y-29391501D01*
X108039643Y-29307600D01*
X107988481Y-29211882D01*
X107988479Y-29211879D01*
X107956973Y-29108015D01*
X107946334Y-29000000D01*
X107956973Y-28891985D01*
X107988479Y-28788121D01*
X108003005Y-28760945D01*
X108039643Y-28692400D01*
X108108499Y-28608499D01*
X108192400Y-28539643D01*
X108260945Y-28503005D01*
X108288121Y-28488479D01*
X108391985Y-28456973D01*
X108472933Y-28449000D01*
X109527067Y-28449000D01*
X109608015Y-28456973D01*
X109608015Y-28456973D01*
G37*
G36*
X109608015Y-26456973D02*
G01*
X109711879Y-26488479D01*
X109739055Y-26503005D01*
X109807600Y-26539643D01*
X109891501Y-26608499D01*
X109960357Y-26692400D01*
X109996995Y-26760945D01*
X110011521Y-26788121D01*
X110043027Y-26891985D01*
X110053666Y-27000000D01*
X110043027Y-27108015D01*
X110011521Y-27211879D01*
X110011519Y-27211882D01*
X109960357Y-27307600D01*
X109891501Y-27391501D01*
X109807600Y-27460357D01*
X109739055Y-27496995D01*
X109711879Y-27511521D01*
X109608015Y-27543027D01*
X109527067Y-27551000D01*
X108472933Y-27551000D01*
X108391985Y-27543027D01*
X108288121Y-27511521D01*
X108260945Y-27496995D01*
X108192400Y-27460357D01*
X108108499Y-27391501D01*
X108039643Y-27307600D01*
X107988481Y-27211882D01*
X107988479Y-27211879D01*
X107956973Y-27108015D01*
X107946334Y-27000000D01*
X107956973Y-26891985D01*
X107988479Y-26788121D01*
X108003005Y-26760945D01*
X108039643Y-26692400D01*
X108108499Y-26608499D01*
X108192400Y-26539643D01*
X108260945Y-26503005D01*
X108288121Y-26488479D01*
X108391985Y-26456973D01*
X108472933Y-26449000D01*
X109527067Y-26449000D01*
X109608015Y-26456973D01*
X109608015Y-26456973D01*
G37*
G36*
X109608015Y-24456973D02*
G01*
X109711879Y-24488479D01*
X109739055Y-24503005D01*
X109807600Y-24539643D01*
X109891501Y-24608499D01*
X109960357Y-24692400D01*
X109996995Y-24760945D01*
X110011521Y-24788121D01*
X110043027Y-24891985D01*
X110053666Y-25000000D01*
X110043027Y-25108015D01*
X110011521Y-25211879D01*
X110011519Y-25211882D01*
X109960357Y-25307600D01*
X109891501Y-25391501D01*
X109807600Y-25460357D01*
X109739055Y-25496995D01*
X109711879Y-25511521D01*
X109608015Y-25543027D01*
X109527067Y-25551000D01*
X108472933Y-25551000D01*
X108391985Y-25543027D01*
X108288121Y-25511521D01*
X108260945Y-25496995D01*
X108192400Y-25460357D01*
X108108499Y-25391501D01*
X108039643Y-25307600D01*
X107988481Y-25211882D01*
X107988479Y-25211879D01*
X107956973Y-25108015D01*
X107946334Y-25000000D01*
X107956973Y-24891985D01*
X107988479Y-24788121D01*
X108003005Y-24760945D01*
X108039643Y-24692400D01*
X108108499Y-24608499D01*
X108192400Y-24539643D01*
X108260945Y-24503005D01*
X108288121Y-24488479D01*
X108391985Y-24456973D01*
X108472933Y-24449000D01*
X109527067Y-24449000D01*
X109608015Y-24456973D01*
X109608015Y-24456973D01*
G37*
G36*
X109608015Y-22456973D02*
G01*
X109711879Y-22488479D01*
X109739055Y-22503005D01*
X109807600Y-22539643D01*
X109891501Y-22608499D01*
X109960357Y-22692400D01*
X109989986Y-22747833D01*
X110011521Y-22788121D01*
X110043027Y-22891985D01*
X110053666Y-23000000D01*
X110043027Y-23108015D01*
X110011521Y-23211879D01*
X110011519Y-23211882D01*
X109960357Y-23307600D01*
X109891501Y-23391501D01*
X109807600Y-23460357D01*
X109739055Y-23496995D01*
X109711879Y-23511521D01*
X109608015Y-23543027D01*
X109527067Y-23551000D01*
X108472933Y-23551000D01*
X108391985Y-23543027D01*
X108288121Y-23511521D01*
X108260945Y-23496995D01*
X108192400Y-23460357D01*
X108108499Y-23391501D01*
X108039643Y-23307600D01*
X107988481Y-23211882D01*
X107988479Y-23211879D01*
X107956973Y-23108015D01*
X107946334Y-23000000D01*
X107956973Y-22891985D01*
X107988479Y-22788121D01*
X108010014Y-22747833D01*
X108039643Y-22692400D01*
X108108499Y-22608499D01*
X108192400Y-22539643D01*
X108260945Y-22503005D01*
X108288121Y-22488479D01*
X108391985Y-22456973D01*
X108472933Y-22449000D01*
X109527067Y-22449000D01*
X109608015Y-22456973D01*
X109608015Y-22456973D01*
G37*
G36*
X96981564Y-21239389D02*
G01*
X97146240Y-21307600D01*
X97172835Y-21318616D01*
X97281915Y-21391501D01*
X97344973Y-21433635D01*
X97491365Y-21580027D01*
X97606385Y-21752167D01*
X97685611Y-21943436D01*
X97726000Y-22146484D01*
X97726000Y-22353516D01*
X97685611Y-22556564D01*
X97629346Y-22692400D01*
X97606384Y-22747835D01*
X97491365Y-22919973D01*
X97344973Y-23066365D01*
X97172835Y-23181384D01*
X97172834Y-23181385D01*
X97172833Y-23181385D01*
X96981564Y-23260611D01*
X96778516Y-23301000D01*
X96571484Y-23301000D01*
X96368436Y-23260611D01*
X96177167Y-23181385D01*
X96177166Y-23181385D01*
X96177165Y-23181384D01*
X96005027Y-23066365D01*
X95858635Y-22919973D01*
X95743616Y-22747835D01*
X95720654Y-22692400D01*
X95664389Y-22556564D01*
X95624000Y-22353516D01*
X95624000Y-22146484D01*
X95664389Y-21943436D01*
X95743615Y-21752167D01*
X95858635Y-21580027D01*
X96005027Y-21433635D01*
X96068085Y-21391501D01*
X96177165Y-21318616D01*
X96203760Y-21307600D01*
X96368436Y-21239389D01*
X96571484Y-21199000D01*
X96778516Y-21199000D01*
X96981564Y-21239389D01*
X96981564Y-21239389D01*
G37*
G36*
X109608015Y-20456973D02*
G01*
X109711879Y-20488479D01*
X109739055Y-20503005D01*
X109807600Y-20539643D01*
X109891501Y-20608499D01*
X109960357Y-20692400D01*
X109991679Y-20751000D01*
X110011521Y-20788121D01*
X110043027Y-20891985D01*
X110053666Y-21000000D01*
X110043027Y-21108015D01*
X110011521Y-21211879D01*
X110011519Y-21211882D01*
X109960357Y-21307600D01*
X109891501Y-21391501D01*
X109807600Y-21460357D01*
X109739055Y-21496995D01*
X109711879Y-21511521D01*
X109608015Y-21543027D01*
X109527067Y-21551000D01*
X108472933Y-21551000D01*
X108391985Y-21543027D01*
X108288121Y-21511521D01*
X108260945Y-21496995D01*
X108192400Y-21460357D01*
X108108499Y-21391501D01*
X108039643Y-21307600D01*
X107988481Y-21211882D01*
X107988479Y-21211879D01*
X107956973Y-21108015D01*
X107946334Y-21000000D01*
X107956973Y-20891985D01*
X107988479Y-20788121D01*
X108008321Y-20751000D01*
X108039643Y-20692400D01*
X108108499Y-20608499D01*
X108192400Y-20539643D01*
X108260945Y-20503005D01*
X108288121Y-20488479D01*
X108391985Y-20456973D01*
X108472933Y-20449000D01*
X109527067Y-20449000D01*
X109608015Y-20456973D01*
X109608015Y-20456973D01*
G37*
G36*
X93289903Y-18647075D02*
G01*
X93517571Y-18741378D01*
X93722466Y-18878285D01*
X93896715Y-19052534D01*
X94033042Y-19256561D01*
X94033623Y-19257431D01*
X94127925Y-19485097D01*
X94176000Y-19726786D01*
X94176000Y-19973214D01*
X94127925Y-20214903D01*
X94068870Y-20357476D01*
X94033622Y-20442571D01*
X93896715Y-20647466D01*
X93722466Y-20821715D01*
X93517571Y-20958622D01*
X93517570Y-20958623D01*
X93517569Y-20958623D01*
X93289903Y-21052925D01*
X93048214Y-21101000D01*
X92801786Y-21101000D01*
X92560097Y-21052925D01*
X92332431Y-20958623D01*
X92332430Y-20958623D01*
X92332429Y-20958622D01*
X92127534Y-20821715D01*
X91953285Y-20647466D01*
X91816378Y-20442571D01*
X91781131Y-20357476D01*
X91722075Y-20214903D01*
X91674000Y-19973214D01*
X91674000Y-19726786D01*
X91722075Y-19485097D01*
X91816377Y-19257431D01*
X91816958Y-19256561D01*
X91953285Y-19052534D01*
X92127534Y-18878285D01*
X92332429Y-18741378D01*
X92560097Y-18647075D01*
X92801786Y-18599000D01*
X93048214Y-18599000D01*
X93289903Y-18647075D01*
X93289903Y-18647075D01*
G37*
G36*
X121032021Y-19256011D02*
G01*
X121094571Y-19274985D01*
X121152212Y-19305795D01*
X121202738Y-19347262D01*
X121244205Y-19397788D01*
X121275015Y-19455429D01*
X121293989Y-19517979D01*
X121301000Y-19589164D01*
X121301000Y-20410836D01*
X121293989Y-20482021D01*
X121275015Y-20544571D01*
X121244205Y-20602212D01*
X121202738Y-20652738D01*
X121152212Y-20694205D01*
X121094571Y-20725015D01*
X121032021Y-20743989D01*
X120960836Y-20751000D01*
X119039164Y-20751000D01*
X118967979Y-20743989D01*
X118905429Y-20725015D01*
X118847788Y-20694205D01*
X118797262Y-20652738D01*
X118755795Y-20602212D01*
X118724985Y-20544571D01*
X118706011Y-20482021D01*
X118699000Y-20410836D01*
X118699000Y-19589164D01*
X118706011Y-19517979D01*
X118724985Y-19455429D01*
X118755795Y-19397788D01*
X118797262Y-19347262D01*
X118847788Y-19305795D01*
X118905429Y-19274985D01*
X118967979Y-19256011D01*
X119039164Y-19249000D01*
X120960836Y-19249000D01*
X121032021Y-19256011D01*
X121032021Y-19256011D01*
G37*
M02*
