G04 #@! TF.GenerationSoftware,KiCad,Pcbnew,(5.1.4-0-10_14)*
G04 #@! TF.CreationDate,2019-11-13T23:07:46+01:00*
G04 #@! TF.ProjectId,audio-mixer,61756469-6f2d-46d6-9978-65722e6b6963,rev?*
G04 #@! TF.SameCoordinates,Original*
G04 #@! TF.FileFunction,Legend,Top*
G04 #@! TF.FilePolarity,Positive*
%FSLAX46Y46*%
G04 Gerber Fmt 4.6, Leading zero omitted, Abs format (unit mm)*
G04 Created by KiCad (PCBNEW (5.1.4-0-10_14)) date 2019-11-13 23:07:46*
%MOMM*%
%LPD*%
G04 APERTURE LIST*
%ADD10C,0.150000*%
%ADD11C,0.120000*%
%ADD12C,0.250000*%
%ADD13C,0.152400*%
%ADD14C,0.100000*%
%ADD15C,0.127000*%
%ADD16C,0.200000*%
%ADD17C,0.050000*%
G04 APERTURE END LIST*
D10*
X131714285Y-67797619D02*
X131714285Y-68511904D01*
X132142857Y-68083333D02*
X130857142Y-67797619D01*
X131285714Y-68416666D02*
X131285714Y-67702380D01*
X130857142Y-68130952D02*
X132142857Y-68416666D01*
X132047619Y-69130952D02*
X131333333Y-69130952D01*
X131190476Y-69083333D01*
X131095238Y-68988095D01*
X131047619Y-68845238D01*
X131047619Y-68750000D01*
X131047619Y-70083333D02*
X131047619Y-69607142D01*
X132047619Y-69607142D01*
X131142857Y-70988095D02*
X131095238Y-70940476D01*
X131047619Y-70797619D01*
X131047619Y-70702380D01*
X131095238Y-70559523D01*
X131190476Y-70464285D01*
X131285714Y-70416666D01*
X131476190Y-70369047D01*
X131619047Y-70369047D01*
X131809523Y-70416666D01*
X131904761Y-70464285D01*
X132000000Y-70559523D01*
X132047619Y-70702380D01*
X132047619Y-70797619D01*
X132000000Y-70940476D01*
X131952380Y-70988095D01*
X132047619Y-71702380D02*
X131333333Y-71702380D01*
X131190476Y-71654761D01*
X131095238Y-71559523D01*
X131047619Y-71416666D01*
X131047619Y-71321428D01*
X131047619Y-72654761D02*
X131047619Y-72178571D01*
X132047619Y-72178571D01*
X131142857Y-73559523D02*
X131095238Y-73511904D01*
X131047619Y-73369047D01*
X131047619Y-73273809D01*
X131095238Y-73130952D01*
X131190476Y-73035714D01*
X131285714Y-72988095D01*
X131476190Y-72940476D01*
X131619047Y-72940476D01*
X131809523Y-72988095D01*
X131904761Y-73035714D01*
X132000000Y-73130952D01*
X132047619Y-73273809D01*
X132047619Y-73369047D01*
X132000000Y-73511904D01*
X131952380Y-73559523D01*
X132047619Y-74273809D02*
X131333333Y-74273809D01*
X131190476Y-74226190D01*
X131095238Y-74130952D01*
X131047619Y-73988095D01*
X131047619Y-73892857D01*
X131047619Y-75226190D02*
X131047619Y-74750000D01*
X132047619Y-74750000D01*
X131142857Y-76130952D02*
X131095238Y-76083333D01*
X131047619Y-75940476D01*
X131047619Y-75845238D01*
X131095238Y-75702380D01*
X131190476Y-75607142D01*
X131285714Y-75559523D01*
X131476190Y-75511904D01*
X131619047Y-75511904D01*
X131809523Y-75559523D01*
X131904761Y-75607142D01*
X132000000Y-75702380D01*
X132047619Y-75845238D01*
X132047619Y-75940476D01*
X132000000Y-76083333D01*
X131952380Y-76130952D01*
X132047619Y-76845238D02*
X131333333Y-76845238D01*
X131190476Y-76797619D01*
X131095238Y-76702380D01*
X131047619Y-76559523D01*
X131047619Y-76464285D01*
X131047619Y-77797619D02*
X131047619Y-77321428D01*
X132047619Y-77321428D01*
X131142857Y-78702380D02*
X131095238Y-78654761D01*
X131047619Y-78511904D01*
X131047619Y-78416666D01*
X131095238Y-78273809D01*
X131190476Y-78178571D01*
X131285714Y-78130952D01*
X131476190Y-78083333D01*
X131619047Y-78083333D01*
X131809523Y-78130952D01*
X131904761Y-78178571D01*
X132000000Y-78273809D01*
X132047619Y-78416666D01*
X132047619Y-78511904D01*
X132000000Y-78654761D01*
X131952380Y-78702380D01*
X131714285Y-20238095D02*
X130904761Y-20238095D01*
X130809523Y-20190476D01*
X130761904Y-20142857D01*
X130714285Y-20047619D01*
X130714285Y-19904761D01*
X130761904Y-19809523D01*
X131095238Y-20238095D02*
X131047619Y-20142857D01*
X131047619Y-19952380D01*
X131095238Y-19857142D01*
X131142857Y-19809523D01*
X131238095Y-19761904D01*
X131523809Y-19761904D01*
X131619047Y-19809523D01*
X131666666Y-19857142D01*
X131714285Y-19952380D01*
X131714285Y-20142857D01*
X131666666Y-20238095D01*
X131047619Y-20714285D02*
X131714285Y-20714285D01*
X132047619Y-20714285D02*
X132000000Y-20666666D01*
X131952380Y-20714285D01*
X132000000Y-20761904D01*
X132047619Y-20714285D01*
X131952380Y-20714285D01*
X131714285Y-21047619D02*
X131714285Y-21428571D01*
X132047619Y-21190476D02*
X131190476Y-21190476D01*
X131095238Y-21238095D01*
X131047619Y-21333333D01*
X131047619Y-21428571D01*
X131047619Y-21761904D02*
X132047619Y-21761904D01*
X131047619Y-22190476D02*
X131571428Y-22190476D01*
X131666666Y-22142857D01*
X131714285Y-22047619D01*
X131714285Y-21904761D01*
X131666666Y-21809523D01*
X131619047Y-21761904D01*
X131714285Y-23095238D02*
X131047619Y-23095238D01*
X131714285Y-22666666D02*
X131190476Y-22666666D01*
X131095238Y-22714285D01*
X131047619Y-22809523D01*
X131047619Y-22952380D01*
X131095238Y-23047619D01*
X131142857Y-23095238D01*
X131047619Y-23571428D02*
X132047619Y-23571428D01*
X131666666Y-23571428D02*
X131714285Y-23666666D01*
X131714285Y-23857142D01*
X131666666Y-23952380D01*
X131619047Y-24000000D01*
X131523809Y-24047619D01*
X131238095Y-24047619D01*
X131142857Y-24000000D01*
X131095238Y-23952380D01*
X131047619Y-23857142D01*
X131047619Y-23666666D01*
X131095238Y-23571428D01*
X131142857Y-24476190D02*
X131095238Y-24523809D01*
X131047619Y-24476190D01*
X131095238Y-24428571D01*
X131142857Y-24476190D01*
X131047619Y-24476190D01*
X131095238Y-25380952D02*
X131047619Y-25285714D01*
X131047619Y-25095238D01*
X131095238Y-25000000D01*
X131142857Y-24952380D01*
X131238095Y-24904761D01*
X131523809Y-24904761D01*
X131619047Y-24952380D01*
X131666666Y-25000000D01*
X131714285Y-25095238D01*
X131714285Y-25285714D01*
X131666666Y-25380952D01*
X131047619Y-25952380D02*
X131095238Y-25857142D01*
X131142857Y-25809523D01*
X131238095Y-25761904D01*
X131523809Y-25761904D01*
X131619047Y-25809523D01*
X131666666Y-25857142D01*
X131714285Y-25952380D01*
X131714285Y-26095238D01*
X131666666Y-26190476D01*
X131619047Y-26238095D01*
X131523809Y-26285714D01*
X131238095Y-26285714D01*
X131142857Y-26238095D01*
X131095238Y-26190476D01*
X131047619Y-26095238D01*
X131047619Y-25952380D01*
X131047619Y-26714285D02*
X131714285Y-26714285D01*
X131619047Y-26714285D02*
X131666666Y-26761904D01*
X131714285Y-26857142D01*
X131714285Y-27000000D01*
X131666666Y-27095238D01*
X131571428Y-27142857D01*
X131047619Y-27142857D01*
X131571428Y-27142857D02*
X131666666Y-27190476D01*
X131714285Y-27285714D01*
X131714285Y-27428571D01*
X131666666Y-27523809D01*
X131571428Y-27571428D01*
X131047619Y-27571428D01*
X132095238Y-28761904D02*
X130809523Y-27904761D01*
X131047619Y-29000000D02*
X131714285Y-29523809D01*
X131714285Y-29000000D02*
X131047619Y-29523809D01*
X131714285Y-29761904D02*
X131714285Y-30142857D01*
X131047619Y-29904761D02*
X131904761Y-29904761D01*
X132000000Y-29952380D01*
X132047619Y-30047619D01*
X132047619Y-30142857D01*
X131047619Y-30476190D02*
X132047619Y-30476190D01*
X131666666Y-30476190D02*
X131714285Y-30571428D01*
X131714285Y-30761904D01*
X131666666Y-30857142D01*
X131619047Y-30904761D01*
X131523809Y-30952380D01*
X131238095Y-30952380D01*
X131142857Y-30904761D01*
X131095238Y-30857142D01*
X131047619Y-30761904D01*
X131047619Y-30571428D01*
X131095238Y-30476190D01*
X131095238Y-31333333D02*
X131047619Y-31428571D01*
X131047619Y-31619047D01*
X131095238Y-31714285D01*
X131190476Y-31761904D01*
X131238095Y-31761904D01*
X131333333Y-31714285D01*
X131380952Y-31619047D01*
X131380952Y-31476190D01*
X131428571Y-31380952D01*
X131523809Y-31333333D01*
X131571428Y-31333333D01*
X131666666Y-31380952D01*
X131714285Y-31476190D01*
X131714285Y-31619047D01*
X131666666Y-31714285D01*
X132095238Y-32904761D02*
X130809523Y-32047619D01*
X131047619Y-33666666D02*
X131571428Y-33666666D01*
X131666666Y-33619047D01*
X131714285Y-33523809D01*
X131714285Y-33333333D01*
X131666666Y-33238095D01*
X131095238Y-33666666D02*
X131047619Y-33571428D01*
X131047619Y-33333333D01*
X131095238Y-33238095D01*
X131190476Y-33190476D01*
X131285714Y-33190476D01*
X131380952Y-33238095D01*
X131428571Y-33333333D01*
X131428571Y-33571428D01*
X131476190Y-33666666D01*
X131714285Y-34571428D02*
X131047619Y-34571428D01*
X131714285Y-34142857D02*
X131190476Y-34142857D01*
X131095238Y-34190476D01*
X131047619Y-34285714D01*
X131047619Y-34428571D01*
X131095238Y-34523809D01*
X131142857Y-34571428D01*
X131047619Y-35476190D02*
X132047619Y-35476190D01*
X131095238Y-35476190D02*
X131047619Y-35380952D01*
X131047619Y-35190476D01*
X131095238Y-35095238D01*
X131142857Y-35047619D01*
X131238095Y-35000000D01*
X131523809Y-35000000D01*
X131619047Y-35047619D01*
X131666666Y-35095238D01*
X131714285Y-35190476D01*
X131714285Y-35380952D01*
X131666666Y-35476190D01*
X131047619Y-35952380D02*
X131714285Y-35952380D01*
X132047619Y-35952380D02*
X132000000Y-35904761D01*
X131952380Y-35952380D01*
X132000000Y-36000000D01*
X132047619Y-35952380D01*
X131952380Y-35952380D01*
X131047619Y-36571428D02*
X131095238Y-36476190D01*
X131142857Y-36428571D01*
X131238095Y-36380952D01*
X131523809Y-36380952D01*
X131619047Y-36428571D01*
X131666666Y-36476190D01*
X131714285Y-36571428D01*
X131714285Y-36714285D01*
X131666666Y-36809523D01*
X131619047Y-36857142D01*
X131523809Y-36904761D01*
X131238095Y-36904761D01*
X131142857Y-36857142D01*
X131095238Y-36809523D01*
X131047619Y-36714285D01*
X131047619Y-36571428D01*
X131428571Y-37333333D02*
X131428571Y-38095238D01*
X131047619Y-38571428D02*
X131714285Y-38571428D01*
X131619047Y-38571428D02*
X131666666Y-38619047D01*
X131714285Y-38714285D01*
X131714285Y-38857142D01*
X131666666Y-38952380D01*
X131571428Y-39000000D01*
X131047619Y-39000000D01*
X131571428Y-39000000D02*
X131666666Y-39047619D01*
X131714285Y-39142857D01*
X131714285Y-39285714D01*
X131666666Y-39380952D01*
X131571428Y-39428571D01*
X131047619Y-39428571D01*
X131047619Y-39904761D02*
X131714285Y-39904761D01*
X132047619Y-39904761D02*
X132000000Y-39857142D01*
X131952380Y-39904761D01*
X132000000Y-39952380D01*
X132047619Y-39904761D01*
X131952380Y-39904761D01*
X131047619Y-40285714D02*
X131714285Y-40809523D01*
X131714285Y-40285714D02*
X131047619Y-40809523D01*
X131095238Y-41571428D02*
X131047619Y-41476190D01*
X131047619Y-41285714D01*
X131095238Y-41190476D01*
X131190476Y-41142857D01*
X131571428Y-41142857D01*
X131666666Y-41190476D01*
X131714285Y-41285714D01*
X131714285Y-41476190D01*
X131666666Y-41571428D01*
X131571428Y-41619047D01*
X131476190Y-41619047D01*
X131380952Y-41142857D01*
X131047619Y-42047619D02*
X131714285Y-42047619D01*
X131523809Y-42047619D02*
X131619047Y-42095238D01*
X131666666Y-42142857D01*
X131714285Y-42238095D01*
X131714285Y-42333333D01*
X131714285Y-48119047D02*
X131047619Y-48357142D01*
X131714285Y-48595238D01*
X131047619Y-49500000D02*
X131047619Y-48928571D01*
X131047619Y-49214285D02*
X132047619Y-49214285D01*
X131904761Y-49119047D01*
X131809523Y-49023809D01*
X131761904Y-48928571D01*
X131428571Y-49928571D02*
X131428571Y-50690476D01*
X131952380Y-51119047D02*
X132000000Y-51166666D01*
X132047619Y-51261904D01*
X132047619Y-51500000D01*
X132000000Y-51595238D01*
X131952380Y-51642857D01*
X131857142Y-51690476D01*
X131761904Y-51690476D01*
X131619047Y-51642857D01*
X131047619Y-51071428D01*
X131047619Y-51690476D01*
X132047619Y-52309523D02*
X132047619Y-52404761D01*
X132000000Y-52500000D01*
X131952380Y-52547619D01*
X131857142Y-52595238D01*
X131666666Y-52642857D01*
X131428571Y-52642857D01*
X131238095Y-52595238D01*
X131142857Y-52547619D01*
X131095238Y-52500000D01*
X131047619Y-52404761D01*
X131047619Y-52309523D01*
X131095238Y-52214285D01*
X131142857Y-52166666D01*
X131238095Y-52119047D01*
X131428571Y-52071428D01*
X131666666Y-52071428D01*
X131857142Y-52119047D01*
X131952380Y-52166666D01*
X132000000Y-52214285D01*
X132047619Y-52309523D01*
X131047619Y-53595238D02*
X131047619Y-53023809D01*
X131047619Y-53309523D02*
X132047619Y-53309523D01*
X131904761Y-53214285D01*
X131809523Y-53119047D01*
X131761904Y-53023809D01*
X131047619Y-54071428D02*
X131047619Y-54261904D01*
X131095238Y-54357142D01*
X131142857Y-54404761D01*
X131285714Y-54500000D01*
X131476190Y-54547619D01*
X131857142Y-54547619D01*
X131952380Y-54500000D01*
X132000000Y-54452380D01*
X132047619Y-54357142D01*
X132047619Y-54166666D01*
X132000000Y-54071428D01*
X131952380Y-54023809D01*
X131857142Y-53976190D01*
X131619047Y-53976190D01*
X131523809Y-54023809D01*
X131476190Y-54071428D01*
X131428571Y-54166666D01*
X131428571Y-54357142D01*
X131476190Y-54452380D01*
X131523809Y-54500000D01*
X131619047Y-54547619D01*
X131428571Y-54976190D02*
X131428571Y-55738095D01*
X131047619Y-56738095D02*
X131047619Y-56166666D01*
X131047619Y-56452380D02*
X132047619Y-56452380D01*
X131904761Y-56357142D01*
X131809523Y-56261904D01*
X131761904Y-56166666D01*
X131047619Y-57690476D02*
X131047619Y-57119047D01*
X131047619Y-57404761D02*
X132047619Y-57404761D01*
X131904761Y-57309523D01*
X131809523Y-57214285D01*
X131761904Y-57119047D01*
X131428571Y-58119047D02*
X131428571Y-58880952D01*
X131047619Y-59880952D02*
X131047619Y-59309523D01*
X131047619Y-59595238D02*
X132047619Y-59595238D01*
X131904761Y-59500000D01*
X131809523Y-59404761D01*
X131761904Y-59309523D01*
X132047619Y-60214285D02*
X132047619Y-60833333D01*
X131666666Y-60500000D01*
X131666666Y-60642857D01*
X131619047Y-60738095D01*
X131571428Y-60785714D01*
X131476190Y-60833333D01*
X131238095Y-60833333D01*
X131142857Y-60785714D01*
X131095238Y-60738095D01*
X131047619Y-60642857D01*
X131047619Y-60357142D01*
X131095238Y-60261904D01*
X131142857Y-60214285D01*
X136722380Y-71047619D02*
X136722380Y-71619047D01*
X136722380Y-71333333D02*
X135722380Y-71333333D01*
X135865238Y-71428571D01*
X135960476Y-71523809D01*
X136008095Y-71619047D01*
X135722380Y-70428571D02*
X135722380Y-70333333D01*
X135770000Y-70238095D01*
X135817619Y-70190476D01*
X135912857Y-70142857D01*
X136103333Y-70095238D01*
X136341428Y-70095238D01*
X136531904Y-70142857D01*
X136627142Y-70190476D01*
X136674761Y-70238095D01*
X136722380Y-70333333D01*
X136722380Y-70428571D01*
X136674761Y-70523809D01*
X136627142Y-70571428D01*
X136531904Y-70619047D01*
X136341428Y-70666666D01*
X136103333Y-70666666D01*
X135912857Y-70619047D01*
X135817619Y-70571428D01*
X135770000Y-70523809D01*
X135722380Y-70428571D01*
X135722380Y-69476190D02*
X135722380Y-69380952D01*
X135770000Y-69285714D01*
X135817619Y-69238095D01*
X135912857Y-69190476D01*
X136103333Y-69142857D01*
X136341428Y-69142857D01*
X136531904Y-69190476D01*
X136627142Y-69238095D01*
X136674761Y-69285714D01*
X136722380Y-69380952D01*
X136722380Y-69476190D01*
X136674761Y-69571428D01*
X136627142Y-69619047D01*
X136531904Y-69666666D01*
X136341428Y-69714285D01*
X136103333Y-69714285D01*
X135912857Y-69666666D01*
X135817619Y-69619047D01*
X135770000Y-69571428D01*
X135722380Y-69476190D01*
X136627142Y-68714285D02*
X136674761Y-68666666D01*
X136722380Y-68714285D01*
X136674761Y-68761904D01*
X136627142Y-68714285D01*
X136722380Y-68714285D01*
X135722380Y-68047619D02*
X135722380Y-67952380D01*
X135770000Y-67857142D01*
X135817619Y-67809523D01*
X135912857Y-67761904D01*
X136103333Y-67714285D01*
X136341428Y-67714285D01*
X136531904Y-67761904D01*
X136627142Y-67809523D01*
X136674761Y-67857142D01*
X136722380Y-67952380D01*
X136722380Y-68047619D01*
X136674761Y-68142857D01*
X136627142Y-68190476D01*
X136531904Y-68238095D01*
X136341428Y-68285714D01*
X136103333Y-68285714D01*
X135912857Y-68238095D01*
X135817619Y-68190476D01*
X135770000Y-68142857D01*
X135722380Y-68047619D01*
X135722380Y-67095238D02*
X135722380Y-67000000D01*
X135770000Y-66904761D01*
X135817619Y-66857142D01*
X135912857Y-66809523D01*
X136103333Y-66761904D01*
X136341428Y-66761904D01*
X136531904Y-66809523D01*
X136627142Y-66857142D01*
X136674761Y-66904761D01*
X136722380Y-67000000D01*
X136722380Y-67095238D01*
X136674761Y-67190476D01*
X136627142Y-67238095D01*
X136531904Y-67285714D01*
X136341428Y-67333333D01*
X136103333Y-67333333D01*
X135912857Y-67285714D01*
X135817619Y-67238095D01*
X135770000Y-67190476D01*
X135722380Y-67095238D01*
X135722380Y-66142857D02*
X135722380Y-66047619D01*
X135770000Y-65952380D01*
X135817619Y-65904761D01*
X135912857Y-65857142D01*
X136103333Y-65809523D01*
X136341428Y-65809523D01*
X136531904Y-65857142D01*
X136627142Y-65904761D01*
X136674761Y-65952380D01*
X136722380Y-66047619D01*
X136722380Y-66142857D01*
X136674761Y-66238095D01*
X136627142Y-66285714D01*
X136531904Y-66333333D01*
X136341428Y-66380952D01*
X136103333Y-66380952D01*
X135912857Y-66333333D01*
X135817619Y-66285714D01*
X135770000Y-66238095D01*
X135722380Y-66142857D01*
X136722380Y-64619047D02*
X136055714Y-64619047D01*
X136150952Y-64619047D02*
X136103333Y-64571428D01*
X136055714Y-64476190D01*
X136055714Y-64333333D01*
X136103333Y-64238095D01*
X136198571Y-64190476D01*
X136722380Y-64190476D01*
X136198571Y-64190476D02*
X136103333Y-64142857D01*
X136055714Y-64047619D01*
X136055714Y-63904761D01*
X136103333Y-63809523D01*
X136198571Y-63761904D01*
X136722380Y-63761904D01*
X136722380Y-63285714D02*
X136055714Y-63285714D01*
X136150952Y-63285714D02*
X136103333Y-63238095D01*
X136055714Y-63142857D01*
X136055714Y-63000000D01*
X136103333Y-62904761D01*
X136198571Y-62857142D01*
X136722380Y-62857142D01*
X136198571Y-62857142D02*
X136103333Y-62809523D01*
X136055714Y-62714285D01*
X136055714Y-62571428D01*
X136103333Y-62476190D01*
X136198571Y-62428571D01*
X136722380Y-62428571D01*
D11*
X135000000Y-117000000D02*
X135000000Y-17000000D01*
X133000000Y-117000000D02*
X135586421Y-117000000D01*
X133000000Y-17000000D02*
X135586421Y-17000000D01*
X135000000Y-17000000D02*
X135586421Y-18126504D01*
X135000000Y-17000000D02*
X134413579Y-18126504D01*
X135000000Y-117000000D02*
X135586421Y-115873496D01*
X135000000Y-117000000D02*
X134413579Y-115873496D01*
D10*
X104380952Y-119722380D02*
X103904761Y-119722380D01*
X103857142Y-120198571D01*
X103904761Y-120150952D01*
X104000000Y-120103333D01*
X104238095Y-120103333D01*
X104333333Y-120150952D01*
X104380952Y-120198571D01*
X104428571Y-120293809D01*
X104428571Y-120531904D01*
X104380952Y-120627142D01*
X104333333Y-120674761D01*
X104238095Y-120722380D01*
X104000000Y-120722380D01*
X103904761Y-120674761D01*
X103857142Y-120627142D01*
X105047619Y-119722380D02*
X105142857Y-119722380D01*
X105238095Y-119770000D01*
X105285714Y-119817619D01*
X105333333Y-119912857D01*
X105380952Y-120103333D01*
X105380952Y-120341428D01*
X105333333Y-120531904D01*
X105285714Y-120627142D01*
X105238095Y-120674761D01*
X105142857Y-120722380D01*
X105047619Y-120722380D01*
X104952380Y-120674761D01*
X104904761Y-120627142D01*
X104857142Y-120531904D01*
X104809523Y-120341428D01*
X104809523Y-120103333D01*
X104857142Y-119912857D01*
X104904761Y-119817619D01*
X104952380Y-119770000D01*
X105047619Y-119722380D01*
X105809523Y-120627142D02*
X105857142Y-120674761D01*
X105809523Y-120722380D01*
X105761904Y-120674761D01*
X105809523Y-120627142D01*
X105809523Y-120722380D01*
X106476190Y-119722380D02*
X106571428Y-119722380D01*
X106666666Y-119770000D01*
X106714285Y-119817619D01*
X106761904Y-119912857D01*
X106809523Y-120103333D01*
X106809523Y-120341428D01*
X106761904Y-120531904D01*
X106714285Y-120627142D01*
X106666666Y-120674761D01*
X106571428Y-120722380D01*
X106476190Y-120722380D01*
X106380952Y-120674761D01*
X106333333Y-120627142D01*
X106285714Y-120531904D01*
X106238095Y-120341428D01*
X106238095Y-120103333D01*
X106285714Y-119912857D01*
X106333333Y-119817619D01*
X106380952Y-119770000D01*
X106476190Y-119722380D01*
X107428571Y-119722380D02*
X107523809Y-119722380D01*
X107619047Y-119770000D01*
X107666666Y-119817619D01*
X107714285Y-119912857D01*
X107761904Y-120103333D01*
X107761904Y-120341428D01*
X107714285Y-120531904D01*
X107666666Y-120627142D01*
X107619047Y-120674761D01*
X107523809Y-120722380D01*
X107428571Y-120722380D01*
X107333333Y-120674761D01*
X107285714Y-120627142D01*
X107238095Y-120531904D01*
X107190476Y-120341428D01*
X107190476Y-120103333D01*
X107238095Y-119912857D01*
X107285714Y-119817619D01*
X107333333Y-119770000D01*
X107428571Y-119722380D01*
X108380952Y-119722380D02*
X108476190Y-119722380D01*
X108571428Y-119770000D01*
X108619047Y-119817619D01*
X108666666Y-119912857D01*
X108714285Y-120103333D01*
X108714285Y-120341428D01*
X108666666Y-120531904D01*
X108619047Y-120627142D01*
X108571428Y-120674761D01*
X108476190Y-120722380D01*
X108380952Y-120722380D01*
X108285714Y-120674761D01*
X108238095Y-120627142D01*
X108190476Y-120531904D01*
X108142857Y-120341428D01*
X108142857Y-120103333D01*
X108190476Y-119912857D01*
X108238095Y-119817619D01*
X108285714Y-119770000D01*
X108380952Y-119722380D01*
X109904761Y-120722380D02*
X109904761Y-120055714D01*
X109904761Y-120150952D02*
X109952380Y-120103333D01*
X110047619Y-120055714D01*
X110190476Y-120055714D01*
X110285714Y-120103333D01*
X110333333Y-120198571D01*
X110333333Y-120722380D01*
X110333333Y-120198571D02*
X110380952Y-120103333D01*
X110476190Y-120055714D01*
X110619047Y-120055714D01*
X110714285Y-120103333D01*
X110761904Y-120198571D01*
X110761904Y-120722380D01*
X111238095Y-120722380D02*
X111238095Y-120055714D01*
X111238095Y-120150952D02*
X111285714Y-120103333D01*
X111380952Y-120055714D01*
X111523809Y-120055714D01*
X111619047Y-120103333D01*
X111666666Y-120198571D01*
X111666666Y-120722380D01*
X111666666Y-120198571D02*
X111714285Y-120103333D01*
X111809523Y-120055714D01*
X111952380Y-120055714D01*
X112047619Y-120103333D01*
X112095238Y-120198571D01*
X112095238Y-120722380D01*
D11*
X83000000Y-119000000D02*
X133000000Y-119000000D01*
X83000000Y-117000000D02*
X83000000Y-119586421D01*
X133000000Y-117000000D02*
X133000000Y-119586421D01*
X133000000Y-119000000D02*
X131873496Y-119586421D01*
X133000000Y-119000000D02*
X131873496Y-118413579D01*
X83000000Y-119000000D02*
X84126504Y-119586421D01*
X83000000Y-119000000D02*
X84126504Y-118413579D01*
D12*
X82600000Y-90100000D02*
X82600000Y-89300000D01*
X83748000Y-90100000D02*
X82600000Y-90100000D01*
X82600000Y-79899000D02*
X82600000Y-80699000D01*
X75950000Y-89149000D02*
X82600000Y-89149000D01*
X75950000Y-80850000D02*
X75950000Y-89149000D01*
X82600000Y-80850000D02*
X75950000Y-80850000D01*
X83750000Y-77001000D02*
X83750000Y-79899000D01*
X83750000Y-97000000D02*
X83750000Y-90100000D01*
X95248000Y-97000000D02*
X83750000Y-97000000D01*
X89250000Y-77001000D02*
X83750000Y-77001000D01*
X83748000Y-79899000D02*
X82600000Y-79899000D01*
X95248000Y-82301000D02*
X95248000Y-97000000D01*
X95248000Y-77001000D02*
X95248000Y-79599000D01*
X93250000Y-77001000D02*
X95250000Y-77001000D01*
D11*
X97290000Y-102738748D02*
X97290000Y-103261252D01*
X98710000Y-102738748D02*
X98710000Y-103261252D01*
X104261252Y-101790000D02*
X103738748Y-101790000D01*
X104261252Y-103210000D02*
X103738748Y-103210000D01*
X98710000Y-107261252D02*
X98710000Y-106738748D01*
X97290000Y-107261252D02*
X97290000Y-106738748D01*
X105710000Y-107261252D02*
X105710000Y-106738748D01*
X104290000Y-107261252D02*
X104290000Y-106738748D01*
X105710000Y-91236252D02*
X105710000Y-90713748D01*
X104290000Y-91236252D02*
X104290000Y-90713748D01*
X98710000Y-91236252D02*
X98710000Y-90713748D01*
X97290000Y-91236252D02*
X97290000Y-90713748D01*
X104290000Y-86738748D02*
X104290000Y-87261252D01*
X105710000Y-86738748D02*
X105710000Y-87261252D01*
X97290000Y-86738748D02*
X97290000Y-87261252D01*
X98710000Y-86738748D02*
X98710000Y-87261252D01*
D13*
X106848100Y-67500000D02*
G75*
G03X106848100Y-67500000I-76200J0D01*
G01*
X100726700Y-68645540D02*
X100726700Y-69773300D01*
X105273300Y-66354460D02*
X105273300Y-65226700D01*
X105273300Y-69773300D02*
X105273300Y-68645540D01*
X100726700Y-69773300D02*
X105273300Y-69773300D01*
X100726700Y-65226700D02*
X100726700Y-66354460D01*
X105273300Y-65226700D02*
X100726700Y-65226700D01*
X106848100Y-73500000D02*
G75*
G03X106848100Y-73500000I-76200J0D01*
G01*
X100726700Y-74645540D02*
X100726700Y-75773300D01*
X105273300Y-72354460D02*
X105273300Y-71226700D01*
X105273300Y-75773300D02*
X105273300Y-74645540D01*
X100726700Y-75773300D02*
X105273300Y-75773300D01*
X100726700Y-71226700D02*
X100726700Y-72354460D01*
X105273300Y-71226700D02*
X100726700Y-71226700D01*
X106848100Y-52000000D02*
G75*
G03X106848100Y-52000000I-76200J0D01*
G01*
X100726700Y-53145540D02*
X100726700Y-54273300D01*
X105273300Y-50854460D02*
X105273300Y-49726700D01*
X105273300Y-54273300D02*
X105273300Y-53145540D01*
X100726700Y-54273300D02*
X105273300Y-54273300D01*
X100726700Y-49726700D02*
X100726700Y-50854460D01*
X105273300Y-49726700D02*
X100726700Y-49726700D01*
X106848100Y-58000000D02*
G75*
G03X106848100Y-58000000I-76200J0D01*
G01*
X100726700Y-59145540D02*
X100726700Y-60273300D01*
X105273300Y-56854460D02*
X105273300Y-55726700D01*
X105273300Y-60273300D02*
X105273300Y-59145540D01*
X100726700Y-60273300D02*
X105273300Y-60273300D01*
X100726700Y-55726700D02*
X100726700Y-56854460D01*
X105273300Y-55726700D02*
X100726700Y-55726700D01*
X106848100Y-36500000D02*
G75*
G03X106848100Y-36500000I-76200J0D01*
G01*
X100726700Y-37645540D02*
X100726700Y-38773300D01*
X105273300Y-35354460D02*
X105273300Y-34226700D01*
X105273300Y-38773300D02*
X105273300Y-37645540D01*
X100726700Y-38773300D02*
X105273300Y-38773300D01*
X100726700Y-34226700D02*
X100726700Y-35354460D01*
X105273300Y-34226700D02*
X100726700Y-34226700D01*
X106848100Y-42500000D02*
G75*
G03X106848100Y-42500000I-76200J0D01*
G01*
X100726700Y-43645540D02*
X100726700Y-44773300D01*
X105273300Y-41354460D02*
X105273300Y-40226700D01*
X105273300Y-44773300D02*
X105273300Y-43645540D01*
X100726700Y-44773300D02*
X105273300Y-44773300D01*
X100726700Y-40226700D02*
X100726700Y-41354460D01*
X105273300Y-40226700D02*
X100726700Y-40226700D01*
X106848100Y-21000000D02*
G75*
G03X106848100Y-21000000I-76200J0D01*
G01*
X100726700Y-22145540D02*
X100726700Y-23273300D01*
X105273300Y-19854460D02*
X105273300Y-18726700D01*
X105273300Y-23273300D02*
X105273300Y-22145540D01*
X100726700Y-23273300D02*
X105273300Y-23273300D01*
X100726700Y-18726700D02*
X100726700Y-19854460D01*
X105273300Y-18726700D02*
X100726700Y-18726700D01*
X106848100Y-27000000D02*
G75*
G03X106848100Y-27000000I-76200J0D01*
G01*
X100726700Y-28145540D02*
X100726700Y-29273300D01*
X105273300Y-25854460D02*
X105273300Y-24726700D01*
X105273300Y-29273300D02*
X105273300Y-28145540D01*
X100726700Y-29273300D02*
X105273300Y-29273300D01*
X100726700Y-24726700D02*
X100726700Y-25854460D01*
X105273300Y-24726700D02*
X100726700Y-24726700D01*
X129444700Y-90600000D02*
G75*
G03X129444700Y-90600000I-76200J0D01*
G01*
X123323300Y-91745540D02*
X123323300Y-92873300D01*
X127869900Y-89454460D02*
X127869900Y-88326700D01*
X127869900Y-92873300D02*
X127869900Y-91745540D01*
X123323300Y-92873300D02*
X127869900Y-92873300D01*
X123323300Y-88326700D02*
X123323300Y-89454460D01*
X127869900Y-88326700D02*
X123323300Y-88326700D01*
X115348100Y-114000000D02*
G75*
G03X115348100Y-114000000I-76200J0D01*
G01*
X109226700Y-115145540D02*
X109226700Y-116273300D01*
X113773300Y-112854460D02*
X113773300Y-111726700D01*
X113773300Y-116273300D02*
X113773300Y-115145540D01*
X109226700Y-116273300D02*
X113773300Y-116273300D01*
X109226700Y-111726700D02*
X109226700Y-112854460D01*
X113773300Y-111726700D02*
X109226700Y-111726700D01*
D11*
X97065000Y-97000000D02*
X97065000Y-100450000D01*
X97065000Y-97000000D02*
X97065000Y-95050000D01*
X105935000Y-97000000D02*
X105935000Y-98950000D01*
X105935000Y-97000000D02*
X105935000Y-95050000D01*
X128935000Y-57000000D02*
X128935000Y-53550000D01*
X128935000Y-57000000D02*
X128935000Y-58950000D01*
X120065000Y-57000000D02*
X120065000Y-55050000D01*
X120065000Y-57000000D02*
X120065000Y-58950000D01*
X128935000Y-26000000D02*
X128935000Y-22550000D01*
X128935000Y-26000000D02*
X128935000Y-27950000D01*
X120065000Y-26000000D02*
X120065000Y-24050000D01*
X120065000Y-26000000D02*
X120065000Y-27950000D01*
D14*
X80600000Y-102600000D02*
X80400000Y-102600000D01*
X80600000Y-102300000D02*
X80600000Y-102600000D01*
X81500000Y-101400000D02*
X80600000Y-102300000D01*
X81900000Y-101400000D02*
X81500000Y-101400000D01*
X94800000Y-101400000D02*
X94800000Y-102900000D01*
X94200000Y-101400000D02*
X94800000Y-101400000D01*
X94800000Y-113600000D02*
X94800000Y-112200000D01*
X94200000Y-113600000D02*
X94800000Y-113600000D01*
X80600000Y-113600000D02*
X80600000Y-112400000D01*
X81200000Y-113600000D02*
X80600000Y-113600000D01*
D11*
X125710000Y-71321078D02*
X125710000Y-70803922D01*
X124290000Y-71321078D02*
X124290000Y-70803922D01*
X127710000Y-71321078D02*
X127710000Y-70803922D01*
X126290000Y-71321078D02*
X126290000Y-70803922D01*
X125710000Y-40196078D02*
X125710000Y-39678922D01*
X124290000Y-40196078D02*
X124290000Y-39678922D01*
X127710000Y-40196078D02*
X127710000Y-39678922D01*
X126290000Y-40196078D02*
X126290000Y-39678922D01*
X123710000Y-71258578D02*
X123710000Y-70741422D01*
X122290000Y-71258578D02*
X122290000Y-70741422D01*
X121710000Y-71258578D02*
X121710000Y-70741422D01*
X120290000Y-71258578D02*
X120290000Y-70741422D01*
X123710000Y-40196078D02*
X123710000Y-39678922D01*
X122290000Y-40196078D02*
X122290000Y-39678922D01*
X121710000Y-40196078D02*
X121710000Y-39678922D01*
X120290000Y-40196078D02*
X120290000Y-39678922D01*
X112696078Y-70790000D02*
X112178922Y-70790000D01*
X112696078Y-72210000D02*
X112178922Y-72210000D01*
X112696078Y-76790000D02*
X112178922Y-76790000D01*
X112696078Y-78210000D02*
X112178922Y-78210000D01*
X112696078Y-55290000D02*
X112178922Y-55290000D01*
X112696078Y-56710000D02*
X112178922Y-56710000D01*
X112696078Y-61290000D02*
X112178922Y-61290000D01*
X112696078Y-62710000D02*
X112178922Y-62710000D01*
X112696078Y-39790000D02*
X112178922Y-39790000D01*
X112696078Y-41210000D02*
X112178922Y-41210000D01*
X112696078Y-45790000D02*
X112178922Y-45790000D01*
X112696078Y-47210000D02*
X112178922Y-47210000D01*
X113196078Y-24290000D02*
X112678922Y-24290000D01*
X113196078Y-25710000D02*
X112678922Y-25710000D01*
X113196078Y-30290000D02*
X112678922Y-30290000D01*
X113196078Y-31710000D02*
X112678922Y-31710000D01*
X102210000Y-87196078D02*
X102210000Y-86678922D01*
X100790000Y-87196078D02*
X100790000Y-86678922D01*
X125210000Y-20258578D02*
X125210000Y-19741422D01*
X123790000Y-20258578D02*
X123790000Y-19741422D01*
X123790000Y-62803922D02*
X123790000Y-63321078D01*
X125210000Y-62803922D02*
X125210000Y-63321078D01*
X100790000Y-106741422D02*
X100790000Y-107258578D01*
X102210000Y-106741422D02*
X102210000Y-107258578D01*
X112696078Y-68790000D02*
X112178922Y-68790000D01*
X112696078Y-70210000D02*
X112178922Y-70210000D01*
X112696078Y-74790000D02*
X112178922Y-74790000D01*
X112696078Y-76210000D02*
X112178922Y-76210000D01*
X112696078Y-53290000D02*
X112178922Y-53290000D01*
X112696078Y-54710000D02*
X112178922Y-54710000D01*
X112696078Y-59290000D02*
X112178922Y-59290000D01*
X112696078Y-60710000D02*
X112178922Y-60710000D01*
X112696078Y-37790000D02*
X112178922Y-37790000D01*
X112696078Y-39210000D02*
X112178922Y-39210000D01*
X112696078Y-43790000D02*
X112178922Y-43790000D01*
X112696078Y-45210000D02*
X112178922Y-45210000D01*
X113196078Y-22290000D02*
X112678922Y-22290000D01*
X113196078Y-23710000D02*
X112678922Y-23710000D01*
X113196078Y-28290000D02*
X112678922Y-28290000D01*
X113196078Y-29710000D02*
X112678922Y-29710000D01*
X123790000Y-31803922D02*
X123790000Y-32321078D01*
X125210000Y-31803922D02*
X125210000Y-32321078D01*
X125210000Y-51196078D02*
X125210000Y-50678922D01*
X123790000Y-51196078D02*
X123790000Y-50678922D01*
X122258578Y-104790000D02*
X121741422Y-104790000D01*
X122258578Y-106210000D02*
X121741422Y-106210000D01*
X121741422Y-108710000D02*
X122258578Y-108710000D01*
X121741422Y-107290000D02*
X122258578Y-107290000D01*
D15*
X117100000Y-113225000D02*
X117100000Y-112425000D01*
X115900000Y-113225000D02*
X115900000Y-112425000D01*
D16*
X129800000Y-94600000D02*
G75*
G03X129800000Y-94600000I-100000J0D01*
G01*
D15*
X130400000Y-108500000D02*
X130400000Y-110360000D01*
X130400000Y-105960000D02*
X130400000Y-107820000D01*
X130400000Y-99070000D02*
X130400000Y-100200000D01*
X130400000Y-111040000D02*
X130400000Y-114940000D01*
X130400000Y-100880000D02*
X130400000Y-105280000D01*
X130400000Y-95290000D02*
X130400000Y-96930000D01*
X124400000Y-114940000D02*
X124400000Y-95290000D01*
X124400000Y-114940000D02*
X130400000Y-114940000D01*
X130400000Y-95290000D02*
X124400000Y-95290000D01*
X106300000Y-116100000D02*
X106300000Y-116400000D01*
X98700000Y-116100000D02*
X98700000Y-116400000D01*
X106300000Y-113900000D02*
X106300000Y-113500000D01*
X98700000Y-113500000D02*
X98700000Y-113900000D01*
X98700000Y-116450000D02*
X106300000Y-116450000D01*
D16*
X100600000Y-111500000D02*
G75*
G03X100600000Y-111500000I-100000J0D01*
G01*
D12*
X97875000Y-65002000D02*
X97875000Y-70899000D01*
X97875000Y-58504000D02*
X97875000Y-63500000D01*
X97875000Y-51099000D02*
X97875000Y-56900000D01*
X97875000Y-44602000D02*
X97875000Y-49404000D01*
X97875000Y-37100000D02*
X97875000Y-42901000D01*
X97875000Y-30801000D02*
X97875000Y-35399000D01*
X97875000Y-23197000D02*
X97875000Y-28799000D01*
X97875000Y-19002000D02*
X97875000Y-21298000D01*
X97875000Y-74998000D02*
X95000000Y-74998000D01*
X84174000Y-74998000D02*
X90799000Y-74998000D01*
X95000000Y-19002000D02*
X97875000Y-19002000D01*
X84174000Y-19002000D02*
X90799000Y-19002000D01*
X84174000Y-20997000D02*
X84174000Y-19002000D01*
X82974000Y-20997000D02*
X84174000Y-20997000D01*
X84174000Y-59003000D02*
X84174000Y-63001000D01*
X84174000Y-44998000D02*
X84174000Y-49002000D01*
X84174000Y-30999000D02*
X84174000Y-35002000D01*
X97875000Y-72498000D02*
X97875000Y-74998000D01*
X82974000Y-72997000D02*
X84174000Y-72997000D01*
X82974000Y-63001000D02*
X84174000Y-63001000D01*
X82974000Y-59003000D02*
X84174000Y-59003000D01*
X82974000Y-49002000D02*
X84174000Y-49002000D01*
X84174000Y-72997000D02*
X84174000Y-74998000D01*
X82974000Y-30999000D02*
X84174000Y-30999000D01*
X82974000Y-35002000D02*
X84174000Y-35002000D01*
X82974000Y-44998000D02*
X84174000Y-44998000D01*
X82974000Y-72152000D02*
X82974000Y-72997000D01*
X82974000Y-63851000D02*
X82974000Y-63001000D01*
X82974000Y-21848000D02*
X82974000Y-20997000D01*
X82974000Y-30149000D02*
X82974000Y-30999000D01*
X82974000Y-35853000D02*
X82974000Y-35002000D01*
X82974000Y-44148000D02*
X82974000Y-44998000D01*
X82974000Y-58147000D02*
X82974000Y-59003000D01*
X82974000Y-49852000D02*
X82974000Y-49002000D01*
X75975000Y-21848000D02*
X82974000Y-21848000D01*
X75975000Y-30149000D02*
X82974000Y-30149000D01*
X75975000Y-35853000D02*
X82974000Y-35853000D01*
X75975000Y-44148000D02*
X82974000Y-44148000D01*
X75975000Y-72152000D02*
X82974000Y-72152000D01*
X75975000Y-63851000D02*
X82974000Y-63851000D01*
X75975000Y-58147000D02*
X82974000Y-58147000D01*
X75975000Y-49852000D02*
X82974000Y-49852000D01*
X75975000Y-21848000D02*
X75975000Y-30149000D01*
X75975000Y-63851000D02*
X75975000Y-72152000D01*
X75975000Y-49852000D02*
X75975000Y-58147000D01*
X75975000Y-35853000D02*
X75975000Y-44148000D01*
D17*
X88700000Y-75452380D02*
X88700000Y-76166666D01*
X88657142Y-76309523D01*
X88571428Y-76404761D01*
X88442857Y-76452380D01*
X88357142Y-76452380D01*
X89042857Y-75452380D02*
X89600000Y-75452380D01*
X89300000Y-75833333D01*
X89428571Y-75833333D01*
X89514285Y-75880952D01*
X89557142Y-75928571D01*
X89600000Y-76023809D01*
X89600000Y-76261904D01*
X89557142Y-76357142D01*
X89514285Y-76404761D01*
X89428571Y-76452380D01*
X89171428Y-76452380D01*
X89085714Y-76404761D01*
X89042857Y-76357142D01*
D10*
X96952380Y-103642857D02*
X96476190Y-103976190D01*
X96952380Y-104214285D02*
X95952380Y-104214285D01*
X95952380Y-103833333D01*
X96000000Y-103738095D01*
X96047619Y-103690476D01*
X96142857Y-103642857D01*
X96285714Y-103642857D01*
X96380952Y-103690476D01*
X96428571Y-103738095D01*
X96476190Y-103833333D01*
X96476190Y-104214285D01*
X96047619Y-103261904D02*
X96000000Y-103214285D01*
X95952380Y-103119047D01*
X95952380Y-102880952D01*
X96000000Y-102785714D01*
X96047619Y-102738095D01*
X96142857Y-102690476D01*
X96238095Y-102690476D01*
X96380952Y-102738095D01*
X96952380Y-103309523D01*
X96952380Y-102690476D01*
X96285714Y-101833333D02*
X96952380Y-101833333D01*
X95904761Y-102071428D02*
X96619047Y-102309523D01*
X96619047Y-101690476D01*
X103357142Y-104452380D02*
X103023809Y-103976190D01*
X102785714Y-104452380D02*
X102785714Y-103452380D01*
X103166666Y-103452380D01*
X103261904Y-103500000D01*
X103309523Y-103547619D01*
X103357142Y-103642857D01*
X103357142Y-103785714D01*
X103309523Y-103880952D01*
X103261904Y-103928571D01*
X103166666Y-103976190D01*
X102785714Y-103976190D01*
X103738095Y-103547619D02*
X103785714Y-103500000D01*
X103880952Y-103452380D01*
X104119047Y-103452380D01*
X104214285Y-103500000D01*
X104261904Y-103547619D01*
X104309523Y-103642857D01*
X104309523Y-103738095D01*
X104261904Y-103880952D01*
X103690476Y-104452380D01*
X104309523Y-104452380D01*
X104642857Y-103452380D02*
X105261904Y-103452380D01*
X104928571Y-103833333D01*
X105071428Y-103833333D01*
X105166666Y-103880952D01*
X105214285Y-103928571D01*
X105261904Y-104023809D01*
X105261904Y-104261904D01*
X105214285Y-104357142D01*
X105166666Y-104404761D01*
X105071428Y-104452380D01*
X104785714Y-104452380D01*
X104690476Y-104404761D01*
X104642857Y-104357142D01*
X96802380Y-107642857D02*
X96326190Y-107976190D01*
X96802380Y-108214285D02*
X95802380Y-108214285D01*
X95802380Y-107833333D01*
X95850000Y-107738095D01*
X95897619Y-107690476D01*
X95992857Y-107642857D01*
X96135714Y-107642857D01*
X96230952Y-107690476D01*
X96278571Y-107738095D01*
X96326190Y-107833333D01*
X96326190Y-108214285D01*
X95897619Y-107261904D02*
X95850000Y-107214285D01*
X95802380Y-107119047D01*
X95802380Y-106880952D01*
X95850000Y-106785714D01*
X95897619Y-106738095D01*
X95992857Y-106690476D01*
X96088095Y-106690476D01*
X96230952Y-106738095D01*
X96802380Y-107309523D01*
X96802380Y-106690476D01*
X95897619Y-106309523D02*
X95850000Y-106261904D01*
X95802380Y-106166666D01*
X95802380Y-105928571D01*
X95850000Y-105833333D01*
X95897619Y-105785714D01*
X95992857Y-105738095D01*
X96088095Y-105738095D01*
X96230952Y-105785714D01*
X96802380Y-106357142D01*
X96802380Y-105738095D01*
X103802380Y-107642857D02*
X103326190Y-107976190D01*
X103802380Y-108214285D02*
X102802380Y-108214285D01*
X102802380Y-107833333D01*
X102850000Y-107738095D01*
X102897619Y-107690476D01*
X102992857Y-107642857D01*
X103135714Y-107642857D01*
X103230952Y-107690476D01*
X103278571Y-107738095D01*
X103326190Y-107833333D01*
X103326190Y-108214285D01*
X102897619Y-107261904D02*
X102850000Y-107214285D01*
X102802380Y-107119047D01*
X102802380Y-106880952D01*
X102850000Y-106785714D01*
X102897619Y-106738095D01*
X102992857Y-106690476D01*
X103088095Y-106690476D01*
X103230952Y-106738095D01*
X103802380Y-107309523D01*
X103802380Y-106690476D01*
X103802380Y-105738095D02*
X103802380Y-106309523D01*
X103802380Y-106023809D02*
X102802380Y-106023809D01*
X102945238Y-106119047D01*
X103040476Y-106214285D01*
X103088095Y-106309523D01*
X103802380Y-91617857D02*
X103326190Y-91951190D01*
X103802380Y-92189285D02*
X102802380Y-92189285D01*
X102802380Y-91808333D01*
X102850000Y-91713095D01*
X102897619Y-91665476D01*
X102992857Y-91617857D01*
X103135714Y-91617857D01*
X103230952Y-91665476D01*
X103278571Y-91713095D01*
X103326190Y-91808333D01*
X103326190Y-92189285D01*
X102897619Y-91236904D02*
X102850000Y-91189285D01*
X102802380Y-91094047D01*
X102802380Y-90855952D01*
X102850000Y-90760714D01*
X102897619Y-90713095D01*
X102992857Y-90665476D01*
X103088095Y-90665476D01*
X103230952Y-90713095D01*
X103802380Y-91284523D01*
X103802380Y-90665476D01*
X102802380Y-90046428D02*
X102802380Y-89951190D01*
X102850000Y-89855952D01*
X102897619Y-89808333D01*
X102992857Y-89760714D01*
X103183333Y-89713095D01*
X103421428Y-89713095D01*
X103611904Y-89760714D01*
X103707142Y-89808333D01*
X103754761Y-89855952D01*
X103802380Y-89951190D01*
X103802380Y-90046428D01*
X103754761Y-90141666D01*
X103707142Y-90189285D01*
X103611904Y-90236904D01*
X103421428Y-90284523D01*
X103183333Y-90284523D01*
X102992857Y-90236904D01*
X102897619Y-90189285D01*
X102850000Y-90141666D01*
X102802380Y-90046428D01*
X96802380Y-91617857D02*
X96326190Y-91951190D01*
X96802380Y-92189285D02*
X95802380Y-92189285D01*
X95802380Y-91808333D01*
X95850000Y-91713095D01*
X95897619Y-91665476D01*
X95992857Y-91617857D01*
X96135714Y-91617857D01*
X96230952Y-91665476D01*
X96278571Y-91713095D01*
X96326190Y-91808333D01*
X96326190Y-92189285D01*
X96802380Y-90665476D02*
X96802380Y-91236904D01*
X96802380Y-90951190D02*
X95802380Y-90951190D01*
X95945238Y-91046428D01*
X96040476Y-91141666D01*
X96088095Y-91236904D01*
X96802380Y-90189285D02*
X96802380Y-89998809D01*
X96754761Y-89903571D01*
X96707142Y-89855952D01*
X96564285Y-89760714D01*
X96373809Y-89713095D01*
X95992857Y-89713095D01*
X95897619Y-89760714D01*
X95850000Y-89808333D01*
X95802380Y-89903571D01*
X95802380Y-90094047D01*
X95850000Y-90189285D01*
X95897619Y-90236904D01*
X95992857Y-90284523D01*
X96230952Y-90284523D01*
X96326190Y-90236904D01*
X96373809Y-90189285D01*
X96421428Y-90094047D01*
X96421428Y-89903571D01*
X96373809Y-89808333D01*
X96326190Y-89760714D01*
X96230952Y-89713095D01*
X103952380Y-87642857D02*
X103476190Y-87976190D01*
X103952380Y-88214285D02*
X102952380Y-88214285D01*
X102952380Y-87833333D01*
X103000000Y-87738095D01*
X103047619Y-87690476D01*
X103142857Y-87642857D01*
X103285714Y-87642857D01*
X103380952Y-87690476D01*
X103428571Y-87738095D01*
X103476190Y-87833333D01*
X103476190Y-88214285D01*
X103952380Y-86690476D02*
X103952380Y-87261904D01*
X103952380Y-86976190D02*
X102952380Y-86976190D01*
X103095238Y-87071428D01*
X103190476Y-87166666D01*
X103238095Y-87261904D01*
X103380952Y-86119047D02*
X103333333Y-86214285D01*
X103285714Y-86261904D01*
X103190476Y-86309523D01*
X103142857Y-86309523D01*
X103047619Y-86261904D01*
X103000000Y-86214285D01*
X102952380Y-86119047D01*
X102952380Y-85928571D01*
X103000000Y-85833333D01*
X103047619Y-85785714D01*
X103142857Y-85738095D01*
X103190476Y-85738095D01*
X103285714Y-85785714D01*
X103333333Y-85833333D01*
X103380952Y-85928571D01*
X103380952Y-86119047D01*
X103428571Y-86214285D01*
X103476190Y-86261904D01*
X103571428Y-86309523D01*
X103761904Y-86309523D01*
X103857142Y-86261904D01*
X103904761Y-86214285D01*
X103952380Y-86119047D01*
X103952380Y-85928571D01*
X103904761Y-85833333D01*
X103857142Y-85785714D01*
X103761904Y-85738095D01*
X103571428Y-85738095D01*
X103476190Y-85785714D01*
X103428571Y-85833333D01*
X103380952Y-85928571D01*
X96952380Y-87642857D02*
X96476190Y-87976190D01*
X96952380Y-88214285D02*
X95952380Y-88214285D01*
X95952380Y-87833333D01*
X96000000Y-87738095D01*
X96047619Y-87690476D01*
X96142857Y-87642857D01*
X96285714Y-87642857D01*
X96380952Y-87690476D01*
X96428571Y-87738095D01*
X96476190Y-87833333D01*
X96476190Y-88214285D01*
X96952380Y-86690476D02*
X96952380Y-87261904D01*
X96952380Y-86976190D02*
X95952380Y-86976190D01*
X96095238Y-87071428D01*
X96190476Y-87166666D01*
X96238095Y-87261904D01*
X95952380Y-86357142D02*
X95952380Y-85690476D01*
X96952380Y-86119047D01*
X102357142Y-64857142D02*
X102309523Y-64904761D01*
X102166666Y-64952380D01*
X102071428Y-64952380D01*
X101928571Y-64904761D01*
X101833333Y-64809523D01*
X101785714Y-64714285D01*
X101738095Y-64523809D01*
X101738095Y-64380952D01*
X101785714Y-64190476D01*
X101833333Y-64095238D01*
X101928571Y-64000000D01*
X102071428Y-63952380D01*
X102166666Y-63952380D01*
X102309523Y-64000000D01*
X102357142Y-64047619D01*
X103309523Y-64952380D02*
X102738095Y-64952380D01*
X103023809Y-64952380D02*
X103023809Y-63952380D01*
X102928571Y-64095238D01*
X102833333Y-64190476D01*
X102738095Y-64238095D01*
X103880952Y-64380952D02*
X103785714Y-64333333D01*
X103738095Y-64285714D01*
X103690476Y-64190476D01*
X103690476Y-64142857D01*
X103738095Y-64047619D01*
X103785714Y-64000000D01*
X103880952Y-63952380D01*
X104071428Y-63952380D01*
X104166666Y-64000000D01*
X104214285Y-64047619D01*
X104261904Y-64142857D01*
X104261904Y-64190476D01*
X104214285Y-64285714D01*
X104166666Y-64333333D01*
X104071428Y-64380952D01*
X103880952Y-64380952D01*
X103785714Y-64428571D01*
X103738095Y-64476190D01*
X103690476Y-64571428D01*
X103690476Y-64761904D01*
X103738095Y-64857142D01*
X103785714Y-64904761D01*
X103880952Y-64952380D01*
X104071428Y-64952380D01*
X104166666Y-64904761D01*
X104214285Y-64857142D01*
X104261904Y-64761904D01*
X104261904Y-64571428D01*
X104214285Y-64476190D01*
X104166666Y-64428571D01*
X104071428Y-64380952D01*
X102357142Y-70857142D02*
X102309523Y-70904761D01*
X102166666Y-70952380D01*
X102071428Y-70952380D01*
X101928571Y-70904761D01*
X101833333Y-70809523D01*
X101785714Y-70714285D01*
X101738095Y-70523809D01*
X101738095Y-70380952D01*
X101785714Y-70190476D01*
X101833333Y-70095238D01*
X101928571Y-70000000D01*
X102071428Y-69952380D01*
X102166666Y-69952380D01*
X102309523Y-70000000D01*
X102357142Y-70047619D01*
X103309523Y-70952380D02*
X102738095Y-70952380D01*
X103023809Y-70952380D02*
X103023809Y-69952380D01*
X102928571Y-70095238D01*
X102833333Y-70190476D01*
X102738095Y-70238095D01*
X103642857Y-69952380D02*
X104309523Y-69952380D01*
X103880952Y-70952380D01*
X102357142Y-49357142D02*
X102309523Y-49404761D01*
X102166666Y-49452380D01*
X102071428Y-49452380D01*
X101928571Y-49404761D01*
X101833333Y-49309523D01*
X101785714Y-49214285D01*
X101738095Y-49023809D01*
X101738095Y-48880952D01*
X101785714Y-48690476D01*
X101833333Y-48595238D01*
X101928571Y-48500000D01*
X102071428Y-48452380D01*
X102166666Y-48452380D01*
X102309523Y-48500000D01*
X102357142Y-48547619D01*
X103309523Y-49452380D02*
X102738095Y-49452380D01*
X103023809Y-49452380D02*
X103023809Y-48452380D01*
X102928571Y-48595238D01*
X102833333Y-48690476D01*
X102738095Y-48738095D01*
X104166666Y-48452380D02*
X103976190Y-48452380D01*
X103880952Y-48500000D01*
X103833333Y-48547619D01*
X103738095Y-48690476D01*
X103690476Y-48880952D01*
X103690476Y-49261904D01*
X103738095Y-49357142D01*
X103785714Y-49404761D01*
X103880952Y-49452380D01*
X104071428Y-49452380D01*
X104166666Y-49404761D01*
X104214285Y-49357142D01*
X104261904Y-49261904D01*
X104261904Y-49023809D01*
X104214285Y-48928571D01*
X104166666Y-48880952D01*
X104071428Y-48833333D01*
X103880952Y-48833333D01*
X103785714Y-48880952D01*
X103738095Y-48928571D01*
X103690476Y-49023809D01*
X102357142Y-55357142D02*
X102309523Y-55404761D01*
X102166666Y-55452380D01*
X102071428Y-55452380D01*
X101928571Y-55404761D01*
X101833333Y-55309523D01*
X101785714Y-55214285D01*
X101738095Y-55023809D01*
X101738095Y-54880952D01*
X101785714Y-54690476D01*
X101833333Y-54595238D01*
X101928571Y-54500000D01*
X102071428Y-54452380D01*
X102166666Y-54452380D01*
X102309523Y-54500000D01*
X102357142Y-54547619D01*
X103309523Y-55452380D02*
X102738095Y-55452380D01*
X103023809Y-55452380D02*
X103023809Y-54452380D01*
X102928571Y-54595238D01*
X102833333Y-54690476D01*
X102738095Y-54738095D01*
X104214285Y-54452380D02*
X103738095Y-54452380D01*
X103690476Y-54928571D01*
X103738095Y-54880952D01*
X103833333Y-54833333D01*
X104071428Y-54833333D01*
X104166666Y-54880952D01*
X104214285Y-54928571D01*
X104261904Y-55023809D01*
X104261904Y-55261904D01*
X104214285Y-55357142D01*
X104166666Y-55404761D01*
X104071428Y-55452380D01*
X103833333Y-55452380D01*
X103738095Y-55404761D01*
X103690476Y-55357142D01*
X102357142Y-33857142D02*
X102309523Y-33904761D01*
X102166666Y-33952380D01*
X102071428Y-33952380D01*
X101928571Y-33904761D01*
X101833333Y-33809523D01*
X101785714Y-33714285D01*
X101738095Y-33523809D01*
X101738095Y-33380952D01*
X101785714Y-33190476D01*
X101833333Y-33095238D01*
X101928571Y-33000000D01*
X102071428Y-32952380D01*
X102166666Y-32952380D01*
X102309523Y-33000000D01*
X102357142Y-33047619D01*
X103309523Y-33952380D02*
X102738095Y-33952380D01*
X103023809Y-33952380D02*
X103023809Y-32952380D01*
X102928571Y-33095238D01*
X102833333Y-33190476D01*
X102738095Y-33238095D01*
X103928571Y-32952380D02*
X104023809Y-32952380D01*
X104119047Y-33000000D01*
X104166666Y-33047619D01*
X104214285Y-33142857D01*
X104261904Y-33333333D01*
X104261904Y-33571428D01*
X104214285Y-33761904D01*
X104166666Y-33857142D01*
X104119047Y-33904761D01*
X104023809Y-33952380D01*
X103928571Y-33952380D01*
X103833333Y-33904761D01*
X103785714Y-33857142D01*
X103738095Y-33761904D01*
X103690476Y-33571428D01*
X103690476Y-33333333D01*
X103738095Y-33142857D01*
X103785714Y-33047619D01*
X103833333Y-33000000D01*
X103928571Y-32952380D01*
X102833333Y-39857142D02*
X102785714Y-39904761D01*
X102642857Y-39952380D01*
X102547619Y-39952380D01*
X102404761Y-39904761D01*
X102309523Y-39809523D01*
X102261904Y-39714285D01*
X102214285Y-39523809D01*
X102214285Y-39380952D01*
X102261904Y-39190476D01*
X102309523Y-39095238D01*
X102404761Y-39000000D01*
X102547619Y-38952380D01*
X102642857Y-38952380D01*
X102785714Y-39000000D01*
X102833333Y-39047619D01*
X103309523Y-39952380D02*
X103500000Y-39952380D01*
X103595238Y-39904761D01*
X103642857Y-39857142D01*
X103738095Y-39714285D01*
X103785714Y-39523809D01*
X103785714Y-39142857D01*
X103738095Y-39047619D01*
X103690476Y-39000000D01*
X103595238Y-38952380D01*
X103404761Y-38952380D01*
X103309523Y-39000000D01*
X103261904Y-39047619D01*
X103214285Y-39142857D01*
X103214285Y-39380952D01*
X103261904Y-39476190D01*
X103309523Y-39523809D01*
X103404761Y-39571428D01*
X103595238Y-39571428D01*
X103690476Y-39523809D01*
X103738095Y-39476190D01*
X103785714Y-39380952D01*
X102833333Y-18357142D02*
X102785714Y-18404761D01*
X102642857Y-18452380D01*
X102547619Y-18452380D01*
X102404761Y-18404761D01*
X102309523Y-18309523D01*
X102261904Y-18214285D01*
X102214285Y-18023809D01*
X102214285Y-17880952D01*
X102261904Y-17690476D01*
X102309523Y-17595238D01*
X102404761Y-17500000D01*
X102547619Y-17452380D01*
X102642857Y-17452380D01*
X102785714Y-17500000D01*
X102833333Y-17547619D01*
X103404761Y-17880952D02*
X103309523Y-17833333D01*
X103261904Y-17785714D01*
X103214285Y-17690476D01*
X103214285Y-17642857D01*
X103261904Y-17547619D01*
X103309523Y-17500000D01*
X103404761Y-17452380D01*
X103595238Y-17452380D01*
X103690476Y-17500000D01*
X103738095Y-17547619D01*
X103785714Y-17642857D01*
X103785714Y-17690476D01*
X103738095Y-17785714D01*
X103690476Y-17833333D01*
X103595238Y-17880952D01*
X103404761Y-17880952D01*
X103309523Y-17928571D01*
X103261904Y-17976190D01*
X103214285Y-18071428D01*
X103214285Y-18261904D01*
X103261904Y-18357142D01*
X103309523Y-18404761D01*
X103404761Y-18452380D01*
X103595238Y-18452380D01*
X103690476Y-18404761D01*
X103738095Y-18357142D01*
X103785714Y-18261904D01*
X103785714Y-18071428D01*
X103738095Y-17976190D01*
X103690476Y-17928571D01*
X103595238Y-17880952D01*
X102833333Y-24357142D02*
X102785714Y-24404761D01*
X102642857Y-24452380D01*
X102547619Y-24452380D01*
X102404761Y-24404761D01*
X102309523Y-24309523D01*
X102261904Y-24214285D01*
X102214285Y-24023809D01*
X102214285Y-23880952D01*
X102261904Y-23690476D01*
X102309523Y-23595238D01*
X102404761Y-23500000D01*
X102547619Y-23452380D01*
X102642857Y-23452380D01*
X102785714Y-23500000D01*
X102833333Y-23547619D01*
X103166666Y-23452380D02*
X103833333Y-23452380D01*
X103404761Y-24452380D01*
X125429933Y-87957142D02*
X125382314Y-88004761D01*
X125239457Y-88052380D01*
X125144219Y-88052380D01*
X125001361Y-88004761D01*
X124906123Y-87909523D01*
X124858504Y-87814285D01*
X124810885Y-87623809D01*
X124810885Y-87480952D01*
X124858504Y-87290476D01*
X124906123Y-87195238D01*
X125001361Y-87100000D01*
X125144219Y-87052380D01*
X125239457Y-87052380D01*
X125382314Y-87100000D01*
X125429933Y-87147619D01*
X125810885Y-87147619D02*
X125858504Y-87100000D01*
X125953742Y-87052380D01*
X126191838Y-87052380D01*
X126287076Y-87100000D01*
X126334695Y-87147619D01*
X126382314Y-87242857D01*
X126382314Y-87338095D01*
X126334695Y-87480952D01*
X125763266Y-88052380D01*
X126382314Y-88052380D01*
X111333333Y-111357142D02*
X111285714Y-111404761D01*
X111142857Y-111452380D01*
X111047619Y-111452380D01*
X110904761Y-111404761D01*
X110809523Y-111309523D01*
X110761904Y-111214285D01*
X110714285Y-111023809D01*
X110714285Y-110880952D01*
X110761904Y-110690476D01*
X110809523Y-110595238D01*
X110904761Y-110500000D01*
X111047619Y-110452380D01*
X111142857Y-110452380D01*
X111285714Y-110500000D01*
X111333333Y-110547619D01*
X112285714Y-111452380D02*
X111714285Y-111452380D01*
X112000000Y-111452380D02*
X112000000Y-110452380D01*
X111904761Y-110595238D01*
X111809523Y-110690476D01*
X111714285Y-110738095D01*
X95672380Y-97761904D02*
X96481904Y-97761904D01*
X96577142Y-97714285D01*
X96624761Y-97666666D01*
X96672380Y-97571428D01*
X96672380Y-97380952D01*
X96624761Y-97285714D01*
X96577142Y-97238095D01*
X96481904Y-97190476D01*
X95672380Y-97190476D01*
X96005714Y-96285714D02*
X96672380Y-96285714D01*
X95624761Y-96523809D02*
X96339047Y-96761904D01*
X96339047Y-96142857D01*
X129232380Y-57761904D02*
X130041904Y-57761904D01*
X130137142Y-57714285D01*
X130184761Y-57666666D01*
X130232380Y-57571428D01*
X130232380Y-57380952D01*
X130184761Y-57285714D01*
X130137142Y-57238095D01*
X130041904Y-57190476D01*
X129232380Y-57190476D01*
X129232380Y-56809523D02*
X129232380Y-56190476D01*
X129613333Y-56523809D01*
X129613333Y-56380952D01*
X129660952Y-56285714D01*
X129708571Y-56238095D01*
X129803809Y-56190476D01*
X130041904Y-56190476D01*
X130137142Y-56238095D01*
X130184761Y-56285714D01*
X130232380Y-56380952D01*
X130232380Y-56666666D01*
X130184761Y-56761904D01*
X130137142Y-56809523D01*
X129232380Y-26761904D02*
X130041904Y-26761904D01*
X130137142Y-26714285D01*
X130184761Y-26666666D01*
X130232380Y-26571428D01*
X130232380Y-26380952D01*
X130184761Y-26285714D01*
X130137142Y-26238095D01*
X130041904Y-26190476D01*
X129232380Y-26190476D01*
X129327619Y-25761904D02*
X129280000Y-25714285D01*
X129232380Y-25619047D01*
X129232380Y-25380952D01*
X129280000Y-25285714D01*
X129327619Y-25238095D01*
X129422857Y-25190476D01*
X129518095Y-25190476D01*
X129660952Y-25238095D01*
X130232380Y-25809523D01*
X130232380Y-25190476D01*
X88166666Y-99952380D02*
X88166666Y-100666666D01*
X88119047Y-100809523D01*
X88023809Y-100904761D01*
X87880952Y-100952380D01*
X87785714Y-100952380D01*
X89071428Y-100285714D02*
X89071428Y-100952380D01*
X88833333Y-99904761D02*
X88595238Y-100619047D01*
X89214285Y-100619047D01*
X125452380Y-75142857D02*
X124976190Y-75476190D01*
X125452380Y-75714285D02*
X124452380Y-75714285D01*
X124452380Y-75333333D01*
X124500000Y-75238095D01*
X124547619Y-75190476D01*
X124642857Y-75142857D01*
X124785714Y-75142857D01*
X124880952Y-75190476D01*
X124928571Y-75238095D01*
X124976190Y-75333333D01*
X124976190Y-75714285D01*
X125452380Y-74190476D02*
X125452380Y-74761904D01*
X125452380Y-74476190D02*
X124452380Y-74476190D01*
X124595238Y-74571428D01*
X124690476Y-74666666D01*
X124738095Y-74761904D01*
X124452380Y-73333333D02*
X124452380Y-73523809D01*
X124500000Y-73619047D01*
X124547619Y-73666666D01*
X124690476Y-73761904D01*
X124880952Y-73809523D01*
X125261904Y-73809523D01*
X125357142Y-73761904D01*
X125404761Y-73714285D01*
X125452380Y-73619047D01*
X125452380Y-73428571D01*
X125404761Y-73333333D01*
X125357142Y-73285714D01*
X125261904Y-73238095D01*
X125023809Y-73238095D01*
X124928571Y-73285714D01*
X124880952Y-73333333D01*
X124833333Y-73428571D01*
X124833333Y-73619047D01*
X124880952Y-73714285D01*
X124928571Y-73761904D01*
X125023809Y-73809523D01*
X127452380Y-75142857D02*
X126976190Y-75476190D01*
X127452380Y-75714285D02*
X126452380Y-75714285D01*
X126452380Y-75333333D01*
X126500000Y-75238095D01*
X126547619Y-75190476D01*
X126642857Y-75142857D01*
X126785714Y-75142857D01*
X126880952Y-75190476D01*
X126928571Y-75238095D01*
X126976190Y-75333333D01*
X126976190Y-75714285D01*
X127452380Y-74190476D02*
X127452380Y-74761904D01*
X127452380Y-74476190D02*
X126452380Y-74476190D01*
X126595238Y-74571428D01*
X126690476Y-74666666D01*
X126738095Y-74761904D01*
X126452380Y-73285714D02*
X126452380Y-73761904D01*
X126928571Y-73809523D01*
X126880952Y-73761904D01*
X126833333Y-73666666D01*
X126833333Y-73428571D01*
X126880952Y-73333333D01*
X126928571Y-73285714D01*
X127023809Y-73238095D01*
X127261904Y-73238095D01*
X127357142Y-73285714D01*
X127404761Y-73333333D01*
X127452380Y-73428571D01*
X127452380Y-73666666D01*
X127404761Y-73761904D01*
X127357142Y-73809523D01*
X125452380Y-43642857D02*
X124976190Y-43976190D01*
X125452380Y-44214285D02*
X124452380Y-44214285D01*
X124452380Y-43833333D01*
X124500000Y-43738095D01*
X124547619Y-43690476D01*
X124642857Y-43642857D01*
X124785714Y-43642857D01*
X124880952Y-43690476D01*
X124928571Y-43738095D01*
X124976190Y-43833333D01*
X124976190Y-44214285D01*
X125452380Y-42690476D02*
X125452380Y-43261904D01*
X125452380Y-42976190D02*
X124452380Y-42976190D01*
X124595238Y-43071428D01*
X124690476Y-43166666D01*
X124738095Y-43261904D01*
X124785714Y-41833333D02*
X125452380Y-41833333D01*
X124404761Y-42071428D02*
X125119047Y-42309523D01*
X125119047Y-41690476D01*
X127452380Y-43642857D02*
X126976190Y-43976190D01*
X127452380Y-44214285D02*
X126452380Y-44214285D01*
X126452380Y-43833333D01*
X126500000Y-43738095D01*
X126547619Y-43690476D01*
X126642857Y-43642857D01*
X126785714Y-43642857D01*
X126880952Y-43690476D01*
X126928571Y-43738095D01*
X126976190Y-43833333D01*
X126976190Y-44214285D01*
X127452380Y-42690476D02*
X127452380Y-43261904D01*
X127452380Y-42976190D02*
X126452380Y-42976190D01*
X126595238Y-43071428D01*
X126690476Y-43166666D01*
X126738095Y-43261904D01*
X126452380Y-42357142D02*
X126452380Y-41738095D01*
X126833333Y-42071428D01*
X126833333Y-41928571D01*
X126880952Y-41833333D01*
X126928571Y-41785714D01*
X127023809Y-41738095D01*
X127261904Y-41738095D01*
X127357142Y-41785714D01*
X127404761Y-41833333D01*
X127452380Y-41928571D01*
X127452380Y-42214285D01*
X127404761Y-42309523D01*
X127357142Y-42357142D01*
X123452380Y-75142857D02*
X122976190Y-75476190D01*
X123452380Y-75714285D02*
X122452380Y-75714285D01*
X122452380Y-75333333D01*
X122500000Y-75238095D01*
X122547619Y-75190476D01*
X122642857Y-75142857D01*
X122785714Y-75142857D01*
X122880952Y-75190476D01*
X122928571Y-75238095D01*
X122976190Y-75333333D01*
X122976190Y-75714285D01*
X123452380Y-74190476D02*
X123452380Y-74761904D01*
X123452380Y-74476190D02*
X122452380Y-74476190D01*
X122595238Y-74571428D01*
X122690476Y-74666666D01*
X122738095Y-74761904D01*
X122547619Y-73809523D02*
X122500000Y-73761904D01*
X122452380Y-73666666D01*
X122452380Y-73428571D01*
X122500000Y-73333333D01*
X122547619Y-73285714D01*
X122642857Y-73238095D01*
X122738095Y-73238095D01*
X122880952Y-73285714D01*
X123452380Y-73857142D01*
X123452380Y-73238095D01*
X121452380Y-75142857D02*
X120976190Y-75476190D01*
X121452380Y-75714285D02*
X120452380Y-75714285D01*
X120452380Y-75333333D01*
X120500000Y-75238095D01*
X120547619Y-75190476D01*
X120642857Y-75142857D01*
X120785714Y-75142857D01*
X120880952Y-75190476D01*
X120928571Y-75238095D01*
X120976190Y-75333333D01*
X120976190Y-75714285D01*
X121452380Y-74190476D02*
X121452380Y-74761904D01*
X121452380Y-74476190D02*
X120452380Y-74476190D01*
X120595238Y-74571428D01*
X120690476Y-74666666D01*
X120738095Y-74761904D01*
X121452380Y-73238095D02*
X121452380Y-73809523D01*
X121452380Y-73523809D02*
X120452380Y-73523809D01*
X120595238Y-73619047D01*
X120690476Y-73714285D01*
X120738095Y-73809523D01*
X123452380Y-43642857D02*
X122976190Y-43976190D01*
X123452380Y-44214285D02*
X122452380Y-44214285D01*
X122452380Y-43833333D01*
X122500000Y-43738095D01*
X122547619Y-43690476D01*
X122642857Y-43642857D01*
X122785714Y-43642857D01*
X122880952Y-43690476D01*
X122928571Y-43738095D01*
X122976190Y-43833333D01*
X122976190Y-44214285D01*
X123452380Y-42690476D02*
X123452380Y-43261904D01*
X123452380Y-42976190D02*
X122452380Y-42976190D01*
X122595238Y-43071428D01*
X122690476Y-43166666D01*
X122738095Y-43261904D01*
X122452380Y-42071428D02*
X122452380Y-41976190D01*
X122500000Y-41880952D01*
X122547619Y-41833333D01*
X122642857Y-41785714D01*
X122833333Y-41738095D01*
X123071428Y-41738095D01*
X123261904Y-41785714D01*
X123357142Y-41833333D01*
X123404761Y-41880952D01*
X123452380Y-41976190D01*
X123452380Y-42071428D01*
X123404761Y-42166666D01*
X123357142Y-42214285D01*
X123261904Y-42261904D01*
X123071428Y-42309523D01*
X122833333Y-42309523D01*
X122642857Y-42261904D01*
X122547619Y-42214285D01*
X122500000Y-42166666D01*
X122452380Y-42071428D01*
X121452380Y-42666666D02*
X120976190Y-43000000D01*
X121452380Y-43238095D02*
X120452380Y-43238095D01*
X120452380Y-42857142D01*
X120500000Y-42761904D01*
X120547619Y-42714285D01*
X120642857Y-42666666D01*
X120785714Y-42666666D01*
X120880952Y-42714285D01*
X120928571Y-42761904D01*
X120976190Y-42857142D01*
X120976190Y-43238095D01*
X121452380Y-42190476D02*
X121452380Y-42000000D01*
X121404761Y-41904761D01*
X121357142Y-41857142D01*
X121214285Y-41761904D01*
X121023809Y-41714285D01*
X120642857Y-41714285D01*
X120547619Y-41761904D01*
X120500000Y-41809523D01*
X120452380Y-41904761D01*
X120452380Y-42095238D01*
X120500000Y-42190476D01*
X120547619Y-42238095D01*
X120642857Y-42285714D01*
X120880952Y-42285714D01*
X120976190Y-42238095D01*
X121023809Y-42190476D01*
X121071428Y-42095238D01*
X121071428Y-41904761D01*
X121023809Y-41809523D01*
X120976190Y-41761904D01*
X120880952Y-41714285D01*
X114833333Y-71952380D02*
X114500000Y-71476190D01*
X114261904Y-71952380D02*
X114261904Y-70952380D01*
X114642857Y-70952380D01*
X114738095Y-71000000D01*
X114785714Y-71047619D01*
X114833333Y-71142857D01*
X114833333Y-71285714D01*
X114785714Y-71380952D01*
X114738095Y-71428571D01*
X114642857Y-71476190D01*
X114261904Y-71476190D01*
X115404761Y-71380952D02*
X115309523Y-71333333D01*
X115261904Y-71285714D01*
X115214285Y-71190476D01*
X115214285Y-71142857D01*
X115261904Y-71047619D01*
X115309523Y-71000000D01*
X115404761Y-70952380D01*
X115595238Y-70952380D01*
X115690476Y-71000000D01*
X115738095Y-71047619D01*
X115785714Y-71142857D01*
X115785714Y-71190476D01*
X115738095Y-71285714D01*
X115690476Y-71333333D01*
X115595238Y-71380952D01*
X115404761Y-71380952D01*
X115309523Y-71428571D01*
X115261904Y-71476190D01*
X115214285Y-71571428D01*
X115214285Y-71761904D01*
X115261904Y-71857142D01*
X115309523Y-71904761D01*
X115404761Y-71952380D01*
X115595238Y-71952380D01*
X115690476Y-71904761D01*
X115738095Y-71857142D01*
X115785714Y-71761904D01*
X115785714Y-71571428D01*
X115738095Y-71476190D01*
X115690476Y-71428571D01*
X115595238Y-71380952D01*
X114833333Y-77952380D02*
X114500000Y-77476190D01*
X114261904Y-77952380D02*
X114261904Y-76952380D01*
X114642857Y-76952380D01*
X114738095Y-77000000D01*
X114785714Y-77047619D01*
X114833333Y-77142857D01*
X114833333Y-77285714D01*
X114785714Y-77380952D01*
X114738095Y-77428571D01*
X114642857Y-77476190D01*
X114261904Y-77476190D01*
X115166666Y-76952380D02*
X115833333Y-76952380D01*
X115404761Y-77952380D01*
X114770833Y-56452380D02*
X114437500Y-55976190D01*
X114199404Y-56452380D02*
X114199404Y-55452380D01*
X114580357Y-55452380D01*
X114675595Y-55500000D01*
X114723214Y-55547619D01*
X114770833Y-55642857D01*
X114770833Y-55785714D01*
X114723214Y-55880952D01*
X114675595Y-55928571D01*
X114580357Y-55976190D01*
X114199404Y-55976190D01*
X115627976Y-55452380D02*
X115437500Y-55452380D01*
X115342261Y-55500000D01*
X115294642Y-55547619D01*
X115199404Y-55690476D01*
X115151785Y-55880952D01*
X115151785Y-56261904D01*
X115199404Y-56357142D01*
X115247023Y-56404761D01*
X115342261Y-56452380D01*
X115532738Y-56452380D01*
X115627976Y-56404761D01*
X115675595Y-56357142D01*
X115723214Y-56261904D01*
X115723214Y-56023809D01*
X115675595Y-55928571D01*
X115627976Y-55880952D01*
X115532738Y-55833333D01*
X115342261Y-55833333D01*
X115247023Y-55880952D01*
X115199404Y-55928571D01*
X115151785Y-56023809D01*
X114770833Y-62452380D02*
X114437500Y-61976190D01*
X114199404Y-62452380D02*
X114199404Y-61452380D01*
X114580357Y-61452380D01*
X114675595Y-61500000D01*
X114723214Y-61547619D01*
X114770833Y-61642857D01*
X114770833Y-61785714D01*
X114723214Y-61880952D01*
X114675595Y-61928571D01*
X114580357Y-61976190D01*
X114199404Y-61976190D01*
X115675595Y-61452380D02*
X115199404Y-61452380D01*
X115151785Y-61928571D01*
X115199404Y-61880952D01*
X115294642Y-61833333D01*
X115532738Y-61833333D01*
X115627976Y-61880952D01*
X115675595Y-61928571D01*
X115723214Y-62023809D01*
X115723214Y-62261904D01*
X115675595Y-62357142D01*
X115627976Y-62404761D01*
X115532738Y-62452380D01*
X115294642Y-62452380D01*
X115199404Y-62404761D01*
X115151785Y-62357142D01*
X114833333Y-40952380D02*
X114500000Y-40476190D01*
X114261904Y-40952380D02*
X114261904Y-39952380D01*
X114642857Y-39952380D01*
X114738095Y-40000000D01*
X114785714Y-40047619D01*
X114833333Y-40142857D01*
X114833333Y-40285714D01*
X114785714Y-40380952D01*
X114738095Y-40428571D01*
X114642857Y-40476190D01*
X114261904Y-40476190D01*
X115690476Y-40285714D02*
X115690476Y-40952380D01*
X115452380Y-39904761D02*
X115214285Y-40619047D01*
X115833333Y-40619047D01*
X114833333Y-46952380D02*
X114500000Y-46476190D01*
X114261904Y-46952380D02*
X114261904Y-45952380D01*
X114642857Y-45952380D01*
X114738095Y-46000000D01*
X114785714Y-46047619D01*
X114833333Y-46142857D01*
X114833333Y-46285714D01*
X114785714Y-46380952D01*
X114738095Y-46428571D01*
X114642857Y-46476190D01*
X114261904Y-46476190D01*
X115166666Y-45952380D02*
X115785714Y-45952380D01*
X115452380Y-46333333D01*
X115595238Y-46333333D01*
X115690476Y-46380952D01*
X115738095Y-46428571D01*
X115785714Y-46523809D01*
X115785714Y-46761904D01*
X115738095Y-46857142D01*
X115690476Y-46904761D01*
X115595238Y-46952380D01*
X115309523Y-46952380D01*
X115214285Y-46904761D01*
X115166666Y-46857142D01*
X115333333Y-25452380D02*
X115000000Y-24976190D01*
X114761904Y-25452380D02*
X114761904Y-24452380D01*
X115142857Y-24452380D01*
X115238095Y-24500000D01*
X115285714Y-24547619D01*
X115333333Y-24642857D01*
X115333333Y-24785714D01*
X115285714Y-24880952D01*
X115238095Y-24928571D01*
X115142857Y-24976190D01*
X114761904Y-24976190D01*
X115714285Y-24547619D02*
X115761904Y-24500000D01*
X115857142Y-24452380D01*
X116095238Y-24452380D01*
X116190476Y-24500000D01*
X116238095Y-24547619D01*
X116285714Y-24642857D01*
X116285714Y-24738095D01*
X116238095Y-24880952D01*
X115666666Y-25452380D01*
X116285714Y-25452380D01*
X115333333Y-31452380D02*
X115000000Y-30976190D01*
X114761904Y-31452380D02*
X114761904Y-30452380D01*
X115142857Y-30452380D01*
X115238095Y-30500000D01*
X115285714Y-30547619D01*
X115333333Y-30642857D01*
X115333333Y-30785714D01*
X115285714Y-30880952D01*
X115238095Y-30928571D01*
X115142857Y-30976190D01*
X114761904Y-30976190D01*
X116285714Y-31452380D02*
X115714285Y-31452380D01*
X116000000Y-31452380D02*
X116000000Y-30452380D01*
X115904761Y-30595238D01*
X115809523Y-30690476D01*
X115714285Y-30738095D01*
X100207142Y-87580357D02*
X100254761Y-87627976D01*
X100302380Y-87770833D01*
X100302380Y-87866071D01*
X100254761Y-88008928D01*
X100159523Y-88104166D01*
X100064285Y-88151785D01*
X99873809Y-88199404D01*
X99730952Y-88199404D01*
X99540476Y-88151785D01*
X99445238Y-88104166D01*
X99350000Y-88008928D01*
X99302380Y-87866071D01*
X99302380Y-87770833D01*
X99350000Y-87627976D01*
X99397619Y-87580357D01*
X99397619Y-87199404D02*
X99350000Y-87151785D01*
X99302380Y-87056547D01*
X99302380Y-86818452D01*
X99350000Y-86723214D01*
X99397619Y-86675595D01*
X99492857Y-86627976D01*
X99588095Y-86627976D01*
X99730952Y-86675595D01*
X100302380Y-87247023D01*
X100302380Y-86627976D01*
X99302380Y-85770833D02*
X99302380Y-85961309D01*
X99350000Y-86056547D01*
X99397619Y-86104166D01*
X99540476Y-86199404D01*
X99730952Y-86247023D01*
X100111904Y-86247023D01*
X100207142Y-86199404D01*
X100254761Y-86151785D01*
X100302380Y-86056547D01*
X100302380Y-85866071D01*
X100254761Y-85770833D01*
X100207142Y-85723214D01*
X100111904Y-85675595D01*
X99873809Y-85675595D01*
X99778571Y-85723214D01*
X99730952Y-85770833D01*
X99683333Y-85866071D01*
X99683333Y-86056547D01*
X99730952Y-86151785D01*
X99778571Y-86199404D01*
X99873809Y-86247023D01*
X123357142Y-20642857D02*
X123404761Y-20690476D01*
X123452380Y-20833333D01*
X123452380Y-20928571D01*
X123404761Y-21071428D01*
X123309523Y-21166666D01*
X123214285Y-21214285D01*
X123023809Y-21261904D01*
X122880952Y-21261904D01*
X122690476Y-21214285D01*
X122595238Y-21166666D01*
X122500000Y-21071428D01*
X122452380Y-20928571D01*
X122452380Y-20833333D01*
X122500000Y-20690476D01*
X122547619Y-20642857D01*
X122547619Y-20261904D02*
X122500000Y-20214285D01*
X122452380Y-20119047D01*
X122452380Y-19880952D01*
X122500000Y-19785714D01*
X122547619Y-19738095D01*
X122642857Y-19690476D01*
X122738095Y-19690476D01*
X122880952Y-19738095D01*
X123452380Y-20309523D01*
X123452380Y-19690476D01*
X122452380Y-18785714D02*
X122452380Y-19261904D01*
X122928571Y-19309523D01*
X122880952Y-19261904D01*
X122833333Y-19166666D01*
X122833333Y-18928571D01*
X122880952Y-18833333D01*
X122928571Y-18785714D01*
X123023809Y-18738095D01*
X123261904Y-18738095D01*
X123357142Y-18785714D01*
X123404761Y-18833333D01*
X123452380Y-18928571D01*
X123452380Y-19166666D01*
X123404761Y-19261904D01*
X123357142Y-19309523D01*
X123357142Y-63642857D02*
X123404761Y-63690476D01*
X123452380Y-63833333D01*
X123452380Y-63928571D01*
X123404761Y-64071428D01*
X123309523Y-64166666D01*
X123214285Y-64214285D01*
X123023809Y-64261904D01*
X122880952Y-64261904D01*
X122690476Y-64214285D01*
X122595238Y-64166666D01*
X122500000Y-64071428D01*
X122452380Y-63928571D01*
X122452380Y-63833333D01*
X122500000Y-63690476D01*
X122547619Y-63642857D01*
X122547619Y-63261904D02*
X122500000Y-63214285D01*
X122452380Y-63119047D01*
X122452380Y-62880952D01*
X122500000Y-62785714D01*
X122547619Y-62738095D01*
X122642857Y-62690476D01*
X122738095Y-62690476D01*
X122880952Y-62738095D01*
X123452380Y-63309523D01*
X123452380Y-62690476D01*
X122785714Y-61833333D02*
X123452380Y-61833333D01*
X122404761Y-62071428D02*
X123119047Y-62309523D01*
X123119047Y-61690476D01*
X100357142Y-107642857D02*
X100404761Y-107690476D01*
X100452380Y-107833333D01*
X100452380Y-107928571D01*
X100404761Y-108071428D01*
X100309523Y-108166666D01*
X100214285Y-108214285D01*
X100023809Y-108261904D01*
X99880952Y-108261904D01*
X99690476Y-108214285D01*
X99595238Y-108166666D01*
X99500000Y-108071428D01*
X99452380Y-107928571D01*
X99452380Y-107833333D01*
X99500000Y-107690476D01*
X99547619Y-107642857D01*
X99547619Y-107261904D02*
X99500000Y-107214285D01*
X99452380Y-107119047D01*
X99452380Y-106880952D01*
X99500000Y-106785714D01*
X99547619Y-106738095D01*
X99642857Y-106690476D01*
X99738095Y-106690476D01*
X99880952Y-106738095D01*
X100452380Y-107309523D01*
X100452380Y-106690476D01*
X99452380Y-106357142D02*
X99452380Y-105738095D01*
X99833333Y-106071428D01*
X99833333Y-105928571D01*
X99880952Y-105833333D01*
X99928571Y-105785714D01*
X100023809Y-105738095D01*
X100261904Y-105738095D01*
X100357142Y-105785714D01*
X100404761Y-105833333D01*
X100452380Y-105928571D01*
X100452380Y-106214285D01*
X100404761Y-106309523D01*
X100357142Y-106357142D01*
X114857142Y-69857142D02*
X114809523Y-69904761D01*
X114666666Y-69952380D01*
X114571428Y-69952380D01*
X114428571Y-69904761D01*
X114333333Y-69809523D01*
X114285714Y-69714285D01*
X114238095Y-69523809D01*
X114238095Y-69380952D01*
X114285714Y-69190476D01*
X114333333Y-69095238D01*
X114428571Y-69000000D01*
X114571428Y-68952380D01*
X114666666Y-68952380D01*
X114809523Y-69000000D01*
X114857142Y-69047619D01*
X115238095Y-69047619D02*
X115285714Y-69000000D01*
X115380952Y-68952380D01*
X115619047Y-68952380D01*
X115714285Y-69000000D01*
X115761904Y-69047619D01*
X115809523Y-69142857D01*
X115809523Y-69238095D01*
X115761904Y-69380952D01*
X115190476Y-69952380D01*
X115809523Y-69952380D01*
X116190476Y-69047619D02*
X116238095Y-69000000D01*
X116333333Y-68952380D01*
X116571428Y-68952380D01*
X116666666Y-69000000D01*
X116714285Y-69047619D01*
X116761904Y-69142857D01*
X116761904Y-69238095D01*
X116714285Y-69380952D01*
X116142857Y-69952380D01*
X116761904Y-69952380D01*
X114857142Y-75857142D02*
X114809523Y-75904761D01*
X114666666Y-75952380D01*
X114571428Y-75952380D01*
X114428571Y-75904761D01*
X114333333Y-75809523D01*
X114285714Y-75714285D01*
X114238095Y-75523809D01*
X114238095Y-75380952D01*
X114285714Y-75190476D01*
X114333333Y-75095238D01*
X114428571Y-75000000D01*
X114571428Y-74952380D01*
X114666666Y-74952380D01*
X114809523Y-75000000D01*
X114857142Y-75047619D01*
X115238095Y-75047619D02*
X115285714Y-75000000D01*
X115380952Y-74952380D01*
X115619047Y-74952380D01*
X115714285Y-75000000D01*
X115761904Y-75047619D01*
X115809523Y-75142857D01*
X115809523Y-75238095D01*
X115761904Y-75380952D01*
X115190476Y-75952380D01*
X115809523Y-75952380D01*
X116761904Y-75952380D02*
X116190476Y-75952380D01*
X116476190Y-75952380D02*
X116476190Y-74952380D01*
X116380952Y-75095238D01*
X116285714Y-75190476D01*
X116190476Y-75238095D01*
X114857142Y-54357142D02*
X114809523Y-54404761D01*
X114666666Y-54452380D01*
X114571428Y-54452380D01*
X114428571Y-54404761D01*
X114333333Y-54309523D01*
X114285714Y-54214285D01*
X114238095Y-54023809D01*
X114238095Y-53880952D01*
X114285714Y-53690476D01*
X114333333Y-53595238D01*
X114428571Y-53500000D01*
X114571428Y-53452380D01*
X114666666Y-53452380D01*
X114809523Y-53500000D01*
X114857142Y-53547619D01*
X115238095Y-53547619D02*
X115285714Y-53500000D01*
X115380952Y-53452380D01*
X115619047Y-53452380D01*
X115714285Y-53500000D01*
X115761904Y-53547619D01*
X115809523Y-53642857D01*
X115809523Y-53738095D01*
X115761904Y-53880952D01*
X115190476Y-54452380D01*
X115809523Y-54452380D01*
X116428571Y-53452380D02*
X116523809Y-53452380D01*
X116619047Y-53500000D01*
X116666666Y-53547619D01*
X116714285Y-53642857D01*
X116761904Y-53833333D01*
X116761904Y-54071428D01*
X116714285Y-54261904D01*
X116666666Y-54357142D01*
X116619047Y-54404761D01*
X116523809Y-54452380D01*
X116428571Y-54452380D01*
X116333333Y-54404761D01*
X116285714Y-54357142D01*
X116238095Y-54261904D01*
X116190476Y-54071428D01*
X116190476Y-53833333D01*
X116238095Y-53642857D01*
X116285714Y-53547619D01*
X116333333Y-53500000D01*
X116428571Y-53452380D01*
X114794642Y-60357142D02*
X114747023Y-60404761D01*
X114604166Y-60452380D01*
X114508928Y-60452380D01*
X114366071Y-60404761D01*
X114270833Y-60309523D01*
X114223214Y-60214285D01*
X114175595Y-60023809D01*
X114175595Y-59880952D01*
X114223214Y-59690476D01*
X114270833Y-59595238D01*
X114366071Y-59500000D01*
X114508928Y-59452380D01*
X114604166Y-59452380D01*
X114747023Y-59500000D01*
X114794642Y-59547619D01*
X115747023Y-60452380D02*
X115175595Y-60452380D01*
X115461309Y-60452380D02*
X115461309Y-59452380D01*
X115366071Y-59595238D01*
X115270833Y-59690476D01*
X115175595Y-59738095D01*
X116223214Y-60452380D02*
X116413690Y-60452380D01*
X116508928Y-60404761D01*
X116556547Y-60357142D01*
X116651785Y-60214285D01*
X116699404Y-60023809D01*
X116699404Y-59642857D01*
X116651785Y-59547619D01*
X116604166Y-59500000D01*
X116508928Y-59452380D01*
X116318452Y-59452380D01*
X116223214Y-59500000D01*
X116175595Y-59547619D01*
X116127976Y-59642857D01*
X116127976Y-59880952D01*
X116175595Y-59976190D01*
X116223214Y-60023809D01*
X116318452Y-60071428D01*
X116508928Y-60071428D01*
X116604166Y-60023809D01*
X116651785Y-59976190D01*
X116699404Y-59880952D01*
X114857142Y-38857142D02*
X114809523Y-38904761D01*
X114666666Y-38952380D01*
X114571428Y-38952380D01*
X114428571Y-38904761D01*
X114333333Y-38809523D01*
X114285714Y-38714285D01*
X114238095Y-38523809D01*
X114238095Y-38380952D01*
X114285714Y-38190476D01*
X114333333Y-38095238D01*
X114428571Y-38000000D01*
X114571428Y-37952380D01*
X114666666Y-37952380D01*
X114809523Y-38000000D01*
X114857142Y-38047619D01*
X115809523Y-38952380D02*
X115238095Y-38952380D01*
X115523809Y-38952380D02*
X115523809Y-37952380D01*
X115428571Y-38095238D01*
X115333333Y-38190476D01*
X115238095Y-38238095D01*
X116666666Y-38285714D02*
X116666666Y-38952380D01*
X116428571Y-37904761D02*
X116190476Y-38619047D01*
X116809523Y-38619047D01*
X114857142Y-44857142D02*
X114809523Y-44904761D01*
X114666666Y-44952380D01*
X114571428Y-44952380D01*
X114428571Y-44904761D01*
X114333333Y-44809523D01*
X114285714Y-44714285D01*
X114238095Y-44523809D01*
X114238095Y-44380952D01*
X114285714Y-44190476D01*
X114333333Y-44095238D01*
X114428571Y-44000000D01*
X114571428Y-43952380D01*
X114666666Y-43952380D01*
X114809523Y-44000000D01*
X114857142Y-44047619D01*
X115809523Y-44952380D02*
X115238095Y-44952380D01*
X115523809Y-44952380D02*
X115523809Y-43952380D01*
X115428571Y-44095238D01*
X115333333Y-44190476D01*
X115238095Y-44238095D01*
X116142857Y-43952380D02*
X116761904Y-43952380D01*
X116428571Y-44333333D01*
X116571428Y-44333333D01*
X116666666Y-44380952D01*
X116714285Y-44428571D01*
X116761904Y-44523809D01*
X116761904Y-44761904D01*
X116714285Y-44857142D01*
X116666666Y-44904761D01*
X116571428Y-44952380D01*
X116285714Y-44952380D01*
X116190476Y-44904761D01*
X116142857Y-44857142D01*
X115294642Y-23357142D02*
X115247023Y-23404761D01*
X115104166Y-23452380D01*
X115008928Y-23452380D01*
X114866071Y-23404761D01*
X114770833Y-23309523D01*
X114723214Y-23214285D01*
X114675595Y-23023809D01*
X114675595Y-22880952D01*
X114723214Y-22690476D01*
X114770833Y-22595238D01*
X114866071Y-22500000D01*
X115008928Y-22452380D01*
X115104166Y-22452380D01*
X115247023Y-22500000D01*
X115294642Y-22547619D01*
X116247023Y-23452380D02*
X115675595Y-23452380D01*
X115961309Y-23452380D02*
X115961309Y-22452380D01*
X115866071Y-22595238D01*
X115770833Y-22690476D01*
X115675595Y-22738095D01*
X116627976Y-22547619D02*
X116675595Y-22500000D01*
X116770833Y-22452380D01*
X117008928Y-22452380D01*
X117104166Y-22500000D01*
X117151785Y-22547619D01*
X117199404Y-22642857D01*
X117199404Y-22738095D01*
X117151785Y-22880952D01*
X116580357Y-23452380D01*
X117199404Y-23452380D01*
X115357142Y-29357142D02*
X115309523Y-29404761D01*
X115166666Y-29452380D01*
X115071428Y-29452380D01*
X114928571Y-29404761D01*
X114833333Y-29309523D01*
X114785714Y-29214285D01*
X114738095Y-29023809D01*
X114738095Y-28880952D01*
X114785714Y-28690476D01*
X114833333Y-28595238D01*
X114928571Y-28500000D01*
X115071428Y-28452380D01*
X115166666Y-28452380D01*
X115309523Y-28500000D01*
X115357142Y-28547619D01*
X116309523Y-29452380D02*
X115738095Y-29452380D01*
X116023809Y-29452380D02*
X116023809Y-28452380D01*
X115928571Y-28595238D01*
X115833333Y-28690476D01*
X115738095Y-28738095D01*
X117261904Y-29452380D02*
X116690476Y-29452380D01*
X116976190Y-29452380D02*
X116976190Y-28452380D01*
X116880952Y-28595238D01*
X116785714Y-28690476D01*
X116690476Y-28738095D01*
X123357142Y-32166666D02*
X123404761Y-32214285D01*
X123452380Y-32357142D01*
X123452380Y-32452380D01*
X123404761Y-32595238D01*
X123309523Y-32690476D01*
X123214285Y-32738095D01*
X123023809Y-32785714D01*
X122880952Y-32785714D01*
X122690476Y-32738095D01*
X122595238Y-32690476D01*
X122500000Y-32595238D01*
X122452380Y-32452380D01*
X122452380Y-32357142D01*
X122500000Y-32214285D01*
X122547619Y-32166666D01*
X122452380Y-31309523D02*
X122452380Y-31500000D01*
X122500000Y-31595238D01*
X122547619Y-31642857D01*
X122690476Y-31738095D01*
X122880952Y-31785714D01*
X123261904Y-31785714D01*
X123357142Y-31738095D01*
X123404761Y-31690476D01*
X123452380Y-31595238D01*
X123452380Y-31404761D01*
X123404761Y-31309523D01*
X123357142Y-31261904D01*
X123261904Y-31214285D01*
X123023809Y-31214285D01*
X122928571Y-31261904D01*
X122880952Y-31309523D01*
X122833333Y-31404761D01*
X122833333Y-31595238D01*
X122880952Y-31690476D01*
X122928571Y-31738095D01*
X123023809Y-31785714D01*
X123207142Y-51104166D02*
X123254761Y-51151785D01*
X123302380Y-51294642D01*
X123302380Y-51389880D01*
X123254761Y-51532738D01*
X123159523Y-51627976D01*
X123064285Y-51675595D01*
X122873809Y-51723214D01*
X122730952Y-51723214D01*
X122540476Y-51675595D01*
X122445238Y-51627976D01*
X122350000Y-51532738D01*
X122302380Y-51389880D01*
X122302380Y-51294642D01*
X122350000Y-51151785D01*
X122397619Y-51104166D01*
X122302380Y-50199404D02*
X122302380Y-50675595D01*
X122778571Y-50723214D01*
X122730952Y-50675595D01*
X122683333Y-50580357D01*
X122683333Y-50342261D01*
X122730952Y-50247023D01*
X122778571Y-50199404D01*
X122873809Y-50151785D01*
X123111904Y-50151785D01*
X123207142Y-50199404D01*
X123254761Y-50247023D01*
X123302380Y-50342261D01*
X123302380Y-50580357D01*
X123254761Y-50675595D01*
X123207142Y-50723214D01*
X119333333Y-105857142D02*
X119285714Y-105904761D01*
X119142857Y-105952380D01*
X119047619Y-105952380D01*
X118904761Y-105904761D01*
X118809523Y-105809523D01*
X118761904Y-105714285D01*
X118714285Y-105523809D01*
X118714285Y-105380952D01*
X118761904Y-105190476D01*
X118809523Y-105095238D01*
X118904761Y-105000000D01*
X119047619Y-104952380D01*
X119142857Y-104952380D01*
X119285714Y-105000000D01*
X119333333Y-105047619D01*
X120190476Y-105285714D02*
X120190476Y-105952380D01*
X119952380Y-104904761D02*
X119714285Y-105619047D01*
X120333333Y-105619047D01*
X119333333Y-108357142D02*
X119285714Y-108404761D01*
X119142857Y-108452380D01*
X119047619Y-108452380D01*
X118904761Y-108404761D01*
X118809523Y-108309523D01*
X118761904Y-108214285D01*
X118714285Y-108023809D01*
X118714285Y-107880952D01*
X118761904Y-107690476D01*
X118809523Y-107595238D01*
X118904761Y-107500000D01*
X119047619Y-107452380D01*
X119142857Y-107452380D01*
X119285714Y-107500000D01*
X119333333Y-107547619D01*
X119666666Y-107452380D02*
X120285714Y-107452380D01*
X119952380Y-107833333D01*
X120095238Y-107833333D01*
X120190476Y-107880952D01*
X120238095Y-107928571D01*
X120285714Y-108023809D01*
X120285714Y-108261904D01*
X120238095Y-108357142D01*
X120190476Y-108404761D01*
X120095238Y-108452380D01*
X119809523Y-108452380D01*
X119714285Y-108404761D01*
X119666666Y-108357142D01*
D17*
X116678102Y-112890616D02*
X116678102Y-113078093D01*
X116284401Y-113078093D01*
X116678102Y-112553158D02*
X116678102Y-112778130D01*
X116678102Y-112665644D02*
X116284401Y-112665644D01*
X116340644Y-112703140D01*
X116378140Y-112740635D01*
X116396887Y-112778130D01*
X128238095Y-93452380D02*
X128238095Y-94261904D01*
X128285714Y-94357142D01*
X128333333Y-94404761D01*
X128428571Y-94452380D01*
X128619047Y-94452380D01*
X128714285Y-94404761D01*
X128761904Y-94357142D01*
X128809523Y-94261904D01*
X128809523Y-93452380D01*
X129809523Y-94452380D02*
X129238095Y-94452380D01*
X129523809Y-94452380D02*
X129523809Y-93452380D01*
X129428571Y-93595238D01*
X129333333Y-93690476D01*
X129238095Y-93738095D01*
X102166666Y-109963460D02*
X102166666Y-110677746D01*
X102119047Y-110820603D01*
X102023809Y-110915841D01*
X101880952Y-110963460D01*
X101785714Y-110963460D01*
X102595238Y-110058699D02*
X102642857Y-110011080D01*
X102738095Y-109963460D01*
X102976190Y-109963460D01*
X103071428Y-110011080D01*
X103119047Y-110058699D01*
X103166666Y-110153937D01*
X103166666Y-110249175D01*
X103119047Y-110392032D01*
X102547619Y-110963460D01*
X103166666Y-110963460D01*
X89700000Y-17452380D02*
X89700000Y-18166666D01*
X89657142Y-18309523D01*
X89571428Y-18404761D01*
X89442857Y-18452380D01*
X89357142Y-18452380D01*
X90600000Y-18452380D02*
X90085714Y-18452380D01*
X90342857Y-18452380D02*
X90342857Y-17452380D01*
X90257142Y-17595238D01*
X90171428Y-17690476D01*
X90085714Y-17738095D01*
M02*
