M48
; DRILL file {KiCad (5.1.4-0-10_14)} date 2019 November 13, Wednesday 23:07:50
; FORMAT={-:-/ absolute / inch / decimal}
; #@! TF.CreationDate,2019-11-13T23:07:50+01:00
; #@! TF.GenerationSoftware,Kicad,Pcbnew,(5.1.4-0-10_14)
FMAT,2
INCH
T1C0.0157
T2C0.0197
T3C0.0315
T4C0.0394
T5C0.0472
T6C0.0512
T7C0.0591
T8C0.0669
T9C0.0787
T10C0.1181
T11C0.0197
T12C0.0472
%
G90
G05
T1
X3.7205Y-3.3071
X3.7402Y-4.0945
X3.8583Y-3.3071
X3.937Y-4.1732
X3.938Y-3.3848
X3.9395Y-4.2495
X3.9961Y-3.622
X4.0945Y-4.3701
X4.1339Y-4.0945
X4.2323Y-4.4882
X4.5866Y-3.5236
X4.5866Y-3.6024
X4.626Y-2.1457
X4.626Y-2.3425
X4.685Y-0.9252
X4.685Y-1.1122
X4.685Y-2.1457
X4.685Y-2.3425
X4.685Y-4.4685
X4.7047Y-4.1535
X4.7244Y-4.0354
X4.7835Y-3.563
X4.8425Y-2.6772
X4.8583Y-1.4252
X4.9409Y-1.3386
X4.9409Y-2.5591
X4.9606Y-1.9685
X4.9803Y-0.748
X5.0Y-1.0315
X5.0Y-2.2441
X5.0197Y-2.0472
X5.0551Y-1.0315
X5.0551Y-1.2913
X5.0591Y-2.2441
X5.0591Y-2.5
X5.0984Y-2.3819
X5.0984Y-2.5591
X5.1969Y-2.0472
T2
X3.9055Y-4.5276
X4.1654Y-4.5276
T3
X4.2913Y-0.8268
X4.2913Y-0.9055
X4.2913Y-0.9843
X4.2913Y-1.063
X4.2913Y-1.437
X4.2913Y-1.5157
X4.2913Y-1.5945
X4.2913Y-1.6732
X4.2913Y-1.752
X4.2913Y-1.8307
X4.2913Y-1.1417
X4.2913Y-1.2205
X4.2913Y-2.6575
X4.2913Y-2.7362
X4.2913Y-2.815
X4.2913Y-2.8937
X4.2913Y-2.9724
X4.2913Y-3.0512
X4.2913Y-3.3268
X4.2913Y-3.4055
X4.2913Y-3.4843
X4.2913Y-3.563
X4.2913Y-3.6417
X4.2913Y-3.7205
X4.2913Y-2.0472
X4.2913Y-2.126
X4.2913Y-2.2047
X4.2913Y-2.2835
X4.2913Y-2.3622
X4.2913Y-2.4409
X4.2913Y-3.937
X4.2913Y-4.0157
X4.2913Y-4.0945
X4.2913Y-4.1732
X4.2913Y-4.252
X4.2913Y-4.3307
T4
X5.0984Y-3.8583
X5.0984Y-3.9583
X5.0984Y-4.1583
X5.0984Y-4.2583
X5.0984Y-4.3583
T5
X3.5728Y-3.3465
X3.7008Y-3.5039
X3.75Y-3.189
T6
X3.8061Y-0.876
X3.8061Y-1.1713
X3.8061Y-1.4272
X3.8061Y-1.7224
X3.8061Y-1.9783
X3.8061Y-2.2736
X3.8061Y-2.5295
X3.8061Y-2.8248
T7
X3.5207Y-1.1713
X3.5207Y-1.7224
X3.5207Y-2.2736
X3.5207Y-2.8248
T8
X3.6585Y-0.7815
X3.6585Y-2.9193
T10
X3.6585Y-1.8504
T11
X3.9055Y-4.5276
X4.1654Y-4.5276
T12
X3.3268Y-4.0354
X3.3268Y-4.4291
X3.4252Y-4.0354
X3.4252Y-4.4291
X3.622Y-4.2323
T3
G00X3.4252Y-4.2185
M15
G01X3.4252Y-4.2461
M16
G05
G00X3.6083Y-4.0354
M15
G01X3.6358Y-4.0354
M16
G05
G00X3.6083Y-4.4291
M15
G01X3.6358Y-4.4291
M16
G05
T5
G00X4.7028Y-3.8976
M15
G01X4.7461Y-3.8976
M16
G05
G00X4.7008Y-4.3701
M15
G01X4.748Y-4.3701
M16
G05
G00X4.7028Y-1.3976
M15
G01X4.7461Y-1.3976
M16
G05
G00X4.7008Y-1.2598
M15
G01X4.748Y-1.2598
M16
G05
G00X4.7008Y-1.8701
M15
G01X4.748Y-1.8701
M16
G05
G00X4.7028Y-2.0079
M15
G01X4.7461Y-2.0079
M16
G05
G00X4.7008Y-2.4803
M15
G01X4.748Y-2.4803
M16
G05
G00X4.7028Y-0.7874
M15
G01X4.7461Y-0.7874
M16
G05
G00X4.7028Y-2.6181
M15
G01X4.7461Y-2.6181
M16
G05
G00X4.7008Y-3.0906
M15
G01X4.748Y-3.0906
M16
G05
G00X4.7028Y-3.2874
M15
G01X4.7461Y-3.2874
M16
G05
G00X4.7008Y-3.7598
M15
G01X4.748Y-3.7598
M16
G05
T9
G00X3.5689Y-3.061
M15
G01X3.6161Y-3.061
M16
G05
G00X3.5689Y-3.6319
M15
G01X3.6161Y-3.6319
M16
G05
T0
M30
