G04 #@! TF.GenerationSoftware,KiCad,Pcbnew,(5.1.4-0-10_14)*
G04 #@! TF.CreationDate,2019-11-24T21:25:27+01:00*
G04 #@! TF.ProjectId,audio-mixer,61756469-6f2d-46d6-9978-65722e6b6963,rev?*
G04 #@! TF.SameCoordinates,Original*
G04 #@! TF.FileFunction,Soldermask,Bot*
G04 #@! TF.FilePolarity,Negative*
%FSLAX46Y46*%
G04 Gerber Fmt 4.6, Leading zero omitted, Abs format (unit mm)*
G04 Created by KiCad (PCBNEW (5.1.4-0-10_14)) date 2019-11-24 21:25:27*
%MOMM*%
%LPD*%
G04 APERTURE LIST*
%ADD10C,0.002000*%
%ADD11C,0.100000*%
G04 APERTURE END LIST*
D10*
G36*
X90973000Y-52650000D02*
G01*
X90997000Y-52955000D01*
X91069000Y-53253000D01*
X91186000Y-53536000D01*
X91346000Y-53797000D01*
X91545000Y-54030000D01*
X91778000Y-54229000D01*
X92039000Y-54389000D01*
X92322000Y-54506000D01*
X92620000Y-54578000D01*
X92925000Y-54602000D01*
X93230000Y-54578000D01*
X93528000Y-54506000D01*
X93811000Y-54389000D01*
X94072000Y-54229000D01*
X94305000Y-54030000D01*
X94504000Y-53797000D01*
X94664000Y-53536000D01*
X94781000Y-53253000D01*
X94853000Y-52955000D01*
X94877000Y-52650000D01*
X94877000Y-49350000D01*
X94853000Y-49045000D01*
X94781000Y-48747000D01*
X94664000Y-48464000D01*
X94504000Y-48203000D01*
X94305000Y-47970000D01*
X94072000Y-47771000D01*
X93811000Y-47611000D01*
X93528000Y-47494000D01*
X93230000Y-47422000D01*
X92925000Y-47398000D01*
X92620000Y-47422000D01*
X92322000Y-47494000D01*
X92039000Y-47611000D01*
X91778000Y-47771000D01*
X91545000Y-47970000D01*
X91346000Y-48203000D01*
X91186000Y-48464000D01*
X91069000Y-48747000D01*
X90997000Y-49045000D01*
X90973000Y-49350000D01*
X90973000Y-52650000D01*
G37*
X90973000Y-52650000D02*
X90997000Y-52955000D01*
X91069000Y-53253000D01*
X91186000Y-53536000D01*
X91346000Y-53797000D01*
X91545000Y-54030000D01*
X91778000Y-54229000D01*
X92039000Y-54389000D01*
X92322000Y-54506000D01*
X92620000Y-54578000D01*
X92925000Y-54602000D01*
X93230000Y-54578000D01*
X93528000Y-54506000D01*
X93811000Y-54389000D01*
X94072000Y-54229000D01*
X94305000Y-54030000D01*
X94504000Y-53797000D01*
X94664000Y-53536000D01*
X94781000Y-53253000D01*
X94853000Y-52955000D01*
X94877000Y-52650000D01*
X94877000Y-49350000D01*
X94853000Y-49045000D01*
X94781000Y-48747000D01*
X94664000Y-48464000D01*
X94504000Y-48203000D01*
X94305000Y-47970000D01*
X94072000Y-47771000D01*
X93811000Y-47611000D01*
X93528000Y-47494000D01*
X93230000Y-47422000D01*
X92925000Y-47398000D01*
X92620000Y-47422000D01*
X92322000Y-47494000D01*
X92039000Y-47611000D01*
X91778000Y-47771000D01*
X91545000Y-47970000D01*
X91346000Y-48203000D01*
X91186000Y-48464000D01*
X91069000Y-48747000D01*
X90997000Y-49045000D01*
X90973000Y-49350000D01*
X90973000Y-52650000D01*
G36*
X92275000Y-22548000D02*
G01*
X92071000Y-22564000D01*
X91873000Y-22612000D01*
X91684000Y-22690000D01*
X91510000Y-22797000D01*
X91355000Y-22930000D01*
X91222000Y-23085000D01*
X91115000Y-23259000D01*
X91037000Y-23448000D01*
X90989000Y-23646000D01*
X90973000Y-23850000D01*
X90989000Y-24054000D01*
X91037000Y-24252000D01*
X91115000Y-24441000D01*
X91222000Y-24615000D01*
X91355000Y-24770000D01*
X91510000Y-24903000D01*
X91684000Y-25010000D01*
X91873000Y-25088000D01*
X92071000Y-25136000D01*
X92275000Y-25152000D01*
X93575000Y-25152000D01*
X93779000Y-25136000D01*
X93977000Y-25088000D01*
X94166000Y-25010000D01*
X94340000Y-24903000D01*
X94495000Y-24770000D01*
X94628000Y-24615000D01*
X94735000Y-24441000D01*
X94813000Y-24252000D01*
X94861000Y-24054000D01*
X94877000Y-23850000D01*
X94861000Y-23646000D01*
X94813000Y-23448000D01*
X94735000Y-23259000D01*
X94628000Y-23085000D01*
X94495000Y-22930000D01*
X94340000Y-22797000D01*
X94166000Y-22690000D01*
X93977000Y-22612000D01*
X93779000Y-22564000D01*
X93575000Y-22548000D01*
X92275000Y-22548000D01*
G37*
X92275000Y-22548000D02*
X92071000Y-22564000D01*
X91873000Y-22612000D01*
X91684000Y-22690000D01*
X91510000Y-22797000D01*
X91355000Y-22930000D01*
X91222000Y-23085000D01*
X91115000Y-23259000D01*
X91037000Y-23448000D01*
X90989000Y-23646000D01*
X90973000Y-23850000D01*
X90989000Y-24054000D01*
X91037000Y-24252000D01*
X91115000Y-24441000D01*
X91222000Y-24615000D01*
X91355000Y-24770000D01*
X91510000Y-24903000D01*
X91684000Y-25010000D01*
X91873000Y-25088000D01*
X92071000Y-25136000D01*
X92275000Y-25152000D01*
X93575000Y-25152000D01*
X93779000Y-25136000D01*
X93977000Y-25088000D01*
X94166000Y-25010000D01*
X94340000Y-24903000D01*
X94495000Y-24770000D01*
X94628000Y-24615000D01*
X94735000Y-24441000D01*
X94813000Y-24252000D01*
X94861000Y-24054000D01*
X94877000Y-23850000D01*
X94861000Y-23646000D01*
X94813000Y-23448000D01*
X94735000Y-23259000D01*
X94628000Y-23085000D01*
X94495000Y-22930000D01*
X94340000Y-22797000D01*
X94166000Y-22690000D01*
X93977000Y-22612000D01*
X93779000Y-22564000D01*
X93575000Y-22548000D01*
X92275000Y-22548000D01*
G36*
X92275000Y-76848000D02*
G01*
X92071000Y-76864000D01*
X91873000Y-76912000D01*
X91684000Y-76990000D01*
X91510000Y-77097000D01*
X91355000Y-77230000D01*
X91222000Y-77385000D01*
X91115000Y-77559000D01*
X91037000Y-77748000D01*
X90989000Y-77946000D01*
X90973000Y-78150000D01*
X90989000Y-78354000D01*
X91037000Y-78552000D01*
X91115000Y-78741000D01*
X91222000Y-78915000D01*
X91355000Y-79070000D01*
X91510000Y-79203000D01*
X91684000Y-79310000D01*
X91873000Y-79388000D01*
X92071000Y-79436000D01*
X92275000Y-79452000D01*
X93575000Y-79452000D01*
X93779000Y-79436000D01*
X93977000Y-79388000D01*
X94166000Y-79310000D01*
X94340000Y-79203000D01*
X94495000Y-79070000D01*
X94628000Y-78915000D01*
X94735000Y-78741000D01*
X94813000Y-78552000D01*
X94861000Y-78354000D01*
X94877000Y-78150000D01*
X94861000Y-77946000D01*
X94813000Y-77748000D01*
X94735000Y-77559000D01*
X94628000Y-77385000D01*
X94495000Y-77230000D01*
X94340000Y-77097000D01*
X94166000Y-76990000D01*
X93977000Y-76912000D01*
X93779000Y-76864000D01*
X93575000Y-76848000D01*
X92275000Y-76848000D01*
G37*
X92275000Y-76848000D02*
X92071000Y-76864000D01*
X91873000Y-76912000D01*
X91684000Y-76990000D01*
X91510000Y-77097000D01*
X91355000Y-77230000D01*
X91222000Y-77385000D01*
X91115000Y-77559000D01*
X91037000Y-77748000D01*
X90989000Y-77946000D01*
X90973000Y-78150000D01*
X90989000Y-78354000D01*
X91037000Y-78552000D01*
X91115000Y-78741000D01*
X91222000Y-78915000D01*
X91355000Y-79070000D01*
X91510000Y-79203000D01*
X91684000Y-79310000D01*
X91873000Y-79388000D01*
X92071000Y-79436000D01*
X92275000Y-79452000D01*
X93575000Y-79452000D01*
X93779000Y-79436000D01*
X93977000Y-79388000D01*
X94166000Y-79310000D01*
X94340000Y-79203000D01*
X94495000Y-79070000D01*
X94628000Y-78915000D01*
X94735000Y-78741000D01*
X94813000Y-78552000D01*
X94861000Y-78354000D01*
X94877000Y-78150000D01*
X94861000Y-77946000D01*
X94813000Y-77748000D01*
X94735000Y-77559000D01*
X94628000Y-77385000D01*
X94495000Y-77230000D01*
X94340000Y-77097000D01*
X94166000Y-76990000D01*
X93977000Y-76912000D01*
X93779000Y-76864000D01*
X93575000Y-76848000D01*
X92275000Y-76848000D01*
D11*
G36*
X97298212Y-114556249D02*
G01*
X97392651Y-114584897D01*
X97479687Y-114631418D01*
X97555975Y-114694025D01*
X97618582Y-114770313D01*
X97665103Y-114857348D01*
X97693751Y-114951787D01*
X97701000Y-115025388D01*
X97701000Y-115974612D01*
X97693751Y-116048213D01*
X97665103Y-116142652D01*
X97618582Y-116229687D01*
X97555975Y-116305975D01*
X97479687Y-116368582D01*
X97392652Y-116415103D01*
X97298213Y-116443751D01*
X97200000Y-116453424D01*
X97101788Y-116443751D01*
X97007349Y-116415103D01*
X96920314Y-116368582D01*
X96844026Y-116305975D01*
X96781419Y-116229687D01*
X96734898Y-116142652D01*
X96706250Y-116048213D01*
X96699001Y-115974612D01*
X96699001Y-115974610D01*
X96699000Y-115974600D01*
X96699000Y-115025389D01*
X96706249Y-114951788D01*
X96734897Y-114857349D01*
X96781418Y-114770313D01*
X96844025Y-114694025D01*
X96920313Y-114631418D01*
X97007348Y-114584897D01*
X97101787Y-114556249D01*
X97200000Y-114546576D01*
X97298212Y-114556249D01*
X97298212Y-114556249D01*
G37*
G36*
X103898212Y-114556249D02*
G01*
X103992651Y-114584897D01*
X104079687Y-114631418D01*
X104155975Y-114694025D01*
X104218582Y-114770313D01*
X104265103Y-114857348D01*
X104293751Y-114951787D01*
X104301000Y-115025388D01*
X104301000Y-115974612D01*
X104293751Y-116048213D01*
X104265103Y-116142652D01*
X104218582Y-116229687D01*
X104155975Y-116305975D01*
X104079687Y-116368582D01*
X103992652Y-116415103D01*
X103898213Y-116443751D01*
X103800000Y-116453424D01*
X103701788Y-116443751D01*
X103607349Y-116415103D01*
X103520314Y-116368582D01*
X103444026Y-116305975D01*
X103381419Y-116229687D01*
X103334898Y-116142652D01*
X103306250Y-116048213D01*
X103299001Y-115974612D01*
X103299001Y-115974610D01*
X103299000Y-115974600D01*
X103299000Y-115025389D01*
X103306249Y-114951788D01*
X103334897Y-114857349D01*
X103381418Y-114770313D01*
X103444025Y-114694025D01*
X103520313Y-114631418D01*
X103607348Y-114584897D01*
X103701787Y-114556249D01*
X103800000Y-114546576D01*
X103898212Y-114556249D01*
X103898212Y-114556249D01*
G37*
G36*
X130625256Y-112641298D02*
G01*
X130731579Y-112662447D01*
X131032042Y-112786903D01*
X131302451Y-112967585D01*
X131532415Y-113197549D01*
X131713097Y-113467958D01*
X131837553Y-113768421D01*
X131901000Y-114087391D01*
X131901000Y-114412609D01*
X131837553Y-114731579D01*
X131713097Y-115032042D01*
X131532415Y-115302451D01*
X131302451Y-115532415D01*
X131032042Y-115713097D01*
X130731579Y-115837553D01*
X130625256Y-115858702D01*
X130412611Y-115901000D01*
X130087389Y-115901000D01*
X129874744Y-115858702D01*
X129768421Y-115837553D01*
X129467958Y-115713097D01*
X129197549Y-115532415D01*
X128967585Y-115302451D01*
X128786903Y-115032042D01*
X128662447Y-114731579D01*
X128599000Y-114412609D01*
X128599000Y-114087391D01*
X128662447Y-113768421D01*
X128786903Y-113467958D01*
X128967585Y-113197549D01*
X129197549Y-112967585D01*
X129467958Y-112786903D01*
X129768421Y-112662447D01*
X129874744Y-112641298D01*
X130087389Y-112599000D01*
X130412611Y-112599000D01*
X130625256Y-112641298D01*
X130625256Y-112641298D01*
G37*
G36*
X86125256Y-112641298D02*
G01*
X86231579Y-112662447D01*
X86532042Y-112786903D01*
X86802451Y-112967585D01*
X87032415Y-113197549D01*
X87213097Y-113467958D01*
X87337553Y-113768421D01*
X87401000Y-114087391D01*
X87401000Y-114412609D01*
X87337553Y-114731579D01*
X87213097Y-115032042D01*
X87032415Y-115302451D01*
X86802451Y-115532415D01*
X86532042Y-115713097D01*
X86231579Y-115837553D01*
X86125256Y-115858702D01*
X85912611Y-115901000D01*
X85587389Y-115901000D01*
X85374744Y-115858702D01*
X85268421Y-115837553D01*
X84967958Y-115713097D01*
X84697549Y-115532415D01*
X84467585Y-115302451D01*
X84286903Y-115032042D01*
X84162447Y-114731579D01*
X84099000Y-114412609D01*
X84099000Y-114087391D01*
X84162447Y-113768421D01*
X84286903Y-113467958D01*
X84467585Y-113197549D01*
X84697549Y-112967585D01*
X84967958Y-112786903D01*
X85268421Y-112662447D01*
X85374744Y-112641298D01*
X85587389Y-112599000D01*
X85912611Y-112599000D01*
X86125256Y-112641298D01*
X86125256Y-112641298D01*
G37*
G36*
X121089842Y-110157018D02*
G01*
X121162227Y-110178976D01*
X121228924Y-110214626D01*
X121287392Y-110262608D01*
X121335374Y-110321076D01*
X121371024Y-110387773D01*
X121392982Y-110460158D01*
X121401000Y-110541564D01*
X121401000Y-111458436D01*
X121392982Y-111539842D01*
X121371024Y-111612227D01*
X121335374Y-111678924D01*
X121287392Y-111737392D01*
X121228924Y-111785374D01*
X121162227Y-111821024D01*
X121089842Y-111842982D01*
X121008436Y-111851000D01*
X118991564Y-111851000D01*
X118910158Y-111842982D01*
X118837773Y-111821024D01*
X118771076Y-111785374D01*
X118712608Y-111737392D01*
X118664626Y-111678924D01*
X118628976Y-111612227D01*
X118607018Y-111539842D01*
X118599000Y-111458436D01*
X118599000Y-110541564D01*
X118607018Y-110460158D01*
X118628976Y-110387773D01*
X118664626Y-110321076D01*
X118712608Y-110262608D01*
X118771076Y-110214626D01*
X118837773Y-110178976D01*
X118910158Y-110157018D01*
X118991564Y-110149000D01*
X121008436Y-110149000D01*
X121089842Y-110157018D01*
X121089842Y-110157018D01*
G37*
G36*
X109608015Y-109456973D02*
G01*
X109711879Y-109488479D01*
X109739055Y-109503005D01*
X109807600Y-109539643D01*
X109891501Y-109608499D01*
X109960357Y-109692400D01*
X109996995Y-109760945D01*
X110011521Y-109788121D01*
X110043027Y-109891985D01*
X110053666Y-110000000D01*
X110043027Y-110108015D01*
X110011521Y-110211879D01*
X110004961Y-110224152D01*
X109960357Y-110307600D01*
X109891501Y-110391501D01*
X109807600Y-110460357D01*
X109739055Y-110496995D01*
X109711879Y-110511521D01*
X109608015Y-110543027D01*
X109527067Y-110551000D01*
X108472933Y-110551000D01*
X108391985Y-110543027D01*
X108288121Y-110511521D01*
X108260945Y-110496995D01*
X108192400Y-110460357D01*
X108108499Y-110391501D01*
X108039643Y-110307600D01*
X107995039Y-110224152D01*
X107988479Y-110211879D01*
X107956973Y-110108015D01*
X107946334Y-110000000D01*
X107956973Y-109891985D01*
X107988479Y-109788121D01*
X108003005Y-109760945D01*
X108039643Y-109692400D01*
X108108499Y-109608499D01*
X108192400Y-109539643D01*
X108260945Y-109503005D01*
X108288121Y-109488479D01*
X108391985Y-109456973D01*
X108472933Y-109449000D01*
X109527067Y-109449000D01*
X109608015Y-109456973D01*
X109608015Y-109456973D01*
G37*
G36*
X93301000Y-109951000D02*
G01*
X90699000Y-109951000D01*
X90699000Y-108049000D01*
X93301000Y-108049000D01*
X93301000Y-109951000D01*
X93301000Y-109951000D01*
G37*
G36*
X109608015Y-107456973D02*
G01*
X109711879Y-107488479D01*
X109739055Y-107503005D01*
X109807600Y-107539643D01*
X109891501Y-107608499D01*
X109960357Y-107692400D01*
X109996995Y-107760945D01*
X110011521Y-107788121D01*
X110043027Y-107891985D01*
X110053666Y-108000000D01*
X110043027Y-108108015D01*
X110011521Y-108211879D01*
X110011519Y-108211882D01*
X109960357Y-108307600D01*
X109891501Y-108391501D01*
X109807600Y-108460357D01*
X109739055Y-108496995D01*
X109711879Y-108511521D01*
X109608015Y-108543027D01*
X109527067Y-108551000D01*
X108472933Y-108551000D01*
X108391985Y-108543027D01*
X108288121Y-108511521D01*
X108260945Y-108496995D01*
X108192400Y-108460357D01*
X108108499Y-108391501D01*
X108039643Y-108307600D01*
X107988481Y-108211882D01*
X107988479Y-108211879D01*
X107956973Y-108108015D01*
X107946334Y-108000000D01*
X107956973Y-107891985D01*
X107988479Y-107788121D01*
X108003005Y-107760945D01*
X108039643Y-107692400D01*
X108108499Y-107608499D01*
X108192400Y-107539643D01*
X108260945Y-107503005D01*
X108288121Y-107488479D01*
X108391985Y-107456973D01*
X108472933Y-107449000D01*
X109527067Y-107449000D01*
X109608015Y-107456973D01*
X109608015Y-107456973D01*
G37*
G36*
X109608015Y-105456973D02*
G01*
X109711879Y-105488479D01*
X109735304Y-105501000D01*
X109807600Y-105539643D01*
X109891501Y-105608499D01*
X109960357Y-105692400D01*
X109996995Y-105760945D01*
X110011521Y-105788121D01*
X110043027Y-105891985D01*
X110053666Y-106000000D01*
X110043027Y-106108015D01*
X110011521Y-106211879D01*
X110011519Y-106211882D01*
X109960357Y-106307600D01*
X109891501Y-106391501D01*
X109807600Y-106460357D01*
X109739055Y-106496995D01*
X109711879Y-106511521D01*
X109608015Y-106543027D01*
X109527067Y-106551000D01*
X108472933Y-106551000D01*
X108391985Y-106543027D01*
X108288121Y-106511521D01*
X108260945Y-106496995D01*
X108192400Y-106460357D01*
X108108499Y-106391501D01*
X108039643Y-106307600D01*
X107988481Y-106211882D01*
X107988479Y-106211879D01*
X107956973Y-106108015D01*
X107946334Y-106000000D01*
X107956973Y-105891985D01*
X107988479Y-105788121D01*
X108003005Y-105760945D01*
X108039643Y-105692400D01*
X108108499Y-105608499D01*
X108192400Y-105539643D01*
X108264696Y-105501000D01*
X108288121Y-105488479D01*
X108391985Y-105456973D01*
X108472933Y-105449000D01*
X109527067Y-105449000D01*
X109608015Y-105456973D01*
X109608015Y-105456973D01*
G37*
G36*
X129733642Y-103929781D02*
G01*
X129879414Y-103990162D01*
X129879416Y-103990163D01*
X130010608Y-104077822D01*
X130122178Y-104189392D01*
X130137203Y-104211879D01*
X130209838Y-104320586D01*
X130270219Y-104466358D01*
X130301000Y-104621107D01*
X130301000Y-104778893D01*
X130270219Y-104933642D01*
X130209838Y-105079414D01*
X130209837Y-105079416D01*
X130122178Y-105210608D01*
X130010608Y-105322178D01*
X129879416Y-105409837D01*
X129879415Y-105409838D01*
X129879414Y-105409838D01*
X129733642Y-105470219D01*
X129578893Y-105501000D01*
X129421107Y-105501000D01*
X129266358Y-105470219D01*
X129120586Y-105409838D01*
X129120585Y-105409838D01*
X129120584Y-105409837D01*
X128989392Y-105322178D01*
X128877822Y-105210608D01*
X128790163Y-105079416D01*
X128790162Y-105079414D01*
X128729781Y-104933642D01*
X128699000Y-104778893D01*
X128699000Y-104621107D01*
X128729781Y-104466358D01*
X128790162Y-104320586D01*
X128862797Y-104211879D01*
X128877822Y-104189392D01*
X128989392Y-104077822D01*
X129120584Y-103990163D01*
X129120586Y-103990162D01*
X129266358Y-103929781D01*
X129421107Y-103899000D01*
X129578893Y-103899000D01*
X129733642Y-103929781D01*
X129733642Y-103929781D01*
G37*
G36*
X87951000Y-105301000D02*
G01*
X86049000Y-105301000D01*
X86049000Y-102699000D01*
X87951000Y-102699000D01*
X87951000Y-105301000D01*
X87951000Y-105301000D01*
G37*
G36*
X109608015Y-103456973D02*
G01*
X109711879Y-103488479D01*
X109739055Y-103503005D01*
X109807600Y-103539643D01*
X109891501Y-103608499D01*
X109960357Y-103692400D01*
X109996995Y-103760945D01*
X110011521Y-103788121D01*
X110043027Y-103891985D01*
X110053666Y-104000000D01*
X110043027Y-104108015D01*
X110011521Y-104211879D01*
X110011519Y-104211882D01*
X109960357Y-104307600D01*
X109891501Y-104391501D01*
X109807600Y-104460357D01*
X109739055Y-104496995D01*
X109711879Y-104511521D01*
X109608015Y-104543027D01*
X109527067Y-104551000D01*
X108472933Y-104551000D01*
X108391985Y-104543027D01*
X108288121Y-104511521D01*
X108260945Y-104496995D01*
X108192400Y-104460357D01*
X108108499Y-104391501D01*
X108039643Y-104307600D01*
X107988481Y-104211882D01*
X107988479Y-104211879D01*
X107956973Y-104108015D01*
X107946334Y-104000000D01*
X107956973Y-103891985D01*
X107988479Y-103788121D01*
X108003005Y-103760945D01*
X108039643Y-103692400D01*
X108108499Y-103608499D01*
X108192400Y-103539643D01*
X108260945Y-103503005D01*
X108288121Y-103488479D01*
X108391985Y-103456973D01*
X108472933Y-103449000D01*
X109527067Y-103449000D01*
X109608015Y-103456973D01*
X109608015Y-103456973D01*
G37*
G36*
X129733642Y-101389781D02*
G01*
X129879414Y-101450162D01*
X129879416Y-101450163D01*
X130010608Y-101537822D01*
X130122178Y-101649392D01*
X130209837Y-101780584D01*
X130209838Y-101780586D01*
X130270219Y-101926358D01*
X130301000Y-102081107D01*
X130301000Y-102238893D01*
X130270219Y-102393642D01*
X130209838Y-102539414D01*
X130209837Y-102539416D01*
X130122178Y-102670608D01*
X130010608Y-102782178D01*
X129879416Y-102869837D01*
X129879415Y-102869838D01*
X129879414Y-102869838D01*
X129733642Y-102930219D01*
X129578893Y-102961000D01*
X129421107Y-102961000D01*
X129266358Y-102930219D01*
X129120586Y-102869838D01*
X129120585Y-102869838D01*
X129120584Y-102869837D01*
X128989392Y-102782178D01*
X128877822Y-102670608D01*
X128790163Y-102539416D01*
X128790162Y-102539414D01*
X128729781Y-102393642D01*
X128699000Y-102238893D01*
X128699000Y-102081107D01*
X128729781Y-101926358D01*
X128790162Y-101780586D01*
X128790163Y-101780584D01*
X128877822Y-101649392D01*
X128989392Y-101537822D01*
X129120584Y-101450163D01*
X129120586Y-101450162D01*
X129266358Y-101389781D01*
X129421107Y-101359000D01*
X129578893Y-101359000D01*
X129733642Y-101389781D01*
X129733642Y-101389781D01*
G37*
G36*
X109608015Y-101456973D02*
G01*
X109711879Y-101488479D01*
X109739055Y-101503005D01*
X109807600Y-101539643D01*
X109891501Y-101608499D01*
X109960357Y-101692400D01*
X109996995Y-101760945D01*
X110011521Y-101788121D01*
X110043027Y-101891985D01*
X110053666Y-102000000D01*
X110043027Y-102108015D01*
X110011521Y-102211879D01*
X110011519Y-102211882D01*
X109960357Y-102307600D01*
X109891501Y-102391501D01*
X109807600Y-102460357D01*
X109739055Y-102496995D01*
X109711879Y-102511521D01*
X109608015Y-102543027D01*
X109527067Y-102551000D01*
X108472933Y-102551000D01*
X108391985Y-102543027D01*
X108288121Y-102511521D01*
X108260945Y-102496995D01*
X108192400Y-102460357D01*
X108108499Y-102391501D01*
X108039643Y-102307600D01*
X107988481Y-102211882D01*
X107988479Y-102211879D01*
X107956973Y-102108015D01*
X107946334Y-102000000D01*
X107956973Y-101891985D01*
X107988479Y-101788121D01*
X108003005Y-101760945D01*
X108039643Y-101692400D01*
X108108499Y-101608499D01*
X108192400Y-101539643D01*
X108260945Y-101503005D01*
X108288121Y-101488479D01*
X108391985Y-101456973D01*
X108472933Y-101449000D01*
X109527067Y-101449000D01*
X109608015Y-101456973D01*
X109608015Y-101456973D01*
G37*
G36*
X109608015Y-99456973D02*
G01*
X109711879Y-99488479D01*
X109739055Y-99503005D01*
X109807600Y-99539643D01*
X109891501Y-99608499D01*
X109960357Y-99692400D01*
X109996995Y-99760945D01*
X110011521Y-99788121D01*
X110043027Y-99891985D01*
X110053666Y-100000000D01*
X110043027Y-100108015D01*
X110011521Y-100211879D01*
X110011519Y-100211882D01*
X109960357Y-100307600D01*
X109891501Y-100391501D01*
X109807600Y-100460357D01*
X109739055Y-100496995D01*
X109711879Y-100511521D01*
X109608015Y-100543027D01*
X109527067Y-100551000D01*
X108472933Y-100551000D01*
X108391985Y-100543027D01*
X108288121Y-100511521D01*
X108260945Y-100496995D01*
X108192400Y-100460357D01*
X108108499Y-100391501D01*
X108039643Y-100307600D01*
X107988481Y-100211882D01*
X107988479Y-100211879D01*
X107956973Y-100108015D01*
X107946334Y-100000000D01*
X107956973Y-99891985D01*
X107988479Y-99788121D01*
X108003005Y-99760945D01*
X108039643Y-99692400D01*
X108108499Y-99608499D01*
X108192400Y-99539643D01*
X108260945Y-99503005D01*
X108288121Y-99488479D01*
X108391985Y-99456973D01*
X108472933Y-99449000D01*
X109527067Y-99449000D01*
X109608015Y-99456973D01*
X109608015Y-99456973D01*
G37*
G36*
X129733642Y-98849781D02*
G01*
X129879414Y-98910162D01*
X129879416Y-98910163D01*
X130010608Y-98997822D01*
X130122178Y-99109392D01*
X130209837Y-99240584D01*
X130209838Y-99240586D01*
X130270219Y-99386358D01*
X130301000Y-99541107D01*
X130301000Y-99698893D01*
X130270219Y-99853642D01*
X130229892Y-99951000D01*
X130209837Y-99999416D01*
X130122178Y-100130608D01*
X130010608Y-100242178D01*
X129879416Y-100329837D01*
X129879415Y-100329838D01*
X129879414Y-100329838D01*
X129733642Y-100390219D01*
X129578893Y-100421000D01*
X129421107Y-100421000D01*
X129266358Y-100390219D01*
X129120586Y-100329838D01*
X129120585Y-100329838D01*
X129120584Y-100329837D01*
X128989392Y-100242178D01*
X128877822Y-100130608D01*
X128790163Y-99999416D01*
X128770108Y-99951000D01*
X128729781Y-99853642D01*
X128699000Y-99698893D01*
X128699000Y-99541107D01*
X128729781Y-99386358D01*
X128790162Y-99240586D01*
X128790163Y-99240584D01*
X128877822Y-99109392D01*
X128989392Y-98997822D01*
X129120584Y-98910163D01*
X129120586Y-98910162D01*
X129266358Y-98849781D01*
X129421107Y-98819000D01*
X129578893Y-98819000D01*
X129733642Y-98849781D01*
X129733642Y-98849781D01*
G37*
G36*
X93301000Y-99951000D02*
G01*
X90699000Y-99951000D01*
X90699000Y-98049000D01*
X93301000Y-98049000D01*
X93301000Y-99951000D01*
X93301000Y-99951000D01*
G37*
G36*
X121089842Y-98157018D02*
G01*
X121162227Y-98178976D01*
X121228924Y-98214626D01*
X121287392Y-98262608D01*
X121335374Y-98321076D01*
X121371024Y-98387773D01*
X121392982Y-98460158D01*
X121401000Y-98541564D01*
X121401000Y-99458436D01*
X121392982Y-99539842D01*
X121371024Y-99612227D01*
X121335374Y-99678924D01*
X121287392Y-99737392D01*
X121228924Y-99785374D01*
X121162227Y-99821024D01*
X121089842Y-99842982D01*
X121008436Y-99851000D01*
X118991564Y-99851000D01*
X118910158Y-99842982D01*
X118837773Y-99821024D01*
X118771076Y-99785374D01*
X118712608Y-99737392D01*
X118664626Y-99678924D01*
X118628976Y-99612227D01*
X118607018Y-99539842D01*
X118599000Y-99458436D01*
X118599000Y-98541564D01*
X118607018Y-98460158D01*
X118628976Y-98387773D01*
X118664626Y-98321076D01*
X118712608Y-98262608D01*
X118771076Y-98214626D01*
X118837773Y-98178976D01*
X118910158Y-98157018D01*
X118991564Y-98149000D01*
X121008436Y-98149000D01*
X121089842Y-98157018D01*
X121089842Y-98157018D01*
G37*
G36*
X91909472Y-94208412D02*
G01*
X92005040Y-94217825D01*
X92250280Y-94292218D01*
X92476294Y-94413025D01*
X92527899Y-94455376D01*
X92674397Y-94575603D01*
X92786235Y-94711879D01*
X92836975Y-94773706D01*
X92957782Y-94999720D01*
X93032175Y-95244960D01*
X93057294Y-95500000D01*
X93032175Y-95755040D01*
X92957782Y-96000280D01*
X92836975Y-96226294D01*
X92827867Y-96237392D01*
X92674397Y-96424397D01*
X92527899Y-96544624D01*
X92476294Y-96586975D01*
X92250280Y-96707782D01*
X92005040Y-96782175D01*
X91909472Y-96791588D01*
X91813906Y-96801000D01*
X90686094Y-96801000D01*
X90590528Y-96791588D01*
X90494960Y-96782175D01*
X90249720Y-96707782D01*
X90023706Y-96586975D01*
X89972101Y-96544624D01*
X89825603Y-96424397D01*
X89672133Y-96237392D01*
X89663025Y-96226294D01*
X89542218Y-96000280D01*
X89467825Y-95755040D01*
X89442706Y-95500000D01*
X89467825Y-95244960D01*
X89542218Y-94999720D01*
X89663025Y-94773706D01*
X89713765Y-94711879D01*
X89825603Y-94575603D01*
X89972101Y-94455376D01*
X90023706Y-94413025D01*
X90249720Y-94292218D01*
X90494960Y-94217825D01*
X90590528Y-94208412D01*
X90686094Y-94199000D01*
X91813906Y-94199000D01*
X91909472Y-94208412D01*
X91909472Y-94208412D01*
G37*
G36*
X121089842Y-94657018D02*
G01*
X121162227Y-94678976D01*
X121228924Y-94714626D01*
X121287392Y-94762608D01*
X121335374Y-94821076D01*
X121371024Y-94887773D01*
X121392982Y-94960158D01*
X121401000Y-95041564D01*
X121401000Y-95958436D01*
X121392982Y-96039842D01*
X121371024Y-96112227D01*
X121335374Y-96178924D01*
X121287392Y-96237392D01*
X121228924Y-96285374D01*
X121162227Y-96321024D01*
X121089842Y-96342982D01*
X121008436Y-96351000D01*
X118991564Y-96351000D01*
X118910158Y-96342982D01*
X118837773Y-96321024D01*
X118771076Y-96285374D01*
X118712608Y-96237392D01*
X118664626Y-96178924D01*
X118628976Y-96112227D01*
X118607018Y-96039842D01*
X118599000Y-95958436D01*
X118599000Y-95041564D01*
X118607018Y-94960158D01*
X118628976Y-94887773D01*
X118664626Y-94821076D01*
X118712608Y-94762608D01*
X118771076Y-94714626D01*
X118837773Y-94678976D01*
X118910158Y-94657018D01*
X118991564Y-94649000D01*
X121008436Y-94649000D01*
X121089842Y-94657018D01*
X121089842Y-94657018D01*
G37*
G36*
X129733642Y-93769781D02*
G01*
X129879414Y-93830162D01*
X129879416Y-93830163D01*
X130010608Y-93917822D01*
X130122178Y-94029392D01*
X130175035Y-94108499D01*
X130209838Y-94160586D01*
X130270219Y-94306358D01*
X130301000Y-94461107D01*
X130301000Y-94618893D01*
X130270219Y-94773642D01*
X130222944Y-94887773D01*
X130209837Y-94919416D01*
X130122178Y-95050608D01*
X130010608Y-95162178D01*
X129879416Y-95249837D01*
X129879415Y-95249838D01*
X129879414Y-95249838D01*
X129733642Y-95310219D01*
X129578893Y-95341000D01*
X129421107Y-95341000D01*
X129266358Y-95310219D01*
X129120586Y-95249838D01*
X129120585Y-95249838D01*
X129120584Y-95249837D01*
X128989392Y-95162178D01*
X128877822Y-95050608D01*
X128790163Y-94919416D01*
X128777056Y-94887773D01*
X128729781Y-94773642D01*
X128699000Y-94618893D01*
X128699000Y-94461107D01*
X128729781Y-94306358D01*
X128790162Y-94160586D01*
X128824965Y-94108499D01*
X128877822Y-94029392D01*
X128989392Y-93917822D01*
X129120584Y-93830163D01*
X129120586Y-93830162D01*
X129266358Y-93769781D01*
X129421107Y-93739000D01*
X129578893Y-93739000D01*
X129733642Y-93769781D01*
X129733642Y-93769781D01*
G37*
G36*
X109608015Y-93956973D02*
G01*
X109711879Y-93988479D01*
X109739055Y-94003005D01*
X109807600Y-94039643D01*
X109891501Y-94108499D01*
X109960357Y-94192400D01*
X109996995Y-94260945D01*
X110011521Y-94288121D01*
X110043027Y-94391985D01*
X110053666Y-94500000D01*
X110043027Y-94608015D01*
X110011521Y-94711879D01*
X110004961Y-94724152D01*
X109960357Y-94807600D01*
X109891501Y-94891501D01*
X109807600Y-94960357D01*
X109739055Y-94996995D01*
X109711879Y-95011521D01*
X109608015Y-95043027D01*
X109527067Y-95051000D01*
X108472933Y-95051000D01*
X108391985Y-95043027D01*
X108288121Y-95011521D01*
X108260945Y-94996995D01*
X108192400Y-94960357D01*
X108108499Y-94891501D01*
X108039643Y-94807600D01*
X107995039Y-94724152D01*
X107988479Y-94711879D01*
X107956973Y-94608015D01*
X107946334Y-94500000D01*
X107956973Y-94391985D01*
X107988479Y-94288121D01*
X108003005Y-94260945D01*
X108039643Y-94192400D01*
X108108499Y-94108499D01*
X108192400Y-94039643D01*
X108260945Y-94003005D01*
X108288121Y-93988479D01*
X108391985Y-93956973D01*
X108472933Y-93949000D01*
X109527067Y-93949000D01*
X109608015Y-93956973D01*
X109608015Y-93956973D01*
G37*
G36*
X94291981Y-91287468D02*
G01*
X94474151Y-91362926D01*
X94638100Y-91472473D01*
X94777527Y-91611900D01*
X94887074Y-91775849D01*
X94962099Y-91956973D01*
X94962532Y-91958020D01*
X94992465Y-92108499D01*
X95001000Y-92151410D01*
X95001000Y-92348590D01*
X94962532Y-92541981D01*
X94887074Y-92724151D01*
X94777527Y-92888100D01*
X94638100Y-93027527D01*
X94474151Y-93137074D01*
X94291981Y-93212532D01*
X94195285Y-93231766D01*
X94098591Y-93251000D01*
X93901409Y-93251000D01*
X93804715Y-93231766D01*
X93708019Y-93212532D01*
X93525849Y-93137074D01*
X93361900Y-93027527D01*
X93222473Y-92888100D01*
X93112926Y-92724151D01*
X93037468Y-92541981D01*
X92999000Y-92348590D01*
X92999000Y-92151410D01*
X93007536Y-92108499D01*
X93037468Y-91958020D01*
X93037902Y-91956973D01*
X93112926Y-91775849D01*
X93222473Y-91611900D01*
X93361900Y-91472473D01*
X93525849Y-91362926D01*
X93708019Y-91287468D01*
X93901409Y-91249000D01*
X94098591Y-91249000D01*
X94291981Y-91287468D01*
X94291981Y-91287468D01*
G37*
G36*
X109608015Y-91956973D02*
G01*
X109711879Y-91988479D01*
X109739055Y-92003005D01*
X109807600Y-92039643D01*
X109891501Y-92108499D01*
X109960357Y-92192400D01*
X109996995Y-92260945D01*
X110011521Y-92288121D01*
X110043027Y-92391985D01*
X110053666Y-92500000D01*
X110043027Y-92608015D01*
X110011521Y-92711879D01*
X110011519Y-92711882D01*
X109960357Y-92807600D01*
X109891501Y-92891501D01*
X109807600Y-92960357D01*
X109739055Y-92996995D01*
X109711879Y-93011521D01*
X109608015Y-93043027D01*
X109527067Y-93051000D01*
X108472933Y-93051000D01*
X108391985Y-93043027D01*
X108288121Y-93011521D01*
X108260945Y-92996995D01*
X108192400Y-92960357D01*
X108108499Y-92891501D01*
X108039643Y-92807600D01*
X107988481Y-92711882D01*
X107988479Y-92711879D01*
X107956973Y-92608015D01*
X107946334Y-92500000D01*
X107956973Y-92391985D01*
X107988479Y-92288121D01*
X108003005Y-92260945D01*
X108039643Y-92192400D01*
X108108499Y-92108499D01*
X108192400Y-92039643D01*
X108260945Y-92003005D01*
X108288121Y-91988479D01*
X108391985Y-91956973D01*
X108472933Y-91949000D01*
X109527067Y-91949000D01*
X109608015Y-91956973D01*
X109608015Y-91956973D01*
G37*
G36*
X130301000Y-92801000D02*
G01*
X128699000Y-92801000D01*
X128699000Y-91199000D01*
X130301000Y-91199000D01*
X130301000Y-92801000D01*
X130301000Y-92801000D01*
G37*
G36*
X109608015Y-89956973D02*
G01*
X109711879Y-89988479D01*
X109739055Y-90003005D01*
X109807600Y-90039643D01*
X109891501Y-90108499D01*
X109960357Y-90192400D01*
X109996995Y-90260945D01*
X110011521Y-90288121D01*
X110043027Y-90391985D01*
X110053666Y-90500000D01*
X110043027Y-90608015D01*
X110011521Y-90711879D01*
X110011519Y-90711882D01*
X109960357Y-90807600D01*
X109891501Y-90891501D01*
X109807600Y-90960357D01*
X109739055Y-90996995D01*
X109711879Y-91011521D01*
X109608015Y-91043027D01*
X109527067Y-91051000D01*
X108472933Y-91051000D01*
X108391985Y-91043027D01*
X108288121Y-91011521D01*
X108260945Y-90996995D01*
X108192400Y-90960357D01*
X108108499Y-90891501D01*
X108039643Y-90807600D01*
X107988481Y-90711882D01*
X107988479Y-90711879D01*
X107956973Y-90608015D01*
X107946334Y-90500000D01*
X107956973Y-90391985D01*
X107988479Y-90288121D01*
X108003005Y-90260945D01*
X108039643Y-90192400D01*
X108108499Y-90108499D01*
X108192400Y-90039643D01*
X108260945Y-90003005D01*
X108288121Y-89988479D01*
X108391985Y-89956973D01*
X108472933Y-89949000D01*
X109527067Y-89949000D01*
X109608015Y-89956973D01*
X109608015Y-89956973D01*
G37*
G36*
X90945285Y-87268234D02*
G01*
X91041981Y-87287468D01*
X91224151Y-87362926D01*
X91388100Y-87472473D01*
X91527527Y-87611900D01*
X91637074Y-87775849D01*
X91712099Y-87956973D01*
X91712532Y-87958020D01*
X91742465Y-88108499D01*
X91751000Y-88151410D01*
X91751000Y-88348590D01*
X91712532Y-88541981D01*
X91637074Y-88724151D01*
X91527527Y-88888100D01*
X91388100Y-89027527D01*
X91224151Y-89137074D01*
X91041981Y-89212532D01*
X90945285Y-89231766D01*
X90848591Y-89251000D01*
X90651409Y-89251000D01*
X90458019Y-89212532D01*
X90275849Y-89137074D01*
X90111900Y-89027527D01*
X89972473Y-88888100D01*
X89862926Y-88724151D01*
X89787468Y-88541981D01*
X89749000Y-88348590D01*
X89749000Y-88151410D01*
X89757536Y-88108499D01*
X89787468Y-87958020D01*
X89787902Y-87956973D01*
X89862926Y-87775849D01*
X89972473Y-87611900D01*
X90111900Y-87472473D01*
X90275849Y-87362926D01*
X90458019Y-87287468D01*
X90554715Y-87268234D01*
X90651409Y-87249000D01*
X90848591Y-87249000D01*
X90945285Y-87268234D01*
X90945285Y-87268234D01*
G37*
G36*
X109608015Y-87956973D02*
G01*
X109711879Y-87988479D01*
X109739055Y-88003005D01*
X109807600Y-88039643D01*
X109891501Y-88108499D01*
X109960357Y-88192400D01*
X109996995Y-88260945D01*
X110011521Y-88288121D01*
X110043027Y-88391985D01*
X110053666Y-88500000D01*
X110043027Y-88608015D01*
X110011521Y-88711879D01*
X110011519Y-88711882D01*
X109960357Y-88807600D01*
X109891501Y-88891501D01*
X109807600Y-88960357D01*
X109739055Y-88996995D01*
X109711879Y-89011521D01*
X109608015Y-89043027D01*
X109527067Y-89051000D01*
X108472933Y-89051000D01*
X108391985Y-89043027D01*
X108288121Y-89011521D01*
X108260945Y-88996995D01*
X108192400Y-88960357D01*
X108108499Y-88891501D01*
X108039643Y-88807600D01*
X107988481Y-88711882D01*
X107988479Y-88711879D01*
X107956973Y-88608015D01*
X107946334Y-88500000D01*
X107956973Y-88391985D01*
X107988479Y-88288121D01*
X108003005Y-88260945D01*
X108039643Y-88192400D01*
X108108499Y-88108499D01*
X108192400Y-88039643D01*
X108260945Y-88003005D01*
X108288121Y-87988479D01*
X108391985Y-87956973D01*
X108472933Y-87949000D01*
X109527067Y-87949000D01*
X109608015Y-87956973D01*
X109608015Y-87956973D01*
G37*
G36*
X109608015Y-85956973D02*
G01*
X109711879Y-85988479D01*
X109739055Y-86003005D01*
X109807600Y-86039643D01*
X109891501Y-86108499D01*
X109960357Y-86192400D01*
X109996995Y-86260945D01*
X110011521Y-86288121D01*
X110043027Y-86391985D01*
X110053666Y-86500000D01*
X110043027Y-86608015D01*
X110011521Y-86711879D01*
X110011519Y-86711882D01*
X109960357Y-86807600D01*
X109891501Y-86891501D01*
X109807600Y-86960357D01*
X109739055Y-86996995D01*
X109711879Y-87011521D01*
X109608015Y-87043027D01*
X109527067Y-87051000D01*
X108472933Y-87051000D01*
X108391985Y-87043027D01*
X108288121Y-87011521D01*
X108260945Y-86996995D01*
X108192400Y-86960357D01*
X108108499Y-86891501D01*
X108039643Y-86807600D01*
X107988481Y-86711882D01*
X107988479Y-86711879D01*
X107956973Y-86608015D01*
X107946334Y-86500000D01*
X107956973Y-86391985D01*
X107988479Y-86288121D01*
X108003005Y-86260945D01*
X108039643Y-86192400D01*
X108108499Y-86108499D01*
X108192400Y-86039643D01*
X108260945Y-86003005D01*
X108288121Y-85988479D01*
X108391985Y-85956973D01*
X108472933Y-85949000D01*
X109527067Y-85949000D01*
X109608015Y-85956973D01*
X109608015Y-85956973D01*
G37*
G36*
X95541981Y-83287468D02*
G01*
X95724151Y-83362926D01*
X95888100Y-83472473D01*
X96027527Y-83611900D01*
X96137074Y-83775849D01*
X96212099Y-83956973D01*
X96212532Y-83958020D01*
X96242465Y-84108499D01*
X96251000Y-84151410D01*
X96251000Y-84348590D01*
X96212532Y-84541981D01*
X96137074Y-84724151D01*
X96027527Y-84888100D01*
X95888100Y-85027527D01*
X95724151Y-85137074D01*
X95541981Y-85212532D01*
X95348591Y-85251000D01*
X95151409Y-85251000D01*
X94958019Y-85212532D01*
X94775849Y-85137074D01*
X94611900Y-85027527D01*
X94472473Y-84888100D01*
X94362926Y-84724151D01*
X94287468Y-84541981D01*
X94249000Y-84348590D01*
X94249000Y-84151410D01*
X94257536Y-84108499D01*
X94287468Y-83958020D01*
X94287902Y-83956973D01*
X94362926Y-83775849D01*
X94472473Y-83611900D01*
X94611900Y-83472473D01*
X94775849Y-83362926D01*
X94958019Y-83287468D01*
X95151409Y-83249000D01*
X95348591Y-83249000D01*
X95541981Y-83287468D01*
X95541981Y-83287468D01*
G37*
G36*
X109608015Y-83956973D02*
G01*
X109711879Y-83988479D01*
X109739055Y-84003005D01*
X109807600Y-84039643D01*
X109891501Y-84108499D01*
X109960357Y-84192400D01*
X109996995Y-84260945D01*
X110011521Y-84288121D01*
X110043027Y-84391985D01*
X110053666Y-84500000D01*
X110043027Y-84608015D01*
X110011521Y-84711879D01*
X110011519Y-84711882D01*
X109960357Y-84807600D01*
X109891501Y-84891501D01*
X109807600Y-84960357D01*
X109739055Y-84996995D01*
X109711879Y-85011521D01*
X109608015Y-85043027D01*
X109527067Y-85051000D01*
X108472933Y-85051000D01*
X108391985Y-85043027D01*
X108288121Y-85011521D01*
X108260945Y-84996995D01*
X108192400Y-84960357D01*
X108108499Y-84891501D01*
X108039643Y-84807600D01*
X107988481Y-84711882D01*
X107988479Y-84711879D01*
X107956973Y-84608015D01*
X107946334Y-84500000D01*
X107956973Y-84391985D01*
X107988479Y-84288121D01*
X108003005Y-84260945D01*
X108039643Y-84192400D01*
X108108499Y-84108499D01*
X108192400Y-84039643D01*
X108260945Y-84003005D01*
X108288121Y-83988479D01*
X108391985Y-83956973D01*
X108472933Y-83949000D01*
X109527067Y-83949000D01*
X109608015Y-83956973D01*
X109608015Y-83956973D01*
G37*
G36*
X121089842Y-82657018D02*
G01*
X121162227Y-82678976D01*
X121228924Y-82714626D01*
X121287392Y-82762608D01*
X121335374Y-82821076D01*
X121371024Y-82887773D01*
X121392982Y-82960158D01*
X121401000Y-83041564D01*
X121401000Y-83958436D01*
X121392982Y-84039842D01*
X121371024Y-84112227D01*
X121335374Y-84178924D01*
X121287392Y-84237392D01*
X121228924Y-84285374D01*
X121162227Y-84321024D01*
X121089842Y-84342982D01*
X121008436Y-84351000D01*
X118991564Y-84351000D01*
X118910158Y-84342982D01*
X118837773Y-84321024D01*
X118771076Y-84285374D01*
X118712608Y-84237392D01*
X118664626Y-84178924D01*
X118628976Y-84112227D01*
X118607018Y-84039842D01*
X118599000Y-83958436D01*
X118599000Y-83041564D01*
X118607018Y-82960158D01*
X118628976Y-82887773D01*
X118664626Y-82821076D01*
X118712608Y-82762608D01*
X118771076Y-82714626D01*
X118837773Y-82678976D01*
X118910158Y-82657018D01*
X118991564Y-82649000D01*
X121008436Y-82649000D01*
X121089842Y-82657018D01*
X121089842Y-82657018D01*
G37*
G36*
X93577143Y-76606481D02*
G01*
X93729049Y-76621442D01*
X94021414Y-76710130D01*
X94021416Y-76710131D01*
X94290858Y-76854150D01*
X94527029Y-77047971D01*
X94720850Y-77284142D01*
X94836228Y-77500000D01*
X94864870Y-77553586D01*
X94953558Y-77845951D01*
X94983504Y-78150000D01*
X94953558Y-78454049D01*
X94864870Y-78746414D01*
X94864869Y-78746416D01*
X94720850Y-79015858D01*
X94527029Y-79252029D01*
X94290858Y-79445850D01*
X94096726Y-79549615D01*
X94021414Y-79589870D01*
X93729049Y-79678558D01*
X93577143Y-79693519D01*
X93501191Y-79701000D01*
X92567289Y-79701000D01*
X92542903Y-79703402D01*
X92519454Y-79710515D01*
X92497843Y-79722066D01*
X92478901Y-79737611D01*
X92463356Y-79756553D01*
X92451805Y-79778164D01*
X92444692Y-79801613D01*
X92442290Y-79825999D01*
X92444692Y-79850385D01*
X92451805Y-79873834D01*
X92463356Y-79895445D01*
X92478901Y-79914387D01*
X92487986Y-79922620D01*
X92526084Y-79953887D01*
X92674397Y-80075603D01*
X92794624Y-80222101D01*
X92836975Y-80273706D01*
X92957782Y-80499720D01*
X93032175Y-80744960D01*
X93057294Y-81000000D01*
X93032175Y-81255040D01*
X92957782Y-81500280D01*
X92836975Y-81726294D01*
X92794624Y-81777899D01*
X92674397Y-81924397D01*
X92527899Y-82044624D01*
X92476294Y-82086975D01*
X92250280Y-82207782D01*
X92005040Y-82282175D01*
X91909473Y-82291587D01*
X91813906Y-82301000D01*
X90686094Y-82301000D01*
X90590527Y-82291587D01*
X90494960Y-82282175D01*
X90249720Y-82207782D01*
X90023706Y-82086975D01*
X89972101Y-82044624D01*
X89825603Y-81924397D01*
X89705376Y-81777899D01*
X89663025Y-81726294D01*
X89542218Y-81500280D01*
X89467825Y-81255040D01*
X89442706Y-81000000D01*
X89467825Y-80744960D01*
X89542218Y-80499720D01*
X89663025Y-80273706D01*
X89705376Y-80222101D01*
X89825603Y-80075603D01*
X89972101Y-79955376D01*
X90023706Y-79913025D01*
X90249720Y-79792218D01*
X90494960Y-79717825D01*
X90665788Y-79701000D01*
X90686094Y-79699000D01*
X91533730Y-79699000D01*
X91558116Y-79696598D01*
X91581565Y-79689485D01*
X91603176Y-79677934D01*
X91622118Y-79662389D01*
X91637663Y-79643447D01*
X91649214Y-79621836D01*
X91656327Y-79598387D01*
X91658729Y-79574001D01*
X91656327Y-79549615D01*
X91649214Y-79526166D01*
X91637663Y-79504555D01*
X91622118Y-79485613D01*
X91603176Y-79470068D01*
X91592663Y-79463766D01*
X91559142Y-79445849D01*
X91559141Y-79445848D01*
X91559139Y-79445847D01*
X91322971Y-79252029D01*
X91129150Y-79015858D01*
X90985131Y-78746416D01*
X90985130Y-78746414D01*
X90896442Y-78454049D01*
X90866496Y-78150000D01*
X90896442Y-77845951D01*
X90985130Y-77553586D01*
X91013772Y-77500000D01*
X91129150Y-77284142D01*
X91322971Y-77047971D01*
X91559142Y-76854150D01*
X91828584Y-76710131D01*
X91828586Y-76710130D01*
X92120951Y-76621442D01*
X92272857Y-76606481D01*
X92348809Y-76599000D01*
X93501191Y-76599000D01*
X93577143Y-76606481D01*
X93577143Y-76606481D01*
G37*
G36*
X121089842Y-77657018D02*
G01*
X121162227Y-77678976D01*
X121228924Y-77714626D01*
X121287392Y-77762608D01*
X121335374Y-77821076D01*
X121371024Y-77887773D01*
X121392982Y-77960158D01*
X121401000Y-78041564D01*
X121401000Y-78958436D01*
X121392982Y-79039842D01*
X121371024Y-79112227D01*
X121335374Y-79178924D01*
X121287392Y-79237392D01*
X121228924Y-79285374D01*
X121162227Y-79321024D01*
X121089842Y-79342982D01*
X121008436Y-79351000D01*
X118991564Y-79351000D01*
X118910158Y-79342982D01*
X118837773Y-79321024D01*
X118771076Y-79285374D01*
X118712608Y-79237392D01*
X118664626Y-79178924D01*
X118628976Y-79112227D01*
X118607018Y-79039842D01*
X118599000Y-78958436D01*
X118599000Y-78041564D01*
X118607018Y-77960158D01*
X118628976Y-77887773D01*
X118664626Y-77821076D01*
X118712608Y-77762608D01*
X118771076Y-77714626D01*
X118837773Y-77678976D01*
X118910158Y-77657018D01*
X118991564Y-77649000D01*
X121008436Y-77649000D01*
X121089842Y-77657018D01*
X121089842Y-77657018D01*
G37*
G36*
X109608015Y-76956973D02*
G01*
X109711879Y-76988479D01*
X109739055Y-77003005D01*
X109807600Y-77039643D01*
X109891501Y-77108499D01*
X109960357Y-77192400D01*
X109996995Y-77260945D01*
X110011521Y-77288121D01*
X110043027Y-77391985D01*
X110053666Y-77500000D01*
X110043027Y-77608015D01*
X110011521Y-77711879D01*
X110004961Y-77724152D01*
X109960357Y-77807600D01*
X109891501Y-77891501D01*
X109807600Y-77960357D01*
X109739055Y-77996995D01*
X109711879Y-78011521D01*
X109608015Y-78043027D01*
X109527067Y-78051000D01*
X108472933Y-78051000D01*
X108391985Y-78043027D01*
X108288121Y-78011521D01*
X108260945Y-77996995D01*
X108192400Y-77960357D01*
X108108499Y-77891501D01*
X108039643Y-77807600D01*
X107995039Y-77724152D01*
X107988479Y-77711879D01*
X107956973Y-77608015D01*
X107946334Y-77500000D01*
X107956973Y-77391985D01*
X107988479Y-77288121D01*
X108003005Y-77260945D01*
X108039643Y-77192400D01*
X108108499Y-77108499D01*
X108192400Y-77039643D01*
X108260945Y-77003005D01*
X108288121Y-76988479D01*
X108391985Y-76956973D01*
X108472933Y-76949000D01*
X109527067Y-76949000D01*
X109608015Y-76956973D01*
X109608015Y-76956973D01*
G37*
G36*
X89649549Y-74621116D02*
G01*
X89760734Y-74643232D01*
X89970203Y-74729997D01*
X90158720Y-74855960D01*
X90319040Y-75016280D01*
X90445003Y-75204797D01*
X90445004Y-75204799D01*
X90464624Y-75252167D01*
X90522540Y-75391987D01*
X90531768Y-75414267D01*
X90576000Y-75636635D01*
X90576000Y-75863365D01*
X90531768Y-76085733D01*
X90464624Y-76247835D01*
X90445003Y-76295203D01*
X90319040Y-76483720D01*
X90158720Y-76644040D01*
X89970203Y-76770003D01*
X89760734Y-76856768D01*
X89649549Y-76878884D01*
X89538365Y-76901000D01*
X89311635Y-76901000D01*
X89200451Y-76878884D01*
X89089266Y-76856768D01*
X88879797Y-76770003D01*
X88691280Y-76644040D01*
X88530960Y-76483720D01*
X88404997Y-76295203D01*
X88385377Y-76247835D01*
X88318232Y-76085733D01*
X88274000Y-75863365D01*
X88274000Y-75636635D01*
X88318232Y-75414267D01*
X88327461Y-75391987D01*
X88385376Y-75252167D01*
X88404996Y-75204799D01*
X88404997Y-75204797D01*
X88530960Y-75016280D01*
X88691280Y-74855960D01*
X88879797Y-74729997D01*
X89089266Y-74643232D01*
X89200451Y-74621116D01*
X89311635Y-74599000D01*
X89538365Y-74599000D01*
X89649549Y-74621116D01*
X89649549Y-74621116D01*
G37*
G36*
X96981564Y-74739389D02*
G01*
X97172833Y-74818615D01*
X97172835Y-74818616D01*
X97344973Y-74933635D01*
X97491365Y-75080027D01*
X97574734Y-75204797D01*
X97606385Y-75252167D01*
X97685611Y-75443436D01*
X97726000Y-75646484D01*
X97726000Y-75853516D01*
X97685611Y-76056564D01*
X97673528Y-76085734D01*
X97606384Y-76247835D01*
X97491365Y-76419973D01*
X97344973Y-76566365D01*
X97172835Y-76681384D01*
X97172834Y-76681385D01*
X97172833Y-76681385D01*
X96981564Y-76760611D01*
X96778516Y-76801000D01*
X96571484Y-76801000D01*
X96368436Y-76760611D01*
X96177167Y-76681385D01*
X96177166Y-76681385D01*
X96177165Y-76681384D01*
X96005027Y-76566365D01*
X95858635Y-76419973D01*
X95743616Y-76247835D01*
X95676472Y-76085734D01*
X95664389Y-76056564D01*
X95624000Y-75853516D01*
X95624000Y-75646484D01*
X95664389Y-75443436D01*
X95743615Y-75252167D01*
X95775267Y-75204797D01*
X95858635Y-75080027D01*
X96005027Y-74933635D01*
X96177165Y-74818616D01*
X96177167Y-74818615D01*
X96368436Y-74739389D01*
X96571484Y-74699000D01*
X96778516Y-74699000D01*
X96981564Y-74739389D01*
X96981564Y-74739389D01*
G37*
G36*
X109608015Y-74956973D02*
G01*
X109711879Y-74988479D01*
X109739055Y-75003005D01*
X109807600Y-75039643D01*
X109891501Y-75108499D01*
X109960357Y-75192400D01*
X109966984Y-75204799D01*
X110011521Y-75288121D01*
X110043027Y-75391985D01*
X110053666Y-75500000D01*
X110043027Y-75608015D01*
X110011521Y-75711879D01*
X110011519Y-75711882D01*
X109960357Y-75807600D01*
X109891501Y-75891501D01*
X109807600Y-75960357D01*
X109739055Y-75996995D01*
X109711879Y-76011521D01*
X109608015Y-76043027D01*
X109527067Y-76051000D01*
X108472933Y-76051000D01*
X108391985Y-76043027D01*
X108288121Y-76011521D01*
X108260945Y-75996995D01*
X108192400Y-75960357D01*
X108108499Y-75891501D01*
X108039643Y-75807600D01*
X107988481Y-75711882D01*
X107988479Y-75711879D01*
X107956973Y-75608015D01*
X107946334Y-75500000D01*
X107956973Y-75391985D01*
X107988479Y-75288121D01*
X108033016Y-75204799D01*
X108039643Y-75192400D01*
X108108499Y-75108499D01*
X108192400Y-75039643D01*
X108260945Y-75003005D01*
X108288121Y-74988479D01*
X108391985Y-74956973D01*
X108472933Y-74949000D01*
X109527067Y-74949000D01*
X109608015Y-74956973D01*
X109608015Y-74956973D01*
G37*
G36*
X109608015Y-72956973D02*
G01*
X109711879Y-72988479D01*
X109739055Y-73003005D01*
X109807600Y-73039643D01*
X109891501Y-73108499D01*
X109960357Y-73192400D01*
X109996995Y-73260945D01*
X110011521Y-73288121D01*
X110043027Y-73391985D01*
X110053666Y-73500000D01*
X110043027Y-73608015D01*
X110011521Y-73711879D01*
X110011519Y-73711882D01*
X109960357Y-73807600D01*
X109891501Y-73891501D01*
X109807600Y-73960357D01*
X109739055Y-73996995D01*
X109711879Y-74011521D01*
X109608015Y-74043027D01*
X109527067Y-74051000D01*
X108472933Y-74051000D01*
X108391985Y-74043027D01*
X108288121Y-74011521D01*
X108260945Y-73996995D01*
X108192400Y-73960357D01*
X108108499Y-73891501D01*
X108039643Y-73807600D01*
X107988481Y-73711882D01*
X107988479Y-73711879D01*
X107956973Y-73608015D01*
X107946334Y-73500000D01*
X107956973Y-73391985D01*
X107988479Y-73288121D01*
X108003005Y-73260945D01*
X108039643Y-73192400D01*
X108108499Y-73108499D01*
X108192400Y-73039643D01*
X108260945Y-73003005D01*
X108288121Y-72988479D01*
X108391985Y-72956973D01*
X108472933Y-72949000D01*
X109527067Y-72949000D01*
X109608015Y-72956973D01*
X109608015Y-72956973D01*
G37*
G36*
X109608015Y-70956973D02*
G01*
X109711879Y-70988479D01*
X109739055Y-71003005D01*
X109807600Y-71039643D01*
X109891501Y-71108499D01*
X109960357Y-71192400D01*
X109996995Y-71260945D01*
X110011521Y-71288121D01*
X110043027Y-71391985D01*
X110053666Y-71500000D01*
X110043027Y-71608015D01*
X110011521Y-71711879D01*
X110011519Y-71711882D01*
X109960357Y-71807600D01*
X109891501Y-71891501D01*
X109807600Y-71960357D01*
X109739055Y-71996995D01*
X109711879Y-72011521D01*
X109608015Y-72043027D01*
X109527067Y-72051000D01*
X108472933Y-72051000D01*
X108391985Y-72043027D01*
X108288121Y-72011521D01*
X108260945Y-71996995D01*
X108192400Y-71960357D01*
X108108499Y-71891501D01*
X108039643Y-71807600D01*
X107988481Y-71711882D01*
X107988479Y-71711879D01*
X107956973Y-71608015D01*
X107946334Y-71500000D01*
X107956973Y-71391985D01*
X107988479Y-71288121D01*
X108003005Y-71260945D01*
X108039643Y-71192400D01*
X108108499Y-71108499D01*
X108192400Y-71039643D01*
X108260945Y-71003005D01*
X108288121Y-70988479D01*
X108391985Y-70956973D01*
X108472933Y-70949000D01*
X109527067Y-70949000D01*
X109608015Y-70956973D01*
X109608015Y-70956973D01*
G37*
G36*
X109608015Y-68956973D02*
G01*
X109711879Y-68988479D01*
X109739055Y-69003005D01*
X109807600Y-69039643D01*
X109891501Y-69108499D01*
X109960357Y-69192400D01*
X109996816Y-69260610D01*
X110011521Y-69288121D01*
X110043027Y-69391985D01*
X110053666Y-69500000D01*
X110043027Y-69608015D01*
X110011521Y-69711879D01*
X110011519Y-69711882D01*
X109960357Y-69807600D01*
X109891501Y-69891501D01*
X109807600Y-69960357D01*
X109739055Y-69996995D01*
X109711879Y-70011521D01*
X109608015Y-70043027D01*
X109527067Y-70051000D01*
X108472933Y-70051000D01*
X108391985Y-70043027D01*
X108288121Y-70011521D01*
X108260945Y-69996995D01*
X108192400Y-69960357D01*
X108108499Y-69891501D01*
X108039643Y-69807600D01*
X107988481Y-69711882D01*
X107988479Y-69711879D01*
X107956973Y-69608015D01*
X107946334Y-69500000D01*
X107956973Y-69391985D01*
X107988479Y-69288121D01*
X108003184Y-69260610D01*
X108039643Y-69192400D01*
X108108499Y-69108499D01*
X108192400Y-69039643D01*
X108260945Y-69003005D01*
X108288121Y-68988479D01*
X108391985Y-68956973D01*
X108472933Y-68949000D01*
X109527067Y-68949000D01*
X109608015Y-68956973D01*
X109608015Y-68956973D01*
G37*
G36*
X96981564Y-67239389D02*
G01*
X97169069Y-67317056D01*
X97172835Y-67318616D01*
X97344973Y-67433635D01*
X97491365Y-67580027D01*
X97579468Y-67711882D01*
X97606385Y-67752167D01*
X97685611Y-67943436D01*
X97726000Y-68146484D01*
X97726000Y-68353516D01*
X97685611Y-68556564D01*
X97606385Y-68747833D01*
X97606384Y-68747835D01*
X97491365Y-68919973D01*
X97344973Y-69066365D01*
X97172835Y-69181384D01*
X97172834Y-69181385D01*
X97172833Y-69181385D01*
X96981564Y-69260611D01*
X96778516Y-69301000D01*
X96571484Y-69301000D01*
X96368436Y-69260611D01*
X96177167Y-69181385D01*
X96177166Y-69181385D01*
X96177165Y-69181384D01*
X96005027Y-69066365D01*
X95858635Y-68919973D01*
X95743616Y-68747835D01*
X95743615Y-68747833D01*
X95664389Y-68556564D01*
X95624000Y-68353516D01*
X95624000Y-68146484D01*
X95664389Y-67943436D01*
X95743615Y-67752167D01*
X95770533Y-67711882D01*
X95858635Y-67580027D01*
X96005027Y-67433635D01*
X96177165Y-67318616D01*
X96180931Y-67317056D01*
X96368436Y-67239389D01*
X96571484Y-67199000D01*
X96778516Y-67199000D01*
X96981564Y-67239389D01*
X96981564Y-67239389D01*
G37*
G36*
X109608015Y-66956973D02*
G01*
X109711879Y-66988479D01*
X109739055Y-67003005D01*
X109807600Y-67039643D01*
X109891501Y-67108499D01*
X109960357Y-67192400D01*
X109996995Y-67260945D01*
X110011521Y-67288121D01*
X110043027Y-67391985D01*
X110053666Y-67500000D01*
X110043027Y-67608015D01*
X110011521Y-67711879D01*
X110011519Y-67711882D01*
X109960357Y-67807600D01*
X109891501Y-67891501D01*
X109807600Y-67960357D01*
X109739055Y-67996995D01*
X109711879Y-68011521D01*
X109608015Y-68043027D01*
X109527067Y-68051000D01*
X108472933Y-68051000D01*
X108391985Y-68043027D01*
X108288121Y-68011521D01*
X108260945Y-67996995D01*
X108192400Y-67960357D01*
X108108499Y-67891501D01*
X108039643Y-67807600D01*
X107988481Y-67711882D01*
X107988479Y-67711879D01*
X107956973Y-67608015D01*
X107946334Y-67500000D01*
X107956973Y-67391985D01*
X107988479Y-67288121D01*
X108003005Y-67260945D01*
X108039643Y-67192400D01*
X108108499Y-67108499D01*
X108192400Y-67039643D01*
X108260945Y-67003005D01*
X108288121Y-66988479D01*
X108391985Y-66956973D01*
X108472933Y-66949000D01*
X109527067Y-66949000D01*
X109608015Y-66956973D01*
X109608015Y-66956973D01*
G37*
G36*
X121089842Y-65657018D02*
G01*
X121162227Y-65678976D01*
X121228924Y-65714626D01*
X121287392Y-65762608D01*
X121335374Y-65821076D01*
X121371024Y-65887773D01*
X121392982Y-65960158D01*
X121401000Y-66041564D01*
X121401000Y-66958436D01*
X121392982Y-67039842D01*
X121371024Y-67112227D01*
X121335374Y-67178924D01*
X121287392Y-67237392D01*
X121228924Y-67285374D01*
X121162227Y-67321024D01*
X121089842Y-67342982D01*
X121008436Y-67351000D01*
X118991564Y-67351000D01*
X118910158Y-67342982D01*
X118837773Y-67321024D01*
X118771076Y-67285374D01*
X118712608Y-67237392D01*
X118664626Y-67178924D01*
X118628976Y-67112227D01*
X118607018Y-67039842D01*
X118599000Y-66958436D01*
X118599000Y-66041564D01*
X118607018Y-65960158D01*
X118628976Y-65887773D01*
X118664626Y-65821076D01*
X118712608Y-65762608D01*
X118771076Y-65714626D01*
X118837773Y-65678976D01*
X118910158Y-65657018D01*
X118991564Y-65649000D01*
X121008436Y-65649000D01*
X121089842Y-65657018D01*
X121089842Y-65657018D01*
G37*
G36*
X121089842Y-62157018D02*
G01*
X121162227Y-62178976D01*
X121228924Y-62214626D01*
X121287392Y-62262608D01*
X121335374Y-62321076D01*
X121371024Y-62387773D01*
X121392982Y-62460158D01*
X121401000Y-62541564D01*
X121401000Y-63458436D01*
X121392982Y-63539842D01*
X121371024Y-63612227D01*
X121335374Y-63678924D01*
X121287392Y-63737392D01*
X121228924Y-63785374D01*
X121162227Y-63821024D01*
X121089842Y-63842982D01*
X121008436Y-63851000D01*
X118991564Y-63851000D01*
X118910158Y-63842982D01*
X118837773Y-63821024D01*
X118771076Y-63785374D01*
X118712608Y-63737392D01*
X118664626Y-63678924D01*
X118628976Y-63612227D01*
X118607018Y-63539842D01*
X118599000Y-63458436D01*
X118599000Y-62541564D01*
X118607018Y-62460158D01*
X118628976Y-62387773D01*
X118664626Y-62321076D01*
X118712608Y-62262608D01*
X118771076Y-62214626D01*
X118837773Y-62178976D01*
X118910158Y-62157018D01*
X118991564Y-62149000D01*
X121008436Y-62149000D01*
X121089842Y-62157018D01*
X121089842Y-62157018D01*
G37*
G36*
X89649549Y-60621116D02*
G01*
X89760734Y-60643232D01*
X89970203Y-60729997D01*
X90158720Y-60855960D01*
X90319040Y-61016280D01*
X90361634Y-61080027D01*
X90445004Y-61204799D01*
X90464624Y-61252167D01*
X90531768Y-61414266D01*
X90576000Y-61636636D01*
X90576000Y-61863364D01*
X90531768Y-62085734D01*
X90522539Y-62108015D01*
X90464624Y-62247835D01*
X90445003Y-62295203D01*
X90319040Y-62483720D01*
X90158720Y-62644040D01*
X89970203Y-62770003D01*
X89760734Y-62856768D01*
X89649549Y-62878884D01*
X89538365Y-62901000D01*
X89311635Y-62901000D01*
X89200451Y-62878884D01*
X89089266Y-62856768D01*
X88879797Y-62770003D01*
X88691280Y-62644040D01*
X88530960Y-62483720D01*
X88404997Y-62295203D01*
X88385377Y-62247835D01*
X88327461Y-62108015D01*
X88318232Y-62085734D01*
X88274000Y-61863364D01*
X88274000Y-61636636D01*
X88318232Y-61414266D01*
X88385376Y-61252167D01*
X88404996Y-61204799D01*
X88488366Y-61080027D01*
X88530960Y-61016280D01*
X88691280Y-60855960D01*
X88879797Y-60729997D01*
X89089266Y-60643232D01*
X89200451Y-60621116D01*
X89311635Y-60599000D01*
X89538365Y-60599000D01*
X89649549Y-60621116D01*
X89649549Y-60621116D01*
G37*
G36*
X96981564Y-60739389D02*
G01*
X97172833Y-60818615D01*
X97172835Y-60818616D01*
X97344973Y-60933635D01*
X97491365Y-61080027D01*
X97574734Y-61204797D01*
X97606385Y-61252167D01*
X97685611Y-61443436D01*
X97726000Y-61646484D01*
X97726000Y-61853516D01*
X97685611Y-62056564D01*
X97621276Y-62211882D01*
X97606384Y-62247835D01*
X97491365Y-62419973D01*
X97344973Y-62566365D01*
X97172835Y-62681384D01*
X97172834Y-62681385D01*
X97172833Y-62681385D01*
X96981564Y-62760611D01*
X96778516Y-62801000D01*
X96571484Y-62801000D01*
X96368436Y-62760611D01*
X96177167Y-62681385D01*
X96177166Y-62681385D01*
X96177165Y-62681384D01*
X96005027Y-62566365D01*
X95858635Y-62419973D01*
X95743616Y-62247835D01*
X95728724Y-62211882D01*
X95664389Y-62056564D01*
X95624000Y-61853516D01*
X95624000Y-61646484D01*
X95664389Y-61443436D01*
X95743615Y-61252167D01*
X95775267Y-61204797D01*
X95858635Y-61080027D01*
X96005027Y-60933635D01*
X96177165Y-60818616D01*
X96177167Y-60818615D01*
X96368436Y-60739389D01*
X96571484Y-60699000D01*
X96778516Y-60699000D01*
X96981564Y-60739389D01*
X96981564Y-60739389D01*
G37*
G36*
X109608015Y-61456973D02*
G01*
X109711879Y-61488479D01*
X109739055Y-61503005D01*
X109807600Y-61539643D01*
X109891501Y-61608499D01*
X109960357Y-61692400D01*
X109996995Y-61760945D01*
X110011521Y-61788121D01*
X110043027Y-61891985D01*
X110053666Y-62000000D01*
X110043027Y-62108015D01*
X110011521Y-62211879D01*
X110004961Y-62224152D01*
X109960357Y-62307600D01*
X109891501Y-62391501D01*
X109807600Y-62460357D01*
X109739055Y-62496995D01*
X109711879Y-62511521D01*
X109608015Y-62543027D01*
X109527067Y-62551000D01*
X108472933Y-62551000D01*
X108391985Y-62543027D01*
X108288121Y-62511521D01*
X108260945Y-62496995D01*
X108192400Y-62460357D01*
X108108499Y-62391501D01*
X108039643Y-62307600D01*
X107995039Y-62224152D01*
X107988479Y-62211879D01*
X107956973Y-62108015D01*
X107946334Y-62000000D01*
X107956973Y-61891985D01*
X107988479Y-61788121D01*
X108003005Y-61760945D01*
X108039643Y-61692400D01*
X108108499Y-61608499D01*
X108192400Y-61539643D01*
X108260945Y-61503005D01*
X108288121Y-61488479D01*
X108391985Y-61456973D01*
X108472933Y-61449000D01*
X109527067Y-61449000D01*
X109608015Y-61456973D01*
X109608015Y-61456973D01*
G37*
G36*
X109608015Y-59456973D02*
G01*
X109711879Y-59488479D01*
X109739055Y-59503005D01*
X109807600Y-59539643D01*
X109891501Y-59608499D01*
X109960357Y-59692400D01*
X109996995Y-59760945D01*
X110011521Y-59788121D01*
X110043027Y-59891985D01*
X110053666Y-60000000D01*
X110043027Y-60108015D01*
X110011521Y-60211879D01*
X110011519Y-60211882D01*
X109960357Y-60307600D01*
X109891501Y-60391501D01*
X109807600Y-60460357D01*
X109739055Y-60496995D01*
X109711879Y-60511521D01*
X109608015Y-60543027D01*
X109527067Y-60551000D01*
X108472933Y-60551000D01*
X108391985Y-60543027D01*
X108288121Y-60511521D01*
X108260945Y-60496995D01*
X108192400Y-60460357D01*
X108108499Y-60391501D01*
X108039643Y-60307600D01*
X107988481Y-60211882D01*
X107988479Y-60211879D01*
X107956973Y-60108015D01*
X107946334Y-60000000D01*
X107956973Y-59891985D01*
X107988479Y-59788121D01*
X108003005Y-59760945D01*
X108039643Y-59692400D01*
X108108499Y-59608499D01*
X108192400Y-59539643D01*
X108260945Y-59503005D01*
X108288121Y-59488479D01*
X108391985Y-59456973D01*
X108472933Y-59449000D01*
X109527067Y-59449000D01*
X109608015Y-59456973D01*
X109608015Y-59456973D01*
G37*
G36*
X109608015Y-57456973D02*
G01*
X109711879Y-57488479D01*
X109739055Y-57503005D01*
X109807600Y-57539643D01*
X109891501Y-57608499D01*
X109960357Y-57692400D01*
X109996995Y-57760945D01*
X110011521Y-57788121D01*
X110043027Y-57891985D01*
X110053666Y-58000000D01*
X110043027Y-58108015D01*
X110011521Y-58211879D01*
X110011519Y-58211882D01*
X109960357Y-58307600D01*
X109891501Y-58391501D01*
X109807600Y-58460357D01*
X109739055Y-58496995D01*
X109711879Y-58511521D01*
X109608015Y-58543027D01*
X109527067Y-58551000D01*
X108472933Y-58551000D01*
X108391985Y-58543027D01*
X108288121Y-58511521D01*
X108260945Y-58496995D01*
X108192400Y-58460357D01*
X108108499Y-58391501D01*
X108039643Y-58307600D01*
X107988481Y-58211882D01*
X107988479Y-58211879D01*
X107956973Y-58108015D01*
X107946334Y-58000000D01*
X107956973Y-57891985D01*
X107988479Y-57788121D01*
X108003005Y-57760945D01*
X108039643Y-57692400D01*
X108108499Y-57608499D01*
X108192400Y-57539643D01*
X108260945Y-57503005D01*
X108288121Y-57488479D01*
X108391985Y-57456973D01*
X108472933Y-57449000D01*
X109527067Y-57449000D01*
X109608015Y-57456973D01*
X109608015Y-57456973D01*
G37*
G36*
X109608015Y-55456973D02*
G01*
X109711879Y-55488479D01*
X109739055Y-55503005D01*
X109807600Y-55539643D01*
X109891501Y-55608499D01*
X109960357Y-55692400D01*
X109996995Y-55760945D01*
X110011521Y-55788121D01*
X110043027Y-55891985D01*
X110053666Y-56000000D01*
X110043027Y-56108015D01*
X110011521Y-56211879D01*
X110011519Y-56211882D01*
X109960357Y-56307600D01*
X109891501Y-56391501D01*
X109807600Y-56460357D01*
X109739055Y-56496995D01*
X109711879Y-56511521D01*
X109608015Y-56543027D01*
X109527067Y-56551000D01*
X108472933Y-56551000D01*
X108391985Y-56543027D01*
X108288121Y-56511521D01*
X108260945Y-56496995D01*
X108192400Y-56460357D01*
X108108499Y-56391501D01*
X108039643Y-56307600D01*
X107988481Y-56211882D01*
X107988479Y-56211879D01*
X107956973Y-56108015D01*
X107946334Y-56000000D01*
X107956973Y-55891985D01*
X107988479Y-55788121D01*
X108003005Y-55760945D01*
X108039643Y-55692400D01*
X108108499Y-55608499D01*
X108192400Y-55539643D01*
X108260945Y-55503005D01*
X108288121Y-55488479D01*
X108391985Y-55456973D01*
X108472933Y-55449000D01*
X109527067Y-55449000D01*
X109608015Y-55456973D01*
X109608015Y-55456973D01*
G37*
G36*
X96981564Y-53239389D02*
G01*
X97172833Y-53318615D01*
X97172835Y-53318616D01*
X97344973Y-53433635D01*
X97491365Y-53580027D01*
X97606385Y-53752167D01*
X97685611Y-53943436D01*
X97726000Y-54146484D01*
X97726000Y-54353516D01*
X97685611Y-54556564D01*
X97606385Y-54747833D01*
X97606384Y-54747835D01*
X97491365Y-54919973D01*
X97344973Y-55066365D01*
X97172835Y-55181384D01*
X97172834Y-55181385D01*
X97172833Y-55181385D01*
X96981564Y-55260611D01*
X96778516Y-55301000D01*
X96571484Y-55301000D01*
X96368436Y-55260611D01*
X96177167Y-55181385D01*
X96177166Y-55181385D01*
X96177165Y-55181384D01*
X96005027Y-55066365D01*
X95858635Y-54919973D01*
X95743616Y-54747835D01*
X95743615Y-54747833D01*
X95664389Y-54556564D01*
X95624000Y-54353516D01*
X95624000Y-54146484D01*
X95664389Y-53943436D01*
X95743615Y-53752167D01*
X95858635Y-53580027D01*
X96005027Y-53433635D01*
X96177165Y-53318616D01*
X96177167Y-53318615D01*
X96368436Y-53239389D01*
X96571484Y-53199000D01*
X96778516Y-53199000D01*
X96981564Y-53239389D01*
X96981564Y-53239389D01*
G37*
G36*
X109608015Y-53456973D02*
G01*
X109711879Y-53488479D01*
X109739055Y-53503005D01*
X109807600Y-53539643D01*
X109891501Y-53608499D01*
X109960357Y-53692400D01*
X109992302Y-53752165D01*
X110011521Y-53788121D01*
X110043027Y-53891985D01*
X110053666Y-54000000D01*
X110043027Y-54108015D01*
X110011521Y-54211879D01*
X110011519Y-54211882D01*
X109960357Y-54307600D01*
X109891501Y-54391501D01*
X109807600Y-54460357D01*
X109739055Y-54496995D01*
X109711879Y-54511521D01*
X109608015Y-54543027D01*
X109527067Y-54551000D01*
X108472933Y-54551000D01*
X108391985Y-54543027D01*
X108288121Y-54511521D01*
X108260945Y-54496995D01*
X108192400Y-54460357D01*
X108108499Y-54391501D01*
X108039643Y-54307600D01*
X107988481Y-54211882D01*
X107988479Y-54211879D01*
X107956973Y-54108015D01*
X107946334Y-54000000D01*
X107956973Y-53891985D01*
X107988479Y-53788121D01*
X108007698Y-53752165D01*
X108039643Y-53692400D01*
X108108499Y-53608499D01*
X108192400Y-53539643D01*
X108260945Y-53503005D01*
X108288121Y-53488479D01*
X108391985Y-53456973D01*
X108472933Y-53449000D01*
X109527067Y-53449000D01*
X109608015Y-53456973D01*
X109608015Y-53456973D01*
G37*
G36*
X93669098Y-48547033D02*
G01*
X93993453Y-48681385D01*
X94133352Y-48739333D01*
X94551168Y-49018509D01*
X94906491Y-49373832D01*
X95185667Y-49791648D01*
X95185668Y-49791650D01*
X95377967Y-50255902D01*
X95476000Y-50748747D01*
X95476000Y-51251253D01*
X95377967Y-51744098D01*
X95271969Y-52000000D01*
X95185667Y-52208352D01*
X94906491Y-52626168D01*
X94551168Y-52981491D01*
X94133352Y-53260667D01*
X94133351Y-53260668D01*
X94133350Y-53260668D01*
X93669098Y-53452967D01*
X93176253Y-53551000D01*
X92673747Y-53551000D01*
X92180902Y-53452967D01*
X91716650Y-53260668D01*
X91716649Y-53260668D01*
X91716648Y-53260667D01*
X91298832Y-52981491D01*
X90943509Y-52626168D01*
X90664333Y-52208352D01*
X90578031Y-52000000D01*
X90472033Y-51744098D01*
X90374000Y-51251253D01*
X90374000Y-50748747D01*
X90472033Y-50255902D01*
X90664332Y-49791650D01*
X90664333Y-49791648D01*
X90943509Y-49373832D01*
X91298832Y-49018509D01*
X91716648Y-48739333D01*
X91856547Y-48681385D01*
X92180902Y-48547033D01*
X92673747Y-48449000D01*
X93176253Y-48449000D01*
X93669098Y-48547033D01*
X93669098Y-48547033D01*
G37*
G36*
X109608015Y-51456973D02*
G01*
X109711879Y-51488479D01*
X109739055Y-51503005D01*
X109807600Y-51539643D01*
X109891501Y-51608499D01*
X109960357Y-51692400D01*
X109996995Y-51760945D01*
X110011521Y-51788121D01*
X110043027Y-51891985D01*
X110053666Y-52000000D01*
X110043027Y-52108015D01*
X110011521Y-52211879D01*
X110011519Y-52211882D01*
X109960357Y-52307600D01*
X109891501Y-52391501D01*
X109807600Y-52460357D01*
X109739055Y-52496995D01*
X109711879Y-52511521D01*
X109608015Y-52543027D01*
X109527067Y-52551000D01*
X108472933Y-52551000D01*
X108391985Y-52543027D01*
X108288121Y-52511521D01*
X108260945Y-52496995D01*
X108192400Y-52460357D01*
X108108499Y-52391501D01*
X108039643Y-52307600D01*
X107988481Y-52211882D01*
X107988479Y-52211879D01*
X107956973Y-52108015D01*
X107946334Y-52000000D01*
X107956973Y-51891985D01*
X107988479Y-51788121D01*
X108003005Y-51760945D01*
X108039643Y-51692400D01*
X108108499Y-51608499D01*
X108192400Y-51539643D01*
X108260945Y-51503005D01*
X108288121Y-51488479D01*
X108391985Y-51456973D01*
X108472933Y-51449000D01*
X109527067Y-51449000D01*
X109608015Y-51456973D01*
X109608015Y-51456973D01*
G37*
G36*
X121089842Y-50157018D02*
G01*
X121162227Y-50178976D01*
X121228924Y-50214626D01*
X121287392Y-50262608D01*
X121335374Y-50321076D01*
X121371024Y-50387773D01*
X121392982Y-50460158D01*
X121401000Y-50541564D01*
X121401000Y-51458436D01*
X121392982Y-51539842D01*
X121371024Y-51612227D01*
X121335374Y-51678924D01*
X121287392Y-51737392D01*
X121228924Y-51785374D01*
X121162227Y-51821024D01*
X121089842Y-51842982D01*
X121008436Y-51851000D01*
X118991564Y-51851000D01*
X118910158Y-51842982D01*
X118837773Y-51821024D01*
X118771076Y-51785374D01*
X118712608Y-51737392D01*
X118664626Y-51678924D01*
X118628976Y-51612227D01*
X118607018Y-51539842D01*
X118599000Y-51458436D01*
X118599000Y-50541564D01*
X118607018Y-50460158D01*
X118628976Y-50387773D01*
X118664626Y-50321076D01*
X118712608Y-50262608D01*
X118771076Y-50214626D01*
X118837773Y-50178976D01*
X118910158Y-50157018D01*
X118991564Y-50149000D01*
X121008436Y-50149000D01*
X121089842Y-50157018D01*
X121089842Y-50157018D01*
G37*
G36*
X89583676Y-46608013D02*
G01*
X89760734Y-46643232D01*
X89970203Y-46729997D01*
X90158720Y-46855960D01*
X90319040Y-47016280D01*
X90342239Y-47051000D01*
X90445004Y-47204799D01*
X90531768Y-47414267D01*
X90576000Y-47636635D01*
X90576000Y-47863365D01*
X90531768Y-48085733D01*
X90464624Y-48247835D01*
X90445003Y-48295203D01*
X90319040Y-48483720D01*
X90158720Y-48644040D01*
X89970203Y-48770003D01*
X89760734Y-48856768D01*
X89649549Y-48878884D01*
X89538365Y-48901000D01*
X89311635Y-48901000D01*
X89200451Y-48878884D01*
X89089266Y-48856768D01*
X88879797Y-48770003D01*
X88691280Y-48644040D01*
X88530960Y-48483720D01*
X88404997Y-48295203D01*
X88385377Y-48247835D01*
X88318232Y-48085733D01*
X88274000Y-47863365D01*
X88274000Y-47636635D01*
X88318232Y-47414267D01*
X88404996Y-47204799D01*
X88507761Y-47051000D01*
X88530960Y-47016280D01*
X88691280Y-46855960D01*
X88879797Y-46729997D01*
X89089266Y-46643232D01*
X89266324Y-46608013D01*
X89311635Y-46599000D01*
X89538365Y-46599000D01*
X89583676Y-46608013D01*
X89583676Y-46608013D01*
G37*
G36*
X96981564Y-46739389D02*
G01*
X97146240Y-46807600D01*
X97172835Y-46818616D01*
X97344973Y-46933635D01*
X97491365Y-47080027D01*
X97574734Y-47204797D01*
X97606385Y-47252167D01*
X97685611Y-47443436D01*
X97726000Y-47646484D01*
X97726000Y-47853516D01*
X97685611Y-48056564D01*
X97645741Y-48152818D01*
X97606384Y-48247835D01*
X97491365Y-48419973D01*
X97344973Y-48566365D01*
X97172835Y-48681384D01*
X97172834Y-48681385D01*
X97172833Y-48681385D01*
X96981564Y-48760611D01*
X96778516Y-48801000D01*
X96571484Y-48801000D01*
X96368436Y-48760611D01*
X96177167Y-48681385D01*
X96177166Y-48681385D01*
X96177165Y-48681384D01*
X96005027Y-48566365D01*
X95858635Y-48419973D01*
X95743616Y-48247835D01*
X95704259Y-48152818D01*
X95664389Y-48056564D01*
X95624000Y-47853516D01*
X95624000Y-47646484D01*
X95664389Y-47443436D01*
X95743615Y-47252167D01*
X95775267Y-47204797D01*
X95858635Y-47080027D01*
X96005027Y-46933635D01*
X96177165Y-46818616D01*
X96203760Y-46807600D01*
X96368436Y-46739389D01*
X96571484Y-46699000D01*
X96778516Y-46699000D01*
X96981564Y-46739389D01*
X96981564Y-46739389D01*
G37*
G36*
X121089842Y-46657018D02*
G01*
X121162227Y-46678976D01*
X121228924Y-46714626D01*
X121287392Y-46762608D01*
X121335374Y-46821076D01*
X121371024Y-46887773D01*
X121392982Y-46960158D01*
X121401000Y-47041564D01*
X121401000Y-47958436D01*
X121392982Y-48039842D01*
X121371024Y-48112227D01*
X121335374Y-48178924D01*
X121287392Y-48237392D01*
X121228924Y-48285374D01*
X121162227Y-48321024D01*
X121089842Y-48342982D01*
X121008436Y-48351000D01*
X118991564Y-48351000D01*
X118910158Y-48342982D01*
X118837773Y-48321024D01*
X118771076Y-48285374D01*
X118712608Y-48237392D01*
X118664626Y-48178924D01*
X118628976Y-48112227D01*
X118607018Y-48039842D01*
X118599000Y-47958436D01*
X118599000Y-47041564D01*
X118607018Y-46960158D01*
X118628976Y-46887773D01*
X118664626Y-46821076D01*
X118712608Y-46762608D01*
X118771076Y-46714626D01*
X118837773Y-46678976D01*
X118910158Y-46657018D01*
X118991564Y-46649000D01*
X121008436Y-46649000D01*
X121089842Y-46657018D01*
X121089842Y-46657018D01*
G37*
G36*
X109608015Y-45956973D02*
G01*
X109711879Y-45988479D01*
X109739055Y-46003005D01*
X109807600Y-46039643D01*
X109891501Y-46108499D01*
X109960357Y-46192400D01*
X109996995Y-46260945D01*
X110011521Y-46288121D01*
X110043027Y-46391985D01*
X110053666Y-46500000D01*
X110043027Y-46608015D01*
X110011521Y-46711879D01*
X109996995Y-46739055D01*
X109960357Y-46807600D01*
X109891501Y-46891501D01*
X109807600Y-46960357D01*
X109739055Y-46996995D01*
X109711879Y-47011521D01*
X109608015Y-47043027D01*
X109527067Y-47051000D01*
X108472933Y-47051000D01*
X108391985Y-47043027D01*
X108288121Y-47011521D01*
X108260945Y-46996995D01*
X108192400Y-46960357D01*
X108108499Y-46891501D01*
X108039643Y-46807600D01*
X108003005Y-46739055D01*
X107988479Y-46711879D01*
X107956973Y-46608015D01*
X107946334Y-46500000D01*
X107956973Y-46391985D01*
X107988479Y-46288121D01*
X108003005Y-46260945D01*
X108039643Y-46192400D01*
X108108499Y-46108499D01*
X108192400Y-46039643D01*
X108260945Y-46003005D01*
X108288121Y-45988479D01*
X108391985Y-45956973D01*
X108472933Y-45949000D01*
X109527067Y-45949000D01*
X109608015Y-45956973D01*
X109608015Y-45956973D01*
G37*
G36*
X109608015Y-43956973D02*
G01*
X109711879Y-43988479D01*
X109739055Y-44003005D01*
X109807600Y-44039643D01*
X109891501Y-44108499D01*
X109960357Y-44192400D01*
X109996995Y-44260945D01*
X110011521Y-44288121D01*
X110043027Y-44391985D01*
X110053666Y-44500000D01*
X110043027Y-44608015D01*
X110011521Y-44711879D01*
X110011519Y-44711882D01*
X109960357Y-44807600D01*
X109891501Y-44891501D01*
X109807600Y-44960357D01*
X109739055Y-44996995D01*
X109711879Y-45011521D01*
X109608015Y-45043027D01*
X109527067Y-45051000D01*
X108472933Y-45051000D01*
X108391985Y-45043027D01*
X108288121Y-45011521D01*
X108260945Y-44996995D01*
X108192400Y-44960357D01*
X108108499Y-44891501D01*
X108039643Y-44807600D01*
X107988481Y-44711882D01*
X107988479Y-44711879D01*
X107956973Y-44608015D01*
X107946334Y-44500000D01*
X107956973Y-44391985D01*
X107988479Y-44288121D01*
X108003005Y-44260945D01*
X108039643Y-44192400D01*
X108108499Y-44108499D01*
X108192400Y-44039643D01*
X108260945Y-44003005D01*
X108288121Y-43988479D01*
X108391985Y-43956973D01*
X108472933Y-43949000D01*
X109527067Y-43949000D01*
X109608015Y-43956973D01*
X109608015Y-43956973D01*
G37*
G36*
X109608015Y-41956973D02*
G01*
X109711879Y-41988479D01*
X109739055Y-42003005D01*
X109807600Y-42039643D01*
X109891501Y-42108499D01*
X109960357Y-42192400D01*
X109996995Y-42260945D01*
X110011521Y-42288121D01*
X110043027Y-42391985D01*
X110053666Y-42500000D01*
X110043027Y-42608015D01*
X110011521Y-42711879D01*
X110011519Y-42711882D01*
X109960357Y-42807600D01*
X109891501Y-42891501D01*
X109807600Y-42960357D01*
X109739055Y-42996995D01*
X109711879Y-43011521D01*
X109608015Y-43043027D01*
X109527067Y-43051000D01*
X108472933Y-43051000D01*
X108391985Y-43043027D01*
X108288121Y-43011521D01*
X108260945Y-42996995D01*
X108192400Y-42960357D01*
X108108499Y-42891501D01*
X108039643Y-42807600D01*
X107988481Y-42711882D01*
X107988479Y-42711879D01*
X107956973Y-42608015D01*
X107946334Y-42500000D01*
X107956973Y-42391985D01*
X107988479Y-42288121D01*
X108003005Y-42260945D01*
X108039643Y-42192400D01*
X108108499Y-42108499D01*
X108192400Y-42039643D01*
X108260945Y-42003005D01*
X108288121Y-41988479D01*
X108391985Y-41956973D01*
X108472933Y-41949000D01*
X109527067Y-41949000D01*
X109608015Y-41956973D01*
X109608015Y-41956973D01*
G37*
G36*
X96981564Y-39239389D02*
G01*
X97172833Y-39318615D01*
X97172835Y-39318616D01*
X97344973Y-39433635D01*
X97491365Y-39580027D01*
X97606385Y-39752167D01*
X97685611Y-39943436D01*
X97726000Y-40146484D01*
X97726000Y-40353516D01*
X97685611Y-40556564D01*
X97621276Y-40711882D01*
X97606384Y-40747835D01*
X97491365Y-40919973D01*
X97344973Y-41066365D01*
X97172835Y-41181384D01*
X97172834Y-41181385D01*
X97172833Y-41181385D01*
X96981564Y-41260611D01*
X96778516Y-41301000D01*
X96571484Y-41301000D01*
X96368436Y-41260611D01*
X96177167Y-41181385D01*
X96177166Y-41181385D01*
X96177165Y-41181384D01*
X96005027Y-41066365D01*
X95858635Y-40919973D01*
X95743616Y-40747835D01*
X95728724Y-40711882D01*
X95664389Y-40556564D01*
X95624000Y-40353516D01*
X95624000Y-40146484D01*
X95664389Y-39943436D01*
X95743615Y-39752167D01*
X95858635Y-39580027D01*
X96005027Y-39433635D01*
X96177165Y-39318616D01*
X96177167Y-39318615D01*
X96368436Y-39239389D01*
X96571484Y-39199000D01*
X96778516Y-39199000D01*
X96981564Y-39239389D01*
X96981564Y-39239389D01*
G37*
G36*
X109608015Y-39956973D02*
G01*
X109711879Y-39988479D01*
X109739055Y-40003005D01*
X109807600Y-40039643D01*
X109891501Y-40108499D01*
X109960357Y-40192400D01*
X109996995Y-40260945D01*
X110011521Y-40288121D01*
X110043027Y-40391985D01*
X110053666Y-40500000D01*
X110043027Y-40608015D01*
X110011521Y-40711879D01*
X110011519Y-40711882D01*
X109960357Y-40807600D01*
X109891501Y-40891501D01*
X109807600Y-40960357D01*
X109739055Y-40996995D01*
X109711879Y-41011521D01*
X109608015Y-41043027D01*
X109527067Y-41051000D01*
X108472933Y-41051000D01*
X108391985Y-41043027D01*
X108288121Y-41011521D01*
X108260945Y-40996995D01*
X108192400Y-40960357D01*
X108108499Y-40891501D01*
X108039643Y-40807600D01*
X107988481Y-40711882D01*
X107988479Y-40711879D01*
X107956973Y-40608015D01*
X107946334Y-40500000D01*
X107956973Y-40391985D01*
X107988479Y-40288121D01*
X108003005Y-40260945D01*
X108039643Y-40192400D01*
X108108499Y-40108499D01*
X108192400Y-40039643D01*
X108260945Y-40003005D01*
X108288121Y-39988479D01*
X108391985Y-39956973D01*
X108472933Y-39949000D01*
X109527067Y-39949000D01*
X109608015Y-39956973D01*
X109608015Y-39956973D01*
G37*
G36*
X109608015Y-37956973D02*
G01*
X109711879Y-37988479D01*
X109739055Y-38003005D01*
X109807600Y-38039643D01*
X109891501Y-38108499D01*
X109960357Y-38192400D01*
X109996995Y-38260945D01*
X110011521Y-38288121D01*
X110043027Y-38391985D01*
X110053666Y-38500000D01*
X110043027Y-38608015D01*
X110011521Y-38711879D01*
X110011519Y-38711882D01*
X109960357Y-38807600D01*
X109891501Y-38891501D01*
X109807600Y-38960357D01*
X109739055Y-38996995D01*
X109711879Y-39011521D01*
X109608015Y-39043027D01*
X109527067Y-39051000D01*
X108472933Y-39051000D01*
X108391985Y-39043027D01*
X108288121Y-39011521D01*
X108260945Y-38996995D01*
X108192400Y-38960357D01*
X108108499Y-38891501D01*
X108039643Y-38807600D01*
X107988481Y-38711882D01*
X107988479Y-38711879D01*
X107956973Y-38608015D01*
X107946334Y-38500000D01*
X107956973Y-38391985D01*
X107988479Y-38288121D01*
X108003005Y-38260945D01*
X108039643Y-38192400D01*
X108108499Y-38108499D01*
X108192400Y-38039643D01*
X108260945Y-38003005D01*
X108288121Y-37988479D01*
X108391985Y-37956973D01*
X108472933Y-37949000D01*
X109527067Y-37949000D01*
X109608015Y-37956973D01*
X109608015Y-37956973D01*
G37*
G36*
X109608015Y-35956973D02*
G01*
X109711879Y-35988479D01*
X109739055Y-36003005D01*
X109807600Y-36039643D01*
X109891501Y-36108499D01*
X109960357Y-36192400D01*
X109996995Y-36260945D01*
X110011521Y-36288121D01*
X110043027Y-36391985D01*
X110053666Y-36500000D01*
X110043027Y-36608015D01*
X110011521Y-36711879D01*
X110011519Y-36711882D01*
X109960357Y-36807600D01*
X109891501Y-36891501D01*
X109807600Y-36960357D01*
X109739055Y-36996995D01*
X109711879Y-37011521D01*
X109608015Y-37043027D01*
X109527067Y-37051000D01*
X108472933Y-37051000D01*
X108391985Y-37043027D01*
X108288121Y-37011521D01*
X108260945Y-36996995D01*
X108192400Y-36960357D01*
X108108499Y-36891501D01*
X108039643Y-36807600D01*
X107988481Y-36711882D01*
X107988479Y-36711879D01*
X107956973Y-36608015D01*
X107946334Y-36500000D01*
X107956973Y-36391985D01*
X107988479Y-36288121D01*
X108003005Y-36260945D01*
X108039643Y-36192400D01*
X108108499Y-36108499D01*
X108192400Y-36039643D01*
X108260945Y-36003005D01*
X108288121Y-35988479D01*
X108391985Y-35956973D01*
X108472933Y-35949000D01*
X109527067Y-35949000D01*
X109608015Y-35956973D01*
X109608015Y-35956973D01*
G37*
G36*
X121089842Y-34657018D02*
G01*
X121162227Y-34678976D01*
X121228924Y-34714626D01*
X121287392Y-34762608D01*
X121335374Y-34821076D01*
X121371024Y-34887773D01*
X121392982Y-34960158D01*
X121401000Y-35041564D01*
X121401000Y-35958436D01*
X121392982Y-36039842D01*
X121371024Y-36112227D01*
X121335374Y-36178924D01*
X121287392Y-36237392D01*
X121228924Y-36285374D01*
X121162227Y-36321024D01*
X121089842Y-36342982D01*
X121008436Y-36351000D01*
X118991564Y-36351000D01*
X118910158Y-36342982D01*
X118837773Y-36321024D01*
X118771076Y-36285374D01*
X118712608Y-36237392D01*
X118664626Y-36178924D01*
X118628976Y-36112227D01*
X118607018Y-36039842D01*
X118599000Y-35958436D01*
X118599000Y-35041564D01*
X118607018Y-34960158D01*
X118628976Y-34887773D01*
X118664626Y-34821076D01*
X118712608Y-34762608D01*
X118771076Y-34714626D01*
X118837773Y-34678976D01*
X118910158Y-34657018D01*
X118991564Y-34649000D01*
X121008436Y-34649000D01*
X121089842Y-34657018D01*
X121089842Y-34657018D01*
G37*
G36*
X89604861Y-32612227D02*
G01*
X89760734Y-32643232D01*
X89970203Y-32729997D01*
X90158720Y-32855960D01*
X90319040Y-33016280D01*
X90361634Y-33080027D01*
X90445004Y-33204799D01*
X90531768Y-33414267D01*
X90576000Y-33636635D01*
X90576000Y-33863365D01*
X90531768Y-34085733D01*
X90464624Y-34247835D01*
X90445003Y-34295203D01*
X90319040Y-34483720D01*
X90158720Y-34644040D01*
X89970203Y-34770003D01*
X89760734Y-34856768D01*
X89649549Y-34878884D01*
X89538365Y-34901000D01*
X89311635Y-34901000D01*
X89200451Y-34878884D01*
X89089266Y-34856768D01*
X88879797Y-34770003D01*
X88691280Y-34644040D01*
X88530960Y-34483720D01*
X88404997Y-34295203D01*
X88385377Y-34247835D01*
X88318232Y-34085733D01*
X88274000Y-33863365D01*
X88274000Y-33636635D01*
X88318232Y-33414267D01*
X88404996Y-33204799D01*
X88488366Y-33080027D01*
X88530960Y-33016280D01*
X88691280Y-32855960D01*
X88879797Y-32729997D01*
X89089266Y-32643232D01*
X89245139Y-32612227D01*
X89311635Y-32599000D01*
X89538365Y-32599000D01*
X89604861Y-32612227D01*
X89604861Y-32612227D01*
G37*
G36*
X96981564Y-32739389D02*
G01*
X97169069Y-32817056D01*
X97172835Y-32818616D01*
X97344973Y-32933635D01*
X97491365Y-33080027D01*
X97574734Y-33204797D01*
X97606385Y-33252167D01*
X97685611Y-33443436D01*
X97726000Y-33646484D01*
X97726000Y-33853516D01*
X97685611Y-34056564D01*
X97673528Y-34085734D01*
X97606384Y-34247835D01*
X97491365Y-34419973D01*
X97344973Y-34566365D01*
X97172835Y-34681384D01*
X97172834Y-34681385D01*
X97172833Y-34681385D01*
X96981564Y-34760611D01*
X96778516Y-34801000D01*
X96571484Y-34801000D01*
X96368436Y-34760611D01*
X96177167Y-34681385D01*
X96177166Y-34681385D01*
X96177165Y-34681384D01*
X96005027Y-34566365D01*
X95858635Y-34419973D01*
X95743616Y-34247835D01*
X95676472Y-34085734D01*
X95664389Y-34056564D01*
X95624000Y-33853516D01*
X95624000Y-33646484D01*
X95664389Y-33443436D01*
X95743615Y-33252167D01*
X95775267Y-33204797D01*
X95858635Y-33080027D01*
X96005027Y-32933635D01*
X96177165Y-32818616D01*
X96180931Y-32817056D01*
X96368436Y-32739389D01*
X96571484Y-32699000D01*
X96778516Y-32699000D01*
X96981564Y-32739389D01*
X96981564Y-32739389D01*
G37*
G36*
X121089842Y-31157018D02*
G01*
X121162227Y-31178976D01*
X121228924Y-31214626D01*
X121287392Y-31262608D01*
X121335374Y-31321076D01*
X121371024Y-31387773D01*
X121392982Y-31460158D01*
X121401000Y-31541564D01*
X121401000Y-32458436D01*
X121392982Y-32539842D01*
X121371024Y-32612227D01*
X121335374Y-32678924D01*
X121287392Y-32737392D01*
X121228924Y-32785374D01*
X121162227Y-32821024D01*
X121089842Y-32842982D01*
X121008436Y-32851000D01*
X118991564Y-32851000D01*
X118910158Y-32842982D01*
X118837773Y-32821024D01*
X118771076Y-32785374D01*
X118712608Y-32737392D01*
X118664626Y-32678924D01*
X118628976Y-32612227D01*
X118607018Y-32539842D01*
X118599000Y-32458436D01*
X118599000Y-31541564D01*
X118607018Y-31460158D01*
X118628976Y-31387773D01*
X118664626Y-31321076D01*
X118712608Y-31262608D01*
X118771076Y-31214626D01*
X118837773Y-31178976D01*
X118910158Y-31157018D01*
X118991564Y-31149000D01*
X121008436Y-31149000D01*
X121089842Y-31157018D01*
X121089842Y-31157018D01*
G37*
G36*
X109608015Y-30456973D02*
G01*
X109711879Y-30488479D01*
X109739055Y-30503005D01*
X109807600Y-30539643D01*
X109891501Y-30608499D01*
X109960357Y-30692400D01*
X109996995Y-30760945D01*
X110011521Y-30788121D01*
X110043027Y-30891985D01*
X110053666Y-31000000D01*
X110043027Y-31108015D01*
X110011521Y-31211879D01*
X110004961Y-31224152D01*
X109960357Y-31307600D01*
X109891501Y-31391501D01*
X109807600Y-31460357D01*
X109739055Y-31496995D01*
X109711879Y-31511521D01*
X109608015Y-31543027D01*
X109527067Y-31551000D01*
X108472933Y-31551000D01*
X108391985Y-31543027D01*
X108288121Y-31511521D01*
X108260945Y-31496995D01*
X108192400Y-31460357D01*
X108108499Y-31391501D01*
X108039643Y-31307600D01*
X107995039Y-31224152D01*
X107988479Y-31211879D01*
X107956973Y-31108015D01*
X107946334Y-31000000D01*
X107956973Y-30891985D01*
X107988479Y-30788121D01*
X108003005Y-30760945D01*
X108039643Y-30692400D01*
X108108499Y-30608499D01*
X108192400Y-30539643D01*
X108260945Y-30503005D01*
X108288121Y-30488479D01*
X108391985Y-30456973D01*
X108472933Y-30449000D01*
X109527067Y-30449000D01*
X109608015Y-30456973D01*
X109608015Y-30456973D01*
G37*
G36*
X109608015Y-28456973D02*
G01*
X109711879Y-28488479D01*
X109739055Y-28503005D01*
X109807600Y-28539643D01*
X109891501Y-28608499D01*
X109960357Y-28692400D01*
X109996995Y-28760945D01*
X110011521Y-28788121D01*
X110043027Y-28891985D01*
X110053666Y-29000000D01*
X110043027Y-29108015D01*
X110011521Y-29211879D01*
X110011519Y-29211882D01*
X109960357Y-29307600D01*
X109891501Y-29391501D01*
X109807600Y-29460357D01*
X109739055Y-29496995D01*
X109711879Y-29511521D01*
X109608015Y-29543027D01*
X109527067Y-29551000D01*
X108472933Y-29551000D01*
X108391985Y-29543027D01*
X108288121Y-29511521D01*
X108260945Y-29496995D01*
X108192400Y-29460357D01*
X108108499Y-29391501D01*
X108039643Y-29307600D01*
X107988481Y-29211882D01*
X107988479Y-29211879D01*
X107956973Y-29108015D01*
X107946334Y-29000000D01*
X107956973Y-28891985D01*
X107988479Y-28788121D01*
X108003005Y-28760945D01*
X108039643Y-28692400D01*
X108108499Y-28608499D01*
X108192400Y-28539643D01*
X108260945Y-28503005D01*
X108288121Y-28488479D01*
X108391985Y-28456973D01*
X108472933Y-28449000D01*
X109527067Y-28449000D01*
X109608015Y-28456973D01*
X109608015Y-28456973D01*
G37*
G36*
X109608015Y-26456973D02*
G01*
X109711879Y-26488479D01*
X109739055Y-26503005D01*
X109807600Y-26539643D01*
X109891501Y-26608499D01*
X109960357Y-26692400D01*
X109989986Y-26747833D01*
X110011521Y-26788121D01*
X110043027Y-26891985D01*
X110053666Y-27000000D01*
X110043027Y-27108015D01*
X110011521Y-27211879D01*
X110011519Y-27211882D01*
X109960357Y-27307600D01*
X109891501Y-27391501D01*
X109807600Y-27460357D01*
X109739055Y-27496995D01*
X109711879Y-27511521D01*
X109608015Y-27543027D01*
X109527067Y-27551000D01*
X108472933Y-27551000D01*
X108391985Y-27543027D01*
X108288121Y-27511521D01*
X108260945Y-27496995D01*
X108192400Y-27460357D01*
X108108499Y-27391501D01*
X108039643Y-27307600D01*
X107988481Y-27211882D01*
X107988479Y-27211879D01*
X107956973Y-27108015D01*
X107946334Y-27000000D01*
X107956973Y-26891985D01*
X107988479Y-26788121D01*
X108010014Y-26747833D01*
X108039643Y-26692400D01*
X108108499Y-26608499D01*
X108192400Y-26539643D01*
X108260945Y-26503005D01*
X108288121Y-26488479D01*
X108391985Y-26456973D01*
X108472933Y-26449000D01*
X109527067Y-26449000D01*
X109608015Y-26456973D01*
X109608015Y-26456973D01*
G37*
G36*
X96981564Y-25239389D02*
G01*
X97146240Y-25307600D01*
X97172835Y-25318616D01*
X97262544Y-25378558D01*
X97344973Y-25433635D01*
X97491365Y-25580027D01*
X97606385Y-25752167D01*
X97685611Y-25943436D01*
X97726000Y-26146484D01*
X97726000Y-26353516D01*
X97685611Y-26556564D01*
X97629346Y-26692400D01*
X97606384Y-26747835D01*
X97491365Y-26919973D01*
X97344973Y-27066365D01*
X97172835Y-27181384D01*
X97172834Y-27181385D01*
X97172833Y-27181385D01*
X96981564Y-27260611D01*
X96778516Y-27301000D01*
X96571484Y-27301000D01*
X96368436Y-27260611D01*
X96177167Y-27181385D01*
X96177166Y-27181385D01*
X96177165Y-27181384D01*
X96005027Y-27066365D01*
X95858635Y-26919973D01*
X95743616Y-26747835D01*
X95720654Y-26692400D01*
X95664389Y-26556564D01*
X95624000Y-26353516D01*
X95624000Y-26146484D01*
X95664389Y-25943436D01*
X95743615Y-25752167D01*
X95858635Y-25580027D01*
X96005027Y-25433635D01*
X96087456Y-25378558D01*
X96177165Y-25318616D01*
X96203760Y-25307600D01*
X96368436Y-25239389D01*
X96571484Y-25199000D01*
X96778516Y-25199000D01*
X96981564Y-25239389D01*
X96981564Y-25239389D01*
G37*
G36*
X109608015Y-24456973D02*
G01*
X109711879Y-24488479D01*
X109739055Y-24503005D01*
X109807600Y-24539643D01*
X109891501Y-24608499D01*
X109960357Y-24692400D01*
X109972895Y-24715858D01*
X110011521Y-24788121D01*
X110043027Y-24891985D01*
X110053666Y-25000000D01*
X110043027Y-25108015D01*
X110011521Y-25211879D01*
X110011519Y-25211882D01*
X109960357Y-25307600D01*
X109891501Y-25391501D01*
X109807600Y-25460357D01*
X109739055Y-25496995D01*
X109711879Y-25511521D01*
X109608015Y-25543027D01*
X109527067Y-25551000D01*
X108472933Y-25551000D01*
X108391985Y-25543027D01*
X108288121Y-25511521D01*
X108260945Y-25496995D01*
X108192400Y-25460357D01*
X108108499Y-25391501D01*
X108039643Y-25307600D01*
X107988481Y-25211882D01*
X107988479Y-25211879D01*
X107956973Y-25108015D01*
X107946334Y-25000000D01*
X107956973Y-24891985D01*
X107988479Y-24788121D01*
X108027105Y-24715858D01*
X108039643Y-24692400D01*
X108108499Y-24608499D01*
X108192400Y-24539643D01*
X108260945Y-24503005D01*
X108288121Y-24488479D01*
X108391985Y-24456973D01*
X108472933Y-24449000D01*
X109527067Y-24449000D01*
X109608015Y-24456973D01*
X109608015Y-24456973D01*
G37*
G36*
X93577143Y-22306481D02*
G01*
X93729049Y-22321442D01*
X94021414Y-22410130D01*
X94021416Y-22410131D01*
X94290858Y-22554150D01*
X94527029Y-22747971D01*
X94720850Y-22984142D01*
X94787060Y-23108013D01*
X94864870Y-23253586D01*
X94953558Y-23545951D01*
X94983504Y-23850000D01*
X94953558Y-24154049D01*
X94864870Y-24446414D01*
X94864869Y-24446416D01*
X94720850Y-24715858D01*
X94527029Y-24952029D01*
X94290858Y-25145850D01*
X94021416Y-25289869D01*
X94021414Y-25289870D01*
X93729049Y-25378558D01*
X93577143Y-25393519D01*
X93501191Y-25401000D01*
X92348809Y-25401000D01*
X92272857Y-25393519D01*
X92120951Y-25378558D01*
X91828586Y-25289870D01*
X91828584Y-25289869D01*
X91559142Y-25145850D01*
X91322971Y-24952029D01*
X91129150Y-24715858D01*
X90985131Y-24446416D01*
X90985130Y-24446414D01*
X90896442Y-24154049D01*
X90866496Y-23850000D01*
X90896442Y-23545951D01*
X90985130Y-23253586D01*
X91062940Y-23108013D01*
X91129150Y-22984142D01*
X91322971Y-22747971D01*
X91559142Y-22554150D01*
X91828584Y-22410131D01*
X91828586Y-22410130D01*
X92120951Y-22321442D01*
X92272857Y-22306481D01*
X92348809Y-22299000D01*
X93501191Y-22299000D01*
X93577143Y-22306481D01*
X93577143Y-22306481D01*
G37*
G36*
X109608015Y-22456973D02*
G01*
X109711879Y-22488479D01*
X109739055Y-22503005D01*
X109807600Y-22539643D01*
X109891501Y-22608499D01*
X109960357Y-22692400D01*
X109990060Y-22747971D01*
X110011521Y-22788121D01*
X110043027Y-22891985D01*
X110053666Y-23000000D01*
X110043027Y-23108015D01*
X110011521Y-23211879D01*
X110011519Y-23211882D01*
X109960357Y-23307600D01*
X109891501Y-23391501D01*
X109807600Y-23460357D01*
X109739055Y-23496995D01*
X109711879Y-23511521D01*
X109608015Y-23543027D01*
X109527067Y-23551000D01*
X108472933Y-23551000D01*
X108391985Y-23543027D01*
X108288121Y-23511521D01*
X108260945Y-23496995D01*
X108192400Y-23460357D01*
X108108499Y-23391501D01*
X108039643Y-23307600D01*
X107988481Y-23211882D01*
X107988479Y-23211879D01*
X107956973Y-23108015D01*
X107946334Y-23000000D01*
X107956973Y-22891985D01*
X107988479Y-22788121D01*
X108009940Y-22747971D01*
X108039643Y-22692400D01*
X108108499Y-22608499D01*
X108192400Y-22539643D01*
X108260945Y-22503005D01*
X108288121Y-22488479D01*
X108391985Y-22456973D01*
X108472933Y-22449000D01*
X109527067Y-22449000D01*
X109608015Y-22456973D01*
X109608015Y-22456973D01*
G37*
G36*
X109608015Y-20456973D02*
G01*
X109711879Y-20488479D01*
X109739055Y-20503005D01*
X109807600Y-20539643D01*
X109891501Y-20608499D01*
X109960357Y-20692400D01*
X109996995Y-20760945D01*
X110011521Y-20788121D01*
X110043027Y-20891985D01*
X110053666Y-21000000D01*
X110043027Y-21108015D01*
X110011521Y-21211879D01*
X110011519Y-21211882D01*
X109960357Y-21307600D01*
X109891501Y-21391501D01*
X109807600Y-21460357D01*
X109739055Y-21496995D01*
X109711879Y-21511521D01*
X109608015Y-21543027D01*
X109527067Y-21551000D01*
X108472933Y-21551000D01*
X108391985Y-21543027D01*
X108288121Y-21511521D01*
X108260945Y-21496995D01*
X108192400Y-21460357D01*
X108108499Y-21391501D01*
X108039643Y-21307600D01*
X107988481Y-21211882D01*
X107988479Y-21211879D01*
X107956973Y-21108015D01*
X107946334Y-21000000D01*
X107956973Y-20891985D01*
X107988479Y-20788121D01*
X108003005Y-20760945D01*
X108039643Y-20692400D01*
X108108499Y-20608499D01*
X108192400Y-20539643D01*
X108260945Y-20503005D01*
X108288121Y-20488479D01*
X108391985Y-20456973D01*
X108472933Y-20449000D01*
X109527067Y-20449000D01*
X109608015Y-20456973D01*
X109608015Y-20456973D01*
G37*
G36*
X86125256Y-18141298D02*
G01*
X86231579Y-18162447D01*
X86532042Y-18286903D01*
X86802451Y-18467585D01*
X87032415Y-18697549D01*
X87213097Y-18967958D01*
X87337553Y-19268421D01*
X87358702Y-19374744D01*
X87391885Y-19541564D01*
X87401000Y-19587391D01*
X87401000Y-19912609D01*
X87337553Y-20231579D01*
X87213097Y-20532042D01*
X87032415Y-20802451D01*
X86802451Y-21032415D01*
X86532042Y-21213097D01*
X86231579Y-21337553D01*
X86125256Y-21358702D01*
X85912611Y-21401000D01*
X85587389Y-21401000D01*
X85374744Y-21358702D01*
X85268421Y-21337553D01*
X84967958Y-21213097D01*
X84697549Y-21032415D01*
X84467585Y-20802451D01*
X84286903Y-20532042D01*
X84162447Y-20231579D01*
X84099000Y-19912609D01*
X84099000Y-19587391D01*
X84108116Y-19541564D01*
X84141298Y-19374744D01*
X84162447Y-19268421D01*
X84286903Y-18967958D01*
X84467585Y-18697549D01*
X84697549Y-18467585D01*
X84967958Y-18286903D01*
X85268421Y-18162447D01*
X85374744Y-18141298D01*
X85587389Y-18099000D01*
X85912611Y-18099000D01*
X86125256Y-18141298D01*
X86125256Y-18141298D01*
G37*
G36*
X130625256Y-18141298D02*
G01*
X130731579Y-18162447D01*
X131032042Y-18286903D01*
X131302451Y-18467585D01*
X131532415Y-18697549D01*
X131713097Y-18967958D01*
X131837553Y-19268421D01*
X131858702Y-19374744D01*
X131891885Y-19541564D01*
X131901000Y-19587391D01*
X131901000Y-19912609D01*
X131837553Y-20231579D01*
X131713097Y-20532042D01*
X131532415Y-20802451D01*
X131302451Y-21032415D01*
X131032042Y-21213097D01*
X130731579Y-21337553D01*
X130625256Y-21358702D01*
X130412611Y-21401000D01*
X130087389Y-21401000D01*
X129874744Y-21358702D01*
X129768421Y-21337553D01*
X129467958Y-21213097D01*
X129197549Y-21032415D01*
X128967585Y-20802451D01*
X128786903Y-20532042D01*
X128662447Y-20231579D01*
X128599000Y-19912609D01*
X128599000Y-19587391D01*
X128608116Y-19541564D01*
X128641298Y-19374744D01*
X128662447Y-19268421D01*
X128786903Y-18967958D01*
X128967585Y-18697549D01*
X129197549Y-18467585D01*
X129467958Y-18286903D01*
X129768421Y-18162447D01*
X129874744Y-18141298D01*
X130087389Y-18099000D01*
X130412611Y-18099000D01*
X130625256Y-18141298D01*
X130625256Y-18141298D01*
G37*
G36*
X121089842Y-19157018D02*
G01*
X121162227Y-19178976D01*
X121228924Y-19214626D01*
X121287392Y-19262608D01*
X121335374Y-19321076D01*
X121371024Y-19387773D01*
X121392982Y-19460158D01*
X121401000Y-19541564D01*
X121401000Y-20458436D01*
X121392982Y-20539842D01*
X121371024Y-20612227D01*
X121335374Y-20678924D01*
X121287392Y-20737392D01*
X121228924Y-20785374D01*
X121162227Y-20821024D01*
X121089842Y-20842982D01*
X121008436Y-20851000D01*
X118991564Y-20851000D01*
X118910158Y-20842982D01*
X118837773Y-20821024D01*
X118771076Y-20785374D01*
X118712608Y-20737392D01*
X118664626Y-20678924D01*
X118628976Y-20612227D01*
X118607018Y-20539842D01*
X118599000Y-20458436D01*
X118599000Y-19541564D01*
X118607018Y-19460158D01*
X118628976Y-19387773D01*
X118664626Y-19321076D01*
X118712608Y-19262608D01*
X118771076Y-19214626D01*
X118837773Y-19178976D01*
X118910158Y-19157018D01*
X118991564Y-19149000D01*
X121008436Y-19149000D01*
X121089842Y-19157018D01*
X121089842Y-19157018D01*
G37*
M02*
