G04 #@! TF.GenerationSoftware,KiCad,Pcbnew,(5.1.4-0-10_14)*
G04 #@! TF.CreationDate,2019-11-24T21:25:27+01:00*
G04 #@! TF.ProjectId,audio-mixer,61756469-6f2d-46d6-9978-65722e6b6963,rev?*
G04 #@! TF.SameCoordinates,Original*
G04 #@! TF.FileFunction,Legend,Top*
G04 #@! TF.FilePolarity,Positive*
%FSLAX46Y46*%
G04 Gerber Fmt 4.6, Leading zero omitted, Abs format (unit mm)*
G04 Created by KiCad (PCBNEW (5.1.4-0-10_14)) date 2019-11-24 21:25:27*
%MOMM*%
%LPD*%
G04 APERTURE LIST*
%ADD10C,0.150000*%
%ADD11C,0.100000*%
%ADD12C,0.120000*%
%ADD13C,0.250000*%
%ADD14C,0.200000*%
%ADD15C,0.127000*%
%ADD16C,0.050000*%
G04 APERTURE END LIST*
D10*
X131714285Y-67797619D02*
X131714285Y-68511904D01*
X132142857Y-68083333D02*
X130857142Y-67797619D01*
X131285714Y-68416666D02*
X131285714Y-67702380D01*
X130857142Y-68130952D02*
X132142857Y-68416666D01*
X132047619Y-69130952D02*
X131333333Y-69130952D01*
X131190476Y-69083333D01*
X131095238Y-68988095D01*
X131047619Y-68845238D01*
X131047619Y-68750000D01*
X131047619Y-70083333D02*
X131047619Y-69607142D01*
X132047619Y-69607142D01*
X131142857Y-70988095D02*
X131095238Y-70940476D01*
X131047619Y-70797619D01*
X131047619Y-70702380D01*
X131095238Y-70559523D01*
X131190476Y-70464285D01*
X131285714Y-70416666D01*
X131476190Y-70369047D01*
X131619047Y-70369047D01*
X131809523Y-70416666D01*
X131904761Y-70464285D01*
X132000000Y-70559523D01*
X132047619Y-70702380D01*
X132047619Y-70797619D01*
X132000000Y-70940476D01*
X131952380Y-70988095D01*
X132047619Y-71702380D02*
X131333333Y-71702380D01*
X131190476Y-71654761D01*
X131095238Y-71559523D01*
X131047619Y-71416666D01*
X131047619Y-71321428D01*
X131047619Y-72654761D02*
X131047619Y-72178571D01*
X132047619Y-72178571D01*
X131142857Y-73559523D02*
X131095238Y-73511904D01*
X131047619Y-73369047D01*
X131047619Y-73273809D01*
X131095238Y-73130952D01*
X131190476Y-73035714D01*
X131285714Y-72988095D01*
X131476190Y-72940476D01*
X131619047Y-72940476D01*
X131809523Y-72988095D01*
X131904761Y-73035714D01*
X132000000Y-73130952D01*
X132047619Y-73273809D01*
X132047619Y-73369047D01*
X132000000Y-73511904D01*
X131952380Y-73559523D01*
X132047619Y-74273809D02*
X131333333Y-74273809D01*
X131190476Y-74226190D01*
X131095238Y-74130952D01*
X131047619Y-73988095D01*
X131047619Y-73892857D01*
X131047619Y-75226190D02*
X131047619Y-74750000D01*
X132047619Y-74750000D01*
X131142857Y-76130952D02*
X131095238Y-76083333D01*
X131047619Y-75940476D01*
X131047619Y-75845238D01*
X131095238Y-75702380D01*
X131190476Y-75607142D01*
X131285714Y-75559523D01*
X131476190Y-75511904D01*
X131619047Y-75511904D01*
X131809523Y-75559523D01*
X131904761Y-75607142D01*
X132000000Y-75702380D01*
X132047619Y-75845238D01*
X132047619Y-75940476D01*
X132000000Y-76083333D01*
X131952380Y-76130952D01*
X132047619Y-76845238D02*
X131333333Y-76845238D01*
X131190476Y-76797619D01*
X131095238Y-76702380D01*
X131047619Y-76559523D01*
X131047619Y-76464285D01*
X131047619Y-77797619D02*
X131047619Y-77321428D01*
X132047619Y-77321428D01*
X131142857Y-78702380D02*
X131095238Y-78654761D01*
X131047619Y-78511904D01*
X131047619Y-78416666D01*
X131095238Y-78273809D01*
X131190476Y-78178571D01*
X131285714Y-78130952D01*
X131476190Y-78083333D01*
X131619047Y-78083333D01*
X131809523Y-78130952D01*
X131904761Y-78178571D01*
X132000000Y-78273809D01*
X132047619Y-78416666D01*
X132047619Y-78511904D01*
X132000000Y-78654761D01*
X131952380Y-78702380D01*
X131714285Y-25738095D02*
X130904761Y-25738095D01*
X130809523Y-25690476D01*
X130761904Y-25642857D01*
X130714285Y-25547619D01*
X130714285Y-25404761D01*
X130761904Y-25309523D01*
X131095238Y-25738095D02*
X131047619Y-25642857D01*
X131047619Y-25452380D01*
X131095238Y-25357142D01*
X131142857Y-25309523D01*
X131238095Y-25261904D01*
X131523809Y-25261904D01*
X131619047Y-25309523D01*
X131666666Y-25357142D01*
X131714285Y-25452380D01*
X131714285Y-25642857D01*
X131666666Y-25738095D01*
X131047619Y-26214285D02*
X131714285Y-26214285D01*
X132047619Y-26214285D02*
X132000000Y-26166666D01*
X131952380Y-26214285D01*
X132000000Y-26261904D01*
X132047619Y-26214285D01*
X131952380Y-26214285D01*
X131714285Y-26547619D02*
X131714285Y-26928571D01*
X132047619Y-26690476D02*
X131190476Y-26690476D01*
X131095238Y-26738095D01*
X131047619Y-26833333D01*
X131047619Y-26928571D01*
X131047619Y-27261904D02*
X132047619Y-27261904D01*
X131047619Y-27690476D02*
X131571428Y-27690476D01*
X131666666Y-27642857D01*
X131714285Y-27547619D01*
X131714285Y-27404761D01*
X131666666Y-27309523D01*
X131619047Y-27261904D01*
X131714285Y-28595238D02*
X131047619Y-28595238D01*
X131714285Y-28166666D02*
X131190476Y-28166666D01*
X131095238Y-28214285D01*
X131047619Y-28309523D01*
X131047619Y-28452380D01*
X131095238Y-28547619D01*
X131142857Y-28595238D01*
X131047619Y-29071428D02*
X132047619Y-29071428D01*
X131666666Y-29071428D02*
X131714285Y-29166666D01*
X131714285Y-29357142D01*
X131666666Y-29452380D01*
X131619047Y-29500000D01*
X131523809Y-29547619D01*
X131238095Y-29547619D01*
X131142857Y-29500000D01*
X131095238Y-29452380D01*
X131047619Y-29357142D01*
X131047619Y-29166666D01*
X131095238Y-29071428D01*
X131142857Y-29976190D02*
X131095238Y-30023809D01*
X131047619Y-29976190D01*
X131095238Y-29928571D01*
X131142857Y-29976190D01*
X131047619Y-29976190D01*
X131095238Y-30880952D02*
X131047619Y-30785714D01*
X131047619Y-30595238D01*
X131095238Y-30500000D01*
X131142857Y-30452380D01*
X131238095Y-30404761D01*
X131523809Y-30404761D01*
X131619047Y-30452380D01*
X131666666Y-30500000D01*
X131714285Y-30595238D01*
X131714285Y-30785714D01*
X131666666Y-30880952D01*
X131047619Y-31452380D02*
X131095238Y-31357142D01*
X131142857Y-31309523D01*
X131238095Y-31261904D01*
X131523809Y-31261904D01*
X131619047Y-31309523D01*
X131666666Y-31357142D01*
X131714285Y-31452380D01*
X131714285Y-31595238D01*
X131666666Y-31690476D01*
X131619047Y-31738095D01*
X131523809Y-31785714D01*
X131238095Y-31785714D01*
X131142857Y-31738095D01*
X131095238Y-31690476D01*
X131047619Y-31595238D01*
X131047619Y-31452380D01*
X131047619Y-32214285D02*
X131714285Y-32214285D01*
X131619047Y-32214285D02*
X131666666Y-32261904D01*
X131714285Y-32357142D01*
X131714285Y-32500000D01*
X131666666Y-32595238D01*
X131571428Y-32642857D01*
X131047619Y-32642857D01*
X131571428Y-32642857D02*
X131666666Y-32690476D01*
X131714285Y-32785714D01*
X131714285Y-32928571D01*
X131666666Y-33023809D01*
X131571428Y-33071428D01*
X131047619Y-33071428D01*
X132095238Y-34261904D02*
X130809523Y-33404761D01*
X131047619Y-34500000D02*
X131714285Y-35023809D01*
X131714285Y-34500000D02*
X131047619Y-35023809D01*
X131714285Y-35261904D02*
X131714285Y-35642857D01*
X131047619Y-35404761D02*
X131904761Y-35404761D01*
X132000000Y-35452380D01*
X132047619Y-35547619D01*
X132047619Y-35642857D01*
X131047619Y-35976190D02*
X132047619Y-35976190D01*
X131666666Y-35976190D02*
X131714285Y-36071428D01*
X131714285Y-36261904D01*
X131666666Y-36357142D01*
X131619047Y-36404761D01*
X131523809Y-36452380D01*
X131238095Y-36452380D01*
X131142857Y-36404761D01*
X131095238Y-36357142D01*
X131047619Y-36261904D01*
X131047619Y-36071428D01*
X131095238Y-35976190D01*
X131095238Y-36833333D02*
X131047619Y-36928571D01*
X131047619Y-37119047D01*
X131095238Y-37214285D01*
X131190476Y-37261904D01*
X131238095Y-37261904D01*
X131333333Y-37214285D01*
X131380952Y-37119047D01*
X131380952Y-36976190D01*
X131428571Y-36880952D01*
X131523809Y-36833333D01*
X131571428Y-36833333D01*
X131666666Y-36880952D01*
X131714285Y-36976190D01*
X131714285Y-37119047D01*
X131666666Y-37214285D01*
X132095238Y-38404761D02*
X130809523Y-37547619D01*
X131047619Y-39166666D02*
X131571428Y-39166666D01*
X131666666Y-39119047D01*
X131714285Y-39023809D01*
X131714285Y-38833333D01*
X131666666Y-38738095D01*
X131095238Y-39166666D02*
X131047619Y-39071428D01*
X131047619Y-38833333D01*
X131095238Y-38738095D01*
X131190476Y-38690476D01*
X131285714Y-38690476D01*
X131380952Y-38738095D01*
X131428571Y-38833333D01*
X131428571Y-39071428D01*
X131476190Y-39166666D01*
X131714285Y-40071428D02*
X131047619Y-40071428D01*
X131714285Y-39642857D02*
X131190476Y-39642857D01*
X131095238Y-39690476D01*
X131047619Y-39785714D01*
X131047619Y-39928571D01*
X131095238Y-40023809D01*
X131142857Y-40071428D01*
X131047619Y-40976190D02*
X132047619Y-40976190D01*
X131095238Y-40976190D02*
X131047619Y-40880952D01*
X131047619Y-40690476D01*
X131095238Y-40595238D01*
X131142857Y-40547619D01*
X131238095Y-40500000D01*
X131523809Y-40500000D01*
X131619047Y-40547619D01*
X131666666Y-40595238D01*
X131714285Y-40690476D01*
X131714285Y-40880952D01*
X131666666Y-40976190D01*
X131047619Y-41452380D02*
X131714285Y-41452380D01*
X132047619Y-41452380D02*
X132000000Y-41404761D01*
X131952380Y-41452380D01*
X132000000Y-41500000D01*
X132047619Y-41452380D01*
X131952380Y-41452380D01*
X131047619Y-42071428D02*
X131095238Y-41976190D01*
X131142857Y-41928571D01*
X131238095Y-41880952D01*
X131523809Y-41880952D01*
X131619047Y-41928571D01*
X131666666Y-41976190D01*
X131714285Y-42071428D01*
X131714285Y-42214285D01*
X131666666Y-42309523D01*
X131619047Y-42357142D01*
X131523809Y-42404761D01*
X131238095Y-42404761D01*
X131142857Y-42357142D01*
X131095238Y-42309523D01*
X131047619Y-42214285D01*
X131047619Y-42071428D01*
X131428571Y-42833333D02*
X131428571Y-43595238D01*
X131047619Y-44071428D02*
X131714285Y-44071428D01*
X131619047Y-44071428D02*
X131666666Y-44119047D01*
X131714285Y-44214285D01*
X131714285Y-44357142D01*
X131666666Y-44452380D01*
X131571428Y-44500000D01*
X131047619Y-44500000D01*
X131571428Y-44500000D02*
X131666666Y-44547619D01*
X131714285Y-44642857D01*
X131714285Y-44785714D01*
X131666666Y-44880952D01*
X131571428Y-44928571D01*
X131047619Y-44928571D01*
X131047619Y-45404761D02*
X131714285Y-45404761D01*
X132047619Y-45404761D02*
X132000000Y-45357142D01*
X131952380Y-45404761D01*
X132000000Y-45452380D01*
X132047619Y-45404761D01*
X131952380Y-45404761D01*
X131047619Y-45785714D02*
X131714285Y-46309523D01*
X131714285Y-45785714D02*
X131047619Y-46309523D01*
X131095238Y-47071428D02*
X131047619Y-46976190D01*
X131047619Y-46785714D01*
X131095238Y-46690476D01*
X131190476Y-46642857D01*
X131571428Y-46642857D01*
X131666666Y-46690476D01*
X131714285Y-46785714D01*
X131714285Y-46976190D01*
X131666666Y-47071428D01*
X131571428Y-47119047D01*
X131476190Y-47119047D01*
X131380952Y-46642857D01*
X131047619Y-47547619D02*
X131714285Y-47547619D01*
X131523809Y-47547619D02*
X131619047Y-47595238D01*
X131666666Y-47642857D01*
X131714285Y-47738095D01*
X131714285Y-47833333D01*
X131714285Y-51369047D02*
X131047619Y-51607142D01*
X131714285Y-51845238D01*
X131952380Y-52178571D02*
X132000000Y-52226190D01*
X132047619Y-52321428D01*
X132047619Y-52559523D01*
X132000000Y-52654761D01*
X131952380Y-52702380D01*
X131857142Y-52750000D01*
X131761904Y-52750000D01*
X131619047Y-52702380D01*
X131047619Y-52130952D01*
X131047619Y-52750000D01*
X131428571Y-53178571D02*
X131428571Y-53940476D01*
X131952380Y-54369047D02*
X132000000Y-54416666D01*
X132047619Y-54511904D01*
X132047619Y-54750000D01*
X132000000Y-54845238D01*
X131952380Y-54892857D01*
X131857142Y-54940476D01*
X131761904Y-54940476D01*
X131619047Y-54892857D01*
X131047619Y-54321428D01*
X131047619Y-54940476D01*
X132047619Y-55559523D02*
X132047619Y-55654761D01*
X132000000Y-55750000D01*
X131952380Y-55797619D01*
X131857142Y-55845238D01*
X131666666Y-55892857D01*
X131428571Y-55892857D01*
X131238095Y-55845238D01*
X131142857Y-55797619D01*
X131095238Y-55750000D01*
X131047619Y-55654761D01*
X131047619Y-55559523D01*
X131095238Y-55464285D01*
X131142857Y-55416666D01*
X131238095Y-55369047D01*
X131428571Y-55321428D01*
X131666666Y-55321428D01*
X131857142Y-55369047D01*
X131952380Y-55416666D01*
X132000000Y-55464285D01*
X132047619Y-55559523D01*
X131047619Y-56845238D02*
X131047619Y-56273809D01*
X131047619Y-56559523D02*
X132047619Y-56559523D01*
X131904761Y-56464285D01*
X131809523Y-56369047D01*
X131761904Y-56273809D01*
X131047619Y-57321428D02*
X131047619Y-57511904D01*
X131095238Y-57607142D01*
X131142857Y-57654761D01*
X131285714Y-57750000D01*
X131476190Y-57797619D01*
X131857142Y-57797619D01*
X131952380Y-57750000D01*
X132000000Y-57702380D01*
X132047619Y-57607142D01*
X132047619Y-57416666D01*
X132000000Y-57321428D01*
X131952380Y-57273809D01*
X131857142Y-57226190D01*
X131619047Y-57226190D01*
X131523809Y-57273809D01*
X131476190Y-57321428D01*
X131428571Y-57416666D01*
X131428571Y-57607142D01*
X131476190Y-57702380D01*
X131523809Y-57750000D01*
X131619047Y-57797619D01*
X131428571Y-58226190D02*
X131428571Y-58988095D01*
X131047619Y-59988095D02*
X131047619Y-59416666D01*
X131047619Y-59702380D02*
X132047619Y-59702380D01*
X131904761Y-59607142D01*
X131809523Y-59511904D01*
X131761904Y-59416666D01*
X131047619Y-60940476D02*
X131047619Y-60369047D01*
X131047619Y-60654761D02*
X132047619Y-60654761D01*
X131904761Y-60559523D01*
X131809523Y-60464285D01*
X131761904Y-60369047D01*
X131428571Y-61369047D02*
X131428571Y-62130952D01*
X131952380Y-62559523D02*
X132000000Y-62607142D01*
X132047619Y-62702380D01*
X132047619Y-62940476D01*
X132000000Y-63035714D01*
X131952380Y-63083333D01*
X131857142Y-63130952D01*
X131761904Y-63130952D01*
X131619047Y-63083333D01*
X131047619Y-62511904D01*
X131047619Y-63130952D01*
X131714285Y-63988095D02*
X131047619Y-63988095D01*
X132095238Y-63750000D02*
X131380952Y-63511904D01*
X131380952Y-64130952D01*
D11*
X81200000Y-110100000D02*
X80600000Y-110100000D01*
X80600000Y-110100000D02*
X80600000Y-108900000D01*
X94200000Y-110100000D02*
X94800000Y-110100000D01*
X94800000Y-110100000D02*
X94800000Y-108700000D01*
X94200000Y-97900000D02*
X94800000Y-97900000D01*
X94800000Y-97900000D02*
X94800000Y-99400000D01*
X81900000Y-97900000D02*
X81500000Y-97900000D01*
X81500000Y-97900000D02*
X80600000Y-98800000D01*
X80600000Y-98800000D02*
X80600000Y-99100000D01*
X80600000Y-99100000D02*
X80400000Y-99100000D01*
D12*
X97290000Y-102741422D02*
X97290000Y-103258578D01*
X98710000Y-102741422D02*
X98710000Y-103258578D01*
X104258578Y-101790000D02*
X103741422Y-101790000D01*
X104258578Y-103210000D02*
X103741422Y-103210000D01*
X98710000Y-107258578D02*
X98710000Y-106741422D01*
X97290000Y-107258578D02*
X97290000Y-106741422D01*
X105710000Y-107258578D02*
X105710000Y-106741422D01*
X104290000Y-107258578D02*
X104290000Y-106741422D01*
X105710000Y-91233578D02*
X105710000Y-90716422D01*
X104290000Y-91233578D02*
X104290000Y-90716422D01*
X98710000Y-91233578D02*
X98710000Y-90716422D01*
X97290000Y-91233578D02*
X97290000Y-90716422D01*
X104290000Y-86741422D02*
X104290000Y-87258578D01*
X105710000Y-86741422D02*
X105710000Y-87258578D01*
X97290000Y-86741422D02*
X97290000Y-87258578D01*
X98710000Y-86741422D02*
X98710000Y-87258578D01*
X114647936Y-110360000D02*
X115852064Y-110360000D01*
X114647936Y-107640000D02*
X115852064Y-107640000D01*
D13*
X97875000Y-69002000D02*
X97875000Y-74899000D01*
X97875000Y-62504000D02*
X97875000Y-67500000D01*
X97875000Y-55099000D02*
X97875000Y-60900000D01*
X97875000Y-48602000D02*
X97875000Y-53404000D01*
X97875000Y-41100000D02*
X97875000Y-46901000D01*
X97875000Y-34801000D02*
X97875000Y-39399000D01*
X97875000Y-27197000D02*
X97875000Y-32799000D01*
X97875000Y-23002000D02*
X97875000Y-25298000D01*
X97875000Y-78998000D02*
X95000000Y-78998000D01*
X84174000Y-78998000D02*
X90799000Y-78998000D01*
X95000000Y-23002000D02*
X97875000Y-23002000D01*
X84174000Y-23002000D02*
X90799000Y-23002000D01*
X84174000Y-24997000D02*
X84174000Y-23002000D01*
X82974000Y-24997000D02*
X84174000Y-24997000D01*
X84174000Y-63003000D02*
X84174000Y-67001000D01*
X84174000Y-48998000D02*
X84174000Y-53002000D01*
X84174000Y-34999000D02*
X84174000Y-39002000D01*
X97875000Y-76498000D02*
X97875000Y-78998000D01*
X82974000Y-76997000D02*
X84174000Y-76997000D01*
X82974000Y-67001000D02*
X84174000Y-67001000D01*
X82974000Y-63003000D02*
X84174000Y-63003000D01*
X82974000Y-53002000D02*
X84174000Y-53002000D01*
X84174000Y-76997000D02*
X84174000Y-78998000D01*
X82974000Y-34999000D02*
X84174000Y-34999000D01*
X82974000Y-39002000D02*
X84174000Y-39002000D01*
X82974000Y-48998000D02*
X84174000Y-48998000D01*
X82974000Y-76152000D02*
X82974000Y-76997000D01*
X82974000Y-67851000D02*
X82974000Y-67001000D01*
X82974000Y-25848000D02*
X82974000Y-24997000D01*
X82974000Y-34149000D02*
X82974000Y-34999000D01*
X82974000Y-39853000D02*
X82974000Y-39002000D01*
X82974000Y-48148000D02*
X82974000Y-48998000D01*
X82974000Y-62147000D02*
X82974000Y-63003000D01*
X82974000Y-53852000D02*
X82974000Y-53002000D01*
X75975000Y-25848000D02*
X82974000Y-25848000D01*
X75975000Y-34149000D02*
X82974000Y-34149000D01*
X75975000Y-39853000D02*
X82974000Y-39853000D01*
X75975000Y-48148000D02*
X82974000Y-48148000D01*
X75975000Y-76152000D02*
X82974000Y-76152000D01*
X75975000Y-67851000D02*
X82974000Y-67851000D01*
X75975000Y-62147000D02*
X82974000Y-62147000D01*
X75975000Y-53852000D02*
X82974000Y-53852000D01*
X75975000Y-25848000D02*
X75975000Y-34149000D01*
X75975000Y-67851000D02*
X75975000Y-76152000D01*
X75975000Y-53852000D02*
X75975000Y-62147000D01*
X75975000Y-39853000D02*
X75975000Y-48148000D01*
X82600000Y-93350000D02*
X82600000Y-92550000D01*
X83748000Y-93350000D02*
X82600000Y-93350000D01*
X82600000Y-83149000D02*
X82600000Y-83949000D01*
X75950000Y-92399000D02*
X82600000Y-92399000D01*
X75950000Y-84100000D02*
X75950000Y-92399000D01*
X82600000Y-84100000D02*
X75950000Y-84100000D01*
X83750000Y-80251000D02*
X83750000Y-83149000D01*
X83750000Y-100250000D02*
X83750000Y-93350000D01*
X95248000Y-100250000D02*
X83750000Y-100250000D01*
X89250000Y-80251000D02*
X83750000Y-80251000D01*
X83748000Y-83149000D02*
X82600000Y-83149000D01*
X95248000Y-85551000D02*
X95248000Y-100250000D01*
X95248000Y-80251000D02*
X95248000Y-82849000D01*
X93250000Y-80251000D02*
X95250000Y-80251000D01*
D12*
X100250000Y-65690000D02*
X100250000Y-66190000D01*
X100000000Y-65940000D02*
X100500000Y-65940000D01*
X100740000Y-68695563D02*
X101804437Y-69760000D01*
X100740000Y-66304437D02*
X101804437Y-65240000D01*
X100740000Y-66304437D02*
X100740000Y-66440000D01*
X100740000Y-68695563D02*
X100740000Y-68560000D01*
X101804437Y-69760000D02*
X105260000Y-69760000D01*
X101804437Y-65240000D02*
X105260000Y-65240000D01*
X105260000Y-65240000D02*
X105260000Y-66440000D01*
X105260000Y-69760000D02*
X105260000Y-68560000D01*
X100250000Y-72190000D02*
X100250000Y-72690000D01*
X100000000Y-72440000D02*
X100500000Y-72440000D01*
X100740000Y-75195563D02*
X101804437Y-76260000D01*
X100740000Y-72804437D02*
X101804437Y-71740000D01*
X100740000Y-72804437D02*
X100740000Y-72940000D01*
X100740000Y-75195563D02*
X100740000Y-75060000D01*
X101804437Y-76260000D02*
X105260000Y-76260000D01*
X101804437Y-71740000D02*
X105260000Y-71740000D01*
X105260000Y-71740000D02*
X105260000Y-72940000D01*
X105260000Y-76260000D02*
X105260000Y-75060000D01*
X100250000Y-50190000D02*
X100250000Y-50690000D01*
X100000000Y-50440000D02*
X100500000Y-50440000D01*
X100740000Y-53195563D02*
X101804437Y-54260000D01*
X100740000Y-50804437D02*
X101804437Y-49740000D01*
X100740000Y-50804437D02*
X100740000Y-50940000D01*
X100740000Y-53195563D02*
X100740000Y-53060000D01*
X101804437Y-54260000D02*
X105260000Y-54260000D01*
X101804437Y-49740000D02*
X105260000Y-49740000D01*
X105260000Y-49740000D02*
X105260000Y-50940000D01*
X105260000Y-54260000D02*
X105260000Y-53060000D01*
X100250000Y-56690000D02*
X100250000Y-57190000D01*
X100000000Y-56940000D02*
X100500000Y-56940000D01*
X100740000Y-59695563D02*
X101804437Y-60760000D01*
X100740000Y-57304437D02*
X101804437Y-56240000D01*
X100740000Y-57304437D02*
X100740000Y-57440000D01*
X100740000Y-59695563D02*
X100740000Y-59560000D01*
X101804437Y-60760000D02*
X105260000Y-60760000D01*
X101804437Y-56240000D02*
X105260000Y-56240000D01*
X105260000Y-56240000D02*
X105260000Y-57440000D01*
X105260000Y-60760000D02*
X105260000Y-59560000D01*
X100250000Y-34690000D02*
X100250000Y-35190000D01*
X100000000Y-34940000D02*
X100500000Y-34940000D01*
X100740000Y-37695563D02*
X101804437Y-38760000D01*
X100740000Y-35304437D02*
X101804437Y-34240000D01*
X100740000Y-35304437D02*
X100740000Y-35440000D01*
X100740000Y-37695563D02*
X100740000Y-37560000D01*
X101804437Y-38760000D02*
X105260000Y-38760000D01*
X101804437Y-34240000D02*
X105260000Y-34240000D01*
X105260000Y-34240000D02*
X105260000Y-35440000D01*
X105260000Y-38760000D02*
X105260000Y-37560000D01*
X100250000Y-41190000D02*
X100250000Y-41690000D01*
X100000000Y-41440000D02*
X100500000Y-41440000D01*
X100740000Y-44195563D02*
X101804437Y-45260000D01*
X100740000Y-41804437D02*
X101804437Y-40740000D01*
X100740000Y-41804437D02*
X100740000Y-41940000D01*
X100740000Y-44195563D02*
X100740000Y-44060000D01*
X101804437Y-45260000D02*
X105260000Y-45260000D01*
X101804437Y-40740000D02*
X105260000Y-40740000D01*
X105260000Y-40740000D02*
X105260000Y-41940000D01*
X105260000Y-45260000D02*
X105260000Y-44060000D01*
X100250000Y-19190000D02*
X100250000Y-19690000D01*
X100000000Y-19440000D02*
X100500000Y-19440000D01*
X100740000Y-22195563D02*
X101804437Y-23260000D01*
X100740000Y-19804437D02*
X101804437Y-18740000D01*
X100740000Y-19804437D02*
X100740000Y-19940000D01*
X100740000Y-22195563D02*
X100740000Y-22060000D01*
X101804437Y-23260000D02*
X105260000Y-23260000D01*
X101804437Y-18740000D02*
X105260000Y-18740000D01*
X105260000Y-18740000D02*
X105260000Y-19940000D01*
X105260000Y-23260000D02*
X105260000Y-22060000D01*
X100250000Y-25690000D02*
X100250000Y-26190000D01*
X100000000Y-25940000D02*
X100500000Y-25940000D01*
X100740000Y-28695563D02*
X101804437Y-29760000D01*
X100740000Y-26304437D02*
X101804437Y-25240000D01*
X100740000Y-26304437D02*
X100740000Y-26440000D01*
X100740000Y-28695563D02*
X100740000Y-28560000D01*
X101804437Y-29760000D02*
X105260000Y-29760000D01*
X101804437Y-25240000D02*
X105260000Y-25240000D01*
X105260000Y-25240000D02*
X105260000Y-26440000D01*
X105260000Y-29760000D02*
X105260000Y-28560000D01*
X126190000Y-87750000D02*
X126690000Y-87750000D01*
X126440000Y-88000000D02*
X126440000Y-87500000D01*
X129195563Y-87260000D02*
X130260000Y-86195563D01*
X126804437Y-87260000D02*
X125740000Y-86195563D01*
X126804437Y-87260000D02*
X126940000Y-87260000D01*
X129195563Y-87260000D02*
X129060000Y-87260000D01*
X130260000Y-86195563D02*
X130260000Y-82740000D01*
X125740000Y-86195563D02*
X125740000Y-82740000D01*
X125740000Y-82740000D02*
X126940000Y-82740000D01*
X130260000Y-82740000D02*
X129060000Y-82740000D01*
X114250000Y-115810000D02*
X114250000Y-115310000D01*
X114500000Y-115560000D02*
X114000000Y-115560000D01*
X113760000Y-112804437D02*
X112695563Y-111740000D01*
X113760000Y-115195563D02*
X112695563Y-116260000D01*
X113760000Y-115195563D02*
X113760000Y-115060000D01*
X113760000Y-112804437D02*
X113760000Y-112940000D01*
X112695563Y-111740000D02*
X109240000Y-111740000D01*
X112695563Y-116260000D02*
X109240000Y-116260000D01*
X109240000Y-116260000D02*
X109240000Y-115060000D01*
X109240000Y-111740000D02*
X109240000Y-112940000D01*
X97065000Y-97000000D02*
X97065000Y-100450000D01*
X97065000Y-97000000D02*
X97065000Y-95050000D01*
X105935000Y-97000000D02*
X105935000Y-98950000D01*
X105935000Y-97000000D02*
X105935000Y-95050000D01*
X128935000Y-57000000D02*
X128935000Y-53550000D01*
X128935000Y-57000000D02*
X128935000Y-58950000D01*
X120065000Y-57000000D02*
X120065000Y-55050000D01*
X120065000Y-57000000D02*
X120065000Y-58950000D01*
X128935000Y-26000000D02*
X128935000Y-22550000D01*
X128935000Y-26000000D02*
X128935000Y-27950000D01*
X120065000Y-26000000D02*
X120065000Y-24050000D01*
X120065000Y-26000000D02*
X120065000Y-27950000D01*
X125710000Y-71321078D02*
X125710000Y-70803922D01*
X124290000Y-71321078D02*
X124290000Y-70803922D01*
X127710000Y-71321078D02*
X127710000Y-70803922D01*
X126290000Y-71321078D02*
X126290000Y-70803922D01*
X125710000Y-40196078D02*
X125710000Y-39678922D01*
X124290000Y-40196078D02*
X124290000Y-39678922D01*
X127710000Y-40196078D02*
X127710000Y-39678922D01*
X126290000Y-40196078D02*
X126290000Y-39678922D01*
X123710000Y-71258578D02*
X123710000Y-70741422D01*
X122290000Y-71258578D02*
X122290000Y-70741422D01*
X121710000Y-71258578D02*
X121710000Y-70741422D01*
X120290000Y-71258578D02*
X120290000Y-70741422D01*
X123710000Y-40196078D02*
X123710000Y-39678922D01*
X122290000Y-40196078D02*
X122290000Y-39678922D01*
X121710000Y-40196078D02*
X121710000Y-39678922D01*
X120290000Y-40196078D02*
X120290000Y-39678922D01*
X112696078Y-70790000D02*
X112178922Y-70790000D01*
X112696078Y-72210000D02*
X112178922Y-72210000D01*
X112696078Y-76790000D02*
X112178922Y-76790000D01*
X112696078Y-78210000D02*
X112178922Y-78210000D01*
X112696078Y-55290000D02*
X112178922Y-55290000D01*
X112696078Y-56710000D02*
X112178922Y-56710000D01*
X112696078Y-61290000D02*
X112178922Y-61290000D01*
X112696078Y-62710000D02*
X112178922Y-62710000D01*
X112696078Y-39790000D02*
X112178922Y-39790000D01*
X112696078Y-41210000D02*
X112178922Y-41210000D01*
X112696078Y-45790000D02*
X112178922Y-45790000D01*
X112696078Y-47210000D02*
X112178922Y-47210000D01*
X112696078Y-24290000D02*
X112178922Y-24290000D01*
X112696078Y-25710000D02*
X112178922Y-25710000D01*
X112696078Y-30290000D02*
X112178922Y-30290000D01*
X112696078Y-31710000D02*
X112178922Y-31710000D01*
X102210000Y-87196078D02*
X102210000Y-86678922D01*
X100790000Y-87196078D02*
X100790000Y-86678922D01*
X125210000Y-20258578D02*
X125210000Y-19741422D01*
X123790000Y-20258578D02*
X123790000Y-19741422D01*
X123790000Y-62803922D02*
X123790000Y-63321078D01*
X125210000Y-62803922D02*
X125210000Y-63321078D01*
X100790000Y-106741422D02*
X100790000Y-107258578D01*
X102210000Y-106741422D02*
X102210000Y-107258578D01*
X112696078Y-72790000D02*
X112178922Y-72790000D01*
X112696078Y-74210000D02*
X112178922Y-74210000D01*
X112696078Y-74790000D02*
X112178922Y-74790000D01*
X112696078Y-76210000D02*
X112178922Y-76210000D01*
X112696078Y-57290000D02*
X112178922Y-57290000D01*
X112696078Y-58710000D02*
X112178922Y-58710000D01*
X112696078Y-59290000D02*
X112178922Y-59290000D01*
X112696078Y-60710000D02*
X112178922Y-60710000D01*
X112696078Y-41790000D02*
X112178922Y-41790000D01*
X112696078Y-43210000D02*
X112178922Y-43210000D01*
X112696078Y-43790000D02*
X112178922Y-43790000D01*
X112696078Y-45210000D02*
X112178922Y-45210000D01*
X112696078Y-26290000D02*
X112178922Y-26290000D01*
X112696078Y-27710000D02*
X112178922Y-27710000D01*
X112696078Y-28290000D02*
X112178922Y-28290000D01*
X112696078Y-29710000D02*
X112178922Y-29710000D01*
X123790000Y-31803922D02*
X123790000Y-32321078D01*
X125210000Y-31803922D02*
X125210000Y-32321078D01*
X125210000Y-51196078D02*
X125210000Y-50678922D01*
X123790000Y-51196078D02*
X123790000Y-50678922D01*
X122008578Y-104540000D02*
X121491422Y-104540000D01*
X122008578Y-105960000D02*
X121491422Y-105960000D01*
X121491422Y-108210000D02*
X122008578Y-108210000D01*
X121491422Y-106790000D02*
X122008578Y-106790000D01*
D14*
X129800000Y-88600000D02*
G75*
G03X129800000Y-88600000I-100000J0D01*
G01*
D15*
X130400000Y-102500000D02*
X130400000Y-104360000D01*
X130400000Y-99960000D02*
X130400000Y-101820000D01*
X130400000Y-93070000D02*
X130400000Y-94200000D01*
X130400000Y-105040000D02*
X130400000Y-108940000D01*
X130400000Y-94880000D02*
X130400000Y-99280000D01*
X130400000Y-89290000D02*
X130400000Y-90930000D01*
X124400000Y-108940000D02*
X124400000Y-89290000D01*
X124400000Y-108940000D02*
X130400000Y-108940000D01*
X130400000Y-89290000D02*
X124400000Y-89290000D01*
X104300000Y-116600000D02*
X104300000Y-116900000D01*
X96700000Y-116600000D02*
X96700000Y-116900000D01*
X104300000Y-114400000D02*
X104300000Y-114000000D01*
X96700000Y-114000000D02*
X96700000Y-114400000D01*
X96700000Y-116950000D02*
X104300000Y-116950000D01*
D14*
X98600000Y-112000000D02*
G75*
G03X98600000Y-112000000I-100000J0D01*
G01*
D10*
X88166666Y-96452380D02*
X88166666Y-97166666D01*
X88119047Y-97309523D01*
X88023809Y-97404761D01*
X87880952Y-97452380D01*
X87785714Y-97452380D01*
X89071428Y-96785714D02*
X89071428Y-97452380D01*
X88833333Y-96404761D02*
X88595238Y-97119047D01*
X89214285Y-97119047D01*
X100102380Y-103642857D02*
X99626190Y-103976190D01*
X100102380Y-104214285D02*
X99102380Y-104214285D01*
X99102380Y-103833333D01*
X99150000Y-103738095D01*
X99197619Y-103690476D01*
X99292857Y-103642857D01*
X99435714Y-103642857D01*
X99530952Y-103690476D01*
X99578571Y-103738095D01*
X99626190Y-103833333D01*
X99626190Y-104214285D01*
X99197619Y-103261904D02*
X99150000Y-103214285D01*
X99102380Y-103119047D01*
X99102380Y-102880952D01*
X99150000Y-102785714D01*
X99197619Y-102738095D01*
X99292857Y-102690476D01*
X99388095Y-102690476D01*
X99530952Y-102738095D01*
X100102380Y-103309523D01*
X100102380Y-102690476D01*
X99435714Y-101833333D02*
X100102380Y-101833333D01*
X99054761Y-102071428D02*
X99769047Y-102309523D01*
X99769047Y-101690476D01*
X103357142Y-104602380D02*
X103023809Y-104126190D01*
X102785714Y-104602380D02*
X102785714Y-103602380D01*
X103166666Y-103602380D01*
X103261904Y-103650000D01*
X103309523Y-103697619D01*
X103357142Y-103792857D01*
X103357142Y-103935714D01*
X103309523Y-104030952D01*
X103261904Y-104078571D01*
X103166666Y-104126190D01*
X102785714Y-104126190D01*
X103738095Y-103697619D02*
X103785714Y-103650000D01*
X103880952Y-103602380D01*
X104119047Y-103602380D01*
X104214285Y-103650000D01*
X104261904Y-103697619D01*
X104309523Y-103792857D01*
X104309523Y-103888095D01*
X104261904Y-104030952D01*
X103690476Y-104602380D01*
X104309523Y-104602380D01*
X104642857Y-103602380D02*
X105261904Y-103602380D01*
X104928571Y-103983333D01*
X105071428Y-103983333D01*
X105166666Y-104030952D01*
X105214285Y-104078571D01*
X105261904Y-104173809D01*
X105261904Y-104411904D01*
X105214285Y-104507142D01*
X105166666Y-104554761D01*
X105071428Y-104602380D01*
X104785714Y-104602380D01*
X104690476Y-104554761D01*
X104642857Y-104507142D01*
X96802380Y-107642857D02*
X96326190Y-107976190D01*
X96802380Y-108214285D02*
X95802380Y-108214285D01*
X95802380Y-107833333D01*
X95850000Y-107738095D01*
X95897619Y-107690476D01*
X95992857Y-107642857D01*
X96135714Y-107642857D01*
X96230952Y-107690476D01*
X96278571Y-107738095D01*
X96326190Y-107833333D01*
X96326190Y-108214285D01*
X95897619Y-107261904D02*
X95850000Y-107214285D01*
X95802380Y-107119047D01*
X95802380Y-106880952D01*
X95850000Y-106785714D01*
X95897619Y-106738095D01*
X95992857Y-106690476D01*
X96088095Y-106690476D01*
X96230952Y-106738095D01*
X96802380Y-107309523D01*
X96802380Y-106690476D01*
X95897619Y-106309523D02*
X95850000Y-106261904D01*
X95802380Y-106166666D01*
X95802380Y-105928571D01*
X95850000Y-105833333D01*
X95897619Y-105785714D01*
X95992857Y-105738095D01*
X96088095Y-105738095D01*
X96230952Y-105785714D01*
X96802380Y-106357142D01*
X96802380Y-105738095D01*
X103802380Y-107642857D02*
X103326190Y-107976190D01*
X103802380Y-108214285D02*
X102802380Y-108214285D01*
X102802380Y-107833333D01*
X102850000Y-107738095D01*
X102897619Y-107690476D01*
X102992857Y-107642857D01*
X103135714Y-107642857D01*
X103230952Y-107690476D01*
X103278571Y-107738095D01*
X103326190Y-107833333D01*
X103326190Y-108214285D01*
X102897619Y-107261904D02*
X102850000Y-107214285D01*
X102802380Y-107119047D01*
X102802380Y-106880952D01*
X102850000Y-106785714D01*
X102897619Y-106738095D01*
X102992857Y-106690476D01*
X103088095Y-106690476D01*
X103230952Y-106738095D01*
X103802380Y-107309523D01*
X103802380Y-106690476D01*
X103802380Y-105738095D02*
X103802380Y-106309523D01*
X103802380Y-106023809D02*
X102802380Y-106023809D01*
X102945238Y-106119047D01*
X103040476Y-106214285D01*
X103088095Y-106309523D01*
X103802380Y-91617857D02*
X103326190Y-91951190D01*
X103802380Y-92189285D02*
X102802380Y-92189285D01*
X102802380Y-91808333D01*
X102850000Y-91713095D01*
X102897619Y-91665476D01*
X102992857Y-91617857D01*
X103135714Y-91617857D01*
X103230952Y-91665476D01*
X103278571Y-91713095D01*
X103326190Y-91808333D01*
X103326190Y-92189285D01*
X102897619Y-91236904D02*
X102850000Y-91189285D01*
X102802380Y-91094047D01*
X102802380Y-90855952D01*
X102850000Y-90760714D01*
X102897619Y-90713095D01*
X102992857Y-90665476D01*
X103088095Y-90665476D01*
X103230952Y-90713095D01*
X103802380Y-91284523D01*
X103802380Y-90665476D01*
X102802380Y-90046428D02*
X102802380Y-89951190D01*
X102850000Y-89855952D01*
X102897619Y-89808333D01*
X102992857Y-89760714D01*
X103183333Y-89713095D01*
X103421428Y-89713095D01*
X103611904Y-89760714D01*
X103707142Y-89808333D01*
X103754761Y-89855952D01*
X103802380Y-89951190D01*
X103802380Y-90046428D01*
X103754761Y-90141666D01*
X103707142Y-90189285D01*
X103611904Y-90236904D01*
X103421428Y-90284523D01*
X103183333Y-90284523D01*
X102992857Y-90236904D01*
X102897619Y-90189285D01*
X102850000Y-90141666D01*
X102802380Y-90046428D01*
X96802380Y-91617857D02*
X96326190Y-91951190D01*
X96802380Y-92189285D02*
X95802380Y-92189285D01*
X95802380Y-91808333D01*
X95850000Y-91713095D01*
X95897619Y-91665476D01*
X95992857Y-91617857D01*
X96135714Y-91617857D01*
X96230952Y-91665476D01*
X96278571Y-91713095D01*
X96326190Y-91808333D01*
X96326190Y-92189285D01*
X96802380Y-90665476D02*
X96802380Y-91236904D01*
X96802380Y-90951190D02*
X95802380Y-90951190D01*
X95945238Y-91046428D01*
X96040476Y-91141666D01*
X96088095Y-91236904D01*
X96802380Y-90189285D02*
X96802380Y-89998809D01*
X96754761Y-89903571D01*
X96707142Y-89855952D01*
X96564285Y-89760714D01*
X96373809Y-89713095D01*
X95992857Y-89713095D01*
X95897619Y-89760714D01*
X95850000Y-89808333D01*
X95802380Y-89903571D01*
X95802380Y-90094047D01*
X95850000Y-90189285D01*
X95897619Y-90236904D01*
X95992857Y-90284523D01*
X96230952Y-90284523D01*
X96326190Y-90236904D01*
X96373809Y-90189285D01*
X96421428Y-90094047D01*
X96421428Y-89903571D01*
X96373809Y-89808333D01*
X96326190Y-89760714D01*
X96230952Y-89713095D01*
X107102380Y-87642857D02*
X106626190Y-87976190D01*
X107102380Y-88214285D02*
X106102380Y-88214285D01*
X106102380Y-87833333D01*
X106150000Y-87738095D01*
X106197619Y-87690476D01*
X106292857Y-87642857D01*
X106435714Y-87642857D01*
X106530952Y-87690476D01*
X106578571Y-87738095D01*
X106626190Y-87833333D01*
X106626190Y-88214285D01*
X107102380Y-86690476D02*
X107102380Y-87261904D01*
X107102380Y-86976190D02*
X106102380Y-86976190D01*
X106245238Y-87071428D01*
X106340476Y-87166666D01*
X106388095Y-87261904D01*
X106530952Y-86119047D02*
X106483333Y-86214285D01*
X106435714Y-86261904D01*
X106340476Y-86309523D01*
X106292857Y-86309523D01*
X106197619Y-86261904D01*
X106150000Y-86214285D01*
X106102380Y-86119047D01*
X106102380Y-85928571D01*
X106150000Y-85833333D01*
X106197619Y-85785714D01*
X106292857Y-85738095D01*
X106340476Y-85738095D01*
X106435714Y-85785714D01*
X106483333Y-85833333D01*
X106530952Y-85928571D01*
X106530952Y-86119047D01*
X106578571Y-86214285D01*
X106626190Y-86261904D01*
X106721428Y-86309523D01*
X106911904Y-86309523D01*
X107007142Y-86261904D01*
X107054761Y-86214285D01*
X107102380Y-86119047D01*
X107102380Y-85928571D01*
X107054761Y-85833333D01*
X107007142Y-85785714D01*
X106911904Y-85738095D01*
X106721428Y-85738095D01*
X106626190Y-85785714D01*
X106578571Y-85833333D01*
X106530952Y-85928571D01*
X100102380Y-87642857D02*
X99626190Y-87976190D01*
X100102380Y-88214285D02*
X99102380Y-88214285D01*
X99102380Y-87833333D01*
X99150000Y-87738095D01*
X99197619Y-87690476D01*
X99292857Y-87642857D01*
X99435714Y-87642857D01*
X99530952Y-87690476D01*
X99578571Y-87738095D01*
X99626190Y-87833333D01*
X99626190Y-88214285D01*
X100102380Y-86690476D02*
X100102380Y-87261904D01*
X100102380Y-86976190D02*
X99102380Y-86976190D01*
X99245238Y-87071428D01*
X99340476Y-87166666D01*
X99388095Y-87261904D01*
X99102380Y-86357142D02*
X99102380Y-85690476D01*
X100102380Y-86119047D01*
X115083333Y-107172380D02*
X114607142Y-107172380D01*
X114607142Y-106172380D01*
X115940476Y-107172380D02*
X115369047Y-107172380D01*
X115654761Y-107172380D02*
X115654761Y-106172380D01*
X115559523Y-106315238D01*
X115464285Y-106410476D01*
X115369047Y-106458095D01*
D16*
X92700000Y-50452380D02*
X92700000Y-51166666D01*
X92657142Y-51309523D01*
X92571428Y-51404761D01*
X92442857Y-51452380D01*
X92357142Y-51452380D01*
X93600000Y-51452380D02*
X93085714Y-51452380D01*
X93342857Y-51452380D02*
X93342857Y-50452380D01*
X93257142Y-50595238D01*
X93171428Y-50690476D01*
X93085714Y-50738095D01*
X88114285Y-51452380D02*
X88114285Y-50452380D01*
X88457142Y-50452380D01*
X88542857Y-50500000D01*
X88585714Y-50547619D01*
X88628571Y-50642857D01*
X88628571Y-50785714D01*
X88585714Y-50880952D01*
X88542857Y-50928571D01*
X88457142Y-50976190D01*
X88114285Y-50976190D01*
X89271428Y-50452380D02*
X89271428Y-51166666D01*
X89228571Y-51309523D01*
X89142857Y-51404761D01*
X89014285Y-51452380D01*
X88928571Y-51452380D01*
X90214285Y-51452380D02*
X89914285Y-50976190D01*
X89700000Y-51452380D02*
X89700000Y-50452380D01*
X90042857Y-50452380D01*
X90128571Y-50500000D01*
X90171428Y-50547619D01*
X90214285Y-50642857D01*
X90214285Y-50785714D01*
X90171428Y-50880952D01*
X90128571Y-50928571D01*
X90042857Y-50976190D01*
X89700000Y-50976190D01*
X90557142Y-51166666D02*
X90985714Y-51166666D01*
X90471428Y-51452380D02*
X90771428Y-50452380D01*
X91071428Y-51452380D01*
X91328571Y-51404761D02*
X91457142Y-51452380D01*
X91671428Y-51452380D01*
X91757142Y-51404761D01*
X91800000Y-51357142D01*
X91842857Y-51261904D01*
X91842857Y-51166666D01*
X91800000Y-51071428D01*
X91757142Y-51023809D01*
X91671428Y-50976190D01*
X91500000Y-50928571D01*
X91414285Y-50880952D01*
X91371428Y-50833333D01*
X91328571Y-50738095D01*
X91328571Y-50642857D01*
X91371428Y-50547619D01*
X91414285Y-50500000D01*
X91500000Y-50452380D01*
X91714285Y-50452380D01*
X91842857Y-50500000D01*
X92614285Y-50785714D02*
X92614285Y-51452380D01*
X92400000Y-50404761D02*
X92185714Y-51119047D01*
X92742857Y-51119047D01*
X93000000Y-50452380D02*
X93600000Y-51452380D01*
X93600000Y-50452380D02*
X93000000Y-51452380D01*
X93900000Y-50547619D02*
X93942857Y-50500000D01*
X94028571Y-50452380D01*
X94242857Y-50452380D01*
X94328571Y-50500000D01*
X94371428Y-50547619D01*
X94414285Y-50642857D01*
X94414285Y-50738095D01*
X94371428Y-50880952D01*
X93857142Y-51452380D01*
X94414285Y-51452380D01*
X94800000Y-50452380D02*
X94800000Y-51261904D01*
X94842857Y-51357142D01*
X94885714Y-51404761D01*
X94971428Y-51452380D01*
X95142857Y-51452380D01*
X95228571Y-51404761D01*
X95271428Y-51357142D01*
X95314285Y-51261904D01*
X95314285Y-50452380D01*
X95914285Y-50452380D02*
X96000000Y-50452380D01*
X96085714Y-50500000D01*
X96128571Y-50547619D01*
X96171428Y-50642857D01*
X96214285Y-50833333D01*
X96214285Y-51071428D01*
X96171428Y-51261904D01*
X96128571Y-51357142D01*
X96085714Y-51404761D01*
X96000000Y-51452380D01*
X95914285Y-51452380D01*
X95828571Y-51404761D01*
X95785714Y-51357142D01*
X95742857Y-51261904D01*
X95700000Y-51071428D01*
X95700000Y-50833333D01*
X95742857Y-50642857D01*
X95785714Y-50547619D01*
X95828571Y-50500000D01*
X95914285Y-50452380D01*
X97071428Y-51452380D02*
X96557142Y-51452380D01*
X96814285Y-51452380D02*
X96814285Y-50452380D01*
X96728571Y-50595238D01*
X96642857Y-50690476D01*
X96557142Y-50738095D01*
X97371428Y-50452380D02*
X97971428Y-51452380D01*
X97971428Y-50452380D02*
X97371428Y-51452380D01*
X92700000Y-87702380D02*
X92700000Y-88416666D01*
X92657142Y-88559523D01*
X92571428Y-88654761D01*
X92442857Y-88702380D01*
X92357142Y-88702380D01*
X93042857Y-87702380D02*
X93600000Y-87702380D01*
X93300000Y-88083333D01*
X93428571Y-88083333D01*
X93514285Y-88130952D01*
X93557142Y-88178571D01*
X93600000Y-88273809D01*
X93600000Y-88511904D01*
X93557142Y-88607142D01*
X93514285Y-88654761D01*
X93428571Y-88702380D01*
X93171428Y-88702380D01*
X93085714Y-88654761D01*
X93042857Y-88607142D01*
X90214285Y-88702380D02*
X89914285Y-88226190D01*
X89700000Y-88702380D02*
X89700000Y-87702380D01*
X90042857Y-87702380D01*
X90128571Y-87750000D01*
X90171428Y-87797619D01*
X90214285Y-87892857D01*
X90214285Y-88035714D01*
X90171428Y-88130952D01*
X90128571Y-88178571D01*
X90042857Y-88226190D01*
X89700000Y-88226190D01*
X91114285Y-88607142D02*
X91071428Y-88654761D01*
X90942857Y-88702380D01*
X90857142Y-88702380D01*
X90728571Y-88654761D01*
X90642857Y-88559523D01*
X90600000Y-88464285D01*
X90557142Y-88273809D01*
X90557142Y-88130952D01*
X90600000Y-87940476D01*
X90642857Y-87845238D01*
X90728571Y-87750000D01*
X90857142Y-87702380D01*
X90942857Y-87702380D01*
X91071428Y-87750000D01*
X91114285Y-87797619D01*
X91757142Y-87702380D02*
X91757142Y-88416666D01*
X91714285Y-88559523D01*
X91628571Y-88654761D01*
X91500000Y-88702380D01*
X91414285Y-88702380D01*
X92185714Y-88321428D02*
X92871428Y-88321428D01*
X93257142Y-87797619D02*
X93300000Y-87750000D01*
X93385714Y-87702380D01*
X93600000Y-87702380D01*
X93685714Y-87750000D01*
X93728571Y-87797619D01*
X93771428Y-87892857D01*
X93771428Y-87988095D01*
X93728571Y-88130952D01*
X93214285Y-88702380D01*
X93771428Y-88702380D01*
X94114285Y-87797619D02*
X94157142Y-87750000D01*
X94242857Y-87702380D01*
X94457142Y-87702380D01*
X94542857Y-87750000D01*
X94585714Y-87797619D01*
X94628571Y-87892857D01*
X94628571Y-87988095D01*
X94585714Y-88130952D01*
X94071428Y-88702380D01*
X94628571Y-88702380D01*
X94928571Y-87702380D02*
X95485714Y-87702380D01*
X95185714Y-88083333D01*
X95314285Y-88083333D01*
X95400000Y-88130952D01*
X95442857Y-88178571D01*
X95485714Y-88273809D01*
X95485714Y-88511904D01*
X95442857Y-88607142D01*
X95400000Y-88654761D01*
X95314285Y-88702380D01*
X95057142Y-88702380D01*
X94971428Y-88654761D01*
X94928571Y-88607142D01*
X96257142Y-88035714D02*
X96257142Y-88702380D01*
X96042857Y-87654761D02*
X95828571Y-88369047D01*
X96385714Y-88369047D01*
D10*
X102357142Y-64657142D02*
X102309523Y-64704761D01*
X102166666Y-64752380D01*
X102071428Y-64752380D01*
X101928571Y-64704761D01*
X101833333Y-64609523D01*
X101785714Y-64514285D01*
X101738095Y-64323809D01*
X101738095Y-64180952D01*
X101785714Y-63990476D01*
X101833333Y-63895238D01*
X101928571Y-63800000D01*
X102071428Y-63752380D01*
X102166666Y-63752380D01*
X102309523Y-63800000D01*
X102357142Y-63847619D01*
X103309523Y-64752380D02*
X102738095Y-64752380D01*
X103023809Y-64752380D02*
X103023809Y-63752380D01*
X102928571Y-63895238D01*
X102833333Y-63990476D01*
X102738095Y-64038095D01*
X103880952Y-64180952D02*
X103785714Y-64133333D01*
X103738095Y-64085714D01*
X103690476Y-63990476D01*
X103690476Y-63942857D01*
X103738095Y-63847619D01*
X103785714Y-63800000D01*
X103880952Y-63752380D01*
X104071428Y-63752380D01*
X104166666Y-63800000D01*
X104214285Y-63847619D01*
X104261904Y-63942857D01*
X104261904Y-63990476D01*
X104214285Y-64085714D01*
X104166666Y-64133333D01*
X104071428Y-64180952D01*
X103880952Y-64180952D01*
X103785714Y-64228571D01*
X103738095Y-64276190D01*
X103690476Y-64371428D01*
X103690476Y-64561904D01*
X103738095Y-64657142D01*
X103785714Y-64704761D01*
X103880952Y-64752380D01*
X104071428Y-64752380D01*
X104166666Y-64704761D01*
X104214285Y-64657142D01*
X104261904Y-64561904D01*
X104261904Y-64371428D01*
X104214285Y-64276190D01*
X104166666Y-64228571D01*
X104071428Y-64180952D01*
X102357142Y-71157142D02*
X102309523Y-71204761D01*
X102166666Y-71252380D01*
X102071428Y-71252380D01*
X101928571Y-71204761D01*
X101833333Y-71109523D01*
X101785714Y-71014285D01*
X101738095Y-70823809D01*
X101738095Y-70680952D01*
X101785714Y-70490476D01*
X101833333Y-70395238D01*
X101928571Y-70300000D01*
X102071428Y-70252380D01*
X102166666Y-70252380D01*
X102309523Y-70300000D01*
X102357142Y-70347619D01*
X103309523Y-71252380D02*
X102738095Y-71252380D01*
X103023809Y-71252380D02*
X103023809Y-70252380D01*
X102928571Y-70395238D01*
X102833333Y-70490476D01*
X102738095Y-70538095D01*
X103642857Y-70252380D02*
X104309523Y-70252380D01*
X103880952Y-71252380D01*
X102357142Y-49157142D02*
X102309523Y-49204761D01*
X102166666Y-49252380D01*
X102071428Y-49252380D01*
X101928571Y-49204761D01*
X101833333Y-49109523D01*
X101785714Y-49014285D01*
X101738095Y-48823809D01*
X101738095Y-48680952D01*
X101785714Y-48490476D01*
X101833333Y-48395238D01*
X101928571Y-48300000D01*
X102071428Y-48252380D01*
X102166666Y-48252380D01*
X102309523Y-48300000D01*
X102357142Y-48347619D01*
X103309523Y-49252380D02*
X102738095Y-49252380D01*
X103023809Y-49252380D02*
X103023809Y-48252380D01*
X102928571Y-48395238D01*
X102833333Y-48490476D01*
X102738095Y-48538095D01*
X104166666Y-48252380D02*
X103976190Y-48252380D01*
X103880952Y-48300000D01*
X103833333Y-48347619D01*
X103738095Y-48490476D01*
X103690476Y-48680952D01*
X103690476Y-49061904D01*
X103738095Y-49157142D01*
X103785714Y-49204761D01*
X103880952Y-49252380D01*
X104071428Y-49252380D01*
X104166666Y-49204761D01*
X104214285Y-49157142D01*
X104261904Y-49061904D01*
X104261904Y-48823809D01*
X104214285Y-48728571D01*
X104166666Y-48680952D01*
X104071428Y-48633333D01*
X103880952Y-48633333D01*
X103785714Y-48680952D01*
X103738095Y-48728571D01*
X103690476Y-48823809D01*
X102357142Y-55657142D02*
X102309523Y-55704761D01*
X102166666Y-55752380D01*
X102071428Y-55752380D01*
X101928571Y-55704761D01*
X101833333Y-55609523D01*
X101785714Y-55514285D01*
X101738095Y-55323809D01*
X101738095Y-55180952D01*
X101785714Y-54990476D01*
X101833333Y-54895238D01*
X101928571Y-54800000D01*
X102071428Y-54752380D01*
X102166666Y-54752380D01*
X102309523Y-54800000D01*
X102357142Y-54847619D01*
X103309523Y-55752380D02*
X102738095Y-55752380D01*
X103023809Y-55752380D02*
X103023809Y-54752380D01*
X102928571Y-54895238D01*
X102833333Y-54990476D01*
X102738095Y-55038095D01*
X104214285Y-54752380D02*
X103738095Y-54752380D01*
X103690476Y-55228571D01*
X103738095Y-55180952D01*
X103833333Y-55133333D01*
X104071428Y-55133333D01*
X104166666Y-55180952D01*
X104214285Y-55228571D01*
X104261904Y-55323809D01*
X104261904Y-55561904D01*
X104214285Y-55657142D01*
X104166666Y-55704761D01*
X104071428Y-55752380D01*
X103833333Y-55752380D01*
X103738095Y-55704761D01*
X103690476Y-55657142D01*
X102357142Y-33657142D02*
X102309523Y-33704761D01*
X102166666Y-33752380D01*
X102071428Y-33752380D01*
X101928571Y-33704761D01*
X101833333Y-33609523D01*
X101785714Y-33514285D01*
X101738095Y-33323809D01*
X101738095Y-33180952D01*
X101785714Y-32990476D01*
X101833333Y-32895238D01*
X101928571Y-32800000D01*
X102071428Y-32752380D01*
X102166666Y-32752380D01*
X102309523Y-32800000D01*
X102357142Y-32847619D01*
X103309523Y-33752380D02*
X102738095Y-33752380D01*
X103023809Y-33752380D02*
X103023809Y-32752380D01*
X102928571Y-32895238D01*
X102833333Y-32990476D01*
X102738095Y-33038095D01*
X103928571Y-32752380D02*
X104023809Y-32752380D01*
X104119047Y-32800000D01*
X104166666Y-32847619D01*
X104214285Y-32942857D01*
X104261904Y-33133333D01*
X104261904Y-33371428D01*
X104214285Y-33561904D01*
X104166666Y-33657142D01*
X104119047Y-33704761D01*
X104023809Y-33752380D01*
X103928571Y-33752380D01*
X103833333Y-33704761D01*
X103785714Y-33657142D01*
X103738095Y-33561904D01*
X103690476Y-33371428D01*
X103690476Y-33133333D01*
X103738095Y-32942857D01*
X103785714Y-32847619D01*
X103833333Y-32800000D01*
X103928571Y-32752380D01*
X102833333Y-40157142D02*
X102785714Y-40204761D01*
X102642857Y-40252380D01*
X102547619Y-40252380D01*
X102404761Y-40204761D01*
X102309523Y-40109523D01*
X102261904Y-40014285D01*
X102214285Y-39823809D01*
X102214285Y-39680952D01*
X102261904Y-39490476D01*
X102309523Y-39395238D01*
X102404761Y-39300000D01*
X102547619Y-39252380D01*
X102642857Y-39252380D01*
X102785714Y-39300000D01*
X102833333Y-39347619D01*
X103309523Y-40252380D02*
X103500000Y-40252380D01*
X103595238Y-40204761D01*
X103642857Y-40157142D01*
X103738095Y-40014285D01*
X103785714Y-39823809D01*
X103785714Y-39442857D01*
X103738095Y-39347619D01*
X103690476Y-39300000D01*
X103595238Y-39252380D01*
X103404761Y-39252380D01*
X103309523Y-39300000D01*
X103261904Y-39347619D01*
X103214285Y-39442857D01*
X103214285Y-39680952D01*
X103261904Y-39776190D01*
X103309523Y-39823809D01*
X103404761Y-39871428D01*
X103595238Y-39871428D01*
X103690476Y-39823809D01*
X103738095Y-39776190D01*
X103785714Y-39680952D01*
X102833333Y-18157142D02*
X102785714Y-18204761D01*
X102642857Y-18252380D01*
X102547619Y-18252380D01*
X102404761Y-18204761D01*
X102309523Y-18109523D01*
X102261904Y-18014285D01*
X102214285Y-17823809D01*
X102214285Y-17680952D01*
X102261904Y-17490476D01*
X102309523Y-17395238D01*
X102404761Y-17300000D01*
X102547619Y-17252380D01*
X102642857Y-17252380D01*
X102785714Y-17300000D01*
X102833333Y-17347619D01*
X103404761Y-17680952D02*
X103309523Y-17633333D01*
X103261904Y-17585714D01*
X103214285Y-17490476D01*
X103214285Y-17442857D01*
X103261904Y-17347619D01*
X103309523Y-17300000D01*
X103404761Y-17252380D01*
X103595238Y-17252380D01*
X103690476Y-17300000D01*
X103738095Y-17347619D01*
X103785714Y-17442857D01*
X103785714Y-17490476D01*
X103738095Y-17585714D01*
X103690476Y-17633333D01*
X103595238Y-17680952D01*
X103404761Y-17680952D01*
X103309523Y-17728571D01*
X103261904Y-17776190D01*
X103214285Y-17871428D01*
X103214285Y-18061904D01*
X103261904Y-18157142D01*
X103309523Y-18204761D01*
X103404761Y-18252380D01*
X103595238Y-18252380D01*
X103690476Y-18204761D01*
X103738095Y-18157142D01*
X103785714Y-18061904D01*
X103785714Y-17871428D01*
X103738095Y-17776190D01*
X103690476Y-17728571D01*
X103595238Y-17680952D01*
X102833333Y-24657142D02*
X102785714Y-24704761D01*
X102642857Y-24752380D01*
X102547619Y-24752380D01*
X102404761Y-24704761D01*
X102309523Y-24609523D01*
X102261904Y-24514285D01*
X102214285Y-24323809D01*
X102214285Y-24180952D01*
X102261904Y-23990476D01*
X102309523Y-23895238D01*
X102404761Y-23800000D01*
X102547619Y-23752380D01*
X102642857Y-23752380D01*
X102785714Y-23800000D01*
X102833333Y-23847619D01*
X103166666Y-23752380D02*
X103833333Y-23752380D01*
X103404761Y-24752380D01*
X125157142Y-85166666D02*
X125204761Y-85214285D01*
X125252380Y-85357142D01*
X125252380Y-85452380D01*
X125204761Y-85595238D01*
X125109523Y-85690476D01*
X125014285Y-85738095D01*
X124823809Y-85785714D01*
X124680952Y-85785714D01*
X124490476Y-85738095D01*
X124395238Y-85690476D01*
X124300000Y-85595238D01*
X124252380Y-85452380D01*
X124252380Y-85357142D01*
X124300000Y-85214285D01*
X124347619Y-85166666D01*
X124347619Y-84785714D02*
X124300000Y-84738095D01*
X124252380Y-84642857D01*
X124252380Y-84404761D01*
X124300000Y-84309523D01*
X124347619Y-84261904D01*
X124442857Y-84214285D01*
X124538095Y-84214285D01*
X124680952Y-84261904D01*
X125252380Y-84833333D01*
X125252380Y-84214285D01*
X111083333Y-111107142D02*
X111035714Y-111154761D01*
X110892857Y-111202380D01*
X110797619Y-111202380D01*
X110654761Y-111154761D01*
X110559523Y-111059523D01*
X110511904Y-110964285D01*
X110464285Y-110773809D01*
X110464285Y-110630952D01*
X110511904Y-110440476D01*
X110559523Y-110345238D01*
X110654761Y-110250000D01*
X110797619Y-110202380D01*
X110892857Y-110202380D01*
X111035714Y-110250000D01*
X111083333Y-110297619D01*
X112035714Y-111202380D02*
X111464285Y-111202380D01*
X111750000Y-111202380D02*
X111750000Y-110202380D01*
X111654761Y-110345238D01*
X111559523Y-110440476D01*
X111464285Y-110488095D01*
X95672380Y-97761904D02*
X96481904Y-97761904D01*
X96577142Y-97714285D01*
X96624761Y-97666666D01*
X96672380Y-97571428D01*
X96672380Y-97380952D01*
X96624761Y-97285714D01*
X96577142Y-97238095D01*
X96481904Y-97190476D01*
X95672380Y-97190476D01*
X96005714Y-96285714D02*
X96672380Y-96285714D01*
X95624761Y-96523809D02*
X96339047Y-96761904D01*
X96339047Y-96142857D01*
X129232380Y-57761904D02*
X130041904Y-57761904D01*
X130137142Y-57714285D01*
X130184761Y-57666666D01*
X130232380Y-57571428D01*
X130232380Y-57380952D01*
X130184761Y-57285714D01*
X130137142Y-57238095D01*
X130041904Y-57190476D01*
X129232380Y-57190476D01*
X129232380Y-56809523D02*
X129232380Y-56190476D01*
X129613333Y-56523809D01*
X129613333Y-56380952D01*
X129660952Y-56285714D01*
X129708571Y-56238095D01*
X129803809Y-56190476D01*
X130041904Y-56190476D01*
X130137142Y-56238095D01*
X130184761Y-56285714D01*
X130232380Y-56380952D01*
X130232380Y-56666666D01*
X130184761Y-56761904D01*
X130137142Y-56809523D01*
X129232380Y-26761904D02*
X130041904Y-26761904D01*
X130137142Y-26714285D01*
X130184761Y-26666666D01*
X130232380Y-26571428D01*
X130232380Y-26380952D01*
X130184761Y-26285714D01*
X130137142Y-26238095D01*
X130041904Y-26190476D01*
X129232380Y-26190476D01*
X129327619Y-25761904D02*
X129280000Y-25714285D01*
X129232380Y-25619047D01*
X129232380Y-25380952D01*
X129280000Y-25285714D01*
X129327619Y-25238095D01*
X129422857Y-25190476D01*
X129518095Y-25190476D01*
X129660952Y-25238095D01*
X130232380Y-25809523D01*
X130232380Y-25190476D01*
X125452380Y-75142857D02*
X124976190Y-75476190D01*
X125452380Y-75714285D02*
X124452380Y-75714285D01*
X124452380Y-75333333D01*
X124500000Y-75238095D01*
X124547619Y-75190476D01*
X124642857Y-75142857D01*
X124785714Y-75142857D01*
X124880952Y-75190476D01*
X124928571Y-75238095D01*
X124976190Y-75333333D01*
X124976190Y-75714285D01*
X125452380Y-74190476D02*
X125452380Y-74761904D01*
X125452380Y-74476190D02*
X124452380Y-74476190D01*
X124595238Y-74571428D01*
X124690476Y-74666666D01*
X124738095Y-74761904D01*
X124452380Y-73333333D02*
X124452380Y-73523809D01*
X124500000Y-73619047D01*
X124547619Y-73666666D01*
X124690476Y-73761904D01*
X124880952Y-73809523D01*
X125261904Y-73809523D01*
X125357142Y-73761904D01*
X125404761Y-73714285D01*
X125452380Y-73619047D01*
X125452380Y-73428571D01*
X125404761Y-73333333D01*
X125357142Y-73285714D01*
X125261904Y-73238095D01*
X125023809Y-73238095D01*
X124928571Y-73285714D01*
X124880952Y-73333333D01*
X124833333Y-73428571D01*
X124833333Y-73619047D01*
X124880952Y-73714285D01*
X124928571Y-73761904D01*
X125023809Y-73809523D01*
X127452380Y-75142857D02*
X126976190Y-75476190D01*
X127452380Y-75714285D02*
X126452380Y-75714285D01*
X126452380Y-75333333D01*
X126500000Y-75238095D01*
X126547619Y-75190476D01*
X126642857Y-75142857D01*
X126785714Y-75142857D01*
X126880952Y-75190476D01*
X126928571Y-75238095D01*
X126976190Y-75333333D01*
X126976190Y-75714285D01*
X127452380Y-74190476D02*
X127452380Y-74761904D01*
X127452380Y-74476190D02*
X126452380Y-74476190D01*
X126595238Y-74571428D01*
X126690476Y-74666666D01*
X126738095Y-74761904D01*
X126452380Y-73285714D02*
X126452380Y-73761904D01*
X126928571Y-73809523D01*
X126880952Y-73761904D01*
X126833333Y-73666666D01*
X126833333Y-73428571D01*
X126880952Y-73333333D01*
X126928571Y-73285714D01*
X127023809Y-73238095D01*
X127261904Y-73238095D01*
X127357142Y-73285714D01*
X127404761Y-73333333D01*
X127452380Y-73428571D01*
X127452380Y-73666666D01*
X127404761Y-73761904D01*
X127357142Y-73809523D01*
X125452380Y-43642857D02*
X124976190Y-43976190D01*
X125452380Y-44214285D02*
X124452380Y-44214285D01*
X124452380Y-43833333D01*
X124500000Y-43738095D01*
X124547619Y-43690476D01*
X124642857Y-43642857D01*
X124785714Y-43642857D01*
X124880952Y-43690476D01*
X124928571Y-43738095D01*
X124976190Y-43833333D01*
X124976190Y-44214285D01*
X125452380Y-42690476D02*
X125452380Y-43261904D01*
X125452380Y-42976190D02*
X124452380Y-42976190D01*
X124595238Y-43071428D01*
X124690476Y-43166666D01*
X124738095Y-43261904D01*
X124785714Y-41833333D02*
X125452380Y-41833333D01*
X124404761Y-42071428D02*
X125119047Y-42309523D01*
X125119047Y-41690476D01*
X127452380Y-43642857D02*
X126976190Y-43976190D01*
X127452380Y-44214285D02*
X126452380Y-44214285D01*
X126452380Y-43833333D01*
X126500000Y-43738095D01*
X126547619Y-43690476D01*
X126642857Y-43642857D01*
X126785714Y-43642857D01*
X126880952Y-43690476D01*
X126928571Y-43738095D01*
X126976190Y-43833333D01*
X126976190Y-44214285D01*
X127452380Y-42690476D02*
X127452380Y-43261904D01*
X127452380Y-42976190D02*
X126452380Y-42976190D01*
X126595238Y-43071428D01*
X126690476Y-43166666D01*
X126738095Y-43261904D01*
X126452380Y-42357142D02*
X126452380Y-41738095D01*
X126833333Y-42071428D01*
X126833333Y-41928571D01*
X126880952Y-41833333D01*
X126928571Y-41785714D01*
X127023809Y-41738095D01*
X127261904Y-41738095D01*
X127357142Y-41785714D01*
X127404761Y-41833333D01*
X127452380Y-41928571D01*
X127452380Y-42214285D01*
X127404761Y-42309523D01*
X127357142Y-42357142D01*
X123452380Y-75142857D02*
X122976190Y-75476190D01*
X123452380Y-75714285D02*
X122452380Y-75714285D01*
X122452380Y-75333333D01*
X122500000Y-75238095D01*
X122547619Y-75190476D01*
X122642857Y-75142857D01*
X122785714Y-75142857D01*
X122880952Y-75190476D01*
X122928571Y-75238095D01*
X122976190Y-75333333D01*
X122976190Y-75714285D01*
X123452380Y-74190476D02*
X123452380Y-74761904D01*
X123452380Y-74476190D02*
X122452380Y-74476190D01*
X122595238Y-74571428D01*
X122690476Y-74666666D01*
X122738095Y-74761904D01*
X122547619Y-73809523D02*
X122500000Y-73761904D01*
X122452380Y-73666666D01*
X122452380Y-73428571D01*
X122500000Y-73333333D01*
X122547619Y-73285714D01*
X122642857Y-73238095D01*
X122738095Y-73238095D01*
X122880952Y-73285714D01*
X123452380Y-73857142D01*
X123452380Y-73238095D01*
X121452380Y-75142857D02*
X120976190Y-75476190D01*
X121452380Y-75714285D02*
X120452380Y-75714285D01*
X120452380Y-75333333D01*
X120500000Y-75238095D01*
X120547619Y-75190476D01*
X120642857Y-75142857D01*
X120785714Y-75142857D01*
X120880952Y-75190476D01*
X120928571Y-75238095D01*
X120976190Y-75333333D01*
X120976190Y-75714285D01*
X121452380Y-74190476D02*
X121452380Y-74761904D01*
X121452380Y-74476190D02*
X120452380Y-74476190D01*
X120595238Y-74571428D01*
X120690476Y-74666666D01*
X120738095Y-74761904D01*
X121452380Y-73238095D02*
X121452380Y-73809523D01*
X121452380Y-73523809D02*
X120452380Y-73523809D01*
X120595238Y-73619047D01*
X120690476Y-73714285D01*
X120738095Y-73809523D01*
X123452380Y-43642857D02*
X122976190Y-43976190D01*
X123452380Y-44214285D02*
X122452380Y-44214285D01*
X122452380Y-43833333D01*
X122500000Y-43738095D01*
X122547619Y-43690476D01*
X122642857Y-43642857D01*
X122785714Y-43642857D01*
X122880952Y-43690476D01*
X122928571Y-43738095D01*
X122976190Y-43833333D01*
X122976190Y-44214285D01*
X123452380Y-42690476D02*
X123452380Y-43261904D01*
X123452380Y-42976190D02*
X122452380Y-42976190D01*
X122595238Y-43071428D01*
X122690476Y-43166666D01*
X122738095Y-43261904D01*
X122452380Y-42071428D02*
X122452380Y-41976190D01*
X122500000Y-41880952D01*
X122547619Y-41833333D01*
X122642857Y-41785714D01*
X122833333Y-41738095D01*
X123071428Y-41738095D01*
X123261904Y-41785714D01*
X123357142Y-41833333D01*
X123404761Y-41880952D01*
X123452380Y-41976190D01*
X123452380Y-42071428D01*
X123404761Y-42166666D01*
X123357142Y-42214285D01*
X123261904Y-42261904D01*
X123071428Y-42309523D01*
X122833333Y-42309523D01*
X122642857Y-42261904D01*
X122547619Y-42214285D01*
X122500000Y-42166666D01*
X122452380Y-42071428D01*
X121452380Y-42666666D02*
X120976190Y-43000000D01*
X121452380Y-43238095D02*
X120452380Y-43238095D01*
X120452380Y-42857142D01*
X120500000Y-42761904D01*
X120547619Y-42714285D01*
X120642857Y-42666666D01*
X120785714Y-42666666D01*
X120880952Y-42714285D01*
X120928571Y-42761904D01*
X120976190Y-42857142D01*
X120976190Y-43238095D01*
X121452380Y-42190476D02*
X121452380Y-42000000D01*
X121404761Y-41904761D01*
X121357142Y-41857142D01*
X121214285Y-41761904D01*
X121023809Y-41714285D01*
X120642857Y-41714285D01*
X120547619Y-41761904D01*
X120500000Y-41809523D01*
X120452380Y-41904761D01*
X120452380Y-42095238D01*
X120500000Y-42190476D01*
X120547619Y-42238095D01*
X120642857Y-42285714D01*
X120880952Y-42285714D01*
X120976190Y-42238095D01*
X121023809Y-42190476D01*
X121071428Y-42095238D01*
X121071428Y-41904761D01*
X121023809Y-41809523D01*
X120976190Y-41761904D01*
X120880952Y-41714285D01*
X114833333Y-71952380D02*
X114500000Y-71476190D01*
X114261904Y-71952380D02*
X114261904Y-70952380D01*
X114642857Y-70952380D01*
X114738095Y-71000000D01*
X114785714Y-71047619D01*
X114833333Y-71142857D01*
X114833333Y-71285714D01*
X114785714Y-71380952D01*
X114738095Y-71428571D01*
X114642857Y-71476190D01*
X114261904Y-71476190D01*
X115404761Y-71380952D02*
X115309523Y-71333333D01*
X115261904Y-71285714D01*
X115214285Y-71190476D01*
X115214285Y-71142857D01*
X115261904Y-71047619D01*
X115309523Y-71000000D01*
X115404761Y-70952380D01*
X115595238Y-70952380D01*
X115690476Y-71000000D01*
X115738095Y-71047619D01*
X115785714Y-71142857D01*
X115785714Y-71190476D01*
X115738095Y-71285714D01*
X115690476Y-71333333D01*
X115595238Y-71380952D01*
X115404761Y-71380952D01*
X115309523Y-71428571D01*
X115261904Y-71476190D01*
X115214285Y-71571428D01*
X115214285Y-71761904D01*
X115261904Y-71857142D01*
X115309523Y-71904761D01*
X115404761Y-71952380D01*
X115595238Y-71952380D01*
X115690476Y-71904761D01*
X115738095Y-71857142D01*
X115785714Y-71761904D01*
X115785714Y-71571428D01*
X115738095Y-71476190D01*
X115690476Y-71428571D01*
X115595238Y-71380952D01*
X114833333Y-77952380D02*
X114500000Y-77476190D01*
X114261904Y-77952380D02*
X114261904Y-76952380D01*
X114642857Y-76952380D01*
X114738095Y-77000000D01*
X114785714Y-77047619D01*
X114833333Y-77142857D01*
X114833333Y-77285714D01*
X114785714Y-77380952D01*
X114738095Y-77428571D01*
X114642857Y-77476190D01*
X114261904Y-77476190D01*
X115166666Y-76952380D02*
X115833333Y-76952380D01*
X115404761Y-77952380D01*
X114770833Y-56452380D02*
X114437500Y-55976190D01*
X114199404Y-56452380D02*
X114199404Y-55452380D01*
X114580357Y-55452380D01*
X114675595Y-55500000D01*
X114723214Y-55547619D01*
X114770833Y-55642857D01*
X114770833Y-55785714D01*
X114723214Y-55880952D01*
X114675595Y-55928571D01*
X114580357Y-55976190D01*
X114199404Y-55976190D01*
X115627976Y-55452380D02*
X115437500Y-55452380D01*
X115342261Y-55500000D01*
X115294642Y-55547619D01*
X115199404Y-55690476D01*
X115151785Y-55880952D01*
X115151785Y-56261904D01*
X115199404Y-56357142D01*
X115247023Y-56404761D01*
X115342261Y-56452380D01*
X115532738Y-56452380D01*
X115627976Y-56404761D01*
X115675595Y-56357142D01*
X115723214Y-56261904D01*
X115723214Y-56023809D01*
X115675595Y-55928571D01*
X115627976Y-55880952D01*
X115532738Y-55833333D01*
X115342261Y-55833333D01*
X115247023Y-55880952D01*
X115199404Y-55928571D01*
X115151785Y-56023809D01*
X114770833Y-62452380D02*
X114437500Y-61976190D01*
X114199404Y-62452380D02*
X114199404Y-61452380D01*
X114580357Y-61452380D01*
X114675595Y-61500000D01*
X114723214Y-61547619D01*
X114770833Y-61642857D01*
X114770833Y-61785714D01*
X114723214Y-61880952D01*
X114675595Y-61928571D01*
X114580357Y-61976190D01*
X114199404Y-61976190D01*
X115675595Y-61452380D02*
X115199404Y-61452380D01*
X115151785Y-61928571D01*
X115199404Y-61880952D01*
X115294642Y-61833333D01*
X115532738Y-61833333D01*
X115627976Y-61880952D01*
X115675595Y-61928571D01*
X115723214Y-62023809D01*
X115723214Y-62261904D01*
X115675595Y-62357142D01*
X115627976Y-62404761D01*
X115532738Y-62452380D01*
X115294642Y-62452380D01*
X115199404Y-62404761D01*
X115151785Y-62357142D01*
X114833333Y-40952380D02*
X114500000Y-40476190D01*
X114261904Y-40952380D02*
X114261904Y-39952380D01*
X114642857Y-39952380D01*
X114738095Y-40000000D01*
X114785714Y-40047619D01*
X114833333Y-40142857D01*
X114833333Y-40285714D01*
X114785714Y-40380952D01*
X114738095Y-40428571D01*
X114642857Y-40476190D01*
X114261904Y-40476190D01*
X115690476Y-40285714D02*
X115690476Y-40952380D01*
X115452380Y-39904761D02*
X115214285Y-40619047D01*
X115833333Y-40619047D01*
X114833333Y-46952380D02*
X114500000Y-46476190D01*
X114261904Y-46952380D02*
X114261904Y-45952380D01*
X114642857Y-45952380D01*
X114738095Y-46000000D01*
X114785714Y-46047619D01*
X114833333Y-46142857D01*
X114833333Y-46285714D01*
X114785714Y-46380952D01*
X114738095Y-46428571D01*
X114642857Y-46476190D01*
X114261904Y-46476190D01*
X115166666Y-45952380D02*
X115785714Y-45952380D01*
X115452380Y-46333333D01*
X115595238Y-46333333D01*
X115690476Y-46380952D01*
X115738095Y-46428571D01*
X115785714Y-46523809D01*
X115785714Y-46761904D01*
X115738095Y-46857142D01*
X115690476Y-46904761D01*
X115595238Y-46952380D01*
X115309523Y-46952380D01*
X115214285Y-46904761D01*
X115166666Y-46857142D01*
X114833333Y-25452380D02*
X114500000Y-24976190D01*
X114261904Y-25452380D02*
X114261904Y-24452380D01*
X114642857Y-24452380D01*
X114738095Y-24500000D01*
X114785714Y-24547619D01*
X114833333Y-24642857D01*
X114833333Y-24785714D01*
X114785714Y-24880952D01*
X114738095Y-24928571D01*
X114642857Y-24976190D01*
X114261904Y-24976190D01*
X115214285Y-24547619D02*
X115261904Y-24500000D01*
X115357142Y-24452380D01*
X115595238Y-24452380D01*
X115690476Y-24500000D01*
X115738095Y-24547619D01*
X115785714Y-24642857D01*
X115785714Y-24738095D01*
X115738095Y-24880952D01*
X115166666Y-25452380D01*
X115785714Y-25452380D01*
X114833333Y-31452380D02*
X114500000Y-30976190D01*
X114261904Y-31452380D02*
X114261904Y-30452380D01*
X114642857Y-30452380D01*
X114738095Y-30500000D01*
X114785714Y-30547619D01*
X114833333Y-30642857D01*
X114833333Y-30785714D01*
X114785714Y-30880952D01*
X114738095Y-30928571D01*
X114642857Y-30976190D01*
X114261904Y-30976190D01*
X115785714Y-31452380D02*
X115214285Y-31452380D01*
X115500000Y-31452380D02*
X115500000Y-30452380D01*
X115404761Y-30595238D01*
X115309523Y-30690476D01*
X115214285Y-30738095D01*
X100207142Y-87580357D02*
X100254761Y-87627976D01*
X100302380Y-87770833D01*
X100302380Y-87866071D01*
X100254761Y-88008928D01*
X100159523Y-88104166D01*
X100064285Y-88151785D01*
X99873809Y-88199404D01*
X99730952Y-88199404D01*
X99540476Y-88151785D01*
X99445238Y-88104166D01*
X99350000Y-88008928D01*
X99302380Y-87866071D01*
X99302380Y-87770833D01*
X99350000Y-87627976D01*
X99397619Y-87580357D01*
X99397619Y-87199404D02*
X99350000Y-87151785D01*
X99302380Y-87056547D01*
X99302380Y-86818452D01*
X99350000Y-86723214D01*
X99397619Y-86675595D01*
X99492857Y-86627976D01*
X99588095Y-86627976D01*
X99730952Y-86675595D01*
X100302380Y-87247023D01*
X100302380Y-86627976D01*
X99302380Y-85770833D02*
X99302380Y-85961309D01*
X99350000Y-86056547D01*
X99397619Y-86104166D01*
X99540476Y-86199404D01*
X99730952Y-86247023D01*
X100111904Y-86247023D01*
X100207142Y-86199404D01*
X100254761Y-86151785D01*
X100302380Y-86056547D01*
X100302380Y-85866071D01*
X100254761Y-85770833D01*
X100207142Y-85723214D01*
X100111904Y-85675595D01*
X99873809Y-85675595D01*
X99778571Y-85723214D01*
X99730952Y-85770833D01*
X99683333Y-85866071D01*
X99683333Y-86056547D01*
X99730952Y-86151785D01*
X99778571Y-86199404D01*
X99873809Y-86247023D01*
X123357142Y-20642857D02*
X123404761Y-20690476D01*
X123452380Y-20833333D01*
X123452380Y-20928571D01*
X123404761Y-21071428D01*
X123309523Y-21166666D01*
X123214285Y-21214285D01*
X123023809Y-21261904D01*
X122880952Y-21261904D01*
X122690476Y-21214285D01*
X122595238Y-21166666D01*
X122500000Y-21071428D01*
X122452380Y-20928571D01*
X122452380Y-20833333D01*
X122500000Y-20690476D01*
X122547619Y-20642857D01*
X122547619Y-20261904D02*
X122500000Y-20214285D01*
X122452380Y-20119047D01*
X122452380Y-19880952D01*
X122500000Y-19785714D01*
X122547619Y-19738095D01*
X122642857Y-19690476D01*
X122738095Y-19690476D01*
X122880952Y-19738095D01*
X123452380Y-20309523D01*
X123452380Y-19690476D01*
X122452380Y-18785714D02*
X122452380Y-19261904D01*
X122928571Y-19309523D01*
X122880952Y-19261904D01*
X122833333Y-19166666D01*
X122833333Y-18928571D01*
X122880952Y-18833333D01*
X122928571Y-18785714D01*
X123023809Y-18738095D01*
X123261904Y-18738095D01*
X123357142Y-18785714D01*
X123404761Y-18833333D01*
X123452380Y-18928571D01*
X123452380Y-19166666D01*
X123404761Y-19261904D01*
X123357142Y-19309523D01*
X123357142Y-63642857D02*
X123404761Y-63690476D01*
X123452380Y-63833333D01*
X123452380Y-63928571D01*
X123404761Y-64071428D01*
X123309523Y-64166666D01*
X123214285Y-64214285D01*
X123023809Y-64261904D01*
X122880952Y-64261904D01*
X122690476Y-64214285D01*
X122595238Y-64166666D01*
X122500000Y-64071428D01*
X122452380Y-63928571D01*
X122452380Y-63833333D01*
X122500000Y-63690476D01*
X122547619Y-63642857D01*
X122547619Y-63261904D02*
X122500000Y-63214285D01*
X122452380Y-63119047D01*
X122452380Y-62880952D01*
X122500000Y-62785714D01*
X122547619Y-62738095D01*
X122642857Y-62690476D01*
X122738095Y-62690476D01*
X122880952Y-62738095D01*
X123452380Y-63309523D01*
X123452380Y-62690476D01*
X122785714Y-61833333D02*
X123452380Y-61833333D01*
X122404761Y-62071428D02*
X123119047Y-62309523D01*
X123119047Y-61690476D01*
X100357142Y-107642857D02*
X100404761Y-107690476D01*
X100452380Y-107833333D01*
X100452380Y-107928571D01*
X100404761Y-108071428D01*
X100309523Y-108166666D01*
X100214285Y-108214285D01*
X100023809Y-108261904D01*
X99880952Y-108261904D01*
X99690476Y-108214285D01*
X99595238Y-108166666D01*
X99500000Y-108071428D01*
X99452380Y-107928571D01*
X99452380Y-107833333D01*
X99500000Y-107690476D01*
X99547619Y-107642857D01*
X99547619Y-107261904D02*
X99500000Y-107214285D01*
X99452380Y-107119047D01*
X99452380Y-106880952D01*
X99500000Y-106785714D01*
X99547619Y-106738095D01*
X99642857Y-106690476D01*
X99738095Y-106690476D01*
X99880952Y-106738095D01*
X100452380Y-107309523D01*
X100452380Y-106690476D01*
X99452380Y-106357142D02*
X99452380Y-105738095D01*
X99833333Y-106071428D01*
X99833333Y-105928571D01*
X99880952Y-105833333D01*
X99928571Y-105785714D01*
X100023809Y-105738095D01*
X100261904Y-105738095D01*
X100357142Y-105785714D01*
X100404761Y-105833333D01*
X100452380Y-105928571D01*
X100452380Y-106214285D01*
X100404761Y-106309523D01*
X100357142Y-106357142D01*
X114857142Y-73857142D02*
X114809523Y-73904761D01*
X114666666Y-73952380D01*
X114571428Y-73952380D01*
X114428571Y-73904761D01*
X114333333Y-73809523D01*
X114285714Y-73714285D01*
X114238095Y-73523809D01*
X114238095Y-73380952D01*
X114285714Y-73190476D01*
X114333333Y-73095238D01*
X114428571Y-73000000D01*
X114571428Y-72952380D01*
X114666666Y-72952380D01*
X114809523Y-73000000D01*
X114857142Y-73047619D01*
X115238095Y-73047619D02*
X115285714Y-73000000D01*
X115380952Y-72952380D01*
X115619047Y-72952380D01*
X115714285Y-73000000D01*
X115761904Y-73047619D01*
X115809523Y-73142857D01*
X115809523Y-73238095D01*
X115761904Y-73380952D01*
X115190476Y-73952380D01*
X115809523Y-73952380D01*
X116190476Y-73047619D02*
X116238095Y-73000000D01*
X116333333Y-72952380D01*
X116571428Y-72952380D01*
X116666666Y-73000000D01*
X116714285Y-73047619D01*
X116761904Y-73142857D01*
X116761904Y-73238095D01*
X116714285Y-73380952D01*
X116142857Y-73952380D01*
X116761904Y-73952380D01*
X114857142Y-75857142D02*
X114809523Y-75904761D01*
X114666666Y-75952380D01*
X114571428Y-75952380D01*
X114428571Y-75904761D01*
X114333333Y-75809523D01*
X114285714Y-75714285D01*
X114238095Y-75523809D01*
X114238095Y-75380952D01*
X114285714Y-75190476D01*
X114333333Y-75095238D01*
X114428571Y-75000000D01*
X114571428Y-74952380D01*
X114666666Y-74952380D01*
X114809523Y-75000000D01*
X114857142Y-75047619D01*
X115238095Y-75047619D02*
X115285714Y-75000000D01*
X115380952Y-74952380D01*
X115619047Y-74952380D01*
X115714285Y-75000000D01*
X115761904Y-75047619D01*
X115809523Y-75142857D01*
X115809523Y-75238095D01*
X115761904Y-75380952D01*
X115190476Y-75952380D01*
X115809523Y-75952380D01*
X116761904Y-75952380D02*
X116190476Y-75952380D01*
X116476190Y-75952380D02*
X116476190Y-74952380D01*
X116380952Y-75095238D01*
X116285714Y-75190476D01*
X116190476Y-75238095D01*
X114857142Y-58357142D02*
X114809523Y-58404761D01*
X114666666Y-58452380D01*
X114571428Y-58452380D01*
X114428571Y-58404761D01*
X114333333Y-58309523D01*
X114285714Y-58214285D01*
X114238095Y-58023809D01*
X114238095Y-57880952D01*
X114285714Y-57690476D01*
X114333333Y-57595238D01*
X114428571Y-57500000D01*
X114571428Y-57452380D01*
X114666666Y-57452380D01*
X114809523Y-57500000D01*
X114857142Y-57547619D01*
X115238095Y-57547619D02*
X115285714Y-57500000D01*
X115380952Y-57452380D01*
X115619047Y-57452380D01*
X115714285Y-57500000D01*
X115761904Y-57547619D01*
X115809523Y-57642857D01*
X115809523Y-57738095D01*
X115761904Y-57880952D01*
X115190476Y-58452380D01*
X115809523Y-58452380D01*
X116428571Y-57452380D02*
X116523809Y-57452380D01*
X116619047Y-57500000D01*
X116666666Y-57547619D01*
X116714285Y-57642857D01*
X116761904Y-57833333D01*
X116761904Y-58071428D01*
X116714285Y-58261904D01*
X116666666Y-58357142D01*
X116619047Y-58404761D01*
X116523809Y-58452380D01*
X116428571Y-58452380D01*
X116333333Y-58404761D01*
X116285714Y-58357142D01*
X116238095Y-58261904D01*
X116190476Y-58071428D01*
X116190476Y-57833333D01*
X116238095Y-57642857D01*
X116285714Y-57547619D01*
X116333333Y-57500000D01*
X116428571Y-57452380D01*
X114794642Y-60357142D02*
X114747023Y-60404761D01*
X114604166Y-60452380D01*
X114508928Y-60452380D01*
X114366071Y-60404761D01*
X114270833Y-60309523D01*
X114223214Y-60214285D01*
X114175595Y-60023809D01*
X114175595Y-59880952D01*
X114223214Y-59690476D01*
X114270833Y-59595238D01*
X114366071Y-59500000D01*
X114508928Y-59452380D01*
X114604166Y-59452380D01*
X114747023Y-59500000D01*
X114794642Y-59547619D01*
X115747023Y-60452380D02*
X115175595Y-60452380D01*
X115461309Y-60452380D02*
X115461309Y-59452380D01*
X115366071Y-59595238D01*
X115270833Y-59690476D01*
X115175595Y-59738095D01*
X116223214Y-60452380D02*
X116413690Y-60452380D01*
X116508928Y-60404761D01*
X116556547Y-60357142D01*
X116651785Y-60214285D01*
X116699404Y-60023809D01*
X116699404Y-59642857D01*
X116651785Y-59547619D01*
X116604166Y-59500000D01*
X116508928Y-59452380D01*
X116318452Y-59452380D01*
X116223214Y-59500000D01*
X116175595Y-59547619D01*
X116127976Y-59642857D01*
X116127976Y-59880952D01*
X116175595Y-59976190D01*
X116223214Y-60023809D01*
X116318452Y-60071428D01*
X116508928Y-60071428D01*
X116604166Y-60023809D01*
X116651785Y-59976190D01*
X116699404Y-59880952D01*
X114857142Y-42857142D02*
X114809523Y-42904761D01*
X114666666Y-42952380D01*
X114571428Y-42952380D01*
X114428571Y-42904761D01*
X114333333Y-42809523D01*
X114285714Y-42714285D01*
X114238095Y-42523809D01*
X114238095Y-42380952D01*
X114285714Y-42190476D01*
X114333333Y-42095238D01*
X114428571Y-42000000D01*
X114571428Y-41952380D01*
X114666666Y-41952380D01*
X114809523Y-42000000D01*
X114857142Y-42047619D01*
X115809523Y-42952380D02*
X115238095Y-42952380D01*
X115523809Y-42952380D02*
X115523809Y-41952380D01*
X115428571Y-42095238D01*
X115333333Y-42190476D01*
X115238095Y-42238095D01*
X116666666Y-42285714D02*
X116666666Y-42952380D01*
X116428571Y-41904761D02*
X116190476Y-42619047D01*
X116809523Y-42619047D01*
X114857142Y-44857142D02*
X114809523Y-44904761D01*
X114666666Y-44952380D01*
X114571428Y-44952380D01*
X114428571Y-44904761D01*
X114333333Y-44809523D01*
X114285714Y-44714285D01*
X114238095Y-44523809D01*
X114238095Y-44380952D01*
X114285714Y-44190476D01*
X114333333Y-44095238D01*
X114428571Y-44000000D01*
X114571428Y-43952380D01*
X114666666Y-43952380D01*
X114809523Y-44000000D01*
X114857142Y-44047619D01*
X115809523Y-44952380D02*
X115238095Y-44952380D01*
X115523809Y-44952380D02*
X115523809Y-43952380D01*
X115428571Y-44095238D01*
X115333333Y-44190476D01*
X115238095Y-44238095D01*
X116142857Y-43952380D02*
X116761904Y-43952380D01*
X116428571Y-44333333D01*
X116571428Y-44333333D01*
X116666666Y-44380952D01*
X116714285Y-44428571D01*
X116761904Y-44523809D01*
X116761904Y-44761904D01*
X116714285Y-44857142D01*
X116666666Y-44904761D01*
X116571428Y-44952380D01*
X116285714Y-44952380D01*
X116190476Y-44904761D01*
X116142857Y-44857142D01*
X114794642Y-27357142D02*
X114747023Y-27404761D01*
X114604166Y-27452380D01*
X114508928Y-27452380D01*
X114366071Y-27404761D01*
X114270833Y-27309523D01*
X114223214Y-27214285D01*
X114175595Y-27023809D01*
X114175595Y-26880952D01*
X114223214Y-26690476D01*
X114270833Y-26595238D01*
X114366071Y-26500000D01*
X114508928Y-26452380D01*
X114604166Y-26452380D01*
X114747023Y-26500000D01*
X114794642Y-26547619D01*
X115747023Y-27452380D02*
X115175595Y-27452380D01*
X115461309Y-27452380D02*
X115461309Y-26452380D01*
X115366071Y-26595238D01*
X115270833Y-26690476D01*
X115175595Y-26738095D01*
X116127976Y-26547619D02*
X116175595Y-26500000D01*
X116270833Y-26452380D01*
X116508928Y-26452380D01*
X116604166Y-26500000D01*
X116651785Y-26547619D01*
X116699404Y-26642857D01*
X116699404Y-26738095D01*
X116651785Y-26880952D01*
X116080357Y-27452380D01*
X116699404Y-27452380D01*
X114857142Y-29357142D02*
X114809523Y-29404761D01*
X114666666Y-29452380D01*
X114571428Y-29452380D01*
X114428571Y-29404761D01*
X114333333Y-29309523D01*
X114285714Y-29214285D01*
X114238095Y-29023809D01*
X114238095Y-28880952D01*
X114285714Y-28690476D01*
X114333333Y-28595238D01*
X114428571Y-28500000D01*
X114571428Y-28452380D01*
X114666666Y-28452380D01*
X114809523Y-28500000D01*
X114857142Y-28547619D01*
X115809523Y-29452380D02*
X115238095Y-29452380D01*
X115523809Y-29452380D02*
X115523809Y-28452380D01*
X115428571Y-28595238D01*
X115333333Y-28690476D01*
X115238095Y-28738095D01*
X116761904Y-29452380D02*
X116190476Y-29452380D01*
X116476190Y-29452380D02*
X116476190Y-28452380D01*
X116380952Y-28595238D01*
X116285714Y-28690476D01*
X116190476Y-28738095D01*
X123357142Y-32166666D02*
X123404761Y-32214285D01*
X123452380Y-32357142D01*
X123452380Y-32452380D01*
X123404761Y-32595238D01*
X123309523Y-32690476D01*
X123214285Y-32738095D01*
X123023809Y-32785714D01*
X122880952Y-32785714D01*
X122690476Y-32738095D01*
X122595238Y-32690476D01*
X122500000Y-32595238D01*
X122452380Y-32452380D01*
X122452380Y-32357142D01*
X122500000Y-32214285D01*
X122547619Y-32166666D01*
X122452380Y-31309523D02*
X122452380Y-31500000D01*
X122500000Y-31595238D01*
X122547619Y-31642857D01*
X122690476Y-31738095D01*
X122880952Y-31785714D01*
X123261904Y-31785714D01*
X123357142Y-31738095D01*
X123404761Y-31690476D01*
X123452380Y-31595238D01*
X123452380Y-31404761D01*
X123404761Y-31309523D01*
X123357142Y-31261904D01*
X123261904Y-31214285D01*
X123023809Y-31214285D01*
X122928571Y-31261904D01*
X122880952Y-31309523D01*
X122833333Y-31404761D01*
X122833333Y-31595238D01*
X122880952Y-31690476D01*
X122928571Y-31738095D01*
X123023809Y-31785714D01*
X123207142Y-51104166D02*
X123254761Y-51151785D01*
X123302380Y-51294642D01*
X123302380Y-51389880D01*
X123254761Y-51532738D01*
X123159523Y-51627976D01*
X123064285Y-51675595D01*
X122873809Y-51723214D01*
X122730952Y-51723214D01*
X122540476Y-51675595D01*
X122445238Y-51627976D01*
X122350000Y-51532738D01*
X122302380Y-51389880D01*
X122302380Y-51294642D01*
X122350000Y-51151785D01*
X122397619Y-51104166D01*
X122302380Y-50199404D02*
X122302380Y-50675595D01*
X122778571Y-50723214D01*
X122730952Y-50675595D01*
X122683333Y-50580357D01*
X122683333Y-50342261D01*
X122730952Y-50247023D01*
X122778571Y-50199404D01*
X122873809Y-50151785D01*
X123111904Y-50151785D01*
X123207142Y-50199404D01*
X123254761Y-50247023D01*
X123302380Y-50342261D01*
X123302380Y-50580357D01*
X123254761Y-50675595D01*
X123207142Y-50723214D01*
X119083333Y-105607142D02*
X119035714Y-105654761D01*
X118892857Y-105702380D01*
X118797619Y-105702380D01*
X118654761Y-105654761D01*
X118559523Y-105559523D01*
X118511904Y-105464285D01*
X118464285Y-105273809D01*
X118464285Y-105130952D01*
X118511904Y-104940476D01*
X118559523Y-104845238D01*
X118654761Y-104750000D01*
X118797619Y-104702380D01*
X118892857Y-104702380D01*
X119035714Y-104750000D01*
X119083333Y-104797619D01*
X119940476Y-105035714D02*
X119940476Y-105702380D01*
X119702380Y-104654761D02*
X119464285Y-105369047D01*
X120083333Y-105369047D01*
X119083333Y-107857142D02*
X119035714Y-107904761D01*
X118892857Y-107952380D01*
X118797619Y-107952380D01*
X118654761Y-107904761D01*
X118559523Y-107809523D01*
X118511904Y-107714285D01*
X118464285Y-107523809D01*
X118464285Y-107380952D01*
X118511904Y-107190476D01*
X118559523Y-107095238D01*
X118654761Y-107000000D01*
X118797619Y-106952380D01*
X118892857Y-106952380D01*
X119035714Y-107000000D01*
X119083333Y-107047619D01*
X119416666Y-106952380D02*
X120035714Y-106952380D01*
X119702380Y-107333333D01*
X119845238Y-107333333D01*
X119940476Y-107380952D01*
X119988095Y-107428571D01*
X120035714Y-107523809D01*
X120035714Y-107761904D01*
X119988095Y-107857142D01*
X119940476Y-107904761D01*
X119845238Y-107952380D01*
X119559523Y-107952380D01*
X119464285Y-107904761D01*
X119416666Y-107857142D01*
D16*
X128238095Y-87452380D02*
X128238095Y-88261904D01*
X128285714Y-88357142D01*
X128333333Y-88404761D01*
X128428571Y-88452380D01*
X128619047Y-88452380D01*
X128714285Y-88404761D01*
X128761904Y-88357142D01*
X128809523Y-88261904D01*
X128809523Y-87452380D01*
X129809523Y-88452380D02*
X129238095Y-88452380D01*
X129523809Y-88452380D02*
X129523809Y-87452380D01*
X129428571Y-87595238D01*
X129333333Y-87690476D01*
X129238095Y-87738095D01*
X100166666Y-110463460D02*
X100166666Y-111177746D01*
X100119047Y-111320603D01*
X100023809Y-111415841D01*
X99880952Y-111463460D01*
X99785714Y-111463460D01*
X100595238Y-110558699D02*
X100642857Y-110511080D01*
X100738095Y-110463460D01*
X100976190Y-110463460D01*
X101071428Y-110511080D01*
X101119047Y-110558699D01*
X101166666Y-110653937D01*
X101166666Y-110749175D01*
X101119047Y-110892032D01*
X100547619Y-111463460D01*
X101166666Y-111463460D01*
M02*
