M48
; DRILL file {KiCad (5.1.4-0-10_14)} date 2019 November 24, Sunday 21:26:27
; FORMAT={-:-/ absolute / inch / decimal}
; #@! TF.CreationDate,2019-11-24T21:26:27+01:00
; #@! TF.GenerationSoftware,Kicad,Pcbnew,(5.1.4-0-10_14)
FMAT,2
INCH
T1C0.0157
T2C0.0197
T3C0.0315
T4C0.0394
T5C0.0472
T6C0.0512
T7C0.0591
T8C0.0787
T9C0.0984
T10C0.1772
T11C0.0197
T12C0.1260
%
G90
G05
T1
X3.7008Y-3.5138
X3.7402Y-4.0945
X3.8287Y-4.4488
X3.937Y-4.1732
X3.938Y-3.3848
X3.9395Y-4.2495
X3.9961Y-3.622
X4.0846Y-4.4488
X4.1339Y-4.0945
X4.1929Y-3.5138
X4.2323Y-4.4882
X4.252Y-3.8386
X4.5276Y-3.8386
X4.5866Y-3.3268
X4.5866Y-3.4646
X4.626Y-2.1457
X4.626Y-2.3425
X4.685Y-0.9252
X4.685Y-1.1122
X4.685Y-2.1457
X4.685Y-2.3425
X4.685Y-4.1437
X4.685Y-4.2323
X4.685Y-4.4685
X4.7244Y-4.0354
X4.8425Y-2.6772
X4.8583Y-1.4252
X4.9016Y-0.9262
X4.9409Y-1.3386
X4.9409Y-2.5591
X4.9606Y-1.9685
X4.9803Y-0.748
X5.0Y-1.0315
X5.0Y-2.2441
X5.0197Y-2.0472
X5.0394Y-3.1693
X5.0551Y-1.0315
X5.0551Y-1.2913
X5.0591Y-2.2441
X5.0591Y-2.5
X5.0984Y-2.3819
X5.0984Y-2.5591
X5.1673Y-0.935
X5.1969Y-2.0472
T2
X3.8268Y-4.5472
X4.0866Y-4.5472
T3
X4.2913Y-3.937
X4.2913Y-4.0157
X4.2913Y-4.0945
X4.2913Y-4.1732
X4.2913Y-4.252
X4.2913Y-4.3307
X4.2913Y-2.815
X4.2913Y-2.8937
X4.2913Y-2.9724
X4.2913Y-3.0512
X4.2913Y-2.6575
X4.2913Y-2.7362
X4.2913Y-1.437
X4.2913Y-2.2047
X4.2913Y-2.2835
X4.2913Y-2.3622
X4.2913Y-2.4409
X4.2913Y-1.5157
X4.2913Y-1.5945
X4.2913Y-1.6732
X4.2913Y-1.752
X4.2913Y-1.8307
X4.2913Y-2.0472
X4.2913Y-2.126
X4.2913Y-0.8268
X4.2913Y-0.9055
X4.2913Y-0.9843
X4.2913Y-1.063
X4.2913Y-1.1417
X4.2913Y-1.2205
X4.2913Y-3.3268
X4.2913Y-3.4055
X4.2913Y-3.4843
X4.2913Y-3.563
X4.2913Y-3.6417
X4.2913Y-3.7205
T4
X5.0984Y-3.622
X5.0984Y-3.722
X5.0984Y-3.922
X5.0984Y-4.022
X5.0984Y-4.122
T5
X3.5728Y-3.4744
X3.7008Y-3.6319
X3.75Y-3.3169
T6
X3.8061Y-1.0335
X3.8061Y-1.3287
X3.8061Y-1.5846
X3.8061Y-1.8799
X3.8061Y-2.1358
X3.8061Y-2.4311
X3.8061Y-2.687
X3.8061Y-2.9823
T7
X3.5207Y-1.3287
X3.5207Y-1.8799
X3.5207Y-2.4311
X3.5207Y-2.9823
T10
X3.6585Y-2.0079
T11
X3.8268Y-4.5472
X4.0866Y-4.5472
T12
X5.128Y-0.7776
X3.376Y-4.498
X3.376Y-0.7776
X5.128Y-4.498
T3
G00X3.4252Y-4.0807
M15
G01X3.4252Y-4.1083
M16
G05
G00X3.6083Y-3.8976
M15
G01X3.6358Y-3.8976
M16
G05
G00X3.6083Y-4.2913
M15
G01X3.6358Y-4.2913
M16
G05
T7
G00X4.7047Y-2.6181
M15
G01X4.7441Y-2.6181
M16
G05
G00X4.7047Y-3.0906
M15
G01X4.7441Y-3.0906
M16
G05
G00X4.7047Y-2.0079
M15
G01X4.7441Y-2.0079
M16
G05
G00X4.7047Y-1.2598
M15
G01X4.7441Y-1.2598
M16
G05
G00X4.7047Y-2.4803
M15
G01X4.7441Y-2.4803
M16
G05
G00X4.7047Y-0.7874
M15
G01X4.7441Y-0.7874
M16
G05
G00X4.7047Y-3.2874
M15
G01X4.7441Y-3.2874
M16
G05
G00X4.7047Y-3.7598
M15
G01X4.7441Y-3.7598
M16
G05
G00X4.7047Y-3.8976
M15
G01X4.7441Y-3.8976
M16
G05
G00X4.7047Y-4.3701
M15
G01X4.7441Y-4.3701
M16
G05
G00X4.7047Y-1.3976
M15
G01X4.7441Y-1.3976
M16
G05
G00X4.7047Y-1.8701
M15
G01X4.7441Y-1.8701
M16
G05
T8
G00X3.5689Y-3.189
M15
G01X3.6161Y-3.189
M16
G05
G00X3.5689Y-3.7598
M15
G01X3.6161Y-3.7598
M16
G05
T9
G00X3.6388Y-0.939
M15
G01X3.6781Y-0.939
M16
G05
G00X3.6388Y-3.0768
M15
G01X3.6781Y-3.0768
M16
G05
T0
M30
